<?xml version="1.0" encoding="UTF-8"?>
<svg xmlns="http://www.w3.org/2000/svg" xmlns:xlink="http://www.w3.org/1999/xlink"
     width="1000" height="220" viewBox="0 0 1000 220">
<defs>
</defs>
<rect x="20.0" y="31.65371693704246" width="22.857142857142858" height="156.69256612591508" fill="#e1e1e1" stroke="#7f7f7f" stroke-dasharray="8.0 6.4" />
<text x="35.268571428571434" y="110.0" font-size="12.8" transform="rotate(-90, 35.268571428571434, 110.0)" fill="#5b9bd5" text-anchor="middle" font-family="arial">input</text>
<text x="31.42857142857143" y="197.94628306295752" font-size="9.6" fill="#6868b6" text-anchor="middle" font-family="arial">3x224x224</text>
<rect x="105.1948051948052" y="30.0" width="22.857142857142858" height="160.0" fill="#e1e1e1" stroke="#7f7f7f" rx="4" ry="4" />
<rect x="111.02337662337663" y="34.36363636363636" width="11.2" height="11.2" fill="#5b9bd5" stroke="#41719c" />
<rect x="111.02337662337663" y="49.92727272727272" width="11.2" height="11.2" fill="#5b9bd5" stroke="#41719c" />
<rect x="111.02337662337663" y="65.49090909090908" width="11.2" height="11.2" fill="#5b9bd5" stroke="#41719c" />
<rect x="111.02337662337663" y="81.05454545454545" width="11.2" height="11.2" fill="#5b9bd5" stroke="#41719c" />
<rect x="111.02337662337663" y="96.61818181818181" width="11.2" height="11.2" fill="#5b9bd5" stroke="#41719c" />
<rect x="111.02337662337663" y="112.18181818181817" width="11.2" height="11.2" fill="#5b9bd5" stroke="#41719c" />
<rect x="111.02337662337663" y="127.74545454545454" width="11.2" height="11.2" fill="#5b9bd5" stroke="#41719c" />
<rect x="111.02337662337663" y="143.3090909090909" width="11.2" height="11.2" fill="#5b9bd5" stroke="#41719c" />
<rect x="111.02337662337663" y="158.87272727272727" width="11.2" height="11.2" fill="#5b9bd5" stroke="#41719c" />
<rect x="111.02337662337663" y="174.43636363636364" width="11.2" height="11.2" fill="#5b9bd5" stroke="#41719c" />
<text x="116.62337662337663" y="25.8" font-size="9.6" fill="#6868b6" text-anchor="middle" font-family="arial">C1[11x11@4]</text>
<text x="116.62337662337663" y="199.6" font-size="9.6" fill="#6868b6" text-anchor="middle" font-family="arial">64x55x55</text>
<path d="M45.97402597402597,104.28571428571429L91.79220779220779,104.28571428571429L91.79220779220779,99.71428571428572L102.07792207792207,110.0L91.79220779220779,120.28571428571429L91.79220779220779,115.71428571428572L45.97402597402596,115.71428571428572Z" fill="#ddd" stroke="none" />
<rect x="190.3896103896104" y="39.35137377215297" width="22.857142857142858" height="141.29725245569406" fill="#e1e1e1" stroke="#7f7f7f" />
<text x="205.65818181818182" y="110.0" font-size="12.8" transform="rotate(-90, 205.65818181818182, 110.0)" fill="#5b9bd5" font-family="arial" text-anchor="middle">max</text>
<text x="201.8181818181818" y="35.151373772152965" font-size="9.6" fill="#6868b6" text-anchor="middle" font-family="arial">P2[3x3@2]</text>
<text x="201.8181818181818" y="190.24862622784704" font-size="9.6" fill="#6868b6" text-anchor="middle" font-family="arial">64x27x27</text>
<path d="M131.16883116883116,104.28571428571429L176.987012987013,104.28571428571429L176.987012987013,99.71428571428572L187.27272727272728,110.0L176.987012987013,120.28571428571429L176.987012987013,115.71428571428572L131.16883116883116,115.71428571428572Z" fill="#ddd" stroke="none" />
<circle cx="159.2207792207792" cy="110.0" r="11.428571428571429" fill="#fff" stroke="#818181" />
<path d="M151.2207792207792,110.0H159.2207792207792L164.87763347027158,104.34314575050762" stroke="#000" strokewidth="1" fill="none" />
<rect x="275.5844155844156" y="32.13170596476287" width="22.857142857142858" height="155.73658807047426" fill="#e1e1e1" stroke="#7f7f7f" rx="4" ry="4" />
<rect x="281.412987012987" y="37.6253647718103" width="11.2" height="11.2" fill="#5b9bd5" stroke="#41719c" />
<rect x="281.412987012987" y="54.319023578857724" width="11.2" height="11.2" fill="#5b9bd5" stroke="#41719c" />
<rect x="281.412987012987" y="71.01268238590515" width="11.2" height="11.2" fill="#5b9bd5" stroke="#41719c" />
<rect x="281.412987012987" y="87.70634119295258" width="11.2" height="11.2" fill="#5b9bd5" stroke="#41719c" />
<rect x="281.412987012987" y="104.4" width="11.2" height="11.2" fill="#5b9bd5" stroke="#41719c" />
<rect x="281.412987012987" y="121.09365880704743" width="11.2" height="11.2" fill="#5b9bd5" stroke="#41719c" />
<rect x="281.412987012987" y="137.78731761409486" width="11.2" height="11.2" fill="#5b9bd5" stroke="#41719c" />
<rect x="281.412987012987" y="154.4809764211423" width="11.2" height="11.2" fill="#5b9bd5" stroke="#41719c" />
<rect x="281.412987012987" y="171.17463522818971" width="11.2" height="11.2" fill="#5b9bd5" stroke="#41719c" />
<text x="287.012987012987" y="27.931705964762873" font-size="9.6" fill="#6868b6" text-anchor="middle" font-family="arial">C3[5x5]</text>
<text x="287.012987012987" y="197.4682940352371" font-size="9.6" fill="#6868b6" text-anchor="middle" font-family="arial">192x27x27</text>
<path d="M216.36363636363635,104.28571428571429L262.1818181818182,104.28571428571429L262.1818181818182,99.71428571428572L272.46753246753246,110.0L262.1818181818182,120.28571428571429L262.1818181818182,115.71428571428572L216.36363636363635,115.71428571428572Z" fill="#ddd" stroke="none" />
<rect x="360.7792207792208" y="41.737942979728686" width="22.857142857142858" height="136.52411404054263" fill="#e1e1e1" stroke="#7f7f7f" />
<text x="376.0477922077922" y="110.0" font-size="12.8" transform="rotate(-90, 376.0477922077922, 110.0)" fill="#5b9bd5" font-family="arial" text-anchor="middle">max</text>
<text x="372.20779220779224" y="37.53794297972868" font-size="9.6" fill="#6868b6" text-anchor="middle" font-family="arial">P4[3x3@2]</text>
<text x="372.20779220779224" y="187.8620570202713" font-size="9.6" fill="#6868b6" text-anchor="middle" font-family="arial">192x13x13</text>
<path d="M301.5584415584416,104.28571428571429L347.3766233766234,104.28571428571429L347.3766233766234,99.71428571428572L357.6623376623377,110.0L347.3766233766234,120.28571428571429L347.3766233766234,115.71428571428572L301.5584415584416,115.71428571428572Z" fill="#ddd" stroke="none" />
<circle cx="329.61038961038963" cy="110.0" r="11.428571428571429" fill="#fff" stroke="#818181" />
<path d="M321.61038961038963,110.0H329.61038961038963L335.267243859882,104.34314575050762" stroke="#000" strokewidth="1" fill="none" />
<rect x="445.974025974026" y="37.18283974914428" width="22.857142857142858" height="145.63432050171144" fill="#e1e1e1" stroke="#7f7f7f" rx="4" ry="4" />
<rect x="451.8025974025974" y="41.666271799315425" width="11.2" height="11.2" fill="#5b9bd5" stroke="#41719c" />
<rect x="451.8025974025974" y="57.349703849486566" width="11.2" height="11.2" fill="#5b9bd5" stroke="#41719c" />
<rect x="451.8025974025974" y="73.03313589965771" width="11.2" height="11.2" fill="#5b9bd5" stroke="#41719c" />
<rect x="451.8025974025974" y="88.71656794982886" width="11.2" height="11.2" fill="#5b9bd5" stroke="#41719c" />
<rect x="451.8025974025974" y="104.4" width="11.2" height="11.2" fill="#5b9bd5" stroke="#41719c" />
<rect x="451.8025974025974" y="120.08343205017115" width="11.2" height="11.2" fill="#5b9bd5" stroke="#41719c" />
<rect x="451.8025974025974" y="135.7668641003423" width="11.2" height="11.2" fill="#5b9bd5" stroke="#41719c" />
<rect x="451.8025974025974" y="151.45029615051345" width="11.2" height="11.2" fill="#5b9bd5" stroke="#41719c" />
<rect x="451.8025974025974" y="167.1337282006846" width="11.2" height="11.2" fill="#5b9bd5" stroke="#41719c" />
<text x="457.40259740259745" y="32.982839749144276" font-size="9.6" fill="#6868b6" text-anchor="middle" font-family="arial">C5[3x3]</text>
<text x="457.40259740259745" y="192.41716025085572" font-size="9.6" fill="#6868b6" text-anchor="middle" font-family="arial">384x13x13</text>
<path d="M386.7532467532468,104.28571428571429L432.5714285714286,104.28571428571429L432.5714285714286,99.71428571428572L442.8571428571429,110.0L432.5714285714286,120.28571428571429L432.5714285714286,115.71428571428572L386.7532467532468,115.71428571428572Z" fill="#ddd" stroke="none" />
<rect x="531.1688311688312" y="39.84740432594995" width="22.857142857142858" height="140.3051913481001" fill="#e1e1e1" stroke="#7f7f7f" rx="4" ry="4" />
<rect x="536.9974025974026" y="45.481314475738856" width="11.2" height="11.2" fill="#5b9bd5" stroke="#41719c" />
<rect x="536.9974025974026" y="62.315224625527755" width="11.2" height="11.2" fill="#5b9bd5" stroke="#41719c" />
<rect x="536.9974025974026" y="79.14913477531665" width="11.2" height="11.2" fill="#5b9bd5" stroke="#41719c" />
<rect x="536.9974025974026" y="95.98304492510556" width="11.2" height="11.2" fill="#5b9bd5" stroke="#41719c" />
<rect x="536.9974025974026" y="112.81695507489445" width="11.2" height="11.2" fill="#5b9bd5" stroke="#41719c" />
<rect x="536.9974025974026" y="129.65086522468334" width="11.2" height="11.2" fill="#5b9bd5" stroke="#41719c" />
<rect x="536.9974025974026" y="146.48477537447224" width="11.2" height="11.2" fill="#5b9bd5" stroke="#41719c" />
<rect x="536.9974025974026" y="163.31868552426113" width="11.2" height="11.2" fill="#5b9bd5" stroke="#41719c" />
<text x="542.5974025974026" y="35.64740432594995" font-size="9.6" fill="#6868b6" text-anchor="middle" font-family="arial">C6[3x3]</text>
<text x="542.5974025974026" y="189.75259567405004" font-size="9.6" fill="#6868b6" text-anchor="middle" font-family="arial">256x13x13</text>
<path d="M471.94805194805195,104.28571428571429L517.7662337662338,104.28571428571429L517.7662337662338,99.71428571428572L528.0519480519481,110.0L517.7662337662338,120.28571428571429L517.7662337662338,115.71428571428572L471.94805194805195,115.71428571428572Z" fill="#ddd" stroke="none" />
<circle cx="500.0" cy="110.0" r="11.428571428571429" fill="#fff" stroke="#818181" />
<path d="M492.0,110.0H500.0L505.65685424949237,104.34314575050762" stroke="#000" strokewidth="1" fill="none" />
<rect x="616.3636363636364" y="39.84740432594995" width="22.857142857142858" height="140.3051913481001" fill="#e1e1e1" stroke="#7f7f7f" rx="4" ry="4" />
<rect x="622.1922077922078" y="45.481314475738856" width="11.2" height="11.2" fill="#5b9bd5" stroke="#41719c" />
<rect x="622.1922077922078" y="62.315224625527755" width="11.2" height="11.2" fill="#5b9bd5" stroke="#41719c" />
<rect x="622.1922077922078" y="79.14913477531665" width="11.2" height="11.2" fill="#5b9bd5" stroke="#41719c" />
<rect x="622.1922077922078" y="95.98304492510556" width="11.2" height="11.2" fill="#5b9bd5" stroke="#41719c" />
<rect x="622.1922077922078" y="112.81695507489445" width="11.2" height="11.2" fill="#5b9bd5" stroke="#41719c" />
<rect x="622.1922077922078" y="129.65086522468334" width="11.2" height="11.2" fill="#5b9bd5" stroke="#41719c" />
<rect x="622.1922077922078" y="146.48477537447224" width="11.2" height="11.2" fill="#5b9bd5" stroke="#41719c" />
<rect x="622.1922077922078" y="163.31868552426113" width="11.2" height="11.2" fill="#5b9bd5" stroke="#41719c" />
<text x="627.7922077922078" y="35.64740432594995" font-size="9.6" fill="#6868b6" text-anchor="middle" font-family="arial">C7[3x3]</text>
<text x="627.7922077922078" y="189.75259567405004" font-size="9.6" fill="#6868b6" text-anchor="middle" font-family="arial">256x13x13</text>
<path d="M557.1428571428571,104.28571428571429L602.9610389610389,104.28571428571429L602.9610389610389,99.71428571428572L613.2467532467533,110.0L602.9610389610389,120.28571428571429L602.9610389610389,115.71428571428572L557.1428571428571,115.71428571428572Z" fill="#ddd" stroke="none" />
<circle cx="585.1948051948052" cy="110.0" r="11.428571428571429" fill="#fff" stroke="#818181" />
<path d="M577.1948051948052,110.0H585.1948051948052L590.8516594442976,104.34314575050762" stroke="#000" strokewidth="1" fill="none" />
<rect x="701.5584415584416" y="50.00963207937568" width="22.857142857142858" height="119.98073584124865" fill="#e1e1e1" stroke="#7f7f7f" />
<text x="716.8270129870131" y="110.0" font-size="12.8" transform="rotate(-90, 716.8270129870131, 110.0)" fill="#5b9bd5" font-family="arial" text-anchor="middle">max</text>
<text x="712.987012987013" y="45.809632079375675" font-size="9.6" fill="#6868b6" text-anchor="middle" font-family="arial">P8[3x3@2]</text>
<text x="712.987012987013" y="179.59036792062432" font-size="9.6" fill="#6868b6" text-anchor="middle" font-family="arial">256x6x6</text>
<path d="M642.3376623376623,104.28571428571429L688.1558441558441,104.28571428571429L688.1558441558441,99.71428571428572L698.4415584415585,110.0L688.1558441558441,120.28571428571429L688.1558441558441,115.71428571428572L642.3376623376623,115.71428571428572Z" fill="#ddd" stroke="none" />
<circle cx="670.3896103896104" cy="110.0" r="11.428571428571429" fill="#fff" stroke="#818181" />
<path d="M662.3896103896104,110.0H670.3896103896104L676.0464646391029,104.34314575050762" stroke="#000" strokewidth="1" fill="none" />
<rect x="786.7532467532468" y="55.33876123298703" width="22.857142857142858" height="109.32247753402594" fill="#e1e1e1" stroke="#7f7f7f" rx="4" ry="4" />
<circle cx="798.1818181818182" cy="66.95625802356217" r="5.6" fill="#5b9bd5" stroke="#41719c" />
<circle cx="798.1818181818182" cy="84.17375481413731" r="5.6" fill="#5b9bd5" stroke="#41719c" />
<circle cx="798.1818181818182" cy="101.39125160471244" r="5.6" fill="#5b9bd5" stroke="#41719c" />
<circle cx="798.1818181818182" cy="118.60874839528756" r="5.6" fill="#5b9bd5" stroke="#41719c" />
<circle cx="798.1818181818182" cy="135.8262451858627" r="5.6" fill="#5b9bd5" stroke="#41719c" />
<circle cx="798.1818181818182" cy="153.04374197643781" r="5.6" fill="#5b9bd5" stroke="#41719c" />
<text x="798.1818181818182" y="51.13876123298704" font-size="9.6" fill="#6868b6" text-anchor="middle" font-family="arial">F9[4096]</text>
<text x="798.1818181818182" y="174.26123876701297" font-size="9.6" fill="#6868b6" text-anchor="middle" font-family="arial">4096</text>
<path d="M727.5324675324675,104.28571428571429L773.3506493506493,104.28571428571429L773.3506493506493,99.71428571428572L783.6363636363637,110.0L773.3506493506493,120.28571428571429L773.3506493506493,115.71428571428572L727.5324675324675,115.71428571428572Z" fill="#ddd" stroke="none" />
<circle cx="755.5844155844156" cy="110.0" r="11.428571428571429" fill="#fff" stroke="#818181" stroke-dasharray="5.714285714285714 4.571428571428572" />
<rect x="871.948051948052" y="55.33876123298703" width="22.857142857142858" height="109.32247753402594" fill="#e1e1e1" stroke="#7f7f7f" rx="4" ry="4" />
<circle cx="883.3766233766235" cy="66.95625802356217" r="5.6" fill="#5b9bd5" stroke="#41719c" />
<circle cx="883.3766233766235" cy="84.17375481413731" r="5.6" fill="#5b9bd5" stroke="#41719c" />
<circle cx="883.3766233766235" cy="101.39125160471244" r="5.6" fill="#5b9bd5" stroke="#41719c" />
<circle cx="883.3766233766235" cy="118.60874839528756" r="5.6" fill="#5b9bd5" stroke="#41719c" />
<circle cx="883.3766233766235" cy="135.8262451858627" r="5.6" fill="#5b9bd5" stroke="#41719c" />
<circle cx="883.3766233766235" cy="153.04374197643781" r="5.6" fill="#5b9bd5" stroke="#41719c" />
<text x="883.3766233766235" y="51.13876123298704" font-size="9.6" fill="#6868b6" text-anchor="middle" font-family="arial">F10[4096]</text>
<text x="883.3766233766235" y="174.26123876701297" font-size="9.6" fill="#6868b6" text-anchor="middle" font-family="arial">4096</text>
<path d="M812.7272727272727,104.28571428571429L858.5454545454545,104.28571428571429L858.5454545454545,99.71428571428572L868.831168831169,110.0L858.5454545454545,120.28571428571429L858.5454545454545,115.71428571428572L812.7272727272727,115.71428571428572Z" fill="#ddd" stroke="none" />
<circle cx="840.7792207792209" cy="110.0" r="11.428571428571429" fill="#fff" stroke="#818181" stroke-dasharray="5.714285714285714 4.571428571428572" />
<path d="M832.7792207792209,110.0H840.7792207792209L846.4360750287133,104.34314575050762" stroke="#000" strokewidth="1" fill="none" />
<rect x="957.1428571428572" y="64.60482380962834" width="22.857142857142858" height="90.79035238074331" fill="#e1e1e1" stroke="#7f7f7f" rx="4" ry="4" />
<circle cx="968.5714285714287" cy="76.00321587308555" r="5.6" fill="#5b9bd5" stroke="#41719c" />
<circle cx="968.5714285714287" cy="93.00160793654277" r="5.6" fill="#5b9bd5" stroke="#41719c" />
<circle cx="968.5714285714287" cy="109.99999999999999" r="5.6" fill="#5b9bd5" stroke="#41719c" />
<circle cx="968.5714285714287" cy="126.9983920634572" r="5.6" fill="#5b9bd5" stroke="#41719c" />
<circle cx="968.5714285714287" cy="143.9967841269144" r="5.6" fill="#5b9bd5" stroke="#41719c" />
<text x="968.5714285714287" y="60.40482380962834" font-size="9.6" fill="#6868b6" text-anchor="middle" font-family="arial">F11[1000]</text>
<text x="968.5714285714287" y="164.99517619037167" font-size="9.6" fill="#6868b6" text-anchor="middle" font-family="arial">1000</text>
<path d="M897.922077922078,104.28571428571429L943.7402597402597,104.28571428571429L943.7402597402597,99.71428571428572L954.0259740259742,110.0L943.7402597402597,120.28571428571429L943.7402597402597,115.71428571428572L897.922077922078,115.71428571428572Z" fill="#ddd" stroke="none" />
<circle cx="925.9740259740261" cy="110.0" r="11.428571428571429" fill="#fff" stroke="#818181" />
<path d="M917.9740259740261,110.0H925.9740259740261L931.6308802235185,104.34314575050762" stroke="#000" strokewidth="1" fill="none" />
</svg>