<svg width="800" height="371" viewBox="0 0 3453 1600" xmlns="http://www.w3.org/2000/svg" xmlns:xlink="http://www.w3.org/1999/xlink" xml:space="preserve" overflow="hidden"><g transform="translate(-450 -657)"><rect x="464.5" y="828.5" width="181" height="181" stroke="#000000" stroke-width="6.875" stroke-miterlimit="8"/><text fill="#FFFFFF" font-family="Aptos,Aptos_MSFontService,sans-serif" font-weight="400" font-size="83" transform="matrix(1 0 0 1 529.97 945)">A</text><rect x="645.5" y="828.5" width="182" height="181" stroke="#000000" stroke-width="6.875" stroke-miterlimit="8" fill="#747474"/><text fill="#FFFFFF" font-family="Aptos,Aptos_MSFontService,sans-serif" font-weight="400" font-size="83" transform="matrix(1 0 0 1 711.009 945)">B</text><rect x="827.5" y="828.5" width="181" height="181" stroke="#000000" stroke-width="6.875" stroke-miterlimit="8" fill="#FFFFFF"/><text font-family="Aptos,Aptos_MSFontService,sans-serif" font-weight="400" font-size="83" transform="matrix(1 0 0 1 888.898 945)">C</text><rect x="464.5" y="1010.5" width="181" height="181" stroke="#000000" stroke-width="6.875" stroke-miterlimit="8"/><text fill="#FFFFFF" font-family="Aptos,Aptos_MSFontService,sans-serif" font-weight="400" font-size="83" transform="matrix(1 0 0 1 525.959 1127)">D</text><rect x="645.5" y="1010.5" width="182" height="181" stroke="#042433" stroke-width="6.875" stroke-miterlimit="8" fill="#747474"/><text fill="#FFFFFF" font-family="Aptos,Aptos_MSFontService,sans-serif" font-weight="400" font-size="83" transform="matrix(1 0 0 1 713.015 1127)">E</text><rect x="827.5" y="1010.5" width="181" height="181" stroke="#000000" stroke-width="6.875" stroke-miterlimit="8" fill="#FFFFFF"/><text font-family="Aptos,Aptos_MSFontService,sans-serif" font-weight="400" font-size="83" transform="matrix(1 0 0 1 895.773 1127)">F</text><rect x="464.5" y="1189.5" width="181" height="181" stroke="#000000" stroke-width="6.875" stroke-miterlimit="8"/><text fill="#FFFFFF" font-family="Aptos,Aptos_MSFontService,sans-serif" font-weight="400" font-size="83" transform="matrix(1 0 0 1 525.1 1306)">G</text><rect x="645.5" y="1189.5" width="182" height="181" stroke="#000000" stroke-width="6.875" stroke-miterlimit="8" fill="#747474"/><text fill="#FFFFFF" font-family="Aptos,Aptos_MSFontService,sans-serif" font-weight="400" font-size="83" transform="matrix(1 0 0 1 706.712 1306)">H</text><rect x="827.5" y="1189.5" width="181" height="181" stroke="#000000" stroke-width="6.875" stroke-miterlimit="8" fill="#FFFFFF"/><text font-family="Aptos,Aptos_MSFontService,sans-serif" font-weight="400" font-size="83" transform="matrix(1 0 0 1 906.945 1306)">I</text><rect x="1329.5" y="1334.5" width="182" height="181" stroke="#000000" stroke-width="6.875" stroke-miterlimit="8"/><text fill="#FFFFFF" font-family="Aptos,Aptos_MSFontService,sans-serif" font-weight="400" font-size="83" transform="matrix(1 0 0 1 1395.49 1451)">A</text><rect x="1511.5" y="1334.5" width="181" height="181" stroke="#000000" stroke-width="6.875" stroke-miterlimit="8" fill="#747474"/><text fill="#FFFFFF" font-family="Aptos,Aptos_MSFontService,sans-serif" font-weight="400" font-size="83" transform="matrix(1 0 0 1 1576.53 1451)">B</text><rect x="1692.5" y="1334.5" width="182" height="181" stroke="#000000" stroke-width="6.875" stroke-miterlimit="8" fill="#FFFFFF"/><text font-family="Aptos,Aptos_MSFontService,sans-serif" font-weight="400" font-size="83" transform="matrix(1 0 0 1 1754.42 1451)">C</text><rect x="1874.5" y="1334.5" width="181" height="181" stroke="#000000" stroke-width="6.875" stroke-miterlimit="8"/><text fill="#FFFFFF" font-family="Aptos,Aptos_MSFontService,sans-serif" font-weight="400" font-size="83" transform="matrix(1 0 0 1 1936.32 1451)">D</text><rect x="2055.5" y="1334.5" width="182" height="181" stroke="#042433" stroke-width="6.875" stroke-miterlimit="8" fill="#747474"/><text fill="#FFFFFF" font-family="Aptos,Aptos_MSFontService,sans-serif" font-weight="400" font-size="83" transform="matrix(1 0 0 1 2123.37 1451)">E</text><rect x="2237.5" y="1334.5" width="182" height="181" stroke="#000000" stroke-width="6.875" stroke-miterlimit="8" fill="#FFFFFF"/><text font-family="Aptos,Aptos_MSFontService,sans-serif" font-weight="400" font-size="83" transform="matrix(1 0 0 1 2306.13 1451)">F</text><rect x="2419.5" y="1334.5" width="181" height="181" stroke="#000000" stroke-width="6.875" stroke-miterlimit="8"/><text fill="#FFFFFF" font-family="Aptos,Aptos_MSFontService,sans-serif" font-weight="400" font-size="83" transform="matrix(1 0 0 1 2480.3 1451)">G</text><rect x="2600.5" y="1334.5" width="182" height="181" stroke="#000000" stroke-width="6.875" stroke-miterlimit="8" fill="#747474"/><text fill="#FFFFFF" font-family="Aptos,Aptos_MSFontService,sans-serif" font-weight="400" font-size="83" transform="matrix(1 0 0 1 2661.91 1451)">H</text><rect x="2782.5" y="1334.5" width="182" height="181" stroke="#000000" stroke-width="6.875" stroke-miterlimit="8" fill="#FFFFFF"/><text font-family="Aptos,Aptos_MSFontService,sans-serif" font-weight="400" font-size="83" transform="matrix(1 0 0 1 2862.14 1451)">I</text><rect x="1329.5" y="1516.5" width="182" height="182" stroke="#000000" stroke-width="6.875" stroke-miterlimit="8"/><text fill="#FFFFFF" font-family="Aptos,Aptos_MSFontService,sans-serif" font-weight="400" font-size="83" transform="matrix(1 0 0 1 1406.09 1633)">J</text><rect x="1511.5" y="1516.5" width="181" height="182" stroke="#000000" stroke-width="6.875" stroke-miterlimit="8"/><text fill="#FFFFFF" font-family="Aptos,Aptos_MSFontService,sans-serif" font-weight="400" font-size="83" transform="matrix(1 0 0 1 1577.96 1633)">K</text><rect x="1692.5" y="1516.5" width="182" height="182" stroke="#000000" stroke-width="6.875" stroke-miterlimit="8"/><text fill="#FFFFFF" font-family="Aptos,Aptos_MSFontService,sans-serif" font-weight="400" font-size="83" transform="matrix(1 0 0 1 1762.44 1633)">L</text><rect x="1874.5" y="1516.5" width="181" height="182" stroke="#000000" stroke-width="6.875" stroke-miterlimit="8" fill="#FFFFFF"/><text font-family="Aptos,Aptos_MSFontService,sans-serif" font-weight="400" font-size="83" transform="matrix(1 0 0 1 1932.02 1633)">M</text><rect x="2055.5" y="1516.5" width="182" height="182" stroke="#000000" stroke-width="6.875" stroke-miterlimit="8" fill="#FFFFFF"/><text font-family="Aptos,Aptos_MSFontService,sans-serif" font-weight="400" font-size="83" transform="matrix(1 0 0 1 2117.07 1633)">N</text><rect x="2237.5" y="1516.5" width="182" height="182" stroke="#000000" stroke-width="6.875" stroke-miterlimit="8" fill="#FFFFFF"/><text font-family="Aptos,Aptos_MSFontService,sans-serif" font-weight="400" font-size="83" transform="matrix(1 0 0 1 2297.83 1633)">O</text><rect x="2419.5" y="1516.5" width="181" height="182" stroke="#000000" stroke-width="6.875" stroke-miterlimit="8"/><text fill="#FFFFFF" font-family="Aptos,Aptos_MSFontService,sans-serif" font-weight="400" font-size="83" transform="matrix(1 0 0 1 2485.74 1633)">P</text><rect x="2600.5" y="1516.5" width="182" height="182" stroke="#000000" stroke-width="6.875" stroke-miterlimit="8"/><text fill="#FFFFFF" font-family="Aptos,Aptos_MSFontService,sans-serif" font-weight="400" font-size="83" transform="matrix(1 0 0 1 2661.05 1633)">Q</text><rect x="2782.5" y="1516.5" width="182" height="182" stroke="#000000" stroke-width="6.875" stroke-miterlimit="8"/><text fill="#FFFFFF" font-family="Aptos,Aptos_MSFontService,sans-serif" font-weight="400" font-size="83" transform="matrix(1 0 0 1 2847.82 1633)">R</text><path d="M741.235 698.195C744.816 698.195 748.182 698.517 751.333 699.162L748.916 709.904 741.987 709.904C741.844 707.684 741.486 706.108 740.913 705.177 740.34 704.246 739.445 703.781 738.227 703.781 736.795 703.781 735.631 704.282 734.736 705.285 733.841 706.287 733.089 707.648 732.48 709.367 731.871 711.085 731.263 713.341 730.654 716.134L729.311 722.042 740.805 722.042 739.355 728.756 727.807 728.756 718.086 773.659C716.188 782.36 713.126 788.814 708.901 793.021 704.676 797.229 699.394 799.332 693.056 799.332 691.517 799.332 690.281 799.243 689.35 799.064L690.639 793.048C691.355 793.156 692 793.209 692.573 793.209 694.614 793.209 696.306 792.081 697.649 789.826 698.991 787.57 700.182 784.186 701.22 779.674L712.715 728.756 704.604 728.756 705.571 724.406C708.042 724.37 709.787 724.191 710.808 723.869 711.828 723.546 712.67 722.956 713.332 722.096 713.995 721.237 714.63 719.643 715.239 717.316 716.134 713.914 717.262 711.094 718.623 708.856 719.983 706.618 721.756 704.667 723.94 703.002 726.124 701.337 728.676 700.119 731.594 699.35 734.512 698.58 737.726 698.195 741.235 698.195Z" fill-rule="evenodd"/><text fill="#000000" fill-opacity="0" font-family="Arial,Arial_MSFontService,sans-serif" font-size="101.138" x="689.35" y="786.69">𝒇</text><path d="M775.937 748.212C774.088 748.212 772.63 749.025 771.562 750.653 770.495 752.281 769.726 754.703 769.258 757.919 768.789 761.135 768.554 765.321 768.554 770.477 768.554 776.206 768.808 780.764 769.316 784.149 769.824 787.535 770.625 790.028 771.718 791.63 772.812 793.231 774.271 794.032 776.093 794.032 777.083 794.032 777.949 793.791 778.691 793.309 779.433 792.828 780.097 792.072 780.683 791.044 781.269 790.015 781.771 788.648 782.187 786.942 782.604 785.236 782.903 783.114 783.086 780.575 783.268 778.036 783.359 775.204 783.359 772.079 783.359 767.417 783.183 763.498 782.832 760.321 782.48 757.144 781.979 754.696 781.328 752.977 780.677 751.259 779.909 750.035 779.023 749.305 778.138 748.576 777.109 748.212 775.937 748.212ZM776.172 743.837C782.578 743.837 787.356 746.018 790.508 750.38 793.659 754.742 795.234 761.415 795.234 770.399 795.234 779.618 793.561 786.591 790.215 791.317 786.868 796.044 781.953 798.407 775.468 798.407 769.062 798.407 764.329 796.187 761.269 791.747 758.209 787.307 756.679 780.594 756.679 771.61 756.679 762.6 758.385 755.718 761.797 750.966 765.208 746.213 770 743.837 776.172 743.837Z" fill-rule="evenodd"/><text fill="#000000" fill-opacity="0" font-family="Arial,Arial_MSFontService,sans-serif" font-size="54.5703" x="756.679" y="791.586">𝟎</text><path d="M2116.36 1171.77 2168.3 1171.77 2168.3 1188.85 2160.94 1188.85C2159.76 1185.45 2158.76 1183.15 2157.94 1181.95 2157.11 1180.75 2156.13 1179.8 2154.98 1179.1 2153.84 1178.4 2151.88 1178.05 2149.13 1178.05L2138.76 1178.05 2138.76 1205.39 2145.64 1205.39C2147.32 1205.39 2148.62 1205.13 2149.53 1204.61 2150.44 1204.09 2151.2 1203.22 2151.79 1202.01 2152.38 1200.79 2152.87 1199.07 2153.26 1196.85L2159.33 1196.85 2159.33 1220.27 2153.26 1220.27C2152.83 1218.01 2152.31 1216.27 2151.71 1215.03 2151.1 1213.8 2150.35 1212.93 2149.45 1212.43 2148.55 1211.93 2147.28 1211.67 2145.64 1211.67L2138.76 1211.67 2138.76 1231.6C2138.76 1234.39 2138.9 1236.34 2139.19 1237.43 2139.48 1238.52 2140.04 1239.4 2140.88 1240.06 2141.72 1240.72 2143.18 1241.22 2145.26 1241.54L2145.26 1245.08 2116.36 1245.08 2116.36 1241.54C2118.26 1241.07 2119.56 1240.51 2120.26 1239.85 2120.96 1239.18 2121.44 1238.32 2121.71 1237.27 2121.98 1236.21 2122.11 1234.31 2122.11 1231.55L2122.11 1185.3C2122.11 1182.58 2121.99 1180.69 2121.76 1179.64 2121.53 1178.58 2121.05 1177.73 2120.34 1177.09 2119.62 1176.44 2118.3 1175.85 2116.36 1175.31Z" fill-rule="evenodd"/><text fill="#000000" fill-opacity="0" font-family="Arial,Arial_MSFontService,sans-serif" font-size="73.3154" x="2116.36" y="1235.92">𝐅</text><rect x="464.5" y="1705.5" width="181" height="182" stroke="#000000" stroke-width="6.875" stroke-miterlimit="8"/><text fill="#FFFFFF" font-family="Aptos,Aptos_MSFontService,sans-serif" font-weight="400" font-size="83" transform="matrix(1 0 0 1 540.569 1823)">J</text><rect x="645.5" y="1705.5" width="182" height="182" stroke="#000000" stroke-width="6.875" stroke-miterlimit="8"/><text fill="#FFFFFF" font-family="Aptos,Aptos_MSFontService,sans-serif" font-weight="400" font-size="83" transform="matrix(1 0 0 1 712.441 1823)">K</text><rect x="827.5" y="1705.5" width="181" height="182" stroke="#000000" stroke-width="6.875" stroke-miterlimit="8"/><text fill="#FFFFFF" font-family="Aptos,Aptos_MSFontService,sans-serif" font-weight="400" font-size="83" transform="matrix(1 0 0 1 896.919 1823)">L</text><rect x="464.5" y="1887.5" width="181" height="182" stroke="#000000" stroke-width="6.875" stroke-miterlimit="8" fill="#FFFFFF"/><text font-family="Aptos,Aptos_MSFontService,sans-serif" font-weight="400" font-size="83" transform="matrix(1 0 0 1 521.662 2004)">M</text><rect x="645.5" y="1887.5" width="182" height="182" stroke="#000000" stroke-width="6.875" stroke-miterlimit="8" fill="#FFFFFF"/><text font-family="Aptos,Aptos_MSFontService,sans-serif" font-weight="400" font-size="83" transform="matrix(1 0 0 1 706.712 2004)">N</text><rect x="827.5" y="1887.5" width="181" height="182" stroke="#000000" stroke-width="6.875" stroke-miterlimit="8" fill="#FFFFFF"/><text font-family="Aptos,Aptos_MSFontService,sans-serif" font-weight="400" font-size="83" transform="matrix(1 0 0 1 887.466 2004)">O</text><rect x="464.5" y="2066.5" width="181" height="182" stroke="#000000" stroke-width="6.875" stroke-miterlimit="8"/><text fill="#FFFFFF" font-family="Aptos,Aptos_MSFontService,sans-serif" font-weight="400" font-size="83" transform="matrix(1 0 0 1 530.542 2184)">P</text><rect x="645.5" y="2066.5" width="182" height="182" stroke="#000000" stroke-width="6.875" stroke-miterlimit="8"/><text fill="#FFFFFF" font-family="Aptos,Aptos_MSFontService,sans-serif" font-weight="400" font-size="83" transform="matrix(1 0 0 1 705.853 2184)">Q</text><rect x="827.5" y="2066.5" width="181" height="182" stroke="#000000" stroke-width="6.875" stroke-miterlimit="8"/><text fill="#FFFFFF" font-family="Aptos,Aptos_MSFontService,sans-serif" font-weight="400" font-size="83" transform="matrix(1 0 0 1 892.622 2184)">R</text><path d="M740.202 1557.12C743.783 1557.12 747.149 1557.45 750.3 1558.09L747.883 1568.83 740.954 1568.83C740.811 1566.61 740.453 1565.04 739.88 1564.11 739.307 1563.17 738.412 1562.71 737.194 1562.71 735.762 1562.71 734.598 1563.21 733.703 1564.21 732.808 1565.22 732.056 1566.58 731.447 1568.3 730.839 1570.01 730.23 1572.27 729.621 1575.06L728.278 1580.97 739.772 1580.97 738.322 1587.68 726.774 1587.68 717.053 1632.59C715.155 1641.29 712.093 1647.74 707.868 1651.95 703.643 1656.16 698.361 1658.26 692.023 1658.26 690.484 1658.26 689.248 1658.17 688.317 1657.99L689.606 1651.98C690.323 1652.08 690.967 1652.14 691.54 1652.14 693.581 1652.14 695.273 1651.01 696.616 1648.75 697.958 1646.5 699.149 1643.11 700.188 1638.6L711.682 1587.68 703.571 1587.68 704.538 1583.33C707.009 1583.3 708.754 1583.12 709.775 1582.8 710.795 1582.47 711.637 1581.88 712.299 1581.02 712.962 1580.17 713.597 1578.57 714.206 1576.24 715.101 1572.84 716.229 1570.02 717.59 1567.78 718.951 1565.55 720.723 1563.6 722.907 1561.93 725.091 1560.27 727.643 1559.05 730.561 1558.28 733.479 1557.51 736.693 1557.12 740.202 1557.12Z" fill-rule="evenodd"/><text fill="#000000" fill-opacity="0" font-family="Arial,Arial_MSFontService,sans-serif" font-size="101.138" x="688.317" y="1645.62">𝒇</text><path d="M777.795 1602.77 782.795 1602.77C782.639 1605.27 782.561 1608.73 782.561 1613.16L782.561 1645.81C782.561 1647.32 782.645 1648.46 782.814 1649.23 782.984 1650 783.283 1650.62 783.713 1651.11 784.143 1651.59 784.761 1651.96 785.568 1652.24 786.376 1652.51 787.391 1652.72 788.615 1652.86 789.839 1653.01 791.454 1653.1 793.459 1653.16L793.459 1656.71 759.748 1656.71 759.748 1653.16C762.639 1653.03 764.702 1652.85 765.939 1652.63 767.176 1652.41 768.12 1652.08 768.771 1651.63 769.423 1651.19 769.898 1650.56 770.197 1649.76 770.497 1648.95 770.646 1647.64 770.646 1645.81L770.646 1617.57C770.646 1616.5 770.445 1615.73 770.041 1615.27 769.637 1614.8 769.084 1614.56 768.381 1614.56 767.73 1614.56 766.812 1614.86 765.627 1615.46 764.442 1616.06 762.495 1617.28 759.787 1619.13L757.404 1614.99Z" fill-rule="evenodd"/><text fill="#000000" fill-opacity="0" font-family="Arial,Arial_MSFontService,sans-serif" font-size="53.9453" x="757.404" y="1649.97">𝟏</text><rect x="464" y="828" width="544" height="542" stroke="#FFC000" stroke-width="27.5" stroke-miterlimit="8" fill="none"/><rect x="1340" y="1328" width="1624" height="187" stroke="#FFC000" stroke-width="27.5" stroke-miterlimit="8" fill="none"/><path d="M1008 823 1339.9 1327.32" stroke="#FFC000" stroke-width="27.5" stroke-miterlimit="8" fill="none" fill-rule="evenodd"/><path d="M1008 1365 1339.9 1513.11" stroke="#FFC000" stroke-width="27.5" stroke-miterlimit="8" fill="none" fill-rule="evenodd"/><path d="M3364.27 1457.2C3368.06 1457.2 3371.57 1457.42 3374.8 1457.88 3378.03 1458.34 3381.63 1459.17 3385.58 1460.38L3381.83 1477.32 3375.83 1477.32C3375.5 1472.2 3374.39 1468.5 3372.49 1466.23 3370.59 1463.96 3367.54 1462.82 3363.33 1462.82 3357.58 1462.82 3352.24 1465.7 3347.3 1471.45 3342.37 1477.2 3338.46 1484.79 3335.58 1494.23 3332.71 1503.66 3331.27 1512.42 3331.27 1520.51 3331.27 1526.84 3332.4 1531.51 3334.65 1534.51 3336.9 1537.51 3340.36 1539.01 3345.02 1539.01 3348.15 1539.01 3350.88 1538.54 3353.21 1537.6 3355.54 1536.66 3357.73 1535.08 3359.77 1532.85 3361.81 1530.62 3363.83 1527.51 3365.83 1523.51L3371.83 1523.51 3368.02 1541.26C3360.23 1543.42 3352.06 1544.51 3343.52 1544.51 3335.69 1544.51 3329.73 1542.26 3325.65 1537.76 3321.56 1533.26 3319.52 1526.67 3319.52 1518.01 3319.52 1511.88 3320.62 1504.82 3322.8 1496.82 3324.99 1488.82 3328.08 1481.8 3332.08 1475.76 3336.08 1469.72 3340.81 1465.11 3346.27 1461.95 3351.73 1458.78 3357.73 1457.2 3364.27 1457.2Z" fill-rule="evenodd"/><text fill="#000000" fill-opacity="0" font-family="Arial,Arial_MSFontService,sans-serif" font-size="87.3125" x="3319.52" y="1533.59">𝐶</text><path d="M3518.42 1447.65C3530.58 1450.86 3539.93 1457.78 3546.45 1468.43 3552.97 1479.08 3556.23 1491.92 3556.23 1506.96 3556.23 1522.05 3552.98 1534.89 3546.48 1545.49 3539.98 1556.1 3530.63 1563 3518.42 1566.21L3516.92 1561.4C3526.54 1558.19 3533.7 1551.86 3538.39 1542.4 3543.07 1532.94 3545.42 1520.92 3545.42 1506.34 3545.42 1492.25 3543.08 1480.56 3538.42 1471.24 3533.75 1461.93 3526.52 1455.67 3516.73 1452.46ZM3442.56 1447.65 3444.24 1452.46C3434.49 1455.67 3427.27 1461.93 3422.59 1471.24 3417.9 1480.56 3415.56 1492.25 3415.56 1506.34 3415.56 1520.92 3417.9 1532.94 3422.59 1542.4 3427.27 1551.86 3434.43 1558.19 3444.06 1561.4L3442.56 1566.21C3430.35 1563 3420.99 1556.1 3414.49 1545.49 3407.99 1534.89 3404.74 1522.05 3404.74 1506.96 3404.74 1491.92 3408 1479.08 3414.52 1468.43 3421.04 1457.78 3430.39 1450.86 3442.56 1447.65Z" fill-rule="evenodd"/><path d="M3448.81 1481.51 3479.06 1481.51 3479.06 1485.63C3476.44 1486.17 3475.13 1487.34 3475.13 1489.13 3475.13 1489.84 3475.31 1490.58 3475.69 1491.35 3476.06 1492.12 3476.67 1493.09 3477.5 1494.26L3483.94 1503.45 3490.31 1495.51C3491.31 1494.26 3492.01 1493.21 3492.41 1492.35 3492.8 1491.5 3493 1490.61 3493 1489.7 3493 1488.53 3492.57 1487.58 3491.72 1486.85 3490.87 1486.12 3489.71 1485.72 3488.25 1485.63L3488.25 1481.51 3512.06 1481.51 3512.06 1485.63C3510.19 1486.09 3508.46 1486.98 3506.88 1488.29 3505.29 1489.6 3503 1492.07 3500 1495.7L3488 1509.26 3502.63 1530.01C3505.08 1533.47 3507 1535.79 3508.38 1536.98 3509.75 1538.16 3511.21 1538.97 3512.75 1539.38L3512.75 1543.51 3482.31 1543.51 3482.31 1539.38C3484.9 1539.09 3486.19 1538.01 3486.19 1536.13 3486.19 1535.42 3486.05 1534.77 3485.78 1534.16 3485.51 1533.56 3484.9 1532.55 3483.94 1531.13L3476.88 1521.01 3470.31 1529.07C3468.9 1530.78 3468.01 1532.03 3467.66 1532.82 3467.3 1533.61 3467.13 1534.51 3467.13 1535.51 3467.13 1536.51 3467.5 1537.36 3468.25 1538.07 3469 1538.78 3470.19 1539.22 3471.81 1539.38L3471.81 1543.51 3447.75 1543.51 3447.75 1539.38C3449.54 1539.01 3451.34 1538.09 3453.16 1536.63 3454.97 1535.17 3457.17 1532.97 3459.75 1530.01L3472.81 1515.2 3458.13 1494.45C3455.88 1491.28 3454.07 1489.04 3452.72 1487.73 3451.37 1486.41 3450.06 1485.72 3448.81 1485.63Z" fill-rule="evenodd"/><text fill="#000000" fill-opacity="0" font-family="Arial,Arial_MSFontService,sans-serif" font-size="62" x="3447.75" y="1535.76">𝐱</text><path d="M3612.58 1515.76 3689.58 1515.76 3689.58 1524.07 3612.58 1524.07ZM3612.58 1489.82 3689.58 1489.82 3689.58 1498.13 3612.58 1498.13Z" fill-rule="evenodd"/><text fill="#000000" fill-opacity="0" font-family="Arial,Arial_MSFontService,sans-serif" font-size="34.25" x="3612.58" y="1519.79">=</text><path d="M3810.61 1458.2 3845.36 1458.2 3845.36 1462.32C3843.4 1462.53 3842.01 1462.98 3841.2 1463.66 3840.39 1464.35 3839.98 1465.4 3839.98 1466.82 3839.98 1467.95 3840.33 1469.26 3841.01 1470.76 3841.7 1472.26 3843.11 1474.78 3845.23 1478.32L3851.04 1488.01 3858.61 1476.88C3860.27 1474.42 3861.39 1472.54 3861.95 1471.23 3862.51 1469.91 3862.79 1468.51 3862.79 1467.01 3862.79 1465.67 3862.34 1464.6 3861.42 1463.79 3860.5 1462.98 3859.23 1462.49 3857.61 1462.32L3857.61 1458.2 3883.42 1458.2 3883.42 1462.38C3882.21 1462.72 3881.07 1463.25 3879.98 1463.98 3878.9 1464.71 3877.65 1465.91 3876.23 1467.6 3874.82 1469.29 3872.54 1472.36 3869.42 1476.82L3855.92 1496.07 3874.17 1526.26C3876.17 1529.55 3877.79 1532.1 3879.04 1533.91 3880.29 1535.73 3881.41 1537.04 3882.39 1537.85 3883.37 1538.66 3884.4 1539.17 3885.48 1539.38L3885.48 1543.51 3850.73 1543.51 3850.73 1539.38C3852.57 1539.17 3853.92 1538.74 3854.79 1538.07 3855.67 1537.4 3856.11 1536.34 3856.11 1534.88 3856.11 1534.17 3855.97 1533.38 3855.7 1532.51 3855.43 1531.63 3855.06 1530.74 3854.58 1529.82 3854.1 1528.9 3853.21 1527.36 3851.92 1525.2L3843.23 1510.88 3833.04 1525.95C3832.25 1527.15 3831.59 1528.26 3831.04 1529.26 3830.5 1530.26 3830.13 1531.17 3829.92 1532.01 3829.71 1532.84 3829.61 1533.82 3829.61 1534.95 3829.61 1536.07 3830.06 1537.05 3830.95 1537.88 3831.85 1538.72 3833.13 1539.22 3834.79 1539.38L3834.79 1543.51 3808.92 1543.51 3808.92 1539.38C3810.79 1538.8 3812.59 1537.72 3814.29 1536.13 3816 1534.55 3818.59 1531.24 3822.04 1526.2L3838.36 1502.82 3822.61 1476.63C3820.9 1473.8 3819.43 1471.45 3818.2 1469.57 3816.97 1467.7 3815.94 1466.27 3815.11 1465.29 3814.27 1464.31 3813.53 1463.61 3812.89 1463.2 3812.24 1462.78 3811.48 1462.49 3810.61 1462.32ZM3741.54 1458.2 3801.98 1458.2 3801.98 1478.07 3793.42 1478.07C3792.04 1474.11 3790.88 1471.43 3789.92 1470.04 3788.96 1468.64 3787.82 1467.54 3786.48 1466.73 3785.15 1465.91 3782.88 1465.51 3779.67 1465.51L3767.61 1465.51 3767.61 1497.32 3775.61 1497.32C3777.57 1497.32 3779.08 1497.02 3780.14 1496.41 3781.2 1495.81 3782.08 1494.8 3782.76 1493.38 3783.45 1491.97 3784.02 1489.97 3784.48 1487.38L3791.54 1487.38 3791.54 1514.63 3784.48 1514.63C3783.98 1512.01 3783.38 1509.98 3782.67 1508.54 3781.96 1507.1 3781.09 1506.09 3780.04 1505.51 3779 1504.92 3777.52 1504.63 3775.61 1504.63L3767.61 1504.63 3767.61 1527.82C3767.61 1531.07 3767.77 1533.33 3768.11 1534.6 3768.44 1535.87 3769.1 1536.89 3770.08 1537.66 3771.06 1538.43 3772.75 1539.01 3775.17 1539.38L3775.17 1543.51 3741.54 1543.51 3741.54 1539.38C3743.75 1538.84 3745.26 1538.18 3746.08 1537.41 3746.89 1536.64 3747.45 1535.64 3747.76 1534.41 3748.08 1533.18 3748.23 1530.97 3748.23 1527.76L3748.23 1473.95C3748.23 1470.78 3748.1 1468.58 3747.83 1467.35 3747.56 1466.12 3747 1465.13 3746.17 1464.38 3745.34 1463.63 3743.79 1462.95 3741.54 1462.32Z" fill-rule="evenodd"/><text fill="#000000" fill-opacity="0" font-family="Arial,Arial_MSFontService,sans-serif" font-size="85.3125" x="3741.54" y="1532.84">𝐅𝐗</text></g></svg>