<?xml version="1.0" encoding="UTF-8"?>
<svg xmlns="http://www.w3.org/2000/svg" xmlns:xlink="http://www.w3.org/1999/xlink"
     width="800" height="238" viewBox="0 0 420 125">
<defs>
<linearGradient x1="0" y1="1" x2="1" y2="0" gradientUnits="objectBoundingBox" id="d0">
<stop offset="0" stop-color="#fff" stop-opacity="0" />
<stop offset="0.49" stop-color="#fff" stop-opacity="0" />
<stop offset="0.51" stop-color="#fff" stop-opacity="1" />
<stop offset="1" stop-color="#fff" stop-opacity="1" />
</linearGradient>
<mask id="d1">
<rect x="219.83102493074796" y="45.56038781163435" width="12.09972299168975" height="59.28864265927978" fill="url(#d0)" />
</mask>
</defs>
<g>
<rect x="8.842105263157894" y="47.5" width="12.09972299168975" height="30" fill="#e1e1e1" stroke="#7f7f7f" stroke-dasharray="4.234903047091413 3.3879224376731303" />
<text x="14.89196675900277" y="64.53275346260388" font-size="6.775844875346261" transform="" fill="#5b9bd5" text-anchor="middle" font-family="arial">x</text>
</g>
<text x="14.89196675900277" y="82.58188365650969" font-size="5.081883656509695" fill="#6868b6" text-anchor="middle" font-family="arial">1</text>
<g>
<rect x="67.07202216066483" y="38.173187620175426" width="12.09972299168975" height="48.65362475964916" fill="#e1e1e1" stroke="#7f7f7f" />
<text x="75.15463711911359" y="62.5" font-size="6.775844875346261" transform="rotate(-90, 75.15463711911359, 62.5)" fill="#5b9bd5" text-anchor="middle" font-family="arial">embed</text>
</g>
<text x="73.12188365650971" y="91.90869603633428" font-size="5.081883656509695" fill="#6868b6" text-anchor="middle" font-family="arial">36</text>
<path d="M23.966759002770083,59.47506925207756L59.50969529085874,59.47506925207757L59.50969529085874,57.05512465373962L65.55955678670361,62.50000000000001L59.50969529085874,67.94487534626039L59.50969529085874,65.52493074792244L23.966759002770083,65.52493074792244Z" fill="#ddd" stroke="none" />
<rect x="125.30193905817177" y="29.561865189289012" width="12.09972299168975" height="65.87626962142198" rx="4" ry="4" fill="#e1e1e1" stroke="#7f7f7f" />
<circle cx="131.35180055401665" cy="35.57307479224377" r="2.9644321329639887" fill="#5b9bd5" stroke="#41719c" />
<circle cx="131.35180055401665" cy="44.548716528162515" r="2.9644321329639887" fill="#5b9bd5" stroke="#41719c" />
<circle cx="131.35180055401665" cy="53.52435826408126" r="2.9644321329639887" fill="#5b9bd5" stroke="#41719c" />
<circle cx="131.35180055401665" cy="62.5" r="2.9644321329639887" fill="#5b9bd5" stroke="#41719c" />
<circle cx="131.35180055401665" cy="71.47564173591874" r="2.9644321329639887" fill="#5b9bd5" stroke="#41719c" />
<circle cx="131.35180055401665" cy="80.45128347183748" r="2.9644321329639887" fill="#5b9bd5" stroke="#41719c" />
<circle cx="131.35180055401665" cy="89.42692520775623" r="2.9644321329639887" fill="#5b9bd5" stroke="#41719c" />
<text x="131.35180055401665" y="25.361865189289013" font-size="5.081883656509695" fill="#6868b6" text-anchor="middle" font-family="arial">F2[128]</text>
<text x="131.35180055401665" y="100.52001846722068" font-size="5.081883656509695" fill="#6868b6" text-anchor="middle" font-family="arial">128</text>
<path d="M82.19667590027701,59.47506925207757L117.73961218836567,59.47506925207756L117.73961218836567,57.05512465373961L123.78947368421055,62.5L117.73961218836567,67.94487534626039L117.73961218836567,65.52493074792244L82.196675900277,65.52493074792244Z" fill="#ddd" stroke="none" />
<circle cx="102.23684210526318" cy="62.5" r="6.049861495844875" fill="#fff" stroke="#818181" />
<circle cx="99.21191135734074" cy="62.50000000000001" r="6.049861495844875" fill="#fff" stroke="#818181" />
<circle cx="102.23684210526318" cy="62.5" r="6.049861495844875" fill="#fff" stroke="#818181" />
<circle cx="105.2617728531856" cy="62.5" r="6.049861495844875" fill="#fff" stroke="#818181" />
<text x="105.2617728531856" y="64.01246537396122" font-size="6.049861495844875" fill="#000" text-anchor="middle" font-family="monospace">[t]</text>
<rect x="178.44997229916902" y="13.375124653739613" width="179.5598891966759" height="98.24975069252078" fill="white" stroke="#5b9bd5" stroke-dasharray="4.234903047091413 3.3879224376731303" />
<text x="293.63933518005547" y="25.23285318559557" font-size="8.469806094182825" fill="#5b9bd5" font-family="arial" text-anchor="middle">x 6</text>
<g>
<rect x="183.5318559556787" y="20.150969529085874" width="12.09972299168975" height="84.69806094182826" fill="#e1e1e1" stroke="#7f7f7f" />
<text x="191.61447091412745" y="62.5" font-size="6.775844875346261" transform="rotate(-90, 191.61447091412745, 62.5)" fill="#5b9bd5" text-anchor="middle" font-family="arial">Positional Encoding</text>
</g>
<g>
<rect x="211.36121883656514" y="56.14764542936288" width="8.469806094182825" height="8.469806094182825" fill="#e1e1e1" stroke="#7f7f7f" />
<text x="215.59612188365656" y="61.80547590027701" font-size="4.743091412742382" transform="" fill="#5b9bd5" text-anchor="middle" font-family="arial">Q</text>
</g>
<g>
<rect x="211.36121883656514" y="70.96980609418283" width="8.469806094182825" height="8.469806094182825" fill="#e1e1e1" stroke="#7f7f7f" />
<text x="215.59612188365656" y="76.62763656509695" font-size="4.743091412742382" transform="" fill="#5b9bd5" text-anchor="middle" font-family="arial">K</text>
</g>
<g>
<rect x="211.36121883656514" y="85.79196675900278" width="8.469806094182825" height="8.469806094182825" fill="#e1e1e1" stroke="#7f7f7f" />
<text x="215.59612188365656" y="91.4497972299169" font-size="4.743091412742382" transform="" fill="#5b9bd5" text-anchor="middle" font-family="arial">V</text>
</g>
<g>
<rect x="219.83102493074796" y="45.56038781163435" width="12.09972299168975" height="59.28864265927978" fill="#e1e1e1" stroke="#7f7f7f" />
<text x="227.9136398891967" y="75.20470914127424" font-size="6.775844875346261" transform="rotate(-90, 227.9136398891967, 75.20470914127424)" fill="#5b9bd5" text-anchor="middle" font-family="arial">MaskMHSA x4</text>
</g>
<g mask="url(#d1)">
<rect x="219.83102493074796" y="45.56038781163435" width="12.09972299168975" height="59.28864265927978" fill="#5b9bd5" stroke="#7f7f7f" />
<text x="227.9136398891967" y="75.20470914127424" font-size="6.775844875346261" transform="rotate(-90, 227.9136398891967, 75.20470914127424)" fill="#fff" text-anchor="middle" font-family="arial">MaskMHSA x4</text>
</g>
<path d="M197.74903047091416,58.26509695290859L206.06759002770087,58.26509695290859L206.06759002770087,56.57113573407203L210.3024930747923,60.382548476454296L206.06759002770087,64.19396121883658L206.06759002770087,62.500000000000014L197.74903047091416,62.500000000000014Z" fill="#ddd" stroke="none" />
<path d="M197.74903047091416,73.08725761772853L206.06759002770087,73.08725761772853L206.06759002770087,71.39329639889196L210.3024930747923,75.20470914127424L206.06759002770087,79.01612188365651L206.06759002770087,77.32216066481995L197.74903047091416,77.32216066481995Z" fill="#ddd" stroke="none" />
<path d="M197.74903047091416,87.90941828254847L206.06759002770087,87.90941828254847L206.06759002770087,86.21545706371191L210.3024930747923,90.02686980609418L206.06759002770087,93.83828254847646L206.06759002770087,92.1443213296399L197.74903047091416,92.1443213296399Z" fill="#ddd" stroke="none" />
<path d="M197.74903047091416,30.738227146814406L238.7368421052632,30.738227146814406L238.7368421052632,29.04426592797784L242.97174515235463,32.85567867036011L238.7368421052632,36.66709141274238L238.7368421052632,34.97313019390582L197.74903047091416,34.97313019390582Z" fill="#ddd" stroke="none" />
<path d="M234.0481994459834,73.08725761772854L238.7368421052632,73.08725761772854L238.7368421052632,71.39329639889198L242.97174515235463,75.20470914127425L238.7368421052632,79.01612188365652L238.7368421052632,77.32216066481996L234.0481994459834,77.32216066481996Z" fill="#ddd" stroke="none" />
<g>
<rect x="244.03047091412748" y="20.150969529085874" width="9.074792243767313" height="84.69806094182826" fill="#e1e1e1" stroke="#7f7f7f" />
<text x="250.09243213296403" y="62.50000000000001" font-size="5.081883656509695" transform="rotate(-90, 250.09243213296403, 62.50000000000001)" fill="#5b9bd5" text-anchor="middle" font-family="arial">add</text>
</g>
<g>
<rect x="253.1052631578948" y="20.150969529085874" width="9.074792243767313" height="84.69806094182826" fill="#e1e1e1" stroke="#7f7f7f" />
<text x="259.1672243767314" y="62.50000000000001" font-size="5.081883656509695" transform="rotate(-90, 259.1672243767314, 62.50000000000001)" fill="#5b9bd5" text-anchor="middle" font-family="arial">LN</text>
</g>
<path d="M264.2975069252078,73.08725761772854L268.98614958448763,73.08725761772854L268.98614958448763,71.39329639889198L273.221052631579,75.20470914127425L268.98614958448763,79.01612188365652L268.98614958448763,77.32216066481996L264.2975069252078,77.32216066481996Z" fill="#ddd" stroke="none" />
<path d="M324.79612188365655,73.08725761772854L329.4847645429364,73.08725761772854L329.4847645429364,71.39329639889198L333.71966759002777,75.20470914127425L329.4847645429364,79.01612188365652L329.4847645429364,77.32216066481996L324.79612188365655,77.32216066481996Z" fill="#ddd" stroke="none" />
<rect x="274.2797783933519" y="45.56038781163435" width="12.09972299168975" height="59.28864265927978" rx="4" ry="4" fill="#e1e1e1" stroke="#7f7f7f" />
<text x="280.32963988919676" y="109.93091412742382" font-size="5.081883656509695" fill="#6868b6" text-anchor="middle" font-family="arial">128</text>
<rect x="310.57894736842115" y="45.56038781163435" width="12.09972299168975" height="59.28864265927978" rx="4" ry="4" fill="#e1e1e1" stroke="#7f7f7f" />
<text x="316.62880886426603" y="109.93091412742382" font-size="5.081883656509695" fill="#6868b6" text-anchor="middle" font-family="arial">128</text>
<path d="M289.7069252077563,73.08725761772853L305.2853185595569,73.08725761772853L305.2853185595569,71.39329639889196L309.5202216066483,75.20470914127424L305.2853185595569,79.01612188365651L305.2853185595569,77.32216066481995L289.7069252077563,77.32216066481995Z" fill="#ddd" stroke="none" />
<circle cx="299.08421052631587" cy="75.20470914127424" r="4.234903047091413" fill="#fff" stroke="#818181" />
<path d="M296.1197783933519,75.20470914127424H297.81373961218844Q298.63503122697597,75.65388844061412,299.08421052631587,75.20470914127424L301.18038058990203,73.10853907768809" stroke="#000" strokewidth="1" fill="none" />
<circle cx="280.32963988919676" cy="50.748144044321336" r="2.9644321329639887" fill="#5b9bd5" stroke="#41719c" />
<circle cx="316.62880886426603" cy="50.748144044321336" r="2.9644321329639887" fill="#5b9bd5" stroke="#41719c" />
<circle cx="280.32963988919676" cy="58.90033240997231" r="2.9644321329639887" fill="#5b9bd5" stroke="#41719c" />
<circle cx="316.62880886426603" cy="58.90033240997231" r="2.9644321329639887" fill="#5b9bd5" stroke="#41719c" />
<circle cx="280.32963988919676" cy="67.05252077562328" r="2.9644321329639887" fill="#5b9bd5" stroke="#41719c" />
<circle cx="316.62880886426603" cy="67.05252077562328" r="2.9644321329639887" fill="#5b9bd5" stroke="#41719c" />
<circle cx="280.32963988919676" cy="75.20470914127425" r="2.9644321329639887" fill="#5b9bd5" stroke="#41719c" />
<circle cx="316.62880886426603" cy="75.20470914127425" r="2.9644321329639887" fill="#5b9bd5" stroke="#41719c" />
<circle cx="280.32963988919676" cy="83.35689750692522" r="2.9644321329639887" fill="#5b9bd5" stroke="#41719c" />
<circle cx="316.62880886426603" cy="83.35689750692522" r="2.9644321329639887" fill="#5b9bd5" stroke="#41719c" />
<circle cx="280.32963988919676" cy="91.5090858725762" r="2.9644321329639887" fill="#5b9bd5" stroke="#41719c" />
<circle cx="316.62880886426603" cy="91.5090858725762" r="2.9644321329639887" fill="#5b9bd5" stroke="#41719c" />
<circle cx="280.32963988919676" cy="99.66127423822716" r="2.9644321329639887" fill="#5b9bd5" stroke="#41719c" />
<circle cx="316.62880886426603" cy="99.66127423822716" r="2.9644321329639887" fill="#5b9bd5" stroke="#41719c" />
<path d="M264.2975069252078,30.738227146814406L329.4847645429364,30.738227146814406L329.4847645429364,29.04426592797784L333.71966759002777,32.85567867036011L329.4847645429364,36.66709141274238L329.4847645429364,34.97313019390582L264.2975069252078,34.97313019390582Z" fill="#ddd" stroke="none" />
<g>
<rect x="334.7783933518006" y="20.150969529085874" width="9.074792243767313" height="84.69806094182826" fill="#e1e1e1" stroke="#7f7f7f" />
<text x="340.8403545706372" y="62.50000000000001" font-size="5.081883656509695" transform="rotate(-90, 340.8403545706372, 62.50000000000001)" fill="#5b9bd5" text-anchor="middle" font-family="arial">add</text>
</g>
<g>
<rect x="343.85318559556794" y="20.150969529085874" width="9.074792243767313" height="84.69806094182826" fill="#e1e1e1" stroke="#7f7f7f" />
<text x="349.9151468144045" y="62.50000000000001" font-size="5.081883656509695" transform="rotate(-90, 349.9151468144045, 62.50000000000001)" fill="#5b9bd5" text-anchor="middle" font-family="arial">LN</text>
</g>
<path d="M140.42659279778397,59.47506925207756L175.9695290858726,59.47506925207756L175.9695290858726,57.05512465373961L182.0193905817175,62.5L175.9695290858726,67.94487534626039L175.9695290858726,65.52493074792244L140.42659279778397,65.52493074792244Z" fill="#ddd" stroke="none" />
<circle cx="160.46675900277012" cy="62.5" r="6.049861495844875" fill="#fff" stroke="#818181" />
<circle cx="157.44182825484768" cy="62.5" r="6.049861495844875" fill="#fff" stroke="#818181" />
<circle cx="160.46675900277012" cy="62.5" r="6.049861495844875" fill="#fff" stroke="#818181" />
<circle cx="163.49168975069256" cy="62.5" r="6.049861495844875" fill="#fff" stroke="#818181" />
<text x="163.49168975069256" y="64.01246537396122" font-size="6.049861495844875" fill="#000" text-anchor="middle" font-family="monospace">[t]</text>
<rect x="399.05817174515244" y="38.173187620175426" width="12.09972299168975" height="48.65362475964916" rx="4" ry="4" fill="#e1e1e1" stroke="#7f7f7f" />
<circle cx="405.1080332409973" cy="44.305836991474294" r="2.9644321329639887" fill="#5b9bd5" stroke="#41719c" />
<circle cx="405.1080332409973" cy="53.402918495737154" r="2.9644321329639887" fill="#5b9bd5" stroke="#41719c" />
<circle cx="405.1080332409973" cy="62.500000000000014" r="2.9644321329639887" fill="#5b9bd5" stroke="#41719c" />
<circle cx="405.1080332409973" cy="71.59708150426287" r="2.9644321329639887" fill="#5b9bd5" stroke="#41719c" />
<circle cx="405.1080332409973" cy="80.69416300852573" r="2.9644321329639887" fill="#5b9bd5" stroke="#41719c" />
<text x="405.1080332409973" y="33.97318762017542" font-size="5.081883656509695" fill="#6868b6" text-anchor="middle" font-family="arial">F4[36]</text>
<text x="405.1080332409973" y="91.90869603633428" font-size="5.081883656509695" fill="#6868b6" text-anchor="middle" font-family="arial">36</text>
<path d="M355.95290858725764,59.47506925207756L391.49584487534634,59.47506925207757L391.49584487534634,57.05512465373962L397.5457063711912,62.50000000000001L391.49584487534634,67.94487534626039L391.49584487534634,65.52493074792244L355.95290858725764,65.52493074792244Z" fill="#ddd" stroke="none" />
<circle cx="375.9930747922438" cy="62.5" r="6.049861495844875" fill="#fff" stroke="#818181" />
<circle cx="372.9681440443214" cy="62.5" r="6.049861495844875" fill="#fff" stroke="#818181" />
<circle cx="375.9930747922438" cy="62.5" r="6.049861495844875" fill="#fff" stroke="#818181" />
<circle cx="379.01800554016626" cy="62.50000000000001" r="6.049861495844875" fill="#fff" stroke="#818181" />
<text x="379.01800554016626" y="64.01246537396122" font-size="6.049861495844875" fill="#000" text-anchor="middle" font-family="monospace">[t]</text>
</svg>