<?xml version="1.0" encoding="UTF-8"?>
<svg xmlns="http://www.w3.org/2000/svg" xmlns:xlink="http://www.w3.org/1999/xlink"
     width="800" height="380" viewBox="0 0 420 200">
<defs>
</defs>
<g>
<rect x="7.636363636363636" y="82.48470841449918" width="10.512396694214878" height="35.030583171001645" fill="#e1e1e1" stroke="#7f7f7f" stroke-dasharray="3.679338842975207 2.9434710743801658" />
<text x="12.892561983471076" y="101.7660826446281" font-size="5.8869421487603315" transform="" fill="#5b9bd5" text-anchor="middle" font-family="arial">x</text>
</g>
<text x="12.892561983471076" y="121.93049819707107" font-size="4.415206611570248" fill="#6868b6" text-anchor="middle" font-family="arial">273</text>
<rect x="50.56198347107438" y="78.35683033543997" width="10.512396694214878" height="43.28633932912008" rx="4" ry="4" fill="#e1e1e1" stroke="#7f7f7f" />
<circle cx="55.81818181818181" cy="83.8541954302382" r="2.575537190082645" fill="#5b9bd5" stroke="#41719c" />
<circle cx="55.81818181818181" cy="91.9270977151191" r="2.575537190082645" fill="#5b9bd5" stroke="#41719c" />
<circle cx="55.81818181818181" cy="100.0" r="2.575537190082645" fill="#5b9bd5" stroke="#41719c" />
<circle cx="55.81818181818181" cy="108.0729022848809" r="2.575537190082645" fill="#5b9bd5" stroke="#41719c" />
<circle cx="55.81818181818181" cy="116.1458045697618" r="2.575537190082645" fill="#5b9bd5" stroke="#41719c" />
<text x="55.81818181818181" y="74.15683033543996" font-size="4.415206611570248" fill="#6868b6" text-anchor="middle" font-family="arial">F1[1024]</text>
<text x="55.81818181818181" y="126.0583762761303" font-size="4.415206611570248" fill="#6868b6" text-anchor="middle" font-family="arial">1024</text>
<path d="M20.776859504132233,97.37190082644628L43.99173553719007,97.37190082644628L43.99173553719007,95.2694214876033L49.24793388429751,100.0L43.99173553719007,104.73057851239669L43.99173553719007,102.62809917355372L20.77685950413223,102.62809917355372Z" fill="#ddd" stroke="none" />
<circle cx="34.35537190082644" cy="100.0" r="5.256198347107439" fill="#fff" stroke="#818181" />
<circle cx="31.727272727272727" cy="100.0" r="5.256198347107439" fill="#fff" stroke="#818181" />
<circle cx="34.35537190082644" cy="100.0" r="5.256198347107439" fill="#fff" stroke="#818181" />
<circle cx="36.98347107438016" cy="100.0" r="5.256198347107439" fill="#fff" stroke="#818181" />
<text x="36.98347107438016" y="101.31404958677686" font-size="5.256198347107439" fill="#000" text-anchor="middle" font-family="monospace">[t]</text>
<rect x="89.07239669421487" y="68.14125425376763" width="156.00396694214876" height="63.71749149246475" fill="white" stroke="#5b9bd5" stroke-dasharray="3.6793388429752065 2.9434710743801653" />
<text x="189.1504132231405" y="78.4434030140982" font-size="7.358677685950413" fill="#5b9bd5" font-family="arial" text-anchor="middle">x 24</text>
<g>
<rect x="93.48760330578511" y="74.02819640252795" width="10.512396694214877" height="51.94360719494409" fill="#e1e1e1" stroke="#7f7f7f" />
<text x="100.50988429752066" y="100.0" font-size="5.886942148760331" transform="rotate(-90, 100.50988429752066, 100.0)" fill="#5b9bd5" text-anchor="middle" font-family="arial">Positional Encoding</text>
</g>
<g>
<rect x="117.66611570247933" y="95.02207097715117" width="7.358677685950413" height="7.358677685950413" fill="#e1e1e1" stroke="#7f7f7f" />
<text x="121.34545454545454" y="99.93766767136606" font-size="4.120859504132231" transform="" fill="#5b9bd5" text-anchor="middle" font-family="arial">Q</text>
</g>
<g>
<rect x="117.66611570247933" y="104.1122022362664" width="7.358677685950413" height="7.358677685950413" fill="#e1e1e1" stroke="#7f7f7f" />
<text x="121.34545454545454" y="109.02779893048128" font-size="4.120859504132231" transform="" fill="#5b9bd5" text-anchor="middle" font-family="arial">K</text>
</g>
<g>
<rect x="117.66611570247933" y="113.20233349538161" width="7.358677685950413" height="7.358677685950413" fill="#e1e1e1" stroke="#7f7f7f" />
<text x="121.34545454545454" y="118.11793018959649" font-size="4.120859504132231" transform="" fill="#5b9bd5" text-anchor="middle" font-family="arial">V</text>
</g>
<g>
<rect x="125.02479338842974" y="89.61127856101118" width="10.512396694214877" height="36.360525036460864" fill="#e1e1e1" stroke="#7f7f7f" />
<text x="132.04707438016527" y="107.79154107924161" font-size="5.886942148760331" transform="rotate(-90, 132.04707438016527, 107.79154107924161)" fill="#5b9bd5" text-anchor="middle" font-family="arial">MHSA x16</text>
</g>
<path d="M105.83966942148759,96.86174039863879L113.06694214876032,96.86174039863879L113.06694214876032,95.3900048614487L116.74628099173553,98.70140982012639L113.06694214876032,102.01281477880407L113.06694214876032,100.54107924161399L105.83966942148759,100.54107924161399Z" fill="#ddd" stroke="none" />
<path d="M105.83966942148759,105.95187165775401L113.06694214876032,105.95187165775401L113.06694214876032,104.48013612056393L116.74628099173553,107.79154107924161L113.06694214876032,111.1029460379193L113.06694214876032,109.63121050072921L105.83966942148759,109.63121050072921Z" fill="#ddd" stroke="none" />
<path d="M105.83966942148759,115.04200291686922L113.06694214876032,115.04200291686922L113.06694214876032,113.57026737967914L116.74628099173553,116.88167233835682L113.06694214876032,120.1930772970345L113.06694214876032,118.72134175984442L105.83966942148759,118.72134175984442Z" fill="#ddd" stroke="none" />
<path d="M105.83966942148759,79.98006806028197L141.45041322314052,79.98006806028197L141.45041322314052,78.50833252309188L145.1297520661157,81.81973748176956L141.45041322314052,85.13114244044725L141.45041322314052,83.65940690325716L105.8396694214876,83.65940690325716Z" fill="#ddd" stroke="none" />
<path d="M137.37685950413223,105.95187165775403L141.45041322314052,105.95187165775403L141.45041322314052,104.48013612056394L145.1297520661157,107.79154107924163L141.45041322314052,111.10294603791931L141.45041322314052,109.63121050072922L137.37685950413223,109.63121050072922Z" fill="#ddd" stroke="none" />
<g>
<rect x="146.0495867768595" y="74.02819640252795" width="7.884297520661157" height="51.94360719494409" fill="#e1e1e1" stroke="#7f7f7f" />
<text x="151.31629752066118" y="100.0" font-size="4.415206611570247" transform="rotate(-90, 151.31629752066118, 100.0)" fill="#5b9bd5" text-anchor="middle" font-family="arial">add</text>
</g>
<g>
<rect x="153.93388429752068" y="74.02819640252795" width="7.884297520661157" height="51.94360719494409" fill="#e1e1e1" stroke="#7f7f7f" />
<text x="159.20059504132234" y="100.0" font-size="4.415206611570247" transform="rotate(-90, 159.20059504132234, 100.0)" fill="#5b9bd5" text-anchor="middle" font-family="arial">LN</text>
</g>
<path d="M163.65785123966944,105.95187165775403L167.7314049586777,105.95187165775403L167.7314049586777,104.48013612056394L171.4107438016529,107.79154107924163L167.7314049586777,111.10294603791931L167.7314049586777,109.63121050072922L163.65785123966944,109.63121050072922Z" fill="#ddd" stroke="none" />
<path d="M216.2198347107438,105.95187165775403L220.29338842975207,105.95187165775403L220.29338842975207,104.48013612056394L223.97272727272727,107.79154107924163L220.29338842975207,111.10294603791931L220.29338842975207,109.63121050072922L216.2198347107438,109.63121050072922Z" fill="#ddd" stroke="none" />
<rect x="172.3305785123967" y="89.61127856101118" width="10.512396694214877" height="36.360525036460864" rx="4" ry="4" fill="#e1e1e1" stroke="#7f7f7f" />
<text x="177.58677685950414" y="130.3870102090423" font-size="4.415206611570247" fill="#6868b6" text-anchor="middle" font-family="arial">1024</text>
<rect x="203.86776859504133" y="89.61127856101118" width="10.512396694214877" height="36.360525036460864" rx="4" ry="4" fill="#e1e1e1" stroke="#7f7f7f" />
<text x="209.12396694214877" y="130.3870102090423" font-size="4.415206611570247" fill="#6868b6" text-anchor="middle" font-family="arial">1024</text>
<path d="M185.73388429752066,105.95187165775401L199.26859504132233,105.95187165775401L199.26859504132233,104.48013612056393L202.94793388429753,107.79154107924161L199.26859504132233,111.1029460379193L199.26859504132233,109.63121050072921L185.73388429752066,109.63121050072921Z" fill="#ddd" stroke="none" />
<circle cx="193.88099173553718" cy="107.79154107924161" r="3.6793388429752065" fill="#fff" stroke="#818181" />
<path d="M191.30545454545452,107.79154107924161H192.7771900826446Q193.49073891861457,108.18179389616424,193.88099173553718,107.79154107924161L195.70217154784277,105.97036126693602" stroke="#000" strokewidth="1" fill="none" />
<circle cx="177.58677685950414" cy="95.33806125425376" r="2.5755371900826445" fill="#5b9bd5" stroke="#41719c" />
<circle cx="209.12396694214877" cy="95.33806125425376" r="2.5755371900826445" fill="#5b9bd5" stroke="#41719c" />
<circle cx="177.58677685950414" cy="103.64038113757898" r="2.5755371900826445" fill="#5b9bd5" stroke="#41719c" />
<circle cx="209.12396694214877" cy="103.64038113757898" r="2.5755371900826445" fill="#5b9bd5" stroke="#41719c" />
<circle cx="177.58677685950414" cy="111.94270102090421" r="2.5755371900826445" fill="#5b9bd5" stroke="#41719c" />
<circle cx="209.12396694214877" cy="111.94270102090421" r="2.5755371900826445" fill="#5b9bd5" stroke="#41719c" />
<circle cx="177.58677685950414" cy="120.24502090422943" r="2.5755371900826445" fill="#5b9bd5" stroke="#41719c" />
<circle cx="209.12396694214877" cy="120.24502090422943" r="2.5755371900826445" fill="#5b9bd5" stroke="#41719c" />
<path d="M163.65785123966944,79.98006806028197L220.29338842975207,79.98006806028197L220.29338842975207,78.50833252309188L223.97272727272727,81.81973748176956L220.29338842975207,85.13114244044725L220.29338842975207,83.65940690325716L163.65785123966944,83.65940690325716Z" fill="#ddd" stroke="none" />
<g>
<rect x="224.89256198347107" y="74.02819640252795" width="7.884297520661157" height="51.94360719494409" fill="#e1e1e1" stroke="#7f7f7f" />
<text x="230.15927272727274" y="100.0" font-size="4.415206611570247" transform="rotate(-90, 230.15927272727274, 100.0)" fill="#5b9bd5" text-anchor="middle" font-family="arial">add</text>
</g>
<g>
<rect x="232.77685950413223" y="74.02819640252795" width="7.884297520661157" height="51.94360719494409" fill="#e1e1e1" stroke="#7f7f7f" />
<text x="238.0435702479339" y="100.0" font-size="4.415206611570247" transform="rotate(-90, 238.0435702479339, 100.0)" fill="#5b9bd5" text-anchor="middle" font-family="arial">LN</text>
</g>
<path d="M63.70247933884298,97.37190082644628L86.91735537190081,97.37190082644628L86.91735537190081,95.2694214876033L92.17355371900825,100.0L86.91735537190081,104.73057851239669L86.91735537190081,102.62809917355372L63.70247933884298,102.62809917355372Z" fill="#ddd" stroke="none" />
<circle cx="77.28099173553719" cy="100.0" r="5.256198347107439" fill="#fff" stroke="#818181" />
<circle cx="74.65289256198346" cy="100.0" r="5.256198347107439" fill="#fff" stroke="#818181" />
<circle cx="77.28099173553719" cy="100.0" r="5.256198347107439" fill="#fff" stroke="#818181" />
<circle cx="79.9090909090909" cy="100.0" r="5.256198347107439" fill="#fff" stroke="#818181" />
<text x="79.9090909090909" y="101.31404958677686" font-size="5.256198347107439" fill="#000" text-anchor="middle" font-family="monospace">[t]</text>
<rect x="273.07438016528926" y="76.19251336898395" width="10.512396694214878" height="47.61497326203209" rx="4" ry="4" fill="#e1e1e1" stroke="#7f7f7f" />
<circle cx="278.3305785123967" cy="81.1549829849295" r="2.575537190082645" fill="#5b9bd5" stroke="#41719c" />
<circle cx="278.3305785123967" cy="88.6929897909577" r="2.575537190082645" fill="#5b9bd5" stroke="#41719c" />
<circle cx="278.3305785123967" cy="96.23099659698589" r="2.575537190082645" fill="#5b9bd5" stroke="#41719c" />
<circle cx="278.3305785123967" cy="103.76900340301408" r="2.575537190082645" fill="#5b9bd5" stroke="#41719c" />
<circle cx="278.3305785123967" cy="111.30701020904228" r="2.575537190082645" fill="#5b9bd5" stroke="#41719c" />
<circle cx="278.3305785123967" cy="118.84501701507047" r="2.575537190082645" fill="#5b9bd5" stroke="#41719c" />
<text x="278.3305785123967" y="71.99251336898395" font-size="4.415206611570248" fill="#6868b6" text-anchor="middle" font-family="arial">F3[2048]</text>
<text x="278.3305785123967" y="128.2226932425863" font-size="4.415206611570248" fill="#6868b6" text-anchor="middle" font-family="arial">2048</text>
<path d="M243.28925619834712,97.37190082644628L266.504132231405,97.37190082644628L266.504132231405,95.2694214876033L271.7603305785124,100.0L266.504132231405,104.73057851239669L266.504132231405,102.62809917355372L243.28925619834712,102.62809917355372Z" fill="#ddd" stroke="none" />
<rect x="316.0" y="76.19251336898395" width="10.512396694214878" height="47.61497326203209" rx="4" ry="4" fill="#e1e1e1" stroke="#7f7f7f" />
<circle cx="321.25619834710744" cy="81.1549829849295" r="2.575537190082645" fill="#5b9bd5" stroke="#41719c" />
<circle cx="321.25619834710744" cy="88.6929897909577" r="2.575537190082645" fill="#5b9bd5" stroke="#41719c" />
<circle cx="321.25619834710744" cy="96.23099659698589" r="2.575537190082645" fill="#5b9bd5" stroke="#41719c" />
<circle cx="321.25619834710744" cy="103.76900340301408" r="2.575537190082645" fill="#5b9bd5" stroke="#41719c" />
<circle cx="321.25619834710744" cy="111.30701020904228" r="2.575537190082645" fill="#5b9bd5" stroke="#41719c" />
<circle cx="321.25619834710744" cy="118.84501701507047" r="2.575537190082645" fill="#5b9bd5" stroke="#41719c" />
<text x="321.25619834710744" y="71.99251336898395" font-size="4.415206611570248" fill="#6868b6" text-anchor="middle" font-family="arial">F4[2048]</text>
<text x="321.25619834710744" y="128.2226932425863" font-size="4.415206611570248" fill="#6868b6" text-anchor="middle" font-family="arial">2048</text>
<path d="M286.21487603305786,97.37190082644628L309.4297520661157,97.37190082644628L309.4297520661157,95.2694214876033L314.68595041322317,100.0L309.4297520661157,104.73057851239669L309.4297520661157,102.62809917355372L286.21487603305786,102.62809917355372Z" fill="#ddd" stroke="none" />
<circle cx="299.7933884297521" cy="100.0" r="5.256198347107439" fill="#fff" stroke="#818181" />
<path d="M296.1140495867769,100.0H298.21652892561985Q299.23588440557694,100.55750402417517,299.7933884297521,100.0L302.39507387590294,97.39831455384916" stroke="#000" strokewidth="1" fill="none" />
<rect x="358.92561983471074" y="81.41942000330063" width="10.512396694214878" height="37.161159993398726" rx="4" ry="4" fill="#e1e1e1" stroke="#7f7f7f" />
<circle cx="364.1818181818182" cy="85.89592187547865" r="2.575537190082645" fill="#5b9bd5" stroke="#41719c" />
<circle cx="364.1818181818182" cy="92.94796093773932" r="2.575537190082645" fill="#5b9bd5" stroke="#41719c" />
<circle cx="364.1818181818182" cy="100.0" r="2.575537190082645" fill="#5b9bd5" stroke="#41719c" />
<circle cx="364.1818181818182" cy="107.05203906226068" r="2.575537190082645" fill="#5b9bd5" stroke="#41719c" />
<circle cx="364.1818181818182" cy="114.10407812452135" r="2.575537190082645" fill="#5b9bd5" stroke="#41719c" />
<text x="364.1818181818182" y="77.21942000330063" font-size="4.415206611570248" fill="#6868b6" text-anchor="middle" font-family="arial">F5[384]</text>
<text x="364.1818181818182" y="122.99578660826961" font-size="4.415206611570248" fill="#6868b6" text-anchor="middle" font-family="arial">384</text>
<path d="M329.1404958677686,97.37190082644628L352.35537190082647,97.37190082644628L352.35537190082647,95.2694214876033L357.6115702479339,100.0L352.35537190082647,104.73057851239669L352.35537190082647,102.62809917355372L329.1404958677686,102.62809917355372Z" fill="#ddd" stroke="none" />
<circle cx="342.7190082644628" cy="100.0" r="5.256198347107439" fill="#fff" stroke="#818181" />
<path d="M339.0396694214876,100.0H341.14214876033054Q342.1615042402876,100.55750402417517,342.7190082644628,100.0L345.3206937106136,97.39831455384916" stroke="#000" strokewidth="1" fill="none" />
<rect x="401.8512396694215" y="63.20661157024792" width="10.512396694214878" height="73.58677685950414" rx="4" ry="4" fill="#e1e1e1" stroke="#7f7f7f" />
<circle cx="407.10743801652893" cy="67.78906085649886" r="2.575537190082645" fill="#5b9bd5" stroke="#41719c" />
<circle cx="407.10743801652893" cy="74.94704733283245" r="2.575537190082645" fill="#5b9bd5" stroke="#41719c" />
<circle cx="407.10743801652893" cy="82.10503380916604" r="2.575537190082645" fill="#5b9bd5" stroke="#41719c" />
<circle cx="407.10743801652893" cy="89.26302028549964" r="2.575537190082645" fill="#5b9bd5" stroke="#41719c" />
<circle cx="407.10743801652893" cy="96.42100676183323" r="2.575537190082645" fill="#5b9bd5" stroke="#41719c" />
<circle cx="407.10743801652893" cy="103.57899323816682" r="2.575537190082645" fill="#5b9bd5" stroke="#41719c" />
<circle cx="407.10743801652893" cy="110.73697971450041" r="2.575537190082645" fill="#5b9bd5" stroke="#41719c" />
<circle cx="407.10743801652893" cy="117.894966190834" r="2.575537190082645" fill="#5b9bd5" stroke="#41719c" />
<circle cx="407.10743801652893" cy="125.05295266716759" r="2.575537190082645" fill="#5b9bd5" stroke="#41719c" />
<circle cx="407.10743801652893" cy="132.21093914350118" r="2.575537190082645" fill="#5b9bd5" stroke="#41719c" />
<text x="407.10743801652893" y="59.00661157024793" font-size="4.415206611570248" fill="#6868b6" text-anchor="middle" font-family="arial">F6[131072]</text>
<text x="407.10743801652893" y="141.20859504132233" font-size="4.415206611570248" fill="#6868b6" text-anchor="middle" font-family="arial">131072</text>
<path d="M372.06611570247935,97.37190082644628L395.2809917355372,97.37190082644628L395.2809917355372,95.2694214876033L400.53719008264466,100.0L395.2809917355372,104.73057851239669L395.2809917355372,102.62809917355372L372.06611570247935,102.62809917355372Z" fill="#ddd" stroke="none" />
</svg>