<?xml version="1.0" encoding="UTF-8"?>
<svg xmlns="http://www.w3.org/2000/svg" xmlns:xlink="http://www.w3.org/1999/xlink"
     width="1100" height="300" viewBox="0 0 1100 300">
<defs>
</defs>
<rect x="27.5" y="65.04360832804484" width="31.42857142857143" height="169.91278334391032" fill="#e1e1e1" stroke="#7f7f7f" stroke-dasharray="11.0 8.8" />
<text x="48.494285714285716" y="150.0" font-size="17.6" transform="rotate(-90, 48.494285714285716, 150.0)" fill="#5b9bd5" text-anchor="middle" font-family="arial">input</text>
<text x="43.214285714285715" y="248.15639167195513" font-size="13.2" fill="#6868b6" text-anchor="middle" font-family="arial">3x32x32</text>
<rect x="154.19642857142856" y="39.999999999999986" width="31.42857142857143" height="220.00000000000003" fill="#e1e1e1" stroke="#7f7f7f" rx="4" ry="4" />
<rect x="162.21071428571426" y="45.999999999999986" width="15.399999999999999" height="15.399999999999999" fill="#5b9bd5" stroke="#41719c" />
<rect x="162.21071428571426" y="67.39999999999999" width="15.399999999999999" height="15.399999999999999" fill="#5b9bd5" stroke="#41719c" />
<rect x="162.21071428571426" y="88.8" width="15.399999999999999" height="15.399999999999999" fill="#5b9bd5" stroke="#41719c" />
<rect x="162.21071428571426" y="110.2" width="15.399999999999999" height="15.399999999999999" fill="#5b9bd5" stroke="#41719c" />
<rect x="162.21071428571426" y="131.6" width="15.399999999999999" height="15.399999999999999" fill="#5b9bd5" stroke="#41719c" />
<rect x="162.21071428571426" y="153.0" width="15.399999999999999" height="15.399999999999999" fill="#5b9bd5" stroke="#41719c" />
<rect x="162.21071428571426" y="174.4" width="15.399999999999999" height="15.399999999999999" fill="#5b9bd5" stroke="#41719c" />
<rect x="162.21071428571426" y="195.8" width="15.399999999999999" height="15.399999999999999" fill="#5b9bd5" stroke="#41719c" />
<rect x="162.21071428571426" y="217.20000000000002" width="15.399999999999999" height="15.399999999999999" fill="#5b9bd5" stroke="#41719c" />
<rect x="162.21071428571426" y="238.60000000000002" width="15.399999999999999" height="15.399999999999999" fill="#5b9bd5" stroke="#41719c" />
<text x="169.91071428571428" y="35.79999999999998" font-size="13.2" fill="#6868b6" text-anchor="middle" font-family="arial">C1[5x5]</text>
<text x="169.91071428571428" y="273.2" font-size="13.2" fill="#6868b6" text-anchor="middle" font-family="arial">32x32x32</text>
<path d="M63.69196428571427,142.14285714285714L135.29017857142856,142.14285714285714L135.29017857142856,135.85714285714286L149.4330357142857,150.0L135.29017857142856,164.14285714285714L135.29017857142856,157.85714285714286L63.69196428571426,157.85714285714286Z" fill="#ddd" stroke="none" />
<rect x="280.8928571428571" y="54.66666666666666" width="31.42857142857143" height="190.66666666666669" fill="#e1e1e1" stroke="#7f7f7f" />
<text x="301.8871428571428" y="150.0" font-size="17.6" transform="rotate(-90, 301.8871428571428, 150.0)" fill="#5b9bd5" font-family="arial" text-anchor="middle">max</text>
<text x="296.60714285714283" y="50.466666666666654" font-size="13.2" fill="#6868b6" text-anchor="middle" font-family="arial">P2[3x3@2]</text>
<text x="296.60714285714283" y="258.53333333333336" font-size="13.2" fill="#6868b6" text-anchor="middle" font-family="arial">32x16x16</text>
<path d="M190.38839285714283,142.14285714285714L261.9866071428571,142.14285714285714L261.9866071428571,135.85714285714286L276.1294642857142,150.0L261.9866071428571,164.14285714285714L261.9866071428571,157.85714285714286L190.38839285714283,157.85714285714286Z" fill="#ddd" stroke="none" />
<rect x="407.58928571428567" y="54.66666666666666" width="31.42857142857143" height="190.66666666666669" fill="#e1e1e1" stroke="#7f7f7f" rx="4" ry="4" />
<rect x="415.6035714285714" y="62.16296296296296" width="15.399999999999999" height="15.399999999999999" fill="#5b9bd5" stroke="#41719c" />
<rect x="415.6035714285714" y="85.05925925925925" width="15.399999999999999" height="15.399999999999999" fill="#5b9bd5" stroke="#41719c" />
<rect x="415.6035714285714" y="107.95555555555555" width="15.399999999999999" height="15.399999999999999" fill="#5b9bd5" stroke="#41719c" />
<rect x="415.6035714285714" y="130.85185185185185" width="15.399999999999999" height="15.399999999999999" fill="#5b9bd5" stroke="#41719c" />
<rect x="415.6035714285714" y="153.74814814814815" width="15.399999999999999" height="15.399999999999999" fill="#5b9bd5" stroke="#41719c" />
<rect x="415.6035714285714" y="176.64444444444445" width="15.399999999999999" height="15.399999999999999" fill="#5b9bd5" stroke="#41719c" />
<rect x="415.6035714285714" y="199.54074074074074" width="15.399999999999999" height="15.399999999999999" fill="#5b9bd5" stroke="#41719c" />
<rect x="415.6035714285714" y="222.43703703703704" width="15.399999999999999" height="15.399999999999999" fill="#5b9bd5" stroke="#41719c" />
<text x="423.3035714285714" y="50.466666666666654" font-size="13.2" fill="#6868b6" text-anchor="middle" font-family="arial">C3[5x5]</text>
<text x="423.3035714285714" y="258.53333333333336" font-size="13.2" fill="#6868b6" text-anchor="middle" font-family="arial">32x16x16</text>
<path d="M317.0848214285714,142.14285714285714L388.68303571428567,142.14285714285714L388.68303571428567,135.85714285714286L402.8258928571428,150.0L388.68303571428567,164.14285714285714L388.68303571428567,157.85714285714286L317.0848214285714,157.85714285714286Z" fill="#ddd" stroke="none" />
<circle cx="359.9553571428571" cy="150.0" r="15.714285714285715" fill="#fff" stroke="#818181" />
<path d="M348.9553571428571,150.0H359.9553571428571L367.73353173590914,142.22182540694797" stroke="#000" strokewidth="1" fill="none" />
<rect x="534.2857142857142" y="69.33333333333333" width="31.42857142857143" height="161.33333333333334" fill="#e1e1e1" stroke="#7f7f7f" />
<text x="555.2799999999999" y="150.0" font-size="17.6" transform="rotate(-90, 555.2799999999999, 150.0)" fill="#5b9bd5" font-family="arial" text-anchor="middle">ave</text>
<text x="549.9999999999999" y="65.13333333333333" font-size="13.2" fill="#6868b6" text-anchor="middle" font-family="arial">P4[3x3@2]</text>
<text x="549.9999999999999" y="243.86666666666667" font-size="13.2" fill="#6868b6" text-anchor="middle" font-family="arial">32x8x8</text>
<path d="M443.78124999999994,142.14285714285714L515.3794642857142,142.14285714285714L515.3794642857142,135.85714285714286L529.5223214285713,150.0L515.3794642857142,164.14285714285714L515.3794642857142,157.85714285714286L443.78124999999994,157.85714285714286Z" fill="#ddd" stroke="none" />
<circle cx="486.65178571428567" cy="150.0" r="15.714285714285715" fill="#fff" stroke="#818181" />
<path d="M475.65178571428567,150.0H486.65178571428567L494.4299603073377,142.22182540694797" stroke="#000" strokewidth="1" fill="none" />
<rect x="660.9821428571428" y="62.0" width="31.42857142857143" height="176.0" fill="#e1e1e1" stroke="#7f7f7f" rx="4" ry="4" />
<rect x="668.9964285714285" y="67.86666666666667" width="15.399999999999999" height="15.399999999999999" fill="#5b9bd5" stroke="#41719c" />
<rect x="668.9964285714285" y="89.13333333333334" width="15.399999999999999" height="15.399999999999999" fill="#5b9bd5" stroke="#41719c" />
<rect x="668.9964285714285" y="110.4" width="15.399999999999999" height="15.399999999999999" fill="#5b9bd5" stroke="#41719c" />
<rect x="668.9964285714285" y="131.66666666666669" width="15.399999999999999" height="15.399999999999999" fill="#5b9bd5" stroke="#41719c" />
<rect x="668.9964285714285" y="152.93333333333334" width="15.399999999999999" height="15.399999999999999" fill="#5b9bd5" stroke="#41719c" />
<rect x="668.9964285714285" y="174.2" width="15.399999999999999" height="15.399999999999999" fill="#5b9bd5" stroke="#41719c" />
<rect x="668.9964285714285" y="195.46666666666664" width="15.399999999999999" height="15.399999999999999" fill="#5b9bd5" stroke="#41719c" />
<rect x="668.9964285714285" y="216.7333333333333" width="15.399999999999999" height="15.399999999999999" fill="#5b9bd5" stroke="#41719c" />
<text x="676.6964285714284" y="57.8" font-size="13.2" fill="#6868b6" text-anchor="middle" font-family="arial">C5[5x5]</text>
<text x="676.6964285714284" y="251.2" font-size="13.2" fill="#6868b6" text-anchor="middle" font-family="arial">64x8x8</text>
<path d="M570.4776785714286,142.14285714285714L642.0758928571428,142.14285714285714L642.0758928571428,135.85714285714286L656.2187499999999,150.0L642.0758928571428,164.14285714285714L642.0758928571428,157.85714285714286L570.4776785714286,157.85714285714286Z" fill="#ddd" stroke="none" />
<rect x="787.6785714285713" y="76.66666666666666" width="31.42857142857143" height="146.66666666666669" fill="#e1e1e1" stroke="#7f7f7f" />
<text x="808.672857142857" y="150.0" font-size="17.6" transform="rotate(-90, 808.672857142857, 150.0)" fill="#5b9bd5" font-family="arial" text-anchor="middle">ave</text>
<text x="803.392857142857" y="72.46666666666665" font-size="13.2" fill="#6868b6" text-anchor="middle" font-family="arial">P6[3x3@2]</text>
<text x="803.392857142857" y="236.53333333333333" font-size="13.2" fill="#6868b6" text-anchor="middle" font-family="arial">64x4x4</text>
<path d="M697.1741071428571,142.14285714285714L768.7723214285713,142.14285714285714L768.7723214285713,135.85714285714286L782.9151785714284,150.0L768.7723214285713,164.14285714285714L768.7723214285713,157.85714285714286L697.1741071428571,157.85714285714286Z" fill="#ddd" stroke="none" />
<circle cx="740.0446428571428" cy="150.0" r="15.714285714285715" fill="#fff" stroke="#818181" />
<path d="M729.0446428571428,150.0H740.0446428571428L747.8228174501947,142.22182540694797" stroke="#000" strokewidth="1" fill="none" />
<rect x="914.3749999999999" y="106.0" width="31.42857142857143" height="88.0" fill="#e1e1e1" stroke="#7f7f7f" rx="4" ry="4" />
<circle cx="930.0892857142856" cy="118.98" r="7.699999999999999" fill="#5b9bd5" stroke="#41719c" />
<circle cx="930.0892857142856" cy="139.66" r="7.699999999999999" fill="#5b9bd5" stroke="#41719c" />
<circle cx="930.0892857142856" cy="160.34" r="7.699999999999999" fill="#5b9bd5" stroke="#41719c" />
<circle cx="930.0892857142856" cy="181.02" r="7.699999999999999" fill="#5b9bd5" stroke="#41719c" />
<text x="930.0892857142856" y="101.8" font-size="13.2" fill="#6868b6" text-anchor="middle" font-family="arial">F7[64]</text>
<text x="930.0892857142856" y="207.2" font-size="13.2" fill="#6868b6" text-anchor="middle" font-family="arial">64</text>
<path d="M823.8705357142857,142.14285714285714L895.4687499999999,142.14285714285714L895.4687499999999,135.85714285714286L909.611607142857,150.0L895.4687499999999,164.14285714285714L895.4687499999999,157.85714285714286L823.8705357142857,157.85714285714286Z" fill="#ddd" stroke="none" />
<rect x="1041.0714285714284" y="125.639193970826" width="31.42857142857143" height="48.72161205834799" fill="#e1e1e1" stroke="#7f7f7f" rx="4" ry="4" />
<circle cx="1056.7857142857142" cy="139.31306465694198" r="7.699999999999999" fill="#5b9bd5" stroke="#41719c" />
<circle cx="1056.7857142857142" cy="160.68693534305797" r="7.699999999999999" fill="#5b9bd5" stroke="#41719c" />
<text x="1056.7857142857142" y="121.439193970826" font-size="13.2" fill="#6868b6" text-anchor="middle" font-family="arial">F8[10]</text>
<text x="1056.7857142857142" y="187.560806029174" font-size="13.2" fill="#6868b6" text-anchor="middle" font-family="arial">10</text>
<path d="M950.5669642857142,142.14285714285714L1022.1651785714284,142.14285714285714L1022.1651785714284,135.85714285714286L1036.3080357142856,150.0L1022.1651785714284,164.14285714285714L1022.1651785714284,157.85714285714286L950.5669642857142,157.85714285714286Z" fill="#ddd" stroke="none" />
<circle cx="993.4374999999999" cy="150.0" r="15.714285714285715" fill="#fff" stroke="#818181" stroke-dasharray="7.857142857142858 6.2857142857142865" />
<path d="M982.4374999999999,150.0H993.4374999999999L1001.2156745930519,142.22182540694797" stroke="#000" strokewidth="1" fill="none" />
</svg>