<?xml version="1.0" encoding="UTF-8"?>
<svg xmlns="http://www.w3.org/2000/svg" xmlns:xlink="http://www.w3.org/1999/xlink"
     width="650" height="150" viewBox="0 0 650 150">
<defs>
</defs>
<rect x="14.444444444444446" y="30.376440737962948" width="16.50793650793651" height="89.24711852407411" fill="#e1e1e1" stroke="#7f7f7f" stroke-dasharray="5.777777777777778 4.622222222222223" />
<text x="25.471746031746036" y="75.0" font-size="9.244444444444445" transform="rotate(-90, 25.471746031746036, 75.0)" fill="#5b9bd5" text-anchor="middle" font-family="arial">input</text>
<text x="22.698412698412703" y="126.5568925953704" font-size="6.933333333333333" fill="#6868b6" text-anchor="middle" font-family="arial">3x32x32</text>
<rect x="81.62257495590829" y="17.222222222222218" width="16.50793650793651" height="115.55555555555557" fill="#e1e1e1" stroke="#7f7f7f" rx="4" ry="4" />
<rect x="85.83209876543211" y="20.37373737373737" width="8.088888888888889" height="8.088888888888889" fill="#5b9bd5" stroke="#41719c" />
<rect x="85.83209876543211" y="31.61414141414141" width="8.088888888888889" height="8.088888888888889" fill="#5b9bd5" stroke="#41719c" />
<rect x="85.83209876543211" y="42.85454545454545" width="8.088888888888889" height="8.088888888888889" fill="#5b9bd5" stroke="#41719c" />
<rect x="85.83209876543211" y="54.09494949494949" width="8.088888888888889" height="8.088888888888889" fill="#5b9bd5" stroke="#41719c" />
<rect x="85.83209876543211" y="65.33535353535353" width="8.088888888888889" height="8.088888888888889" fill="#5b9bd5" stroke="#41719c" />
<rect x="85.83209876543211" y="76.57575757575758" width="8.088888888888889" height="8.088888888888889" fill="#5b9bd5" stroke="#41719c" />
<rect x="85.83209876543211" y="87.81616161616162" width="8.088888888888889" height="8.088888888888889" fill="#5b9bd5" stroke="#41719c" />
<rect x="85.83209876543211" y="99.05656565656567" width="8.088888888888889" height="8.088888888888889" fill="#5b9bd5" stroke="#41719c" />
<rect x="85.83209876543211" y="110.29696969696971" width="8.088888888888889" height="8.088888888888889" fill="#5b9bd5" stroke="#41719c" />
<rect x="85.83209876543211" y="121.53737373737376" width="8.088888888888889" height="8.088888888888889" fill="#5b9bd5" stroke="#41719c" />
<text x="89.87654320987654" y="13.022222222222219" font-size="6.933333333333333" fill="#6868b6" text-anchor="middle" font-family="arial">C1[5x5]</text>
<text x="89.87654320987654" y="139.71111111111114" font-size="6.933333333333333" fill="#6868b6" text-anchor="middle" font-family="arial">32x32x32</text>
<path d="M33.48589065255732,70.87301587301587L71.6604938271605,70.87301587301587L71.6604938271605,67.57142857142857L79.08906525573192,75.0L71.6604938271605,82.42857142857143L71.6604938271605,79.12698412698413L33.48589065255732,79.12698412698413Z" fill="#ddd" stroke="none" />
<rect x="148.80070546737215" y="24.925925925925927" width="16.50793650793651" height="100.14814814814815" fill="#e1e1e1" stroke="#7f7f7f" />
<text x="159.82800705467375" y="75.0" font-size="9.244444444444445" transform="rotate(-90, 159.82800705467375, 75.0)" fill="#5b9bd5" font-family="arial" text-anchor="middle">max</text>
<text x="157.0546737213404" y="20.725925925925928" font-size="6.933333333333333" fill="#6868b6" text-anchor="middle" font-family="arial">P2[3x3@2]</text>
<text x="157.0546737213404" y="132.0074074074074" font-size="6.933333333333333" fill="#6868b6" text-anchor="middle" font-family="arial">32x16x16</text>
<path d="M100.66402116402118,70.87301587301587L138.83862433862436,70.87301587301587L138.83862433862436,67.57142857142857L146.2671957671958,75.0L138.83862433862436,82.42857142857143L138.83862433862436,79.12698412698413L100.66402116402118,79.12698412698413Z" fill="#ddd" stroke="none" />
<rect x="215.978835978836" y="24.925925925925927" width="16.50793650793651" height="100.14814814814815" fill="#e1e1e1" stroke="#7f7f7f" rx="4" ry="4" />
<rect x="220.1883597883598" y="28.863374485596708" width="8.088888888888889" height="8.088888888888889" fill="#5b9bd5" stroke="#41719c" />
<rect x="220.1883597883598" y="40.88971193415638" width="8.088888888888889" height="8.088888888888889" fill="#5b9bd5" stroke="#41719c" />
<rect x="220.1883597883598" y="52.916049382716054" width="8.088888888888889" height="8.088888888888889" fill="#5b9bd5" stroke="#41719c" />
<rect x="220.1883597883598" y="64.94238683127573" width="8.088888888888889" height="8.088888888888889" fill="#5b9bd5" stroke="#41719c" />
<rect x="220.1883597883598" y="76.9687242798354" width="8.088888888888889" height="8.088888888888889" fill="#5b9bd5" stroke="#41719c" />
<rect x="220.1883597883598" y="88.99506172839507" width="8.088888888888889" height="8.088888888888889" fill="#5b9bd5" stroke="#41719c" />
<rect x="220.1883597883598" y="101.02139917695474" width="8.088888888888889" height="8.088888888888889" fill="#5b9bd5" stroke="#41719c" />
<rect x="220.1883597883598" y="113.04773662551442" width="8.088888888888889" height="8.088888888888889" fill="#5b9bd5" stroke="#41719c" />
<text x="224.23280423280426" y="20.725925925925928" font-size="6.933333333333333" fill="#6868b6" text-anchor="middle" font-family="arial">C3[5x5]</text>
<text x="224.23280423280426" y="132.0074074074074" font-size="6.933333333333333" fill="#6868b6" text-anchor="middle" font-family="arial">32x16x16</text>
<path d="M167.842151675485,70.87301587301587L206.0167548500882,70.87301587301587L206.0167548500882,67.57142857142857L213.44532627865965,75.0L206.0167548500882,82.42857142857143L206.0167548500882,79.12698412698413L167.842151675485,79.12698412698413Z" fill="#ddd" stroke="none" />
<circle cx="190.64373897707233" cy="75.0" r="8.253968253968255" fill="#fff" stroke="#818181" />
<path d="M184.86596119929456,75.0H190.64373897707233L194.72924482392793,70.91449415314439" stroke="#000" strokewidth="1" fill="none" />
<rect x="283.15696649029985" y="32.62962962962963" width="16.50793650793651" height="84.74074074074075" fill="#e1e1e1" stroke="#7f7f7f" />
<text x="294.1842680776014" y="75.0" font-size="9.244444444444445" transform="rotate(-90, 294.1842680776014, 75.0)" fill="#5b9bd5" font-family="arial" text-anchor="middle">ave</text>
<text x="291.4109347442681" y="28.429629629629634" font-size="6.933333333333333" fill="#6868b6" text-anchor="middle" font-family="arial">P4[3x3@2]</text>
<text x="291.4109347442681" y="124.30370370370372" font-size="6.933333333333333" fill="#6868b6" text-anchor="middle" font-family="arial">32x8x8</text>
<path d="M235.02028218694886,70.87301587301587L273.19488536155205,70.87301587301587L273.19488536155205,67.57142857142857L280.6234567901235,75.0L273.19488536155205,82.42857142857143L273.19488536155205,79.12698412698413L235.02028218694886,79.12698412698413Z" fill="#ddd" stroke="none" />
<circle cx="257.8218694885362" cy="75.0" r="8.253968253968255" fill="#fff" stroke="#818181" />
<path d="M252.04409171075844,75.0H257.8218694885362L261.9073753353918,70.91449415314439" stroke="#000" strokewidth="1" fill="none" />
<rect x="350.3350970017637" y="28.777777777777775" width="16.50793650793651" height="92.44444444444446" fill="#e1e1e1" stroke="#7f7f7f" rx="4" ry="4" />
<rect x="354.54462081128753" y="31.859259259259257" width="8.088888888888889" height="8.088888888888889" fill="#5b9bd5" stroke="#41719c" />
<rect x="354.54462081128753" y="43.029629629629625" width="8.088888888888889" height="8.088888888888889" fill="#5b9bd5" stroke="#41719c" />
<rect x="354.54462081128753" y="54.199999999999996" width="8.088888888888889" height="8.088888888888889" fill="#5b9bd5" stroke="#41719c" />
<rect x="354.54462081128753" y="65.37037037037037" width="8.088888888888889" height="8.088888888888889" fill="#5b9bd5" stroke="#41719c" />
<rect x="354.54462081128753" y="76.54074074074074" width="8.088888888888889" height="8.088888888888889" fill="#5b9bd5" stroke="#41719c" />
<rect x="354.54462081128753" y="87.71111111111111" width="8.088888888888889" height="8.088888888888889" fill="#5b9bd5" stroke="#41719c" />
<rect x="354.54462081128753" y="98.88148148148147" width="8.088888888888889" height="8.088888888888889" fill="#5b9bd5" stroke="#41719c" />
<rect x="354.54462081128753" y="110.05185185185184" width="8.088888888888889" height="8.088888888888889" fill="#5b9bd5" stroke="#41719c" />
<text x="358.58906525573195" y="24.577777777777776" font-size="6.933333333333333" fill="#6868b6" text-anchor="middle" font-family="arial">C5[5x5]</text>
<text x="358.58906525573195" y="128.15555555555557" font-size="6.933333333333333" fill="#6868b6" text-anchor="middle" font-family="arial">64x8x8</text>
<path d="M302.1984126984127,70.87301587301587L340.3730158730159,70.87301587301587L340.3730158730159,67.57142857142857L347.80158730158735,75.0L340.3730158730159,82.42857142857143L340.3730158730159,79.12698412698413L302.1984126984127,79.12698412698413Z" fill="#ddd" stroke="none" />
<rect x="417.51322751322755" y="36.48148148148148" width="16.50793650793651" height="77.03703703703705" fill="#e1e1e1" stroke="#7f7f7f" />
<text x="428.5405291005291" y="75.0" font-size="9.244444444444445" transform="rotate(-90, 428.5405291005291, 75.0)" fill="#5b9bd5" font-family="arial" text-anchor="middle">ave</text>
<text x="425.7671957671958" y="32.28148148148148" font-size="6.933333333333333" fill="#6868b6" text-anchor="middle" font-family="arial">P6[3x3@2]</text>
<text x="425.7671957671958" y="120.45185185185187" font-size="6.933333333333333" fill="#6868b6" text-anchor="middle" font-family="arial">64x4x4</text>
<path d="M369.37654320987656,70.87301587301587L407.55114638447975,70.87301587301587L407.55114638447975,67.57142857142857L414.9797178130512,75.0L407.55114638447975,82.42857142857143L407.55114638447975,79.12698412698413L369.37654320987656,79.12698412698413Z" fill="#ddd" stroke="none" />
<circle cx="392.1781305114639" cy="75.0" r="8.253968253968255" fill="#fff" stroke="#818181" />
<path d="M386.40035273368613,75.0H392.1781305114639L396.2636363583195,70.91449415314439" stroke="#000" strokewidth="1" fill="none" />
<rect x="484.6913580246914" y="32.62962962962963" width="16.50793650793651" height="84.74074074074075" fill="#e1e1e1" stroke="#7f7f7f" rx="4" ry="4" />
<rect x="488.9008818342152" y="36.144444444444446" width="8.088888888888889" height="8.088888888888889" fill="#5b9bd5" stroke="#41719c" />
<rect x="488.9008818342152" y="47.74814814814815" width="8.088888888888889" height="8.088888888888889" fill="#5b9bd5" stroke="#41719c" />
<rect x="488.9008818342152" y="59.35185185185185" width="8.088888888888889" height="8.088888888888889" fill="#5b9bd5" stroke="#41719c" />
<rect x="488.9008818342152" y="70.95555555555555" width="8.088888888888889" height="8.088888888888889" fill="#5b9bd5" stroke="#41719c" />
<rect x="488.9008818342152" y="82.55925925925925" width="8.088888888888889" height="8.088888888888889" fill="#5b9bd5" stroke="#41719c" />
<rect x="488.9008818342152" y="94.16296296296295" width="8.088888888888889" height="8.088888888888889" fill="#5b9bd5" stroke="#41719c" />
<rect x="488.9008818342152" y="105.76666666666665" width="8.088888888888889" height="8.088888888888889" fill="#5b9bd5" stroke="#41719c" />
<text x="492.94532627865965" y="28.429629629629634" font-size="6.933333333333333" fill="#6868b6" text-anchor="middle" font-family="arial">C7[1x1]</text>
<text x="492.94532627865965" y="124.30370370370372" font-size="6.933333333333333" fill="#6868b6" text-anchor="middle" font-family="arial">128x4x4</text>
<path d="M436.5546737213404,70.87301587301587L474.7292768959436,70.87301587301587L474.7292768959436,67.57142857142857L482.15784832451504,75.0L474.7292768959436,82.42857142857143L474.7292768959436,79.12698412698413L436.5546737213404,79.12698412698413Z" fill="#ddd" stroke="none" />
<rect x="551.8694885361552" y="46.79701770858201" width="16.50793650793651" height="56.405964582835985" fill="#e1e1e1" stroke="#7f7f7f" rx="4" ry="4" />
<rect x="556.0790123456791" y="51.6070995140381" width="8.088888888888889" height="8.088888888888889" fill="#5b9bd5" stroke="#41719c" />
<rect x="556.0790123456791" y="64.50607020838308" width="8.088888888888889" height="8.088888888888889" fill="#5b9bd5" stroke="#41719c" />
<rect x="556.0790123456791" y="77.40504090272805" width="8.088888888888889" height="8.088888888888889" fill="#5b9bd5" stroke="#41719c" />
<rect x="556.0790123456791" y="90.30401159707301" width="8.088888888888889" height="8.088888888888889" fill="#5b9bd5" stroke="#41719c" />
<text x="560.1234567901236" y="42.597017708582015" font-size="6.933333333333333" fill="#6868b6" text-anchor="middle" font-family="arial">C8[1x1]</text>
<text x="560.1234567901236" y="110.13631562475133" font-size="6.933333333333333" fill="#6868b6" text-anchor="middle" font-family="arial">10x4x4</text>
<path d="M503.73280423280426,70.87301587301587L541.9074074074074,70.87301587301587L541.9074074074074,67.57142857142857L549.3359788359788,75.0L541.9074074074074,82.42857142857143L541.9074074074074,79.12698412698413L503.7328042328042,79.12698412698413Z" fill="#ddd" stroke="none" />
<circle cx="526.5343915343916" cy="75.0" r="8.253968253968255" fill="#fff" stroke="#818181" stroke-dasharray="4.126984126984127 3.3015873015873023" />
<path d="M520.7566137566138,75.0H526.5343915343916L530.6198973812473,70.91449415314439" stroke="#000" strokewidth="1" fill="none" />
<rect x="619.047619047619" y="62.20442511598942" width="16.50793650793651" height="25.591149768021168" fill="#e1e1e1" stroke="#7f7f7f" />
<text x="630.0749206349207" y="75.0" font-size="9.244444444444445" transform="rotate(-90, 630.0749206349207, 75.0)" fill="#5b9bd5" font-family="arial" text-anchor="middle">ave</text>
<text x="627.3015873015873" y="58.00442511598942" font-size="6.933333333333333" fill="#6868b6" text-anchor="middle" font-family="arial">P9[4x4]</text>
<text x="627.3015873015873" y="94.72890821734393" font-size="6.933333333333333" fill="#6868b6" text-anchor="middle" font-family="arial">10x1x1</text>
<path d="M570.9109347442682,70.87301587301587L609.0855379188713,70.87301587301587L609.0855379188713,67.57142857142857L616.5141093474426,75.0L609.0855379188713,82.42857142857143L609.0855379188713,79.12698412698413L570.9109347442682,79.12698412698413Z" fill="#ddd" stroke="none" />
</svg>