<svg width="800" height="466" viewBox="0 0 3185 1857" xmlns="http://www.w3.org/2000/svg" xmlns:xlink="http://www.w3.org/1999/xlink" xml:space="preserve" overflow="hidden"><g transform="translate(-392 -496)"><rect x="395.5" y="1066.5" width="182" height="182" stroke="#000000" stroke-width="6.875" stroke-miterlimit="8" fill="#FFFFFF"/><text font-family="Aptos,Aptos_MSFontService,sans-serif" font-weight="400" font-size="83" transform="matrix(1 0 0 1 463.695 1183)">a</text><rect x="577.5" y="1066.5" width="181" height="182" stroke="#000000" stroke-width="6.875" stroke-miterlimit="8" fill="#FFFFFF"/><text font-family="Aptos,Aptos_MSFontService,sans-serif" font-weight="400" font-size="83" transform="matrix(1 0 0 1 644.161 1183)">b</text><rect x="758.5" y="1066.5" width="182" height="182" stroke="#000000" stroke-width="6.875" stroke-miterlimit="8" fill="#FFFFFF"/><text font-family="Aptos,Aptos_MSFontService,sans-serif" font-weight="400" font-size="83" transform="matrix(1 0 0 1 827.207 1183)">c</text><rect x="940.5" y="1066.5" width="181" height="182" stroke="#000000" stroke-width="6.875" stroke-miterlimit="8" fill="#FFFFFF"/><text font-family="Aptos,Aptos_MSFontService,sans-serif" font-weight="400" font-size="83" transform="matrix(1 0 0 1 1007.39 1183)">d</text><rect x="1121.5" y="1066.5" width="182" height="182" stroke="#000000" stroke-width="6.875" stroke-miterlimit="8" fill="#FFFFFF"/><text font-family="Aptos,Aptos_MSFontService,sans-serif" font-weight="400" font-size="83" transform="matrix(1 0 0 1 1190.43 1183)">e</text><rect x="395.5" y="1248.5" width="182" height="182" stroke="#000000" stroke-width="6.875" stroke-miterlimit="8" fill="#FFFFFF"/><text font-family="Aptos,Aptos_MSFontService,sans-serif" font-weight="400" font-size="83" transform="matrix(1 0 0 1 473.434 1365)">f</text><rect x="577.5" y="1248.5" width="181" height="182" stroke="#042433" stroke-width="6.875" stroke-miterlimit="8" fill="#156082"/><text fill="#FFFFFF" font-family="Aptos,Aptos_MSFontService,sans-serif" font-weight="400" font-size="83" transform="matrix(1 0 0 1 647.312 1365)">g</text><rect x="758.5" y="1248.5" width="182" height="182" stroke="#000000" stroke-width="6.875" stroke-miterlimit="8" fill="#FFFFFF"/><text font-family="Aptos,Aptos_MSFontService,sans-serif" font-weight="400" font-size="83" transform="matrix(1 0 0 1 826.347 1365)">h</text><rect x="940.5" y="1248.5" width="181" height="182" stroke="#622C0F" stroke-width="6.875" stroke-miterlimit="8" fill="#E97132"/><text fill="#FFFFFF" font-family="Aptos,Aptos_MSFontService,sans-serif" font-weight="400" font-size="83" transform="matrix(1 0 0 1 1020.85 1365)">i</text><rect x="1121.5" y="1248.5" width="182" height="182" stroke="#000000" stroke-width="6.875" stroke-miterlimit="8" fill="#FFFFFF"/><text font-family="Aptos,Aptos_MSFontService,sans-serif" font-weight="400" font-size="83" transform="matrix(1 0 0 1 1202.46 1365)">j</text><rect x="395.5" y="1427.5" width="182" height="182" stroke="#000000" stroke-width="6.875" stroke-miterlimit="8" fill="#FFFFFF"/><text font-family="Aptos,Aptos_MSFontService,sans-serif" font-weight="400" font-size="83" transform="matrix(1 0 0 1 465.7 1544)">k</text><rect x="577.5" y="1427.5" width="181" height="182" stroke="#000000" stroke-width="6.875" stroke-miterlimit="8" fill="#FFFFFF"/><text font-family="Aptos,Aptos_MSFontService,sans-serif" font-weight="400" font-size="83" transform="matrix(1 0 0 1 656.765 1544)">l</text><rect x="758.5" y="1427.5" width="182" height="182" stroke="#000000" stroke-width="6.875" stroke-miterlimit="8" fill="#FFFFFF"/><text font-family="Aptos,Aptos_MSFontService,sans-serif" font-weight="400" font-size="83" transform="matrix(1 0 0 1 813.743 1544)">m</text><rect x="940.5" y="1427.5" width="181" height="182" stroke="#000000" stroke-width="6.875" stroke-miterlimit="8" fill="#FFFFFF"/><text font-family="Aptos,Aptos_MSFontService,sans-serif" font-weight="400" font-size="83" transform="matrix(1 0 0 1 1007.96 1544)">n</text><rect x="1121.5" y="1427.5" width="182" height="182" stroke="#000000" stroke-width="6.875" stroke-miterlimit="8" fill="#FFFFFF"/><text font-family="Aptos,Aptos_MSFontService,sans-serif" font-weight="400" font-size="83" transform="matrix(1 0 0 1 1189.57 1544)">o</text><rect x="395.5" y="1609.5" width="182" height="182" stroke="#052909" stroke-width="6.875" stroke-miterlimit="8" fill="#196B24"/><text fill="#FFFFFF" font-family="Aptos,Aptos_MSFontService,sans-serif" font-weight="400" font-size="83" transform="matrix(1 0 0 1 462.549 1727)">p</text><rect x="577.5" y="1609.5" width="181" height="182" stroke="#000000" stroke-width="6.875" stroke-miterlimit="8" fill="#FFFFFF"/><text font-family="Aptos,Aptos_MSFontService,sans-serif" font-weight="400" font-size="83" transform="matrix(1 0 0 1 644.161 1727)">q</text><rect x="758.5" y="1609.5" width="182" height="182" stroke="#000000" stroke-width="6.875" stroke-miterlimit="8" fill="#FFFFFF"/><text font-family="Aptos,Aptos_MSFontService,sans-serif" font-weight="400" font-size="83" transform="matrix(1 0 0 1 835.227 1727)">r</text><rect x="940.5" y="1609.5" width="181" height="182" stroke="#000000" stroke-width="6.875" stroke-miterlimit="8" fill="#FFFFFF"/><text font-family="Aptos,Aptos_MSFontService,sans-serif" font-weight="400" font-size="83" transform="matrix(1 0 0 1 1010.54 1727)">s</text><rect x="1121.5" y="1609.5" width="182" height="182" stroke="#000000" stroke-width="6.875" stroke-miterlimit="8"/><text fill="#FFFFFF" font-family="Aptos,Aptos_MSFontService,sans-serif" font-weight="400" font-size="83" transform="matrix(1 0 0 1 1198.74 1727)">t</text><rect x="395.5" y="1794.5" width="182" height="181" stroke="#000000" stroke-width="6.875" stroke-miterlimit="8" fill="#FFFFFF"/><text font-family="Aptos,Aptos_MSFontService,sans-serif" font-weight="400" font-size="83" transform="matrix(1 0 0 1 462.835 1911)">u</text><rect x="577.5" y="1794.5" width="181" height="181" stroke="#024059" stroke-width="6.875" stroke-miterlimit="8" fill="#0F9ED5"/><text fill="#FFFFFF" font-family="Aptos,Aptos_MSFontService,sans-serif" font-weight="400" font-size="83" transform="matrix(1 0 0 1 648.745 1911)">v</text><rect x="758.5" y="1794.5" width="182" height="181" stroke="#410C3B" stroke-width="6.875" stroke-miterlimit="8" fill="#A02B93"/><text fill="#FFFFFF" font-family="Aptos,Aptos_MSFontService,sans-serif" font-weight="400" font-size="83" transform="matrix(1 0 0 1 819.186 1911)">w</text><rect x="940.5" y="1794.5" width="181" height="181" stroke="#1C440D" stroke-width="6.875" stroke-miterlimit="8" fill="#4EA72E"/><text fill="#FFFFFF" font-family="Aptos,Aptos_MSFontService,sans-serif" font-weight="400" font-size="83" transform="matrix(1 0 0 1 1012.26 1911)">x</text><rect x="1121.5" y="1794.5" width="182" height="181" stroke="#000000" stroke-width="6.875" stroke-miterlimit="8" fill="#FFFFFF"/><text font-family="Aptos,Aptos_MSFontService,sans-serif" font-weight="400" font-size="83" transform="matrix(1 0 0 1 1193.58 1911)">y</text><rect x="1939.5" y="697.5" width="181" height="182" stroke="#000000" stroke-width="6.875" stroke-miterlimit="8" fill="#FFFFFF"/><text font-family="Aptos,Aptos_MSFontService,sans-serif" font-weight="400" font-size="83" transform="matrix(1 0 0 1 2007.5 815)">a</text><rect x="2120.5" y="697.5" width="182" height="182" stroke="#000000" stroke-width="6.875" stroke-miterlimit="8" fill="#FFFFFF"/><text font-family="Aptos,Aptos_MSFontService,sans-serif" font-weight="400" font-size="83" transform="matrix(1 0 0 1 2187.96 815)">b</text><rect x="2302.5" y="697.5" width="182" height="182" stroke="#000000" stroke-width="6.875" stroke-miterlimit="8" fill="#FFFFFF"/><text font-family="Aptos,Aptos_MSFontService,sans-serif" font-weight="400" font-size="83" transform="matrix(1 0 0 1 2371.01 815)">c</text><rect x="2484.5" y="697.5" width="181" height="182" stroke="#000000" stroke-width="6.875" stroke-miterlimit="8" fill="#FFFFFF"/><text font-family="Aptos,Aptos_MSFontService,sans-serif" font-weight="400" font-size="83" transform="matrix(1 0 0 1 2562.07 815)">f</text><rect x="2665.5" y="697.5" width="182" height="182" stroke="#042433" stroke-width="6.875" stroke-miterlimit="8" fill="#156082"/><text fill="#FFFFFF" font-family="Aptos,Aptos_MSFontService,sans-serif" font-weight="400" font-size="83" transform="matrix(1 0 0 1 2735.95 815)">g</text><rect x="2847.5" y="697.5" width="181" height="182" stroke="#000000" stroke-width="6.875" stroke-miterlimit="8" fill="#FFFFFF"/><text font-family="Aptos,Aptos_MSFontService,sans-serif" font-weight="400" font-size="83" transform="matrix(1 0 0 1 2914.99 815)">h</text><rect x="3028.5" y="697.5" width="182" height="182" stroke="#000000" stroke-width="6.875" stroke-miterlimit="8" fill="#FFFFFF"/><text font-family="Aptos,Aptos_MSFontService,sans-serif" font-weight="400" font-size="83" transform="matrix(1 0 0 1 3099.18 815)">k</text><rect x="3210.5" y="697.5" width="182" height="182" stroke="#000000" stroke-width="6.875" stroke-miterlimit="8" fill="#FFFFFF"/><text font-family="Aptos,Aptos_MSFontService,sans-serif" font-weight="400" font-size="83" transform="matrix(1 0 0 1 3290.24 815)">l</text><rect x="3392.5" y="697.5" width="181" height="182" stroke="#000000" stroke-width="6.875" stroke-miterlimit="8" fill="#FFFFFF"/><text font-family="Aptos,Aptos_MSFontService,sans-serif" font-weight="400" font-size="83" transform="matrix(1 0 0 1 3447.22 815)">m</text><rect x="1939.5" y="880.5" width="181" height="181" stroke="#000000" stroke-width="6.875" stroke-miterlimit="8" fill="#FFFFFF"/><text font-family="Aptos,Aptos_MSFontService,sans-serif" font-weight="400" font-size="83" transform="matrix(1 0 0 1 2006.35 997)">b</text><rect x="2120.5" y="880.5" width="182" height="181" stroke="#000000" stroke-width="6.875" stroke-miterlimit="8" fill="#FFFFFF"/><text font-family="Aptos,Aptos_MSFontService,sans-serif" font-weight="400" font-size="83" transform="matrix(1 0 0 1 2189.4 997)">c</text><rect x="2302.5" y="880.5" width="182" height="181" stroke="#000000" stroke-width="6.875" stroke-miterlimit="8" fill="#FFFFFF"/><text font-family="Aptos,Aptos_MSFontService,sans-serif" font-weight="400" font-size="83" transform="matrix(1 0 0 1 2369.58 997)">d</text><rect x="2484.5" y="880.5" width="181" height="181" stroke="#042433" stroke-width="6.875" stroke-miterlimit="8" fill="#156082"/><text fill="#FFFFFF" font-family="Aptos,Aptos_MSFontService,sans-serif" font-weight="400" font-size="83" transform="matrix(1 0 0 1 2554.34 997)">g</text><rect x="2665.5" y="880.5" width="182" height="181" stroke="#000000" stroke-width="6.875" stroke-miterlimit="8" fill="#FFFFFF"/><text font-family="Aptos,Aptos_MSFontService,sans-serif" font-weight="400" font-size="83" transform="matrix(1 0 0 1 2733.38 997)">h</text><rect x="2847.5" y="880.5" width="181" height="181" stroke="#622C0F" stroke-width="6.875" stroke-miterlimit="8" fill="#E97132"/><text fill="#FFFFFF" font-family="Aptos,Aptos_MSFontService,sans-serif" font-weight="400" font-size="83" transform="matrix(1 0 0 1 2927.88 997)">i</text><rect x="3028.5" y="880.5" width="182" height="181" stroke="#000000" stroke-width="6.875" stroke-miterlimit="8" fill="#FFFFFF"/><text font-family="Aptos,Aptos_MSFontService,sans-serif" font-weight="400" font-size="83" transform="matrix(1 0 0 1 3108.63 997)">l</text><rect x="3210.5" y="880.5" width="182" height="181" stroke="#000000" stroke-width="6.875" stroke-miterlimit="8" fill="#FFFFFF"/><text font-family="Aptos,Aptos_MSFontService,sans-serif" font-weight="400" font-size="83" transform="matrix(1 0 0 1 3265.61 997)">m</text><rect x="3392.5" y="880.5" width="181" height="181" stroke="#000000" stroke-width="6.875" stroke-miterlimit="8" fill="#FFFFFF"/><text font-family="Aptos,Aptos_MSFontService,sans-serif" font-weight="400" font-size="83" transform="matrix(1 0 0 1 3459.82 997)">n</text><rect x="1939.5" y="1064.5" width="181" height="181" stroke="#000000" stroke-width="6.875" stroke-miterlimit="8" fill="#FFFFFF"/><text font-family="Aptos,Aptos_MSFontService,sans-serif" font-weight="400" font-size="83" transform="matrix(1 0 0 1 2007.79 1181)">c</text><rect x="2120.5" y="1064.5" width="182" height="181" stroke="#000000" stroke-width="6.875" stroke-miterlimit="8" fill="#FFFFFF"/><text font-family="Aptos,Aptos_MSFontService,sans-serif" font-weight="400" font-size="83" transform="matrix(1 0 0 1 2187.97 1181)">d</text><rect x="2302.5" y="1064.5" width="182" height="181" stroke="#000000" stroke-width="6.875" stroke-miterlimit="8" fill="#FFFFFF"/><text font-family="Aptos,Aptos_MSFontService,sans-serif" font-weight="400" font-size="83" transform="matrix(1 0 0 1 2371.01 1181)">e</text><rect x="2484.5" y="1064.5" width="181" height="181" stroke="#000000" stroke-width="6.875" stroke-miterlimit="8" fill="#FFFFFF"/><text font-family="Aptos,Aptos_MSFontService,sans-serif" font-weight="400" font-size="83" transform="matrix(1 0 0 1 2551.76 1181)">h</text><rect x="2665.5" y="1064.5" width="182" height="181" stroke="#622C0F" stroke-width="6.875" stroke-miterlimit="8" fill="#E97132"/><text fill="#FFFFFF" font-family="Aptos,Aptos_MSFontService,sans-serif" font-weight="400" font-size="83" transform="matrix(1 0 0 1 2746.27 1181)">i</text><rect x="2847.5" y="1064.5" width="181" height="181" stroke="#000000" stroke-width="6.875" stroke-miterlimit="8" fill="#FFFFFF"/><text font-family="Aptos,Aptos_MSFontService,sans-serif" font-weight="400" font-size="83" transform="matrix(1 0 0 1 2927.88 1181)">j</text><rect x="3028.5" y="1064.5" width="182" height="181" stroke="#000000" stroke-width="6.875" stroke-miterlimit="8" fill="#FFFFFF"/><text font-family="Aptos,Aptos_MSFontService,sans-serif" font-weight="400" font-size="83" transform="matrix(1 0 0 1 3084 1181)">m</text><rect x="3210.5" y="1064.5" width="182" height="181" stroke="#000000" stroke-width="6.875" stroke-miterlimit="8" fill="#FFFFFF"/><text font-family="Aptos,Aptos_MSFontService,sans-serif" font-weight="400" font-size="83" transform="matrix(1 0 0 1 3278.21 1181)">n</text><rect x="3392.5" y="1064.5" width="181" height="181" stroke="#000000" stroke-width="6.875" stroke-miterlimit="8" fill="#FFFFFF"/><text font-family="Aptos,Aptos_MSFontService,sans-serif" font-weight="400" font-size="83" transform="matrix(1 0 0 1 3459.82 1181)">o</text><rect x="1939.5" y="1246.5" width="181" height="182" stroke="#000000" stroke-width="6.875" stroke-miterlimit="8" fill="#FFFFFF"/><text font-family="Aptos,Aptos_MSFontService,sans-serif" font-weight="400" font-size="83" transform="matrix(1 0 0 1 2017.24 1363)">f</text><rect x="2120.5" y="1246.5" width="182" height="182" stroke="#042433" stroke-width="6.875" stroke-miterlimit="8" fill="#156082"/><text fill="#FFFFFF" font-family="Aptos,Aptos_MSFontService,sans-serif" font-weight="400" font-size="83" transform="matrix(1 0 0 1 2191.12 1363)">g</text><rect x="2302.5" y="1246.5" width="182" height="182" stroke="#000000" stroke-width="6.875" stroke-miterlimit="8" fill="#FFFFFF"/><text font-family="Aptos,Aptos_MSFontService,sans-serif" font-weight="400" font-size="83" transform="matrix(1 0 0 1 2370.15 1363)">h</text><rect x="2484.5" y="1246.5" width="181" height="182" stroke="#000000" stroke-width="6.875" stroke-miterlimit="8" fill="#FFFFFF"/><text font-family="Aptos,Aptos_MSFontService,sans-serif" font-weight="400" font-size="83" transform="matrix(1 0 0 1 2554.34 1363)">k</text><rect x="2665.5" y="1246.5" width="182" height="182" stroke="#000000" stroke-width="6.875" stroke-miterlimit="8" fill="#FFFFFF"/><text font-family="Aptos,Aptos_MSFontService,sans-serif" font-weight="400" font-size="83" transform="matrix(1 0 0 1 2745.41 1363)">l</text><rect x="2847.5" y="1246.5" width="181" height="182" stroke="#000000" stroke-width="6.875" stroke-miterlimit="8" fill="#FFFFFF"/><text font-family="Aptos,Aptos_MSFontService,sans-serif" font-weight="400" font-size="83" transform="matrix(1 0 0 1 2902.38 1363)">m</text><rect x="3028.5" y="1246.5" width="182" height="182" stroke="#052909" stroke-width="6.875" stroke-miterlimit="8" fill="#196B24"/><text fill="#FFFFFF" font-family="Aptos,Aptos_MSFontService,sans-serif" font-weight="400" font-size="83" transform="matrix(1 0 0 1 3096.03 1363)">p</text><rect x="3210.5" y="1246.5" width="182" height="182" stroke="#000000" stroke-width="6.875" stroke-miterlimit="8" fill="#FFFFFF"/><text font-family="Aptos,Aptos_MSFontService,sans-serif" font-weight="400" font-size="83" transform="matrix(1 0 0 1 3277.64 1363)">q</text><rect x="3392.5" y="1246.5" width="181" height="182" stroke="#000000" stroke-width="6.875" stroke-miterlimit="8" fill="#FFFFFF"/><text font-family="Aptos,Aptos_MSFontService,sans-serif" font-weight="400" font-size="83" transform="matrix(1 0 0 1 3468.71 1363)">r</text><rect x="1939.5" y="1428.5" width="181" height="182" stroke="#042433" stroke-width="6.875" stroke-miterlimit="8" fill="#156082"/><text fill="#FFFFFF" font-family="Aptos,Aptos_MSFontService,sans-serif" font-weight="400" font-size="83" transform="matrix(1 0 0 1 2009.5 1546)">g</text><rect x="2120.5" y="1428.5" width="182" height="182" stroke="#000000" stroke-width="6.875" stroke-miterlimit="8" fill="#FFFFFF"/><text font-family="Aptos,Aptos_MSFontService,sans-serif" font-weight="400" font-size="83" transform="matrix(1 0 0 1 2188.55 1546)">h</text><rect x="2302.5" y="1428.5" width="182" height="182" stroke="#622C0F" stroke-width="6.875" stroke-miterlimit="8" fill="#E97132"/><text fill="#FFFFFF" font-family="Aptos,Aptos_MSFontService,sans-serif" font-weight="400" font-size="83" transform="matrix(1 0 0 1 2383.07 1546)">i</text><rect x="2484.5" y="1428.5" width="181" height="182" stroke="#000000" stroke-width="6.875" stroke-miterlimit="8" fill="#FFFFFF"/><text font-family="Aptos,Aptos_MSFontService,sans-serif" font-weight="400" font-size="83" transform="matrix(1 0 0 1 2563.83 1546)">l</text><rect x="2665.5" y="1428.5" width="182" height="182" stroke="#000000" stroke-width="6.875" stroke-miterlimit="8" fill="#FFFFFF"/><text font-family="Aptos,Aptos_MSFontService,sans-serif" font-weight="400" font-size="83" transform="matrix(1 0 0 1 2720.82 1546)">m</text><rect x="2847.5" y="1428.5" width="181" height="182" stroke="#000000" stroke-width="6.875" stroke-miterlimit="8" fill="#FFFFFF"/><text font-family="Aptos,Aptos_MSFontService,sans-serif" font-weight="400" font-size="83" transform="matrix(1 0 0 1 2915.05 1546)">n</text><rect x="3028.5" y="1428.5" width="182" height="182" stroke="#000000" stroke-width="6.875" stroke-miterlimit="8" fill="#FFFFFF"/><text font-family="Aptos,Aptos_MSFontService,sans-serif" font-weight="400" font-size="83" transform="matrix(1 0 0 1 3096.1 1546)">q</text><rect x="3210.5" y="1428.5" width="182" height="182" stroke="#000000" stroke-width="6.875" stroke-miterlimit="8" fill="#FFFFFF"/><text font-family="Aptos,Aptos_MSFontService,sans-serif" font-weight="400" font-size="83" transform="matrix(1 0 0 1 3287.18 1546)">r</text><rect x="3392.5" y="1428.5" width="181" height="182" stroke="#000000" stroke-width="6.875" stroke-miterlimit="8" fill="#FFFFFF"/><text font-family="Aptos,Aptos_MSFontService,sans-serif" font-weight="400" font-size="83" transform="matrix(1 0 0 1 3462.5 1546)">s</text><rect x="1939.5" y="1612.5" width="181" height="182" stroke="#000000" stroke-width="6.875" stroke-miterlimit="8" fill="#FFFFFF"/><text font-family="Aptos,Aptos_MSFontService,sans-serif" font-weight="400" font-size="83" transform="matrix(1 0 0 1 2006.93 1730)">h</text><rect x="2120.5" y="1612.5" width="182" height="182" stroke="#622C0F" stroke-width="6.875" stroke-miterlimit="8" fill="#E97132"/><text fill="#FFFFFF" font-family="Aptos,Aptos_MSFontService,sans-serif" font-weight="400" font-size="83" transform="matrix(1 0 0 1 2201.43 1730)">i</text><rect x="2302.5" y="1612.5" width="182" height="182" stroke="#000000" stroke-width="6.875" stroke-miterlimit="8" fill="#FFFFFF"/><text font-family="Aptos,Aptos_MSFontService,sans-serif" font-weight="400" font-size="83" transform="matrix(1 0 0 1 2383.04 1730)">j</text><rect x="2484.5" y="1612.5" width="181" height="182" stroke="#000000" stroke-width="6.875" stroke-miterlimit="8" fill="#FFFFFF"/><text font-family="Aptos,Aptos_MSFontService,sans-serif" font-weight="400" font-size="83" transform="matrix(1 0 0 1 2539.16 1730)">m</text><rect x="2665.5" y="1612.5" width="182" height="182" stroke="#000000" stroke-width="6.875" stroke-miterlimit="8" fill="#FFFFFF"/><text font-family="Aptos,Aptos_MSFontService,sans-serif" font-weight="400" font-size="83" transform="matrix(1 0 0 1 2733.37 1730)">n</text><rect x="2847.5" y="1612.5" width="181" height="182" stroke="#000000" stroke-width="6.875" stroke-miterlimit="8" fill="#FFFFFF"/><text font-family="Aptos,Aptos_MSFontService,sans-serif" font-weight="400" font-size="83" transform="matrix(1 0 0 1 2914.99 1730)">o</text><rect x="3028.5" y="1612.5" width="182" height="182" stroke="#000000" stroke-width="6.875" stroke-miterlimit="8" fill="#FFFFFF"/><text font-family="Aptos,Aptos_MSFontService,sans-serif" font-weight="400" font-size="83" transform="matrix(1 0 0 1 3105.48 1730)">r</text><rect x="3210.5" y="1612.5" width="182" height="182" stroke="#000000" stroke-width="6.875" stroke-miterlimit="8" fill="#FFFFFF"/><text font-family="Aptos,Aptos_MSFontService,sans-serif" font-weight="400" font-size="83" transform="matrix(1 0 0 1 3280.79 1730)">s</text><rect x="3392.5" y="1612.5" width="181" height="182" stroke="#000000" stroke-width="6.875" stroke-miterlimit="8"/><text fill="#FFFFFF" font-family="Aptos,Aptos_MSFontService,sans-serif" font-weight="400" font-size="83" transform="matrix(1 0 0 1 3468.99 1730)">t</text><rect x="1939.5" y="1795.5" width="181" height="182" stroke="#000000" stroke-width="6.875" stroke-miterlimit="8" fill="#FFFFFF"/><text font-family="Aptos,Aptos_MSFontService,sans-serif" font-weight="400" font-size="83" transform="matrix(1 0 0 1 2009.5 1912)">k</text><rect x="2120.5" y="1795.5" width="182" height="182" stroke="#000000" stroke-width="6.875" stroke-miterlimit="8" fill="#FFFFFF"/><text font-family="Aptos,Aptos_MSFontService,sans-serif" font-weight="400" font-size="83" transform="matrix(1 0 0 1 2200.57 1912)">l</text><rect x="2302.5" y="1795.5" width="182" height="182" stroke="#000000" stroke-width="6.875" stroke-miterlimit="8" fill="#FFFFFF"/><text font-family="Aptos,Aptos_MSFontService,sans-serif" font-weight="400" font-size="83" transform="matrix(1 0 0 1 2357.55 1912)">m</text><rect x="2484.5" y="1795.5" width="181" height="182" stroke="#052909" stroke-width="6.875" stroke-miterlimit="8" fill="#196B24"/><text fill="#FFFFFF" font-family="Aptos,Aptos_MSFontService,sans-serif" font-weight="400" font-size="83" transform="matrix(1 0 0 1 2551.19 1912)">p</text><rect x="2665.5" y="1795.5" width="182" height="182" stroke="#000000" stroke-width="6.875" stroke-miterlimit="8" fill="#FFFFFF"/><text font-family="Aptos,Aptos_MSFontService,sans-serif" font-weight="400" font-size="83" transform="matrix(1 0 0 1 2732.8 1912)">q</text><rect x="2847.5" y="1795.5" width="181" height="182" stroke="#000000" stroke-width="6.875" stroke-miterlimit="8" fill="#FFFFFF"/><text font-family="Aptos,Aptos_MSFontService,sans-serif" font-weight="400" font-size="83" transform="matrix(1 0 0 1 2923.87 1912)">r</text><rect x="3028.5" y="1795.5" width="182" height="182" stroke="#000000" stroke-width="6.875" stroke-miterlimit="8" fill="#FFFFFF"/><text font-family="Aptos,Aptos_MSFontService,sans-serif" font-weight="400" font-size="83" transform="matrix(1 0 0 1 3096.31 1912)">u</text><rect x="3210.5" y="1795.5" width="182" height="182" stroke="#024059" stroke-width="6.875" stroke-miterlimit="8" fill="#0F9ED5"/><text fill="#FFFFFF" font-family="Aptos,Aptos_MSFontService,sans-serif" font-weight="400" font-size="83" transform="matrix(1 0 0 1 3282.22 1912)">v</text><rect x="3392.5" y="1795.5" width="181" height="182" stroke="#410C3B" stroke-width="6.875" stroke-miterlimit="8" fill="#A02B93"/><text fill="#FFFFFF" font-family="Aptos,Aptos_MSFontService,sans-serif" font-weight="400" font-size="83" transform="matrix(1 0 0 1 3452.66 1912)">w</text><rect x="1939.5" y="1977.5" width="181" height="182" stroke="#000000" stroke-width="6.875" stroke-miterlimit="8" fill="#FFFFFF"/><text font-family="Aptos,Aptos_MSFontService,sans-serif" font-weight="400" font-size="83" transform="matrix(1 0 0 1 2018.96 2095)">l</text><rect x="2120.5" y="1977.5" width="182" height="182" stroke="#000000" stroke-width="6.875" stroke-miterlimit="8" fill="#FFFFFF"/><text font-family="Aptos,Aptos_MSFontService,sans-serif" font-weight="400" font-size="83" transform="matrix(1 0 0 1 2175.93 2095)">m</text><rect x="2302.5" y="1977.5" width="182" height="182" stroke="#000000" stroke-width="6.875" stroke-miterlimit="8" fill="#FFFFFF"/><text font-family="Aptos,Aptos_MSFontService,sans-serif" font-weight="400" font-size="83" transform="matrix(1 0 0 1 2370.15 2095)">n</text><rect x="2484.5" y="1977.5" width="181" height="182" stroke="#000000" stroke-width="6.875" stroke-miterlimit="8" fill="#FFFFFF"/><text font-family="Aptos,Aptos_MSFontService,sans-serif" font-weight="400" font-size="83" transform="matrix(1 0 0 1 2551.19 2095)">q</text><rect x="2665.5" y="1977.5" width="182" height="182" stroke="#000000" stroke-width="6.875" stroke-miterlimit="8" fill="#FFFFFF"/><text font-family="Aptos,Aptos_MSFontService,sans-serif" font-weight="400" font-size="83" transform="matrix(1 0 0 1 2742.25 2095)">r</text><rect x="2847.5" y="1977.5" width="181" height="182" stroke="#000000" stroke-width="6.875" stroke-miterlimit="8" fill="#FFFFFF"/><text font-family="Aptos,Aptos_MSFontService,sans-serif" font-weight="400" font-size="83" transform="matrix(1 0 0 1 2917.56 2095)">s</text><rect x="3028.5" y="1977.5" width="182" height="182" stroke="#024059" stroke-width="6.875" stroke-miterlimit="8" fill="#0F9ED5"/><text fill="#FFFFFF" font-family="Aptos,Aptos_MSFontService,sans-serif" font-weight="400" font-size="83" transform="matrix(1 0 0 1 3100.61 2095)">v</text><rect x="3210.5" y="1977.5" width="182" height="182" stroke="#410C3B" stroke-width="6.875" stroke-miterlimit="8" fill="#A02B93"/><text fill="#FFFFFF" font-family="Aptos,Aptos_MSFontService,sans-serif" font-weight="400" font-size="83" transform="matrix(1 0 0 1 3271.05 2095)">w</text><rect x="3392.5" y="1977.5" width="181" height="182" stroke="#1C440D" stroke-width="6.875" stroke-miterlimit="8" fill="#4EA72E"/><text fill="#FFFFFF" font-family="Aptos,Aptos_MSFontService,sans-serif" font-weight="400" font-size="83" transform="matrix(1 0 0 1 3464.12 2095)">x</text><rect x="1939.5" y="2160.5" width="181" height="182" stroke="#000000" stroke-width="6.875" stroke-miterlimit="8" fill="#FFFFFF"/><text font-family="Aptos,Aptos_MSFontService,sans-serif" font-weight="400" font-size="83" transform="matrix(1 0 0 1 1994.32 2277)">m</text><rect x="2120.5" y="2160.5" width="182" height="182" stroke="#000000" stroke-width="6.875" stroke-miterlimit="8" fill="#FFFFFF"/><text font-family="Aptos,Aptos_MSFontService,sans-serif" font-weight="400" font-size="83" transform="matrix(1 0 0 1 2188.54 2277)">n</text><rect x="2302.5" y="2160.5" width="182" height="182" stroke="#000000" stroke-width="6.875" stroke-miterlimit="8" fill="#FFFFFF"/><text font-family="Aptos,Aptos_MSFontService,sans-serif" font-weight="400" font-size="83" transform="matrix(1 0 0 1 2370.15 2277)">o</text><rect x="2484.5" y="2160.5" width="181" height="182" stroke="#000000" stroke-width="6.875" stroke-miterlimit="8" fill="#FFFFFF"/><text font-family="Aptos,Aptos_MSFontService,sans-serif" font-weight="400" font-size="83" transform="matrix(1 0 0 1 2560.64 2277)">r</text><rect x="2665.5" y="2160.5" width="182" height="182" stroke="#000000" stroke-width="6.875" stroke-miterlimit="8" fill="#FFFFFF"/><text font-family="Aptos,Aptos_MSFontService,sans-serif" font-weight="400" font-size="83" transform="matrix(1 0 0 1 2735.95 2277)">s</text><rect x="2847.5" y="2160.5" width="181" height="182" stroke="#000000" stroke-width="6.875" stroke-miterlimit="8"/><text fill="#FFFFFF" font-family="Aptos,Aptos_MSFontService,sans-serif" font-weight="400" font-size="83" transform="matrix(1 0 0 1 2924.15 2277)">t</text><rect x="3028.5" y="2160.5" width="182" height="182" stroke="#410C3B" stroke-width="6.875" stroke-miterlimit="8" fill="#A02B93"/><text fill="#FFFFFF" font-family="Aptos,Aptos_MSFontService,sans-serif" font-weight="400" font-size="83" transform="matrix(1 0 0 1 3089.44 2277)">w</text><rect x="3210.5" y="2160.5" width="182" height="182" stroke="#1C440D" stroke-width="6.875" stroke-miterlimit="8" fill="#4EA72E"/><text fill="#FFFFFF" font-family="Aptos,Aptos_MSFontService,sans-serif" font-weight="400" font-size="83" transform="matrix(1 0 0 1 3282.51 2277)">x</text><rect x="3392.5" y="2160.5" width="181" height="182" stroke="#000000" stroke-width="6.875" stroke-miterlimit="8" fill="#FFFFFF"/><text font-family="Aptos,Aptos_MSFontService,sans-serif" font-weight="400" font-size="83" transform="matrix(1 0 0 1 3463.83 2277)">y</text><rect x="752" y="1251" width="545" height="540" stroke="#FFC000" stroke-width="27.5" stroke-miterlimit="8" fill="none"/><rect x="2847" y="693" width="190" height="1645" stroke="#FFC000" stroke-width="27.5" stroke-miterlimit="8" fill="none"/><path d="M0 0 1549.56 555.239" stroke="#FFC000" stroke-width="27.5" stroke-miterlimit="8" fill="none" fill-rule="evenodd" transform="matrix(1 0 0 -1 1297 1250.24)"/><path d="M1297 1791 2837.64 2338.27" stroke="#FFC000" stroke-width="27.5" stroke-miterlimit="8" fill="none" fill-rule="evenodd"/><path d="M830.238 951.842 856.234 951.842 856.234 955.387C853.979 955.852 852.851 956.855 852.851 958.394 852.851 959.003 853.012 959.639 853.334 960.301 853.656 960.964 854.176 961.796 854.892 962.799L860.424 970.694 865.902 963.873C866.762 962.799 867.362 961.895 867.702 961.161 868.042 960.427 868.212 959.666 868.212 958.878 868.212 957.875 867.845 957.061 867.111 956.434 866.377 955.807 865.383 955.458 864.13 955.387L864.13 951.842 884.594 951.842 884.594 955.387C882.983 955.781 881.497 956.541 880.136 957.669 878.775 958.797 876.806 960.919 874.228 964.034L863.915 975.689 876.484 993.521C878.596 996.493 880.243 998.49 881.425 999.51 882.607 1000.53 883.86 1001.22 885.185 1001.58L885.185 1005.12 859.027 1005.12 859.027 1001.58C861.247 1001.33 862.358 1000.4 862.358 998.785 862.358 998.176 862.241 997.612 862.008 997.093 861.776 996.574 861.247 995.706 860.424 994.488L854.355 985.787 848.715 992.716C847.497 994.184 846.737 995.258 846.432 995.938 846.128 996.619 845.976 997.389 845.976 998.248 845.976 999.107 846.298 999.841 846.943 1000.45 847.587 1001.06 848.608 1001.43 850.004 1001.58L850.004 1005.12 829.325 1005.12 829.325 1001.58C830.865 1001.26 832.414 1000.47 833.971 999.215 835.529 997.962 837.418 996.064 839.638 993.521L850.863 980.792 838.241 962.96C836.308 960.239 834.759 958.314 833.595 957.186 832.432 956.058 831.313 955.458 830.238 955.387Z" fill-rule="evenodd"/><text fill="#000000" fill-opacity="0" font-family="Arial,Arial_MSFontService,sans-serif" font-size="53.2812" x="829.325" y="998.463">𝐱</text><path d="M2599.89 541.181 2629.75 541.181 2629.75 544.726C2628.07 544.905 2626.88 545.29 2626.18 545.881 2625.48 546.471 2625.13 547.376 2625.13 548.593 2625.13 549.56 2625.43 550.688 2626.02 551.977 2626.61 553.266 2627.82 555.432 2629.65 558.476L2634.64 566.801 2641.14 557.24C2642.57 555.128 2643.53 553.508 2644.01 552.38 2644.5 551.252 2644.74 550.043 2644.74 548.754 2644.74 547.608 2644.34 546.686 2643.56 545.988 2642.77 545.29 2641.68 544.869 2640.28 544.726L2640.28 541.181 2662.46 541.181 2662.46 544.78C2661.43 545.066 2660.44 545.523 2659.51 546.149 2658.58 546.776 2657.5 547.814 2656.29 549.264 2655.07 550.715 2653.12 553.355 2650.43 557.187L2638.83 573.73 2654.51 599.672C2656.23 602.501 2657.63 604.694 2658.7 606.252 2659.78 607.809 2660.74 608.937 2661.58 609.635 2662.42 610.334 2663.3 610.772 2664.24 610.951L2664.24 614.496 2634.37 614.496 2634.37 610.951C2635.95 610.772 2637.11 610.396 2637.86 609.823 2638.62 609.251 2638.99 608.337 2638.99 607.084 2638.99 606.476 2638.88 605.795 2638.64 605.043 2638.41 604.291 2638.09 603.521 2637.68 602.734 2637.26 601.946 2636.5 600.621 2635.39 598.759L2627.93 586.459 2619.17 599.404C2618.49 600.442 2617.92 601.391 2617.45 602.25 2616.99 603.11 2616.67 603.897 2616.49 604.614 2616.31 605.33 2616.22 606.171 2616.22 607.138 2616.22 608.105 2616.6 608.946 2617.37 609.662 2618.14 610.378 2619.24 610.808 2620.68 610.951L2620.68 614.496 2598.44 614.496 2598.44 610.951C2600.05 610.45 2601.59 609.519 2603.06 608.158 2604.53 606.798 2606.75 603.951 2609.72 599.618L2623.74 579.531 2610.2 557.026C2608.73 554.591 2607.47 552.568 2606.42 550.956 2605.36 549.345 2604.47 548.119 2603.76 547.277 2603.04 546.436 2602.41 545.836 2601.85 545.478 2601.3 545.12 2600.64 544.869 2599.89 544.726Z" fill-rule="evenodd"/><text fill="#000000" fill-opacity="0" font-family="Arial,Arial_MSFontService,sans-serif" font-size="73.3154" x="2598.44" y="605.332">𝐗</text><path d="M2704.04 590.649 2770.21 590.649 2770.21 597.792 2704.04 597.792ZM2704.04 568.359 2770.21 568.359 2770.21 575.502 2704.04 575.502Z" fill-rule="evenodd"/><text fill="#000000" fill-opacity="0" font-family="Arial,Arial_MSFontService,sans-serif" font-size="29.4336" x="2704.04" y="594.113">=</text><path d="M2825.65 541.181 2875.06 541.181 2871.35 557.67 2866.2 557.67C2866.05 554.555 2865.79 552.21 2865.39 550.634 2865 549.059 2864.52 547.975 2863.97 547.385 2863.41 546.794 2862.75 546.4 2861.98 546.203 2861.21 546.006 2860.11 545.907 2858.68 545.907L2841.17 545.907 2835.05 574.052 2845.3 574.052C2847.85 574.052 2849.79 573.452 2851.13 572.253 2852.47 571.053 2853.83 569.075 2855.19 566.318L2860.07 566.318 2855.24 586.943 2850.68 586.943C2850.68 584.078 2850.5 582.135 2850.14 581.115 2849.78 580.094 2849.25 579.45 2848.55 579.181 2847.86 578.913 2846.59 578.779 2844.77 578.779L2834.02 578.779 2827.15 609.77 2843.05 609.77C2845.16 609.77 2846.83 609.555 2848.07 609.125 2849.31 608.696 2850.47 607.997 2851.56 607.031 2852.65 606.064 2853.75 604.712 2854.84 602.975 2855.93 601.239 2857.23 598.884 2858.73 595.912L2863.94 595.912 2859.22 614.496 2811.57 614.496 2812.16 611.865C2813.52 611.65 2814.55 611.301 2815.23 610.817 2815.91 610.334 2816.48 609.662 2816.94 608.803 2817.41 607.944 2817.84 606.896 2818.23 605.661 2818.63 604.426 2819.22 602.035 2820.01 598.49L2829.14 557.133C2829.92 553.552 2830.32 550.67 2830.32 548.486 2830.32 546.803 2829.9 545.63 2829.06 544.968 2828.21 544.305 2826.88 543.92 2825.05 543.813Z" fill-rule="evenodd"/><text fill="#000000" fill-opacity="0" font-family="Arial,Arial_MSFontService,sans-serif" font-size="73.3154" x="2811.57" y="605.332">𝐸</text><path d="M2923.73 536.884 2925.18 541.02C2916.8 543.777 2910.6 549.157 2906.57 557.16 2902.54 565.163 2900.53 575.216 2900.53 587.319 2900.53 599.851 2902.54 610.182 2906.57 618.31 2910.6 626.438 2916.75 631.881 2925.02 634.638L2923.73 638.774C2913.24 636.017 2905.2 630.081 2899.62 620.969 2894.03 611.856 2891.24 600.818 2891.24 587.856 2891.24 574.929 2894.04 563.892 2899.64 554.743 2905.25 545.594 2913.28 539.641 2923.73 536.884Z" fill-rule="evenodd"/><text fill="#000000" fill-opacity="0" font-family="Arial,Arial_MSFontService,sans-serif" font-size="101.89" x="2891.24" y="626.037">(</text><path d="M2929.18 561.215 2955.17 561.215 2955.17 564.76C2952.92 565.226 2951.79 566.228 2951.79 567.768 2951.79 568.377 2951.95 569.012 2952.27 569.675 2952.59 570.337 2953.11 571.169 2953.83 572.172L2959.36 580.068 2964.84 573.246C2965.7 572.172 2966.3 571.268 2966.64 570.534 2966.98 569.8 2967.15 569.039 2967.15 568.251 2967.15 567.249 2966.78 566.434 2966.05 565.807 2965.31 565.181 2964.32 564.832 2963.07 564.76L2963.07 561.215 2983.53 561.215 2983.53 564.76C2981.92 565.154 2980.43 565.915 2979.07 567.043 2977.71 568.171 2975.74 570.292 2973.17 573.407L2962.85 585.063 2975.42 602.895C2977.53 605.867 2979.18 607.863 2980.36 608.884 2981.54 609.904 2982.8 610.593 2984.12 610.951L2984.12 614.496 2957.97 614.496 2957.97 610.951C2960.19 610.701 2961.3 609.77 2961.3 608.158 2961.3 607.55 2961.18 606.986 2960.95 606.467 2960.71 605.947 2960.19 605.079 2959.36 603.862L2953.29 595.16 2947.65 602.089C2946.44 603.557 2945.67 604.631 2945.37 605.312 2945.07 605.992 2944.91 606.762 2944.91 607.621 2944.91 608.481 2945.24 609.215 2945.88 609.823 2946.52 610.432 2947.55 610.808 2948.94 610.951L2948.94 614.496 2928.26 614.496 2928.26 610.951C2929.8 610.629 2931.35 609.841 2932.91 608.588 2934.47 607.335 2936.36 605.437 2938.58 602.895L2949.8 590.165 2937.18 572.333C2935.25 569.612 2933.7 567.687 2932.53 566.559 2931.37 565.431 2930.25 564.832 2929.18 564.76Z" fill-rule="evenodd"/><text fill="#000000" fill-opacity="0" font-family="Arial,Arial_MSFontService,sans-serif" font-size="53.2812" x="2928.26" y="607.836">𝐱</text><path d="M2988.76 536.884C2999.22 539.641 3007.25 545.594 3012.85 554.743 3018.45 563.892 3021.25 574.929 3021.25 587.856 3021.25 600.818 3018.46 611.856 3012.88 620.969 3007.29 630.081 2999.25 636.017 2988.76 638.774L2987.47 634.638C2995.74 631.881 3001.89 626.438 3005.92 618.31 3009.95 610.182 3011.96 599.851 3011.96 587.319 3011.96 575.216 3009.96 565.163 3005.95 557.16 3001.94 549.157 2995.72 543.777 2987.31 541.02Z" fill-rule="evenodd"/><text fill="#000000" fill-opacity="0" font-family="Arial,Arial_MSFontService,sans-serif" font-size="101.89" x="2987.31" y="626.037">)</text></g></svg>