<?xml version="1.0" encoding="UTF-8"?>
<svg xmlns="http://www.w3.org/2000/svg" xmlns:xlink="http://www.w3.org/1999/xlink"
     width="400" height="150" viewBox="0 0 400 150">
<defs>
</defs>
<g>
<rect x="13.333333333333334" y="60.0" width="17.619047619047617" height="30" fill="#e1e1e1" stroke="#7f7f7f" stroke-dasharray="6.166666666666665 4.933333333333333" />
<text x="25.102857142857143" y="75.0" font-size="9.866666666666665" transform="rotate(-90, 25.102857142857143, 75.0)" fill="#5b9bd5" text-anchor="middle" font-family="arial">uv</text>
</g>
<text x="22.142857142857142" y="97.39999999999999" font-size="7.399999999999998" fill="#6868b6" text-anchor="middle" font-family="arial">2</text>
<g>
<rect x="84.47619047619047" y="28.750000000000007" width="17.619047619047617" height="92.49999999999999" fill="#e1e1e1" stroke="#7f7f7f" />
<text x="96.24571428571427" y="75.0" font-size="9.866666666666665" transform="rotate(-90, 96.24571428571427, 75.0)" fill="#5b9bd5" text-anchor="middle" font-family="arial">pos enc</text>
</g>
<text x="93.28571428571428" y="128.65" font-size="7.399999999999998" fill="#6868b6" text-anchor="middle" font-family="arial">64</text>
<path d="M35.357142857142854,70.5952380952381L73.46428571428571,70.5952380952381L73.46428571428571,67.07142857142858L82.27380952380952,75.0L73.46428571428571,82.92857142857144L73.46428571428571,79.40476190476193L35.357142857142854,79.40476190476193Z" fill="#ddd" stroke="none" />
<rect x="155.6190476190476" y="13.333333333333341" width="17.619047619047617" height="123.33333333333331" rx="4" ry="4" fill="#e1e1e1" stroke="#7f7f7f" />
<circle cx="164.4285714285714" cy="21.013636363636373" r="4.3166666666666655" fill="#5b9bd5" stroke="#41719c" />
<circle cx="164.4285714285714" cy="33.010606060606065" r="4.3166666666666655" fill="#5b9bd5" stroke="#41719c" />
<circle cx="164.4285714285714" cy="45.00757575757576" r="4.3166666666666655" fill="#5b9bd5" stroke="#41719c" />
<circle cx="164.4285714285714" cy="57.00454545454545" r="4.3166666666666655" fill="#5b9bd5" stroke="#41719c" />
<circle cx="164.4285714285714" cy="69.00151515151515" r="4.3166666666666655" fill="#5b9bd5" stroke="#41719c" />
<circle cx="164.4285714285714" cy="80.99848484848485" r="4.3166666666666655" fill="#5b9bd5" stroke="#41719c" />
<circle cx="164.4285714285714" cy="92.99545454545455" r="4.3166666666666655" fill="#5b9bd5" stroke="#41719c" />
<circle cx="164.4285714285714" cy="104.99242424242425" r="4.3166666666666655" fill="#5b9bd5" stroke="#41719c" />
<circle cx="164.4285714285714" cy="116.98939393939395" r="4.3166666666666655" fill="#5b9bd5" stroke="#41719c" />
<circle cx="164.4285714285714" cy="128.98636363636365" r="4.3166666666666655" fill="#5b9bd5" stroke="#41719c" />
<text x="164.4285714285714" y="9.133333333333342" font-size="7.399999999999998" fill="#6868b6" text-anchor="middle" font-family="arial">F2[256]</text>
<text x="164.4285714285714" y="144.06666666666666" font-size="7.399999999999998" fill="#6868b6" text-anchor="middle" font-family="arial">256</text>
<path d="M106.49999999999999,70.5952380952381L144.60714285714283,70.5952380952381L144.60714285714283,67.07142857142858L153.41666666666663,75.0L144.60714285714283,82.92857142857144L144.60714285714283,79.40476190476193L106.5,79.40476190476193Z" fill="#ddd" stroke="none" />
<rect x="226.76190476190473" y="13.333333333333341" width="17.619047619047617" height="123.33333333333331" rx="4" ry="4" fill="#e1e1e1" stroke="#7f7f7f" />
<circle cx="235.57142857142853" cy="21.013636363636373" r="4.3166666666666655" fill="#5b9bd5" stroke="#41719c" />
<circle cx="235.57142857142853" cy="33.010606060606065" r="4.3166666666666655" fill="#5b9bd5" stroke="#41719c" />
<circle cx="235.57142857142853" cy="45.00757575757576" r="4.3166666666666655" fill="#5b9bd5" stroke="#41719c" />
<circle cx="235.57142857142853" cy="57.00454545454545" r="4.3166666666666655" fill="#5b9bd5" stroke="#41719c" />
<circle cx="235.57142857142853" cy="69.00151515151515" r="4.3166666666666655" fill="#5b9bd5" stroke="#41719c" />
<circle cx="235.57142857142853" cy="80.99848484848485" r="4.3166666666666655" fill="#5b9bd5" stroke="#41719c" />
<circle cx="235.57142857142853" cy="92.99545454545455" r="4.3166666666666655" fill="#5b9bd5" stroke="#41719c" />
<circle cx="235.57142857142853" cy="104.99242424242425" r="4.3166666666666655" fill="#5b9bd5" stroke="#41719c" />
<circle cx="235.57142857142853" cy="116.98939393939395" r="4.3166666666666655" fill="#5b9bd5" stroke="#41719c" />
<circle cx="235.57142857142853" cy="128.98636363636365" r="4.3166666666666655" fill="#5b9bd5" stroke="#41719c" />
<text x="235.57142857142853" y="9.133333333333342" font-size="7.399999999999998" fill="#6868b6" text-anchor="middle" font-family="arial">F3[256]</text>
<text x="235.57142857142853" y="144.06666666666666" font-size="7.399999999999998" fill="#6868b6" text-anchor="middle" font-family="arial">256</text>
<path d="M177.6428571428571,70.5952380952381L215.74999999999994,70.5952380952381L215.74999999999994,67.07142857142858L224.55952380952377,75.0L215.74999999999994,82.92857142857144L215.74999999999994,79.40476190476193L177.6428571428571,79.40476190476193Z" fill="#ddd" stroke="none" />
<circle cx="199.99999999999997" cy="75.0" r="8.809523809523808" fill="#fff" stroke="#818181" />
<path d="M193.83333333333331,75.0H199.99999999999997L204.360491817317,70.63950818268296" stroke="#000" strokewidth="1" fill="none" />
<rect x="297.90476190476187" y="13.333333333333341" width="17.619047619047617" height="123.33333333333331" rx="4" ry="4" fill="#e1e1e1" stroke="#7f7f7f" />
<circle cx="306.71428571428567" cy="21.013636363636373" r="4.3166666666666655" fill="#5b9bd5" stroke="#41719c" />
<circle cx="306.71428571428567" cy="33.010606060606065" r="4.3166666666666655" fill="#5b9bd5" stroke="#41719c" />
<circle cx="306.71428571428567" cy="45.00757575757576" r="4.3166666666666655" fill="#5b9bd5" stroke="#41719c" />
<circle cx="306.71428571428567" cy="57.00454545454545" r="4.3166666666666655" fill="#5b9bd5" stroke="#41719c" />
<circle cx="306.71428571428567" cy="69.00151515151515" r="4.3166666666666655" fill="#5b9bd5" stroke="#41719c" />
<circle cx="306.71428571428567" cy="80.99848484848485" r="4.3166666666666655" fill="#5b9bd5" stroke="#41719c" />
<circle cx="306.71428571428567" cy="92.99545454545455" r="4.3166666666666655" fill="#5b9bd5" stroke="#41719c" />
<circle cx="306.71428571428567" cy="104.99242424242425" r="4.3166666666666655" fill="#5b9bd5" stroke="#41719c" />
<circle cx="306.71428571428567" cy="116.98939393939395" r="4.3166666666666655" fill="#5b9bd5" stroke="#41719c" />
<circle cx="306.71428571428567" cy="128.98636363636365" r="4.3166666666666655" fill="#5b9bd5" stroke="#41719c" />
<text x="306.71428571428567" y="9.133333333333342" font-size="7.399999999999998" fill="#6868b6" text-anchor="middle" font-family="arial">F4[256]</text>
<text x="306.71428571428567" y="144.06666666666666" font-size="7.399999999999998" fill="#6868b6" text-anchor="middle" font-family="arial">256</text>
<path d="M248.78571428571425,70.5952380952381L286.8928571428571,70.5952380952381L286.8928571428571,67.07142857142858L295.7023809523809,75.0L286.8928571428571,82.92857142857144L286.8928571428571,79.40476190476193L248.78571428571428,79.40476190476193Z" fill="#ddd" stroke="none" />
<circle cx="271.1428571428571" cy="75.0" r="8.809523809523808" fill="#fff" stroke="#818181" />
<path d="M264.9761904761904,75.0H271.1428571428571L275.50334896017415,70.63950818268296" stroke="#000" strokewidth="1" fill="none" />
<rect x="369.04761904761904" y="60.0" width="17.619047619047617" height="30" rx="4" ry="4" fill="#e1e1e1" stroke="#7f7f7f" />
<circle cx="377.85714285714283" cy="68.5611111111111" r="4.3166666666666655" fill="#5b9bd5" stroke="#41719c" />
<circle cx="377.85714285714283" cy="81.43888888888888" r="4.3166666666666655" fill="#5b9bd5" stroke="#41719c" />
<text x="377.85714285714283" y="55.8" font-size="7.399999999999998" fill="#6868b6" text-anchor="middle" font-family="arial">F5[3]</text>
<text x="377.85714285714283" y="97.39999999999999" font-size="7.399999999999998" fill="#6868b6" text-anchor="middle" font-family="arial">3</text>
<path d="M319.9285714285714,70.5952380952381L358.0357142857143,70.5952380952381L358.0357142857143,67.07142857142858L366.8452380952381,75.0L358.0357142857143,82.92857142857144L358.0357142857143,79.40476190476193L319.9285714285714,79.40476190476193Z" fill="#ddd" stroke="none" />
<circle cx="342.2857142857142" cy="75.0" r="8.809523809523808" fill="#fff" stroke="#818181" />
<path d="M336.11904761904754,75.0H342.2857142857142L346.64620610303126,70.63950818268296" stroke="#000" strokewidth="1" fill="none" />
</svg>