<?xml version="1.0" encoding="UTF-8"?>
<svg xmlns="http://www.w3.org/2000/svg" xmlns:xlink="http://www.w3.org/1999/xlink"
     width="800" height="571" viewBox="0 0 420 300">
<defs>
</defs>
<g>
<rect x="11.2" y="135.0" width="15.14666666666667" height="30" fill="#e1e1e1" stroke="#7f7f7f" stroke-dasharray="5.301333333333334 4.241066666666668" />
<text x="18.773333333333333" y="152.54464" font-size="8.482133333333335" transform="" fill="#5b9bd5" text-anchor="middle" font-family="arial">x</text>
</g>
<text x="18.773333333333333" y="171.3616" font-size="6.3616" fill="#6868b6" text-anchor="middle" font-family="arial">1</text>
<g>
<rect x="83.14666666666666" y="122.31266915654967" width="15.14666666666667" height="55.37466168690069" fill="#e1e1e1" stroke="#7f7f7f" />
<text x="93.26464" y="150.00000000000003" font-size="8.482133333333335" transform="rotate(-90, 93.26464, 150.00000000000003)" fill="#5b9bd5" text-anchor="middle" font-family="arial">embed</text>
</g>
<text x="90.72" y="184.04893084345036" font-size="6.3616" fill="#6868b6" text-anchor="middle" font-family="arial">26</text>
<path d="M30.133333333333344,146.21333333333334L73.67999999999999,146.21333333333337L73.67999999999999,143.18400000000003L81.25333333333333,150.00000000000003L73.67999999999998,156.81600000000003L73.67999999999998,153.7866666666667L30.133333333333326,153.78666666666666Z" fill="#ddd" stroke="none" />
<g>
<rect x="155.0933333333333" y="11.2" width="15.14666666666667" height="277.6" fill="#e1e1e1" stroke="#7f7f7f" />
<text x="165.21130666666662" y="150.0" font-size="8.482133333333335" transform="rotate(-90, 165.21130666666662, 150.0)" fill="#5b9bd5" text-anchor="middle" font-family="arial">concat</text>
</g>
<rect x="185.38666666666666" y="11.2" width="15.14666666666667" height="48.58" rx="4" ry="4" fill="#e1e1e1" stroke="#7f7f7f" />
<circle cx="192.95999999999998" cy="18.689439999999998" r="3.7109333333333336" fill="#5b9bd5" stroke="#41719c" />
<circle cx="192.95999999999998" cy="29.88981333333333" r="3.7109333333333336" fill="#5b9bd5" stroke="#41719c" />
<circle cx="192.95999999999998" cy="41.09018666666666" r="3.7109333333333336" fill="#5b9bd5" stroke="#41719c" />
<circle cx="192.95999999999998" cy="52.29055999999999" r="3.7109333333333336" fill="#5b9bd5" stroke="#41719c" />
<text x="192.95999999999998" y="7.0" font-size="6.3616" fill="#6868b6" text-anchor="middle" font-family="arial">F_ZF[128]</text>
<text x="192.95999999999998" y="65.08133333333333" font-size="5.301333333333334" fill="#6868b6" text-anchor="middle" font-family="arial">128</text>
<path d="M172.89066666666665,32.83933333333333L178.76,32.83933333333333L178.76,30.718799999999995L184.06133333333332,35.489999999999995L178.76,40.261199999999995L178.76,38.14066666666666L172.89066666666665,38.14066666666666Z" fill="#ddd" stroke="none" />
<rect x="185.38666666666666" y="78.28666666666668" width="15.14666666666667" height="48.58" rx="4" ry="4" fill="#e1e1e1" stroke="#7f7f7f" />
<circle cx="192.95999999999998" cy="85.77610666666668" r="3.7109333333333336" fill="#5b9bd5" stroke="#41719c" />
<circle cx="192.95999999999998" cy="96.97648000000001" r="3.7109333333333336" fill="#5b9bd5" stroke="#41719c" />
<circle cx="192.95999999999998" cy="108.17685333333334" r="3.7109333333333336" fill="#5b9bd5" stroke="#41719c" />
<circle cx="192.95999999999998" cy="119.37722666666667" r="3.7109333333333336" fill="#5b9bd5" stroke="#41719c" />
<text x="192.95999999999998" y="74.08666666666667" font-size="6.3616" fill="#6868b6" text-anchor="middle" font-family="arial">F_ZI[128]</text>
<text x="192.95999999999998" y="132.168" font-size="5.301333333333334" fill="#6868b6" text-anchor="middle" font-family="arial">128</text>
<path d="M172.89066666666665,99.92600000000002L178.76,99.92600000000002L178.76,97.80546666666669L184.06133333333332,102.57666666666668L178.76,107.34786666666669L178.76,105.22733333333336L172.89066666666665,105.22733333333336Z" fill="#ddd" stroke="none" />
<rect x="185.38666666666666" y="145.37333333333333" width="15.14666666666667" height="48.58" rx="4" ry="4" fill="#e1e1e1" stroke="#7f7f7f" />
<circle cx="192.95999999999998" cy="152.86277333333334" r="3.7109333333333336" fill="#5b9bd5" stroke="#41719c" />
<circle cx="192.95999999999998" cy="164.06314666666668" r="3.7109333333333336" fill="#5b9bd5" stroke="#41719c" />
<circle cx="192.95999999999998" cy="175.26352000000003" r="3.7109333333333336" fill="#5b9bd5" stroke="#41719c" />
<circle cx="192.95999999999998" cy="186.46389333333337" r="3.7109333333333336" fill="#5b9bd5" stroke="#41719c" />
<text x="192.95999999999998" y="141.17333333333335" font-size="6.3616" fill="#6868b6" text-anchor="middle" font-family="arial">F_ZC[128]</text>
<text x="192.95999999999998" y="199.25466666666665" font-size="5.301333333333334" fill="#6868b6" text-anchor="middle" font-family="arial">128</text>
<path d="M172.89066666666665,167.01266666666666L178.76,167.01266666666666L178.76,164.89213333333333L184.06133333333332,169.66333333333333L178.76,174.43453333333332L178.76,172.314L172.89066666666665,172.314Z" fill="#ddd" stroke="none" />
<rect x="185.38666666666666" y="212.46" width="15.14666666666667" height="48.58" rx="4" ry="4" fill="#e1e1e1" stroke="#7f7f7f" />
<circle cx="192.95999999999998" cy="219.94944" r="3.7109333333333336" fill="#5b9bd5" stroke="#41719c" />
<circle cx="192.95999999999998" cy="231.14981333333336" r="3.7109333333333336" fill="#5b9bd5" stroke="#41719c" />
<circle cx="192.95999999999998" cy="242.3501866666667" r="3.7109333333333336" fill="#5b9bd5" stroke="#41719c" />
<circle cx="192.95999999999998" cy="253.55056000000005" r="3.7109333333333336" fill="#5b9bd5" stroke="#41719c" />
<text x="192.95999999999998" y="208.26000000000002" font-size="6.3616" fill="#6868b6" text-anchor="middle" font-family="arial">F_ZO[128]</text>
<text x="192.95999999999998" y="266.34133333333335" font-size="5.301333333333334" fill="#6868b6" text-anchor="middle" font-family="arial">128</text>
<path d="M172.89066666666665,234.09933333333333L178.76,234.09933333333333L178.76,231.9788L184.06133333333332,236.75L178.76,241.52120000000002L178.76,239.4006666666667L172.89066666666665,239.4006666666667Z" fill="#ddd" stroke="none" />
<g>
<rect x="230.82666666666665" y="11.2" width="15.14666666666667" height="48.58" fill="#e1e1e1" stroke="#7f7f7f" />
<text x="240.94463999999996" y="35.489999999999995" font-size="8.482133333333335" transform="rotate(-90, 240.94463999999996, 35.489999999999995)" fill="#5b9bd5" text-anchor="middle" font-family="arial">multiply</text>
</g>
<path d="M203.18399999999997,32.83933333333333L224.2,32.83933333333333L224.2,30.718799999999995L229.50133333333332,35.489999999999995L224.2,40.261199999999995L224.2,38.14066666666666L203.18399999999997,38.14066666666666Z" fill="#ddd" stroke="none" />
<circle cx="215.67999999999998" cy="35.489999999999995" r="5.301333333333334" fill="#fff" stroke="#818181" />
<path d="M212.68111300053576,35.489999999999995C218.6788869994642,35.489999999999995,212.68111300053576,32.49111300053577,218.6788869994642,32.49111300053577" stroke="#000" strokewidth="1" fill="none" />
<g>
<rect x="230.82666666666665" y="78.28666666666668" width="15.14666666666667" height="115.66666666666667" fill="#e1e1e1" stroke="#7f7f7f" />
<text x="240.94463999999996" y="136.12" font-size="8.482133333333335" transform="rotate(-90, 240.94463999999996, 136.12)" fill="#5b9bd5" text-anchor="middle" font-family="arial">multiply</text>
</g>
<path d="M203.18399999999997,99.92600000000002L224.2,99.92600000000002L224.2,97.80546666666669L229.50133333333332,102.57666666666668L224.2,107.34786666666669L224.2,105.22733333333336L203.18399999999997,105.22733333333336Z" fill="#ddd" stroke="none" />
<circle cx="215.67999999999998" cy="102.57666666666668" r="5.301333333333334" fill="#fff" stroke="#818181" />
<path d="M212.68111300053576,105.57555366613092C218.6788869994642,105.57555366613092,212.68111300053576,99.57777966720245,218.6788869994642,99.57777966720245" stroke="#000" strokewidth="1" fill="none" />
<path d="M203.18399999999997,167.01266666666666L224.2,167.01266666666666L224.2,164.89213333333333L229.50133333333332,169.66333333333333L224.2,174.43453333333332L224.2,172.314L203.18399999999997,172.314Z" fill="#ddd" stroke="none" />
<circle cx="215.67999999999998" cy="169.66333333333333" r="5.301333333333334" fill="#fff" stroke="#818181" />
<path d="M212.68111300053576,169.66333333333333C218.6788869994642,169.66333333333333,212.68111300053576,166.6644463338691,218.6788869994642,166.6644463338691" stroke="#000" strokewidth="1" fill="none" />
<g>
<rect x="276.26666666666665" y="11.2" width="15.14666666666667" height="182.75333333333336" fill="#e1e1e1" stroke="#7f7f7f" />
<text x="286.38464" y="102.57666666666668" font-size="8.482133333333335" transform="rotate(-90, 286.38464, 102.57666666666668)" fill="#5b9bd5" text-anchor="middle" font-family="arial">add</text>
</g>
<path d="M273.616,30.043999999999997L252.59999999999997,30.043999999999997L252.59999999999997,32.16453333333333L247.29866666666663,27.39333333333333L252.59999999999997,22.62213333333333L252.59999999999997,24.742666666666665L273.616,24.742666666666665Z" fill="#ddd" stroke="none" />
<circle cx="261.12" cy="27.39333333333333" r="5.301333333333334" fill="#fff" stroke="#818181" />
<text x="261.12" y="28.718666666666664" font-size="5.301333333333334" fill="#000" text-anchor="middle" font-family="monospace">t-1</text>
<path d="M248.62399999999997,40.93599999999999L269.64,40.93599999999999L269.64,38.81546666666666L274.9413333333333,43.58666666666666L269.64,48.35786666666666L269.64,46.237333333333325L248.62399999999997,46.237333333333325Z" fill="#ddd" stroke="none" />
<path d="M248.62399999999997,133.46933333333334L269.64,133.46933333333334L269.64,131.3488L274.9413333333333,136.12L269.64,140.89120000000003L269.64,138.7706666666667L248.62399999999997,138.7706666666667Z" fill="#ddd" stroke="none" />
<g>
<rect x="321.70666666666665" y="11.2" width="15.14666666666667" height="277.6" fill="#e1e1e1" stroke="#7f7f7f" />
<text x="331.82464" y="150.0" font-size="8.482133333333335" transform="rotate(-90, 331.82464, 150.0)" fill="#5b9bd5" text-anchor="middle" font-family="arial">multiply</text>
</g>
<path d="M294.06399999999996,99.92600000000002L315.08,99.92600000000002L315.08,97.80546666666669L320.3813333333333,102.57666666666668L315.08,107.34786666666669L315.08,105.22733333333336L294.06399999999996,105.22733333333336Z" fill="#ddd" stroke="none" />
<circle cx="306.55999999999995" cy="102.57666666666668" r="5.301333333333334" fill="#fff" stroke="#818181" />
<path d="M303.5611130005357,105.57555366613092C309.55888699946416,105.57555366613092,303.5611130005357,99.57777966720245,309.55888699946416,99.57777966720245" stroke="#000" strokewidth="1" fill="none" />
<path d="M203.18399999999997,234.09933333333333L315.08,234.09933333333333L315.08,231.9788L320.3813333333333,236.75L315.08,241.52120000000002L315.08,239.4006666666667L203.18399999999997,239.4006666666667Z" fill="#ddd" stroke="none" />
<circle cx="261.12" cy="236.75" r="5.301333333333334" fill="#fff" stroke="#818181" />
<path d="M258.1211130005358,236.75C264.1188869994642,236.75,258.1211130005358,233.75111300053578,264.1188869994642,233.75111300053578" stroke="#000" strokewidth="1" fill="none" />
<path d="M317.91999999999996,283.33333333333337L179.70666666666665,283.33333333333337L179.70666666666665,286.3626666666667L172.13333333333333,279.5466666666667L179.70666666666665,272.7306666666667L179.70666666666665,275.76000000000005L317.91999999999996,275.76000000000005Z" fill="#ddd" stroke="none" />
<circle cx="245.9733333333333" cy="279.5466666666667" r="7.573333333333335" fill="#fff" stroke="#818181" />
<text x="245.9733333333333" y="281.44" font-size="7.573333333333335" fill="#000" text-anchor="middle" font-family="monospace">t-1</text>
<path d="M102.08,146.21333333333337L145.6266666666666,146.21333333333334L145.6266666666666,143.184L153.19999999999996,150.0L145.6266666666666,156.816L145.6266666666666,153.78666666666666L102.07999999999998,153.7866666666667Z" fill="#ddd" stroke="none" />
<circle cx="126.69333333333333" cy="150.0" r="7.573333333333335" fill="#fff" stroke="#818181" />
<circle cx="122.90666666666665" cy="150.00000000000003" r="7.573333333333335" fill="#fff" stroke="#818181" />
<circle cx="126.69333333333333" cy="150.0" r="7.573333333333335" fill="#fff" stroke="#818181" />
<circle cx="130.48" cy="150.0" r="7.573333333333335" fill="#fff" stroke="#818181" />
<text x="130.48" y="151.89333333333335" font-size="7.573333333333335" fill="#000" text-anchor="middle" font-family="monospace">[t]</text>
<rect x="393.6533333333333" y="135.0" width="15.14666666666667" height="30" rx="4" ry="4" fill="#e1e1e1" stroke="#7f7f7f" />
<circle cx="401.22666666666663" cy="143.76302222222222" r="3.7109333333333336" fill="#5b9bd5" stroke="#41719c" />
<circle cx="401.22666666666663" cy="156.23697777777778" r="3.7109333333333336" fill="#5b9bd5" stroke="#41719c" />
<text x="401.22666666666663" y="130.8" font-size="6.3616" fill="#6868b6" text-anchor="middle" font-family="arial">F3[3]</text>
<text x="401.22666666666663" y="171.3616" font-size="6.3616" fill="#6868b6" text-anchor="middle" font-family="arial">3</text>
<path d="M340.64000000000004,146.21333333333334L384.18666666666667,146.21333333333334L384.18666666666667,143.184L391.76,150.0L384.18666666666667,156.816L384.18666666666667,153.78666666666666L340.64000000000004,153.78666666666666Z" fill="#ddd" stroke="none" />
</svg>