<?xml version="1.0" encoding="UTF-8"?>
<svg xmlns="http://www.w3.org/2000/svg" xmlns:xlink="http://www.w3.org/1999/xlink"
     width="504" height="600" viewBox="0 0 420 500">
<defs>
</defs>
<g>
<rect x="15.272727272727272" y="56.0753674895794" width="20.231404958677686" height="103.42647067222431" fill="#e1e1e1" stroke="#7f7f7f" stroke-dasharray="7.080991735537189 5.664793388429752" />
<text x="25.388429752066116" y="111.1874788587494" font-size="11.329586776859504" transform="" fill="#5b9bd5" text-anchor="middle" font-family="arial">q</text>
</g>
<text x="25.388429752066116" y="167.99902824444834" font-size="8.497190082644627" fill="#6868b6" text-anchor="middle" font-family="arial">128</text>
<g>
<rect x="15.272727272727272" y="198.28676466388785" width="20.231404958677686" height="103.42647067222431" fill="#e1e1e1" stroke="#7f7f7f" stroke-dasharray="7.080991735537189 5.664793388429752" />
<text x="25.388429752066116" y="253.39887603305786" font-size="11.329586776859504" transform="" fill="#5b9bd5" text-anchor="middle" font-family="arial">k</text>
</g>
<text x="25.388429752066116" y="310.2104254187568" font-size="8.497190082644627" fill="#6868b6" text-anchor="middle" font-family="arial">128</text>
<g>
<rect x="15.272727272727272" y="340.4981618381963" width="20.231404958677686" height="103.42647067222431" fill="#e1e1e1" stroke="#7f7f7f" stroke-dasharray="7.080991735537189 5.664793388429752" />
<text x="25.388429752066116" y="395.61027320736633" font-size="11.329586776859504" transform="" fill="#5b9bd5" text-anchor="middle" font-family="arial">v</text>
</g>
<text x="25.388429752066116" y="452.42182259306526" font-size="8.497190082644627" fill="#6868b6" text-anchor="middle" font-family="arial">128</text>
<g>
<rect x="101.25619834710741" y="15.272727272727272" width="20.231404958677686" height="60.09018181818182" fill="#e1e1e1" stroke="#7f7f7f" />
<text x="114.7707768595041" y="45.31781818181818" font-size="11.329586776859504" transform="rotate(-90, 114.7707768595041, 45.31781818181818)" fill="#5b9bd5" text-anchor="middle" font-family="arial">h0</text>
</g>
<g>
<rect x="101.25619834710741" y="80.37042424242425" width="20.231404958677686" height="60.09018181818182" fill="#e1e1e1" stroke="#7f7f7f" />
<text x="114.7707768595041" y="110.41551515151517" font-size="11.329586776859504" transform="rotate(-90, 114.7707768595041, 110.41551515151517)" fill="#5b9bd5" text-anchor="middle" font-family="arial">h1</text>
</g>
<g>
<rect x="101.25619834710741" y="187.4060606060606" width="20.231404958677686" height="60.09018181818182" fill="#e1e1e1" stroke="#7f7f7f" />
<text x="114.7707768595041" y="217.4511515151515" font-size="11.329586776859504" transform="rotate(-90, 114.7707768595041, 217.4511515151515)" fill="#5b9bd5" text-anchor="middle" font-family="arial">h0</text>
</g>
<g>
<rect x="101.25619834710741" y="252.50375757575762" width="20.231404958677686" height="60.09018181818182" fill="#e1e1e1" stroke="#7f7f7f" />
<text x="114.7707768595041" y="282.5488484848485" font-size="11.329586776859504" transform="rotate(-90, 114.7707768595041, 282.5488484848485)" fill="#5b9bd5" text-anchor="middle" font-family="arial">h1</text>
</g>
<g>
<rect x="101.25619834710741" y="359.5393939393939" width="20.231404958677686" height="60.09018181818182" fill="#e1e1e1" stroke="#7f7f7f" />
<text x="114.7707768595041" y="389.5844848484848" font-size="11.329586776859504" transform="rotate(-90, 114.7707768595041, 389.5844848484848)" fill="#5b9bd5" text-anchor="middle" font-family="arial">h0</text>
</g>
<g>
<rect x="101.25619834710741" y="424.6370909090909" width="20.231404958677686" height="60.09018181818182" fill="#e1e1e1" stroke="#7f7f7f" />
<text x="114.7707768595041" y="454.6821818181818" font-size="11.329586776859504" transform="rotate(-90, 114.7707768595041, 454.6821818181818)" fill="#5b9bd5" text-anchor="middle" font-family="arial">h1</text>
</g>
<rect x="202.41322314049586" y="15.272727272727272" width="20.23140495867769" height="52.81363636363636" rx="4" ry="4" fill="#e1e1e1" stroke="#7f7f7f" />
<circle cx="212.5289256198347" cy="25.99778925619835" r="4.956694214876033" fill="#5b9bd5" stroke="#41719c" />
<circle cx="212.5289256198347" cy="41.679545454545455" r="4.956694214876033" fill="#5b9bd5" stroke="#41719c" />
<circle cx="212.5289256198347" cy="57.361301652892564" r="4.956694214876033" fill="#5b9bd5" stroke="#41719c" />
<text x="212.5289256198347" y="11.072727272727272" font-size="8.497190082644629" fill="#6868b6" text-anchor="middle" font-family="arial">F_Q[128]</text>
<text x="212.5289256198347" y="75.16735537190083" font-size="7.080991735537191" fill="#6868b6" text-anchor="middle" font-family="arial">128</text>
<rect x="202.41322314049586" y="94.49318181818181" width="20.23140495867769" height="52.81363636363636" rx="4" ry="4" fill="#e1e1e1" stroke="#7f7f7f" />
<circle cx="212.5289256198347" cy="105.21824380165289" r="4.956694214876033" fill="#5b9bd5" stroke="#41719c" />
<circle cx="212.5289256198347" cy="120.89999999999999" r="4.956694214876033" fill="#5b9bd5" stroke="#41719c" />
<circle cx="212.5289256198347" cy="136.5817561983471" r="4.956694214876033" fill="#5b9bd5" stroke="#41719c" />
<text x="212.5289256198347" y="90.29318181818181" font-size="8.497190082644629" fill="#6868b6" text-anchor="middle" font-family="arial">F_K[128]</text>
<text x="212.5289256198347" y="154.38780991735538" font-size="7.080991735537191" fill="#6868b6" text-anchor="middle" font-family="arial">128</text>
<rect x="202.41322314049586" y="173.71363636363634" width="20.23140495867769" height="52.81363636363636" rx="4" ry="4" fill="#e1e1e1" stroke="#7f7f7f" />
<circle cx="212.5289256198347" cy="184.43869834710742" r="4.956694214876033" fill="#5b9bd5" stroke="#41719c" />
<circle cx="212.5289256198347" cy="200.12045454545452" r="4.956694214876033" fill="#5b9bd5" stroke="#41719c" />
<circle cx="212.5289256198347" cy="215.80221074380162" r="4.956694214876033" fill="#5b9bd5" stroke="#41719c" />
<text x="212.5289256198347" y="169.51363636363635" font-size="8.497190082644629" fill="#6868b6" text-anchor="middle" font-family="arial">F_V[128]</text>
<text x="212.5289256198347" y="233.6082644628099" font-size="7.080991735537191" fill="#6868b6" text-anchor="middle" font-family="arial">128</text>
<path d="M226.18512396694214,196.57995867768597L314.95041322314046,196.57995867768597L314.95041322314046,193.7475619834711L322.0314049586777,200.12045454545455L314.95041322314046,206.49334710743804L314.95041322314046,203.66095041322316L226.18512396694211,203.66095041322316Z" fill="#ddd" stroke="none" />
<g>
<rect x="242.87603305785123" y="15.272727272727272" width="20.23140495867769" height="132.0340909090909" fill="#e1e1e1" stroke="#7f7f7f" />
<text x="256.3906115702479" y="81.28977272727272" font-size="11.329586776859507" transform="rotate(-90, 256.3906115702479, 81.28977272727272)" fill="#5b9bd5" text-anchor="middle" font-family="arial">matmul</text>
</g>
<path d="M226.18512396694211,38.139049586776856L234.02479338842974,38.139049586776856L234.02479338842974,35.30665289256198L241.10578512396694,41.679545454545455L234.02479338842974,48.052438016528924L234.02479338842974,45.220041322314046L226.18512396694211,45.220041322314046Z" fill="#ddd" stroke="none" />
<path d="M226.18512396694211,117.3595041322314L234.02479338842974,117.3595041322314L234.02479338842974,114.52710743801651L241.10578512396694,120.89999999999999L234.02479338842974,127.27289256198345L234.02479338842974,124.44049586776858L226.18512396694211,124.44049586776858Z" fill="#ddd" stroke="none" />
<g>
<rect x="283.3388429752066" y="15.272727272727272" width="20.23140495867769" height="132.0340909090909" fill="#e1e1e1" stroke="#7f7f7f" />
<text x="296.85342148760327" y="81.28977272727272" font-size="11.329586776859507" transform="rotate(-90, 296.85342148760327, 81.28977272727272)" fill="#5b9bd5" text-anchor="middle" font-family="arial">softmax</text>
</g>
<path d="M266.6479338842975,82.15041322314049L274.4876033057851,82.15041322314049L274.4876033057851,79.31801652892561L281.5685950413223,85.69090909090909L274.4876033057851,92.06380165289255L274.4876033057851,89.23140495867767L266.6479338842975,89.23140495867767Z" fill="#ddd" stroke="none" />
<path d="M307.1107438016529,82.15041322314049L314.9504132231405,82.15041322314049L314.9504132231405,79.31801652892561L322.0314049586777,85.69090909090909L314.9504132231405,92.06380165289255L314.9504132231405,89.23140495867767L307.1107438016529,89.23140495867767Z" fill="#ddd" stroke="none" />
<g>
<rect x="323.801652892562" y="15.272727272727272" width="20.23140495867769" height="211.25454545454545" fill="#e1e1e1" stroke="#7f7f7f" />
<text x="337.31623140495867" y="120.89999999999999" font-size="11.329586776859507" transform="rotate(-90, 337.31623140495867, 120.89999999999999)" fill="#5b9bd5" text-anchor="middle" font-family="arial">multiply</text>
</g>
<path d="M124.9372608908371,41.78142649832147L193.35997273303792,38.484004768300125L193.22363233413736,35.65489142150276L200.60318159865702,41.679545454545455L193.83716412918983,48.38590148209091L193.70082373028927,45.556788135293544L125.27811188808846,48.8542098653149Z" fill="#ddd" stroke="none" />
<path d="M124.30822961071827,215.326226549986L192.5051710543542,124.43892703929322L190.23963025257072,122.7389870671608L199.5869469869146,120.89999999999999L200.43456386059646,130.38871694175666L198.16902305881297,128.68877696962426L129.97208161517705,219.57607648031703Z" fill="#ddd" stroke="none" />
<path d="M125.8481286458347,388.3667672833707L192.8107810543462,205.55172936153593L190.15118410186798,204.57755530944465L198.57071237517218,200.12045454545452L202.11937038801995,208.96133854385542L199.45977343554173,207.98716449176413L132.49712102703023,390.8022024135989Z" fill="#ddd" stroke="none" />
<path d="M347.57355371900826,117.3595041322314L375.6446280991736,117.3595041322314L375.6446280991736,114.52710743801651L382.72561983471076,120.89999999999999L375.6446280991736,127.27289256198345L375.6446280991736,124.44049586776858L347.57355371900826,124.44049586776858Z" fill="#ddd" stroke="none" />
<path d="M202.41322314049586,250.0 L344.0330578512397,250.0" stroke="#5b9bd5" stroke-dasharray="10.115702479338843 8.092561983471075" />
<rect x="202.41322314049586" y="273.47272727272724" width="20.23140495867769" height="52.81363636363636" rx="4" ry="4" fill="#e1e1e1" stroke="#7f7f7f" />
<circle cx="212.5289256198347" cy="284.19778925619835" r="4.956694214876033" fill="#5b9bd5" stroke="#41719c" />
<circle cx="212.5289256198347" cy="299.87954545454545" r="4.956694214876033" fill="#5b9bd5" stroke="#41719c" />
<circle cx="212.5289256198347" cy="315.56130165289255" r="4.956694214876033" fill="#5b9bd5" stroke="#41719c" />
<text x="212.5289256198347" y="269.27272727272725" font-size="8.497190082644629" fill="#6868b6" text-anchor="middle" font-family="arial">F_Q[128]</text>
<text x="212.5289256198347" y="333.36735537190077" font-size="7.080991735537191" fill="#6868b6" text-anchor="middle" font-family="arial">128</text>
<rect x="202.41322314049586" y="352.69318181818176" width="20.23140495867769" height="52.81363636363636" rx="4" ry="4" fill="#e1e1e1" stroke="#7f7f7f" />
<circle cx="212.5289256198347" cy="363.41824380165286" r="4.956694214876033" fill="#5b9bd5" stroke="#41719c" />
<circle cx="212.5289256198347" cy="379.09999999999997" r="4.956694214876033" fill="#5b9bd5" stroke="#41719c" />
<circle cx="212.5289256198347" cy="394.78175619834707" r="4.956694214876033" fill="#5b9bd5" stroke="#41719c" />
<text x="212.5289256198347" y="348.49318181818177" font-size="8.497190082644629" fill="#6868b6" text-anchor="middle" font-family="arial">F_K[128]</text>
<text x="212.5289256198347" y="412.5878099173553" font-size="7.080991735537191" fill="#6868b6" text-anchor="middle" font-family="arial">128</text>
<rect x="202.41322314049586" y="431.91363636363633" width="20.23140495867769" height="52.81363636363636" rx="4" ry="4" fill="#e1e1e1" stroke="#7f7f7f" />
<circle cx="212.5289256198347" cy="442.63869834710744" r="4.956694214876033" fill="#5b9bd5" stroke="#41719c" />
<circle cx="212.5289256198347" cy="458.32045454545454" r="4.956694214876033" fill="#5b9bd5" stroke="#41719c" />
<circle cx="212.5289256198347" cy="474.00221074380164" r="4.956694214876033" fill="#5b9bd5" stroke="#41719c" />
<text x="212.5289256198347" y="427.71363636363634" font-size="8.497190082644629" fill="#6868b6" text-anchor="middle" font-family="arial">F_V[128]</text>
<text x="212.5289256198347" y="491.80826446280986" font-size="7.080991735537191" fill="#6868b6" text-anchor="middle" font-family="arial">128</text>
<path d="M226.18512396694214,454.7799586776859L314.95041322314046,454.7799586776859L314.95041322314046,451.947561983471L322.0314049586777,458.3204545454545L314.95041322314046,464.69334710743794L314.95041322314046,461.86095041322307L226.18512396694211,461.86095041322307Z" fill="#ddd" stroke="none" />
<g>
<rect x="242.87603305785123" y="273.47272727272724" width="20.23140495867769" height="132.0340909090909" fill="#e1e1e1" stroke="#7f7f7f" />
<text x="256.3906115702479" y="339.4897727272727" font-size="11.329586776859507" transform="rotate(-90, 256.3906115702479, 339.4897727272727)" fill="#5b9bd5" text-anchor="middle" font-family="arial">matmul</text>
</g>
<path d="M226.18512396694211,296.33904958677687L234.02479338842974,296.33904958677687L234.02479338842974,293.506652892562L241.10578512396694,299.87954545454545L234.02479338842974,306.2524380165289L234.02479338842974,303.42004132231403L226.18512396694211,303.42004132231403Z" fill="#ddd" stroke="none" />
<path d="M226.18512396694211,375.5595041322314L234.02479338842974,375.5595041322314L234.02479338842974,372.7271074380165L241.10578512396694,379.09999999999997L234.02479338842974,385.47289256198343L234.02479338842974,382.64049586776855L226.18512396694211,382.64049586776855Z" fill="#ddd" stroke="none" />
<g>
<rect x="283.3388429752066" y="273.47272727272724" width="20.23140495867769" height="132.0340909090909" fill="#e1e1e1" stroke="#7f7f7f" />
<text x="296.85342148760327" y="339.4897727272727" font-size="11.329586776859507" transform="rotate(-90, 296.85342148760327, 339.4897727272727)" fill="#5b9bd5" text-anchor="middle" font-family="arial">softmax</text>
</g>
<path d="M266.6479338842975,340.3504132231405L274.4876033057851,340.3504132231405L274.4876033057851,337.5180165289256L281.5685950413223,343.8909090909091L274.4876033057851,350.26380165289254L274.4876033057851,347.43140495867766L266.6479338842975,347.43140495867766Z" fill="#ddd" stroke="none" />
<path d="M307.1107438016529,340.3504132231405L314.9504132231405,340.3504132231405L314.9504132231405,337.5180165289256L322.0314049586777,343.8909090909091L314.9504132231405,350.26380165289254L314.9504132231405,347.43140495867766L307.1107438016529,347.43140495867766Z" fill="#ddd" stroke="none" />
<g>
<rect x="323.801652892562" y="273.47272727272724" width="20.23140495867769" height="211.25454545454545" fill="#e1e1e1" stroke="#7f7f7f" />
<text x="337.31623140495867" y="379.09999999999997" font-size="11.329586776859507" transform="rotate(-90, 337.31623140495867, 379.09999999999997)" fill="#5b9bd5" text-anchor="middle" font-family="arial">multiply</text>
</g>
<path d="M132.49712102703023,109.19779758640107L199.45977343554173,292.0128355082358L202.11937038801995,291.03866145614455L198.57071237517218,299.87954545454545L190.15118410186798,295.4224446905553L192.8107810543462,294.44827063846407L125.84812864583469,111.63323271662932Z" fill="#ddd" stroke="none" />
<path d="M129.97208161517702,280.423923519683L198.16902305881297,371.31122303037563L200.43456386059646,369.6112830582432L199.5869469869146,379.0999999999999L190.23963025257072,377.26101293283904L192.5051710543542,375.5610729607066L124.30822961071827,284.673773450014Z" fill="#ddd" stroke="none" />
<path d="M125.27811188808847,451.14579013468506L193.7008237302893,454.44321186470637L193.83716412918986,451.614098517909L200.60318159865702,458.3204545454545L193.2236323341374,464.34510857849716L193.35997273303795,461.5159952316998L124.93726089083714,458.21857350167846Z" fill="#ddd" stroke="none" />
<path d="M347.57355371900826,375.5595041322314L375.6446280991736,375.5595041322314L375.6446280991736,372.7271074380165L382.72561983471076,379.09999999999997L375.6446280991736,385.47289256198343L375.6446280991736,382.64049586776855L347.57355371900826,382.64049586776855Z" fill="#ddd" stroke="none" />
<g>
<rect x="384.4958677685951" y="15.272727272727272" width="20.231404958677686" height="469.45454545454544" fill="#e1e1e1" stroke="#7f7f7f" />
<text x="398.01044628099174" y="250.0" font-size="11.329586776859504" transform="rotate(-90, 398.01044628099174, 250.0)" fill="#5b9bd5" text-anchor="middle" font-family="arial">Concat</text>
</g>
<path d="M39.34369563833847,103.3199257339015L86.84536516332062,78.1362526371965L84.95005993839266,74.56131096376447L98.15185087806069,77.86666666666666L93.47893345056849,90.64854849420865L91.58362822564052,87.07360682077662L44.08195870065836,112.25727991748161Z" fill="#ddd" stroke="none" />
<path d="M40.561983471074385,244.94214876033058L88.61157024793386,244.94214876033058L88.61157024793386,240.89586776859505L98.7272727272727,250.0L88.61157024793386,259.10413223140495L88.61157024793386,255.05785123966942L40.56198347107438,255.05785123966942Z" fill="#ddd" stroke="none" />
<path d="M44.08195870065836,387.7427200825185L91.58362822564052,412.9263931792234L93.47893345056848,409.3514515057914L98.15185087806069,422.1333333333333L84.95005993839266,425.4386890362356L86.84536516332061,421.86374736280357L39.343695638338446,396.68007426609864Z" fill="#ddd" stroke="none" />
</svg>