<?xml version="1.0" encoding="UTF-8"?>
<svg xmlns="http://www.w3.org/2000/svg" xmlns:xlink="http://www.w3.org/1999/xlink"
     width="300" height="150" viewBox="0 0 300 150">
<defs>
</defs>
<rect x="15.0" y="15.0" width="17.142857142857142" height="120.0" fill="#e1e1e1" stroke="#7f7f7f" rx="4" ry="4" />
<rect x="19.371428571428574" y="18.272727272727273" width="8.399999999999999" height="8.399999999999999" fill="#5b9bd5" stroke="#41719c" />
<rect x="19.371428571428574" y="29.945454545454545" width="8.399999999999999" height="8.399999999999999" fill="#5b9bd5" stroke="#41719c" />
<rect x="19.371428571428574" y="41.61818181818182" width="8.399999999999999" height="8.399999999999999" fill="#5b9bd5" stroke="#41719c" />
<rect x="19.371428571428574" y="53.29090909090909" width="8.399999999999999" height="8.399999999999999" fill="#5b9bd5" stroke="#41719c" />
<rect x="19.371428571428574" y="64.96363636363637" width="8.399999999999999" height="8.399999999999999" fill="#5b9bd5" stroke="#41719c" />
<rect x="19.371428571428574" y="76.63636363636364" width="8.399999999999999" height="8.399999999999999" fill="#5b9bd5" stroke="#41719c" />
<rect x="19.371428571428574" y="88.30909090909091" width="8.399999999999999" height="8.399999999999999" fill="#5b9bd5" stroke="#41719c" />
<rect x="19.371428571428574" y="99.98181818181818" width="8.399999999999999" height="8.399999999999999" fill="#5b9bd5" stroke="#41719c" />
<rect x="19.371428571428574" y="111.65454545454546" width="8.399999999999999" height="8.399999999999999" fill="#5b9bd5" stroke="#41719c" />
<rect x="19.371428571428574" y="123.32727272727273" width="8.399999999999999" height="8.399999999999999" fill="#5b9bd5" stroke="#41719c" />
<text x="23.57142857142857" y="10.8" font-size="7.199999999999998" fill="#6868b6" text-anchor="middle" font-family="arial">C0[1x1]</text>
<text x="23.57142857142857" y="142.2" font-size="7.199999999999998" fill="#6868b6" text-anchor="middle" font-family="arial">128x4x4</text>
<rect x="141.42857142857142" y="35.06221039152348" width="17.142857142857142" height="79.87557921695304" fill="#e1e1e1" stroke="#7f7f7f" rx="4" ry="4" />
<rect x="145.79999999999998" y="39.27300742251677" width="8.399999999999999" height="8.399999999999999" fill="#5b9bd5" stroke="#41719c" />
<rect x="145.79999999999998" y="51.88380445351006" width="8.399999999999999" height="8.399999999999999" fill="#5b9bd5" stroke="#41719c" />
<rect x="145.79999999999998" y="64.49460148450335" width="8.399999999999999" height="8.399999999999999" fill="#5b9bd5" stroke="#41719c" />
<rect x="145.79999999999998" y="77.10539851549665" width="8.399999999999999" height="8.399999999999999" fill="#5b9bd5" stroke="#41719c" />
<rect x="145.79999999999998" y="89.71619554648994" width="8.399999999999999" height="8.399999999999999" fill="#5b9bd5" stroke="#41719c" />
<rect x="145.79999999999998" y="102.32699257748324" width="8.399999999999999" height="8.399999999999999" fill="#5b9bd5" stroke="#41719c" />
<text x="150.0" y="30.86221039152348" font-size="7.199999999999998" fill="#6868b6" text-anchor="middle" font-family="arial">C1[1x1]</text>
<text x="150.0" y="122.13778960847652" font-size="7.199999999999998" fill="#6868b6" text-anchor="middle" font-family="arial">10x4x4</text>
<path d="M37.607142857142854,70.71428571428572L128.25,70.71428571428572L128.25,67.28571428571429L135.9642857142857,75.00000000000001L128.25,82.71428571428572L128.25,79.28571428571429L37.60714285714286,79.28571428571429Z" fill="#ddd" stroke="none" />
<circle cx="86.78571428571428" cy="75.00000000000001" r="8.571428571428571" fill="#fff" stroke="#818181" stroke-dasharray="4.285714285714286 3.428571428571429" />
<path d="M80.78571428571428,75.00000000000001H86.78571428571428L91.02835497283357,70.75735931288072" stroke="#000" strokewidth="1" fill="none" />
<rect x="267.85714285714283" y="56.88039220970529" width="17.142857142857142" height="36.23921558058941" fill="#e1e1e1" stroke="#7f7f7f" />
<text x="279.3085714285714" y="75.0" font-size="9.6" transform="rotate(-90, 279.3085714285714, 75.0)" fill="#5b9bd5" font-family="arial" text-anchor="middle">ave</text>
<text x="276.4285714285714" y="52.68039220970529" font-size="7.199999999999998" fill="#6868b6" text-anchor="middle" font-family="arial">P2[4x4]</text>
<text x="276.4285714285714" y="100.31960779029471" font-size="7.199999999999998" fill="#6868b6" text-anchor="middle" font-family="arial">10x1x1</text>
<path d="M164.03571428571428,70.71428571428572L254.67857142857142,70.71428571428572L254.67857142857142,67.28571428571429L262.3928571428571,75.00000000000001L254.67857142857142,82.71428571428572L254.67857142857142,79.28571428571429L164.03571428571428,79.28571428571429Z" fill="#ddd" stroke="none" />
</svg>