<?xml version="1.0" encoding="UTF-8"?>
<svg xmlns="http://www.w3.org/2000/svg" xmlns:xlink="http://www.w3.org/1999/xlink"
     width="800" height="400" viewBox="0 0 300 150">
<defs>
</defs>
<rect x="15.0" y="15.0" width="17.142857142857142" height="120.0" fill="#e1e1e1" stroke="#7f7f7f" rx="4" ry="4" />
<rect x="19.371428571428574" y="18.272727272727273" width="8.399999999999999" height="8.399999999999999" fill="#5b9bd5" stroke="#41719c" />
<rect x="19.371428571428574" y="29.945454545454545" width="8.399999999999999" height="8.399999999999999" fill="#5b9bd5" stroke="#41719c" />
<rect x="19.371428571428574" y="41.61818181818182" width="8.399999999999999" height="8.399999999999999" fill="#5b9bd5" stroke="#41719c" />
<rect x="19.371428571428574" y="53.29090909090909" width="8.399999999999999" height="8.399999999999999" fill="#5b9bd5" stroke="#41719c" />
<rect x="19.371428571428574" y="64.96363636363637" width="8.399999999999999" height="8.399999999999999" fill="#5b9bd5" stroke="#41719c" />
<rect x="19.371428571428574" y="76.63636363636364" width="8.399999999999999" height="8.399999999999999" fill="#5b9bd5" stroke="#41719c" />
<rect x="19.371428571428574" y="88.30909090909091" width="8.399999999999999" height="8.399999999999999" fill="#5b9bd5" stroke="#41719c" />
<rect x="19.371428571428574" y="99.98181818181818" width="8.399999999999999" height="8.399999999999999" fill="#5b9bd5" stroke="#41719c" />
<rect x="19.371428571428574" y="111.65454545454546" width="8.399999999999999" height="8.399999999999999" fill="#5b9bd5" stroke="#41719c" />
<rect x="19.371428571428574" y="123.32727272727273" width="8.399999999999999" height="8.399999999999999" fill="#5b9bd5" stroke="#41719c" />
<text x="23.57142857142857" y="10.8" font-size="7.199999999999998" fill="#6868b6" text-anchor="middle" font-family="arial">C0[3x3]</text>
<text x="23.57142857142857" y="142.2" font-size="7.199999999999998" fill="#6868b6" text-anchor="middle" font-family="arial">64x56x56</text>
<rect x="99.28571428571429" y="15.0" width="17.142857142857142" height="120.0" fill="#e1e1e1" stroke="#7f7f7f" />
<text x="109.85714285714286" y="75.0" font-size="9.6" transform="rotate(-90, 109.85714285714286, 75.0)" fill="#5b9bd5" font-family="arial" text-anchor="middle">bn</text>
<text x="107.85714285714286" y="10.8" font-size="7.199999999999998" fill="#6868b6" text-anchor="middle" font-family="arial">B1</text>
<text x="107.85714285714286" y="142.2" font-size="7.199999999999998" fill="#6868b6" text-anchor="middle" font-family="arial">64x56x56</text>
<path d="M35.5,70.71428571428572L88.21428571428572,70.71428571428572L88.21428571428572,67.28571428571429L95.92857142857143,75.00000000000001L88.21428571428572,82.71428571428572L88.21428571428572,79.28571428571429L35.5,79.28571428571429Z" fill="#ddd" stroke="none" />
<rect x="183.57142857142858" y="15.0" width="17.142857142857142" height="120.0" fill="#e1e1e1" stroke="#7f7f7f" rx="4" ry="4" />
<rect x="187.94285714285715" y="18.272727272727273" width="8.399999999999999" height="8.399999999999999" fill="#5b9bd5" stroke="#41719c" />
<rect x="187.94285714285715" y="29.945454545454545" width="8.399999999999999" height="8.399999999999999" fill="#5b9bd5" stroke="#41719c" />
<rect x="187.94285714285715" y="41.61818181818182" width="8.399999999999999" height="8.399999999999999" fill="#5b9bd5" stroke="#41719c" />
<rect x="187.94285714285715" y="53.29090909090909" width="8.399999999999999" height="8.399999999999999" fill="#5b9bd5" stroke="#41719c" />
<rect x="187.94285714285715" y="64.96363636363637" width="8.399999999999999" height="8.399999999999999" fill="#5b9bd5" stroke="#41719c" />
<rect x="187.94285714285715" y="76.63636363636364" width="8.399999999999999" height="8.399999999999999" fill="#5b9bd5" stroke="#41719c" />
<rect x="187.94285714285715" y="88.30909090909091" width="8.399999999999999" height="8.399999999999999" fill="#5b9bd5" stroke="#41719c" />
<rect x="187.94285714285715" y="99.98181818181818" width="8.399999999999999" height="8.399999999999999" fill="#5b9bd5" stroke="#41719c" />
<rect x="187.94285714285715" y="111.65454545454546" width="8.399999999999999" height="8.399999999999999" fill="#5b9bd5" stroke="#41719c" />
<rect x="187.94285714285715" y="123.32727272727273" width="8.399999999999999" height="8.399999999999999" fill="#5b9bd5" stroke="#41719c" />
<text x="192.14285714285717" y="10.8" font-size="7.199999999999998" fill="#6868b6" text-anchor="middle" font-family="arial">C2[3x3]</text>
<text x="192.14285714285717" y="142.2" font-size="7.199999999999998" fill="#6868b6" text-anchor="middle" font-family="arial">64x56x56</text>
<path d="M119.78571428571429,70.71428571428572L172.5,70.71428571428572L172.5,67.28571428571429L180.21428571428572,75.00000000000001L172.5,82.71428571428572L172.5,79.28571428571429L119.78571428571428,79.28571428571429Z" fill="#ddd" stroke="none" />
<circle cx="150.0" cy="75.00000000000001" r="8.571428571428571" fill="#fff" stroke="#818181" />
<path d="M144.0,75.00000000000001H150.0L154.2426406871193,70.75735931288072" stroke="#000" strokewidth="1" fill="none" />
<rect x="267.8571428571429" y="15.0" width="17.142857142857142" height="120.0" fill="#e1e1e1" stroke="#7f7f7f" />
<text x="278.42857142857144" y="75.0" font-size="9.6" transform="rotate(-90, 278.42857142857144, 75.0)" fill="#5b9bd5" font-family="arial" text-anchor="middle">bn</text>
<text x="276.42857142857144" y="10.8" font-size="7.199999999999998" fill="#6868b6" text-anchor="middle" font-family="arial">B3</text>
<text x="276.42857142857144" y="142.2" font-size="7.199999999999998" fill="#6868b6" text-anchor="middle" font-family="arial">64x56x56</text>
<path d="M204.07142857142858,70.71428571428572L256.78571428571433,70.71428571428572L256.78571428571433,67.28571428571429L264.5,75.00000000000001L256.78571428571433,82.71428571428572L256.78571428571433,79.28571428571429L204.0714285714286,79.28571428571429Z" fill="#ddd" stroke="none" />
</svg>