<?xml version="1.0" encoding="UTF-8"?>
<svg xmlns="http://www.w3.org/2000/svg" xmlns:xlink="http://www.w3.org/1999/xlink"
     width="1500" height="600" viewBox="0 0 1500 600">
<defs>
</defs>
<rect x="20.0" y="29.849903540646665" width="22.857142857142858" height="140.30019291870667" fill="#e1e1e1" stroke="#7f7f7f" stroke-dasharray="8.0 6.4" />
<text x="35.268571428571434" y="100.0" font-size="12.8" transform="rotate(-90, 35.268571428571434, 100.0)" fill="#5b9bd5" text-anchor="middle" font-family="arial">input</text>
<text x="31.42857142857143" y="179.75009645935333" font-size="9.6" fill="#6868b6" text-anchor="middle" font-family="arial">3x224x224</text>
<rect x="120.40816326530611" y="20.0" width="22.857142857142858" height="160.0" fill="#e1e1e1" stroke="#7f7f7f" rx="4" ry="4" />
<rect x="126.23673469387754" y="24.363636363636363" width="11.2" height="11.2" fill="#5b9bd5" stroke="#41719c" />
<rect x="126.23673469387754" y="39.92727272727272" width="11.2" height="11.2" fill="#5b9bd5" stroke="#41719c" />
<rect x="126.23673469387754" y="55.490909090909085" width="11.2" height="11.2" fill="#5b9bd5" stroke="#41719c" />
<rect x="126.23673469387754" y="71.05454545454545" width="11.2" height="11.2" fill="#5b9bd5" stroke="#41719c" />
<rect x="126.23673469387754" y="86.61818181818181" width="11.2" height="11.2" fill="#5b9bd5" stroke="#41719c" />
<rect x="126.23673469387754" y="102.18181818181817" width="11.2" height="11.2" fill="#5b9bd5" stroke="#41719c" />
<rect x="126.23673469387754" y="117.74545454545454" width="11.2" height="11.2" fill="#5b9bd5" stroke="#41719c" />
<rect x="126.23673469387754" y="133.3090909090909" width="11.2" height="11.2" fill="#5b9bd5" stroke="#41719c" />
<rect x="126.23673469387754" y="148.87272727272727" width="11.2" height="11.2" fill="#5b9bd5" stroke="#41719c" />
<rect x="126.23673469387754" y="164.43636363636364" width="11.2" height="11.2" fill="#5b9bd5" stroke="#41719c" />
<text x="131.83673469387753" y="15.8" font-size="9.6" fill="#6868b6" text-anchor="middle" font-family="arial">C1[7x7@2]</text>
<text x="131.83673469387753" y="189.6" font-size="9.6" fill="#6868b6" text-anchor="middle" font-family="arial">64x112x112</text>
<path d="M46.734693877551024,94.28571428571429L106.24489795918367,94.28571428571429L106.24489795918367,89.71428571428572L116.53061224489795,100.0L106.24489795918367,110.28571428571429L106.24489795918367,105.71428571428572L46.73469387755103,105.71428571428572Z" fill="#ddd" stroke="none" />
<rect x="220.81632653061223" y="20.0" width="22.857142857142858" height="160.0" fill="#e1e1e1" stroke="#7f7f7f" />
<text x="234.24489795918365" y="100.0" font-size="12.8" transform="rotate(-90, 234.24489795918365, 100.0)" fill="#5b9bd5" font-family="arial" text-anchor="middle">bn</text>
<text x="232.24489795918365" y="15.8" font-size="9.6" fill="#6868b6" text-anchor="middle" font-family="arial">B2</text>
<text x="232.24489795918365" y="189.6" font-size="9.6" fill="#6868b6" text-anchor="middle" font-family="arial">64x112x112</text>
<path d="M147.14285714285714,94.28571428571429L206.6530612244898,94.28571428571429L206.6530612244898,89.71428571428572L216.93877551020407,100.0L206.6530612244898,110.28571428571429L206.6530612244898,105.71428571428572L147.14285714285714,105.71428571428572Z" fill="#ddd" stroke="none" />
<circle cx="182.0408163265306" cy="100.0" r="11.428571428571429" fill="#fff" stroke="#818181" />
<path d="M174.0408163265306,100.0H182.0408163265306L187.69767057602297,94.34314575050762" stroke="#000" strokewidth="1" fill="none" />
<rect x="321.2244897959183" y="28.15714335167712" width="22.857142857142858" height="143.68571329664576" fill="#e1e1e1" stroke="#7f7f7f" />
<text x="336.49306122448974" y="100.0" font-size="12.8" transform="rotate(-90, 336.49306122448974, 100.0)" fill="#5b9bd5" font-family="arial" text-anchor="middle">max</text>
<text x="332.65306122448976" y="23.95714335167712" font-size="9.6" fill="#6868b6" text-anchor="middle" font-family="arial">P3[2x2@2]</text>
<text x="332.65306122448976" y="181.44285664832287" font-size="9.6" fill="#6868b6" text-anchor="middle" font-family="arial">64x56x56</text>
<path d="M247.55102040816323,94.28571428571429L307.06122448979585,94.28571428571429L307.06122448979585,89.71428571428572L317.3469387755101,100.0L307.06122448979585,110.28571428571429L307.06122448979585,105.71428571428572L247.5510204081632,105.71428571428572Z" fill="#ddd" stroke="none" />
<circle cx="282.4489795918367" cy="100.0" r="11.428571428571429" fill="#fff" stroke="#818181" />
<path d="M274.4489795918367,100.0H282.4489795918367L288.10583384132906,94.34314575050762" stroke="#000" strokewidth="1" fill="none" />
<rect x="444.4897959183673" y="28.15714335167712" width="22.857142857142858" height="66.12857093403717" radius="4" fill="#e1e1e1" stroke="#7f7f7f" />
<rect x="450.3183673469387" y="32.42285753848456" width="11.2" height="11.2" fill="#5b9bd5" stroke="#41719c" />
<rect x="450.3183673469387" y="47.88857172529199" width="11.2" height="11.2" fill="#5b9bd5" stroke="#41719c" />
<rect x="450.3183673469387" y="63.35428591209942" width="11.2" height="11.2" fill="#5b9bd5" stroke="#41719c" />
<rect x="450.3183673469387" y="78.82000009890686" width="11.2" height="11.2" fill="#5b9bd5" stroke="#41719c" />
<rect x="421.63265306122446" y="100.0" width="22.857142857142858" height="66.12857093403717" radius="4" fill="#e1e1e1" stroke="#7f7f7f" />
<rect x="427.4612244897959" y="104.26571418680743" width="11.2" height="11.2" fill="#5b9bd5" stroke="#41719c" />
<rect x="427.4612244897959" y="119.73142837361486" width="11.2" height="11.2" fill="#5b9bd5" stroke="#41719c" />
<rect x="427.4612244897959" y="135.1971425604223" width="11.2" height="11.2" fill="#5b9bd5" stroke="#41719c" />
<rect x="427.4612244897959" y="150.66285674722974" width="11.2" height="11.2" fill="#5b9bd5" stroke="#41719c" />
<rect x="446.7755102040816" y="100.0" width="6.857142857142857" height="66.12857093403717" fill="#e1e1e1" stroke="#7f7f7f" />
<rect x="455.9183673469388" y="100.0" width="22.857142857142858" height="66.12857093403717" radius="4" fill="#e1e1e1" stroke="#7f7f7f" />
<rect x="461.74693877551016" y="104.26571418680743" width="11.2" height="11.2" fill="#5b9bd5" stroke="#41719c" />
<rect x="461.74693877551016" y="119.73142837361486" width="11.2" height="11.2" fill="#5b9bd5" stroke="#41719c" />
<rect x="461.74693877551016" y="135.1971425604223" width="11.2" height="11.2" fill="#5b9bd5" stroke="#41719c" />
<rect x="461.74693877551016" y="150.66285674722974" width="11.2" height="11.2" fill="#5b9bd5" stroke="#41719c" />
<rect x="481.06122448979596" y="100.0" width="6.857142857142857" height="66.12857093403717" fill="#e1e1e1" stroke="#7f7f7f" />
<rect x="547.3469387755101" y="66.93571453298142" width="11.428571428571429" height="66.12857093403717" fill="#e1e1e1" stroke="#7f7f7f" />
<text x="555.9412244897959" y="100.0" font-size="9.6" transform="rotate(-90, 555.9412244897959, 100.0)" fill="#5b9bd5" font-family="arial" text-anchor="middle">add</text>
<path d="M475.41534978776866,57.19870442847266L535.6558030504783,78.39913581243843L537.1733890031422,74.08695631015068L543.4612244897959,87.20392858379194L530.3442522161546,93.49176407044556L531.8618381688185,89.17958456815781L471.62138490610886,67.97915318419203Z" fill="#ddd" stroke="none" />
<circle cx="508.4897959183673" cy="74.89642869506214" r="11.428571428571429" fill="#fff" stroke="#818181" />
<text x="508.4897959183673" y="80.01642869506215" font-size="14" text-anchor="middle" font-family="serif">I</text>
<path d="M491.037831101311,126.63844321412996L532.8471007381431,110.8084086788004L531.2283860273552,106.5331634380274L544.4897959183672,112.51035713049379L538.512602225901,125.7717670215059L536.8938875151131,121.49652178073289L495.084617878281,137.32655631606244Z" fill="#ddd" stroke="none" />
<circle cx="518.7755102040816" cy="122.24642844779501" r="11.428571428571429" fill="#fff" stroke="#818181" />
<text x="518.7755102040816" y="127.36642844779502" font-size="14" text-anchor="middle" font-family="serif">I</text>
<text x="455.91836734693874" y="23.95714335167712" font-size="9.6" fill="#6868b6" text-anchor="middle" font-family="arial">R4</text>
<text x="455.91836734693874" y="181.44285664832287" font-size="9.6" fill="#6868b6" text-anchor="middle" font-family="arial">64x56x56</text>
<path d="M347.60025283617864,81.69051819754522L428.04346107971,59.77873678435181L426.84203069559175,55.368008475354436L439.469387755102,62.58892880633235L432.2484674241241,75.21628586584261L431.0470370400058,70.80555755684523L350.60382879647443,92.71733897003864Z" fill="#ddd" stroke="none" />
<path d="M349.49475430365635,107.00626010516831L409.3832980254174,123.7143756054341L410.611754529567,119.31109798517372L417.75510204081627,131.9824997650962L405.08370026089375,139.12584727634547L406.31215676504337,134.72256965608508L346.42361304328233,118.0144541558193Z" fill="#ddd" stroke="none" />
<rect x="659.1836734693877" y="28.15714335167712" width="22.857142857142858" height="66.12857093403717" radius="4" fill="#e1e1e1" stroke="#7f7f7f" />
<rect x="665.0122448979591" y="32.42285753848456" width="11.2" height="11.2" fill="#5b9bd5" stroke="#41719c" />
<rect x="665.0122448979591" y="47.88857172529199" width="11.2" height="11.2" fill="#5b9bd5" stroke="#41719c" />
<rect x="665.0122448979591" y="63.35428591209942" width="11.2" height="11.2" fill="#5b9bd5" stroke="#41719c" />
<rect x="665.0122448979591" y="78.82000009890686" width="11.2" height="11.2" fill="#5b9bd5" stroke="#41719c" />
<rect x="636.3265306122448" y="100.0" width="22.857142857142858" height="66.12857093403717" radius="4" fill="#e1e1e1" stroke="#7f7f7f" />
<rect x="642.1551020408162" y="104.26571418680743" width="11.2" height="11.2" fill="#5b9bd5" stroke="#41719c" />
<rect x="642.1551020408162" y="119.73142837361486" width="11.2" height="11.2" fill="#5b9bd5" stroke="#41719c" />
<rect x="642.1551020408162" y="135.1971425604223" width="11.2" height="11.2" fill="#5b9bd5" stroke="#41719c" />
<rect x="642.1551020408162" y="150.66285674722974" width="11.2" height="11.2" fill="#5b9bd5" stroke="#41719c" />
<rect x="661.4693877551019" y="100.0" width="6.857142857142857" height="66.12857093403717" fill="#e1e1e1" stroke="#7f7f7f" />
<rect x="670.612244897959" y="100.0" width="22.857142857142858" height="66.12857093403717" radius="4" fill="#e1e1e1" stroke="#7f7f7f" />
<rect x="676.4408163265306" y="104.26571418680743" width="11.2" height="11.2" fill="#5b9bd5" stroke="#41719c" />
<rect x="676.4408163265306" y="119.73142837361486" width="11.2" height="11.2" fill="#5b9bd5" stroke="#41719c" />
<rect x="676.4408163265306" y="135.1971425604223" width="11.2" height="11.2" fill="#5b9bd5" stroke="#41719c" />
<rect x="676.4408163265306" y="150.66285674722974" width="11.2" height="11.2" fill="#5b9bd5" stroke="#41719c" />
<rect x="695.7551020408162" y="100.0" width="6.857142857142857" height="66.12857093403717" fill="#e1e1e1" stroke="#7f7f7f" />
<rect x="762.0408163265306" y="66.93571453298142" width="11.428571428571429" height="66.12857093403717" fill="#e1e1e1" stroke="#7f7f7f" />
<text x="770.6351020408163" y="100.0" font-size="9.6" transform="rotate(-90, 770.6351020408163, 100.0)" fill="#5b9bd5" font-family="arial" text-anchor="middle">add</text>
<path d="M690.109227338789,57.19870442847266L750.3496806014988,78.39913581243843L751.8672665541627,74.08695631015068L758.1551020408164,87.20392858379192L745.0381297671751,93.49176407044557L746.555715719839,89.17958456815782L686.3152624571292,67.97915318419204Z" fill="#ddd" stroke="none" />
<circle cx="723.1836734693877" cy="74.89642869506214" r="11.428571428571429" fill="#fff" stroke="#818181" />
<text x="723.1836734693877" y="80.01642869506215" font-size="14" text-anchor="middle" font-family="serif">I</text>
<path d="M705.7317086523313,126.63844321412996L747.5409782891636,110.80840867880039L745.9222635783757,106.53316343802739L759.1836734693877,112.51035713049379L753.2064797769215,125.7717670215059L751.5877650661336,121.49652178073289L709.7784954293013,137.32655631606247Z" fill="#ddd" stroke="none" />
<circle cx="733.4693877551019" cy="122.24642844779501" r="11.428571428571429" fill="#fff" stroke="#818181" />
<text x="733.4693877551019" y="127.36642844779502" font-size="14" text-anchor="middle" font-family="serif">I</text>
<text x="670.6122448979592" y="23.95714335167712" font-size="9.6" fill="#6868b6" text-anchor="middle" font-family="arial">R5</text>
<text x="670.6122448979592" y="181.44285664832287" font-size="9.6" fill="#6868b6" text-anchor="middle" font-family="arial">64x56x56</text>
<path d="M562.294130387199,81.69051819754522L642.7373386307304,59.77873678435181L641.535908246612,55.368008475354436L654.1632653061224,62.588928806332355L646.9423449751445,75.21628586584261L645.7409145910261,70.80555755684523L565.2977063474947,92.71733897003864Z" fill="#ddd" stroke="none" />
<circle cx="608.9795918367347" cy="74.89642869506214" r="11.428571428571429" fill="#fff" stroke="#818181" />
<path d="M600.9795918367347,74.89642869506214H608.9795918367347L614.6364460862271,69.23957444556976" stroke="#000" strokewidth="1" fill="none" />
<path d="M564.1886318546768,107.00626010516831L624.0771755764379,123.7143756054341L625.3056320805874,119.31109798517372L632.4489795918366,131.9824997650962L619.7775778119142,139.12584727634547L621.0060343160637,134.72256965608508L561.1174905943027,118.0144541558193Z" fill="#ddd" stroke="none" />
<circle cx="597.5510204081631" cy="122.246428447795" r="11.428571428571429" fill="#fff" stroke="#818181" />
<path d="M589.5510204081631,122.246428447795H597.5510204081631L603.2078746576556,116.58957419830261" stroke="#000" strokewidth="1" fill="none" />
<rect x="873.8775510204081" y="28.15714335167712" width="22.857142857142858" height="66.12857093403717" radius="4" fill="#e1e1e1" stroke="#7f7f7f" />
<rect x="879.7061224489795" y="32.42285753848456" width="11.2" height="11.2" fill="#5b9bd5" stroke="#41719c" />
<rect x="879.7061224489795" y="47.88857172529199" width="11.2" height="11.2" fill="#5b9bd5" stroke="#41719c" />
<rect x="879.7061224489795" y="63.35428591209942" width="11.2" height="11.2" fill="#5b9bd5" stroke="#41719c" />
<rect x="879.7061224489795" y="78.82000009890686" width="11.2" height="11.2" fill="#5b9bd5" stroke="#41719c" />
<rect x="851.0204081632652" y="100.0" width="22.857142857142858" height="66.12857093403717" radius="4" fill="#e1e1e1" stroke="#7f7f7f" />
<rect x="856.8489795918366" y="104.26571418680743" width="11.2" height="11.2" fill="#5b9bd5" stroke="#41719c" />
<rect x="856.8489795918366" y="119.73142837361486" width="11.2" height="11.2" fill="#5b9bd5" stroke="#41719c" />
<rect x="856.8489795918366" y="135.1971425604223" width="11.2" height="11.2" fill="#5b9bd5" stroke="#41719c" />
<rect x="856.8489795918366" y="150.66285674722974" width="11.2" height="11.2" fill="#5b9bd5" stroke="#41719c" />
<rect x="876.1632653061223" y="100.0" width="6.857142857142857" height="66.12857093403717" fill="#e1e1e1" stroke="#7f7f7f" />
<rect x="885.3061224489794" y="100.0" width="22.857142857142858" height="66.12857093403717" radius="4" fill="#e1e1e1" stroke="#7f7f7f" />
<rect x="891.134693877551" y="104.26571418680743" width="11.2" height="11.2" fill="#5b9bd5" stroke="#41719c" />
<rect x="891.134693877551" y="119.73142837361486" width="11.2" height="11.2" fill="#5b9bd5" stroke="#41719c" />
<rect x="891.134693877551" y="135.1971425604223" width="11.2" height="11.2" fill="#5b9bd5" stroke="#41719c" />
<rect x="891.134693877551" y="150.66285674722974" width="11.2" height="11.2" fill="#5b9bd5" stroke="#41719c" />
<rect x="910.4489795918365" y="100.0" width="6.857142857142857" height="66.12857093403717" fill="#e1e1e1" stroke="#7f7f7f" />
<rect x="976.7346938775509" y="66.93571453298142" width="11.428571428571429" height="66.12857093403717" fill="#e1e1e1" stroke="#7f7f7f" />
<text x="985.3289795918366" y="100.0" font-size="9.6" transform="rotate(-90, 985.3289795918366, 100.0)" fill="#5b9bd5" font-family="arial" text-anchor="middle">add</text>
<path d="M904.8031048898093,57.19870442847266L965.043558152519,78.39913581243843L966.561144105183,74.08695631015068L972.8489795918366,87.20392858379194L959.7320073181953,93.49176407044556L961.2495932708592,89.17958456815781L901.0091400081495,67.97915318419203Z" fill="#ddd" stroke="none" />
<circle cx="937.877551020408" cy="74.89642869506214" r="11.428571428571429" fill="#fff" stroke="#818181" />
<text x="937.877551020408" y="80.01642869506215" font-size="14" text-anchor="middle" font-family="serif">I</text>
<path d="M920.4255862033517,126.63844321412996L962.2348558401839,110.8084086788004L960.6161411293959,106.5331634380274L973.877551020408,112.51035713049379L967.9003573279417,125.7717670215059L966.2816426171538,121.49652178073289L924.4723729803217,137.32655631606247Z" fill="#ddd" stroke="none" />
<circle cx="948.1632653061223" cy="122.24642844779501" r="11.428571428571429" fill="#fff" stroke="#818181" />
<text x="948.1632653061223" y="127.36642844779502" font-size="14" text-anchor="middle" font-family="serif">I</text>
<text x="885.3061224489795" y="23.95714335167712" font-size="9.6" fill="#6868b6" text-anchor="middle" font-family="arial">R6</text>
<text x="885.3061224489795" y="181.44285664832287" font-size="9.6" fill="#6868b6" text-anchor="middle" font-family="arial">64x56x56</text>
<path d="M776.9880079382193,81.69051819754522L857.4312161817508,59.77873678435181L856.2297857976324,55.368008475354436L868.8571428571428,62.588928806332355L861.6362225261648,75.21628586584261L860.4347921420465,70.80555755684523L779.991583898515,92.71733897003864Z" fill="#ddd" stroke="none" />
<circle cx="823.673469387755" cy="74.89642869506214" r="11.428571428571429" fill="#fff" stroke="#818181" />
<path d="M815.673469387755,74.89642869506214H823.673469387755L829.3303236372474,69.23957444556976" stroke="#000" strokewidth="1" fill="none" />
<path d="M778.8825094056972,107.00626010516831L838.7710531274582,123.7143756054341L839.9995096316078,119.31109798517372L847.142857142857,131.9824997650962L834.4714553629345,139.12584727634547L835.6999118670841,134.72256965608508L775.8113681453231,118.0144541558193Z" fill="#ddd" stroke="none" />
<circle cx="812.2448979591836" cy="122.246428447795" r="11.428571428571429" fill="#fff" stroke="#818181" />
<path d="M804.2448979591836,122.246428447795H812.2448979591836L817.901752208676,116.58957419830261" stroke="#000" strokewidth="1" fill="none" />
<rect x="1088.5714285714284" y="32.23571502751568" width="22.857142857142858" height="62.0499992581986" radius="4" fill="#e1e1e1" stroke="#7f7f7f" />
<rect x="1094.3999999999999" y="39.34821484206533" width="11.2" height="11.2" fill="#5b9bd5" stroke="#41719c" />
<rect x="1094.3999999999999" y="57.660714656614985" width="11.2" height="11.2" fill="#5b9bd5" stroke="#41719c" />
<rect x="1094.3999999999999" y="75.97321447116464" width="11.2" height="11.2" fill="#5b9bd5" stroke="#41719c" />
<rect x="1065.7142857142856" y="99.99999999999999" width="22.857142857142858" height="62.0499992581986" radius="4" fill="#e1e1e1" stroke="#7f7f7f" />
<rect x="1071.542857142857" y="107.11249981454964" width="11.2" height="11.2" fill="#5b9bd5" stroke="#41719c" />
<rect x="1071.542857142857" y="125.42499962909929" width="11.2" height="11.2" fill="#5b9bd5" stroke="#41719c" />
<rect x="1071.542857142857" y="143.73749944364894" width="11.2" height="11.2" fill="#5b9bd5" stroke="#41719c" />
<rect x="1090.8571428571427" y="99.99999999999999" width="6.857142857142857" height="62.0499992581986" fill="#e1e1e1" stroke="#7f7f7f" />
<rect x="1099.9999999999998" y="99.99999999999999" width="22.857142857142858" height="62.0499992581986" radius="4" fill="#e1e1e1" stroke="#7f7f7f" />
<rect x="1105.8285714285712" y="107.11249981454964" width="11.2" height="11.2" fill="#5b9bd5" stroke="#41719c" />
<rect x="1105.8285714285712" y="125.42499962909929" width="11.2" height="11.2" fill="#5b9bd5" stroke="#41719c" />
<rect x="1105.8285714285712" y="143.73749944364894" width="11.2" height="11.2" fill="#5b9bd5" stroke="#41719c" />
<rect x="1125.1428571428569" y="99.99999999999999" width="6.857142857142857" height="62.0499992581986" fill="#e1e1e1" stroke="#7f7f7f" />
<rect x="1191.4285714285713" y="68.9750003709007" width="11.428571428571429" height="62.0499992581986" fill="#e1e1e1" stroke="#7f7f7f" />
<text x="1200.022857142857" y="100.0" font-size="9.6" transform="rotate(-90, 1200.022857142857, 100.0)" fill="#5b9bd5" font-family="arial" text-anchor="middle">add</text>
<path d="M1119.3695933793194,59.092871983756766L1179.5323694586987,78.68724642431391L1180.9480441621542,74.3405437294348L1187.542857142857,87.30589287568789L1174.577507996604,93.90070585639083L1175.9931827000596,89.55400316151172L1115.8304066206804,69.95962872095456Z" fill="#ddd" stroke="none" />
<circle cx="1152.5714285714284" cy="75.91607161402177" r="11.428571428571429" fill="#fff" stroke="#818181" />
<text x="1152.5714285714284" y="81.03607161402178" font-size="14" text-anchor="middle" font-family="serif">I</text>
<path d="M1135.2891866614223,124.63990607321861L1176.9882682274563,110.33972755932574L1175.5053318423086,106.01550984264233L1188.5714285714284,112.40839283859782L1182.178545575473,125.4744895677177L1180.6956091903253,121.15027185103429L1138.9965276242913,135.45045036492715Z" fill="#ddd" stroke="none" />
<circle cx="1162.8571428571427" cy="121.22678552883536" r="11.428571428571429" fill="#fff" stroke="#818181" />
<text x="1162.8571428571427" y="126.34678552883537" font-size="14" text-anchor="middle" font-family="serif">I</text>
<text x="1099.9999999999998" y="28.035715027515682" font-size="9.6" fill="#6868b6" text-anchor="middle" font-family="arial">R7@2</text>
<text x="1099.9999999999998" y="177.3642849724843" font-size="9.6" fill="#6868b6" text-anchor="middle" font-family="arial">128x28x28</text>
<path d="M991.7869201685489,81.76494156376626L1072.1805547458655,61.49945498194354L1071.0631521051946,57.066693932406224L1083.5510204081631,64.52625035235566L1076.0914639882137,77.01411865532415L1074.9740613475428,72.58135760578683L994.5804267702263,92.84684418760955Z" fill="#ddd" stroke="none" />
<circle cx="1038.3673469387754" cy="75.91607161402177" r="11.428571428571429" fill="#fff" stroke="#818181" />
<path d="M1030.3673469387754,75.91607161402177H1038.3673469387754L1044.0242011882679,70.25921736452939" stroke="#000" strokewidth="1" fill="none" />
<path d="M993.4407601830345,106.86824677345419L1053.264415633123,121.98513321222207L1054.3843707183262,117.55301636010715L1061.8367346938774,130.04517821907288L1049.3445728349118,137.49754219462423L1050.464527920115,133.06542534250931L990.6408724700266,117.94853890374144Z" fill="#ddd" stroke="none" />
<circle cx="1026.9387755102039" cy="121.22678552883536" r="11.428571428571429" fill="#fff" stroke="#818181" />
<path d="M1018.9387755102039,121.22678552883536H1026.9387755102039L1032.5956297596963,115.56993127934298" stroke="#000" strokewidth="1" fill="none" />
<rect x="1303.265306122449" y="32.23571502751568" width="22.857142857142858" height="62.0499992581986" radius="4" fill="#e1e1e1" stroke="#7f7f7f" />
<rect x="1309.0938775510203" y="39.34821484206533" width="11.2" height="11.2" fill="#5b9bd5" stroke="#41719c" />
<rect x="1309.0938775510203" y="57.660714656614985" width="11.2" height="11.2" fill="#5b9bd5" stroke="#41719c" />
<rect x="1309.0938775510203" y="75.97321447116464" width="11.2" height="11.2" fill="#5b9bd5" stroke="#41719c" />
<rect x="1280.408163265306" y="99.99999999999999" width="22.857142857142858" height="62.0499992581986" radius="4" fill="#e1e1e1" stroke="#7f7f7f" />
<rect x="1286.2367346938775" y="107.11249981454964" width="11.2" height="11.2" fill="#5b9bd5" stroke="#41719c" />
<rect x="1286.2367346938775" y="125.42499962909929" width="11.2" height="11.2" fill="#5b9bd5" stroke="#41719c" />
<rect x="1286.2367346938775" y="143.73749944364894" width="11.2" height="11.2" fill="#5b9bd5" stroke="#41719c" />
<rect x="1305.5510204081631" y="99.99999999999999" width="6.857142857142857" height="62.0499992581986" fill="#e1e1e1" stroke="#7f7f7f" />
<rect x="1314.6938775510203" y="99.99999999999999" width="22.857142857142858" height="62.0499992581986" radius="4" fill="#e1e1e1" stroke="#7f7f7f" />
<rect x="1320.5224489795917" y="107.11249981454964" width="11.2" height="11.2" fill="#5b9bd5" stroke="#41719c" />
<rect x="1320.5224489795917" y="125.42499962909929" width="11.2" height="11.2" fill="#5b9bd5" stroke="#41719c" />
<rect x="1320.5224489795917" y="143.73749944364894" width="11.2" height="11.2" fill="#5b9bd5" stroke="#41719c" />
<rect x="1339.8367346938774" y="99.99999999999999" width="6.857142857142857" height="62.0499992581986" fill="#e1e1e1" stroke="#7f7f7f" />
<rect x="1406.1224489795918" y="68.9750003709007" width="11.428571428571429" height="62.0499992581986" fill="#e1e1e1" stroke="#7f7f7f" />
<text x="1414.7167346938777" y="100.0" font-size="9.6" transform="rotate(-90, 1414.7167346938777, 100.0)" fill="#5b9bd5" font-family="arial" text-anchor="middle">add</text>
<path d="M1334.06347093034,59.092871983756766L1394.2262470097191,78.68724642431391L1395.6419217131747,74.3405437294348L1402.2367346938775,87.30589287568789L1389.2713855476245,93.90070585639083L1390.68706025108,89.55400316151172L1330.5242841717009,69.95962872095456Z" fill="#ddd" stroke="none" />
<circle cx="1367.265306122449" cy="75.91607161402177" r="11.428571428571429" fill="#fff" stroke="#818181" />
<text x="1367.265306122449" y="81.03607161402178" font-size="14" text-anchor="middle" font-family="serif">I</text>
<path d="M1349.9830642124427,124.63990607321861L1391.6821457784768,110.33972755932574L1390.199209393329,106.01550984264233L1403.265306122449,112.40839283859782L1396.8724231264935,125.4744895677177L1395.3894867413458,121.15027185103429L1353.6904051753118,135.45045036492715Z" fill="#ddd" stroke="none" />
<circle cx="1377.5510204081631" cy="121.22678552883536" r="11.428571428571429" fill="#fff" stroke="#818181" />
<text x="1377.5510204081631" y="126.34678552883537" font-size="14" text-anchor="middle" font-family="serif">I</text>
<text x="1314.6938775510203" y="28.035715027515682" font-size="9.6" fill="#6868b6" text-anchor="middle" font-family="arial">R8</text>
<text x="1314.6938775510203" y="177.3642849724843" font-size="9.6" fill="#6868b6" text-anchor="middle" font-family="arial">128x28x28</text>
<path d="M1206.4807977195694,81.76494156376626L1286.874432296886,61.499454981943536L1285.757029656215,57.06669393240622L1298.2448979591836,64.52625035235566L1290.7853415392342,77.01411865532414L1289.6679388985633,72.58135760578682L1209.2743043212467,92.84684418760955Z" fill="#ddd" stroke="none" />
<circle cx="1253.0612244897957" cy="75.91607161402177" r="11.428571428571429" fill="#fff" stroke="#818181" />
<path d="M1245.0612244897957,75.91607161402177H1253.0612244897957L1258.718078739288,70.25921736452939" stroke="#000" strokewidth="1" fill="none" />
<path d="M1208.1346377340549,106.86824677345419L1267.9582931841433,121.98513321222207L1269.0782482693464,117.55301636010715L1276.5306122448978,130.04517821907288L1264.038450385932,137.49754219462426L1265.1584054711352,133.06542534250934L1205.3347500210468,117.94853890374146Z" fill="#ddd" stroke="none" />
<circle cx="1241.6326530612243" cy="121.22678552883536" r="11.428571428571429" fill="#fff" stroke="#818181" />
<path d="M1233.6326530612243,121.22678552883536H1241.6326530612243L1247.2895073107168,115.56993127934298" stroke="#000" strokewidth="1" fill="none" />
<rect x="100.40816326530611" y="232.23571502751568" width="22.857142857142858" height="62.0499992581986" radius="4" fill="#e1e1e1" stroke="#7f7f7f" />
<rect x="106.23673469387754" y="239.34821484206535" width="11.2" height="11.2" fill="#5b9bd5" stroke="#41719c" />
<rect x="106.23673469387754" y="257.660714656615" width="11.2" height="11.2" fill="#5b9bd5" stroke="#41719c" />
<rect x="106.23673469387754" y="275.9732144711647" width="11.2" height="11.2" fill="#5b9bd5" stroke="#41719c" />
<rect x="77.55102040816325" y="300.0" width="22.857142857142858" height="62.0499992581986" radius="4" fill="#e1e1e1" stroke="#7f7f7f" />
<rect x="83.37959183673468" y="307.11249981454966" width="11.2" height="11.2" fill="#5b9bd5" stroke="#41719c" />
<rect x="83.37959183673468" y="325.4249996290993" width="11.2" height="11.2" fill="#5b9bd5" stroke="#41719c" />
<rect x="83.37959183673468" y="343.73749944364897" width="11.2" height="11.2" fill="#5b9bd5" stroke="#41719c" />
<rect x="102.69387755102039" y="300.0" width="6.857142857142857" height="62.0499992581986" fill="#e1e1e1" stroke="#7f7f7f" />
<rect x="111.83673469387753" y="300.0" width="22.857142857142858" height="62.0499992581986" radius="4" fill="#e1e1e1" stroke="#7f7f7f" />
<rect x="117.66530612244895" y="307.11249981454966" width="11.2" height="11.2" fill="#5b9bd5" stroke="#41719c" />
<rect x="117.66530612244895" y="325.4249996290993" width="11.2" height="11.2" fill="#5b9bd5" stroke="#41719c" />
<rect x="117.66530612244895" y="343.73749944364897" width="11.2" height="11.2" fill="#5b9bd5" stroke="#41719c" />
<rect x="136.97959183673467" y="300.0" width="6.857142857142857" height="62.0499992581986" fill="#e1e1e1" stroke="#7f7f7f" />
<rect x="203.26530612244898" y="268.9750003709007" width="11.428571428571429" height="62.0499992581986" fill="#e1e1e1" stroke="#7f7f7f" />
<text x="211.8595918367347" y="300.0" font-size="9.6" transform="rotate(-90, 211.8595918367347, 300.0)" fill="#5b9bd5" font-family="arial" text-anchor="middle">add</text>
<path d="M131.20632807319706,259.09287198375677L191.3691041525762,278.6872464243139L192.78477885603178,274.3405437294348L199.37959183673468,287.3058928756879L186.41424269048161,293.9007058563908L187.8299173939372,289.5540031615117L127.66714131455805,269.9596287209545Z" fill="#ddd" stroke="none" />
<circle cx="164.40816326530611" cy="275.9160716140218" r="11.428571428571429" fill="#fff" stroke="#818181" />
<text x="164.40816326530611" y="281.0360716140218" font-size="14" text-anchor="middle" font-family="serif">I</text>
<path d="M147.1259213553001,324.63990607321864L188.82500292133386,310.3397275593258L187.34206653618622,306.0155098426424L200.40816326530611,312.4083928385978L194.01528026935063,325.4744895677178L192.532343884203,321.1502718510344L150.8332623181692,335.45045036492724Z" fill="#ddd" stroke="none" />
<circle cx="174.6938775510204" cy="321.22678552883536" r="11.428571428571429" fill="#fff" stroke="#818181" />
<text x="174.6938775510204" y="326.34678552883537" font-size="14" text-anchor="middle" font-family="serif">I</text>
<text x="111.83673469387753" y="228.0357150275157" font-size="9.6" fill="#6868b6" text-anchor="middle" font-family="arial">R9</text>
<text x="111.83673469387753" y="377.36428497248437" font-size="9.6" fill="#6868b6" text-anchor="middle" font-family="arial">128x28x28</text>
<path d="M3.623654862426684,281.76494156376623L84.01728943974322,261.49945498194353L82.89988679907232,257.0666939324062L95.3877551020408,264.52625035235565L87.92819868209136,277.0141186553241L86.81079604142046,272.5813576057868L6.417161464103927,292.8468441876095Z" fill="#ddd" stroke="none" />
<circle cx="50.20408163265306" cy="275.9160716140218" r="11.428571428571429" fill="#fff" stroke="#818181" />
<path d="M42.20408163265306,275.9160716140218H50.20408163265306L55.86093588214544,270.25921736452943" stroke="#000" strokewidth="1" fill="none" />
<path d="M5.277494876912158,306.8682467734542L65.10115032700054,321.9851332122221L66.22110541220374,317.55301636010716L73.67346938775509,330.0451782190729L61.18130752878936,337.49754219462426L62.301262613992556,333.06542534250934L2.4776071639041675,317.94853890374145Z" fill="#ddd" stroke="none" />
<circle cx="38.77551020408163" cy="321.22678552883536" r="11.428571428571429" fill="#fff" stroke="#818181" />
<path d="M30.775510204081627,321.22678552883536H38.77551020408163L44.43236445357401,315.569931279343" stroke="#000" strokewidth="1" fill="none" />
<rect x="315.10204081632645" y="232.23571502751568" width="22.857142857142858" height="62.0499992581986" radius="4" fill="#e1e1e1" stroke="#7f7f7f" />
<rect x="320.9306122448979" y="239.34821484206535" width="11.2" height="11.2" fill="#5b9bd5" stroke="#41719c" />
<rect x="320.9306122448979" y="257.660714656615" width="11.2" height="11.2" fill="#5b9bd5" stroke="#41719c" />
<rect x="320.9306122448979" y="275.9732144711647" width="11.2" height="11.2" fill="#5b9bd5" stroke="#41719c" />
<rect x="292.2448979591836" y="300.0" width="22.857142857142858" height="62.0499992581986" radius="4" fill="#e1e1e1" stroke="#7f7f7f" />
<rect x="298.07346938775504" y="307.11249981454966" width="11.2" height="11.2" fill="#5b9bd5" stroke="#41719c" />
<rect x="298.07346938775504" y="325.4249996290993" width="11.2" height="11.2" fill="#5b9bd5" stroke="#41719c" />
<rect x="298.07346938775504" y="343.73749944364897" width="11.2" height="11.2" fill="#5b9bd5" stroke="#41719c" />
<rect x="317.3877551020408" y="300.0" width="6.857142857142857" height="62.0499992581986" fill="#e1e1e1" stroke="#7f7f7f" />
<rect x="326.53061224489795" y="300.0" width="22.857142857142858" height="62.0499992581986" radius="4" fill="#e1e1e1" stroke="#7f7f7f" />
<rect x="332.3591836734693" y="307.11249981454966" width="11.2" height="11.2" fill="#5b9bd5" stroke="#41719c" />
<rect x="332.3591836734693" y="325.4249996290993" width="11.2" height="11.2" fill="#5b9bd5" stroke="#41719c" />
<rect x="332.3591836734693" y="343.73749944364897" width="11.2" height="11.2" fill="#5b9bd5" stroke="#41719c" />
<rect x="351.6734693877551" y="300.0" width="6.857142857142857" height="62.0499992581986" fill="#e1e1e1" stroke="#7f7f7f" />
<rect x="417.95918367346934" y="268.9750003709007" width="11.428571428571429" height="62.0499992581986" fill="#e1e1e1" stroke="#7f7f7f" />
<text x="426.55346938775506" y="300.0" font-size="9.6" transform="rotate(-90, 426.55346938775506, 300.0)" fill="#5b9bd5" font-family="arial" text-anchor="middle">add</text>
<path d="M345.9002056242174,259.09287198375677L406.0629817035965,278.6872464243139L407.4786564070521,274.3405437294348L414.07346938775504,287.3058928756879L401.1081202415019,293.9007058563908L402.5237949449575,289.5540031615117L342.3610188655784,269.9596287209545Z" fill="#ddd" stroke="none" />
<circle cx="379.1020408163265" cy="275.9160716140218" r="11.428571428571429" fill="#fff" stroke="#818181" />
<text x="379.1020408163265" y="281.0360716140218" font-size="14" text-anchor="middle" font-family="serif">I</text>
<path d="M361.8197989063205,324.63990607321864L403.5188804723542,310.3397275593258L402.0359440872066,306.0155098426424L415.1020408163265,312.4083928385978L408.709157820371,325.4744895677178L407.22622143522335,321.1502718510344L365.5271398691896,335.45045036492724Z" fill="#ddd" stroke="none" />
<circle cx="389.3877551020408" cy="321.22678552883536" r="11.428571428571429" fill="#fff" stroke="#818181" />
<text x="389.3877551020408" y="326.34678552883537" font-size="14" text-anchor="middle" font-family="serif">I</text>
<text x="326.5306122448979" y="228.0357150275157" font-size="9.6" fill="#6868b6" text-anchor="middle" font-family="arial">R10</text>
<text x="326.5306122448979" y="377.36428497248437" font-size="9.6" fill="#6868b6" text-anchor="middle" font-family="arial">128x28x28</text>
<path d="M218.31753241344705,281.76494156376623L298.71116699076356,261.49945498194353L297.59376435009267,257.0666939324062L310.08163265306115,264.52625035235565L302.6220762331117,277.0141186553241L301.50467359244084,272.5813576057868L221.11103901512433,292.8468441876095Z" fill="#ddd" stroke="none" />
<circle cx="264.8979591836734" cy="275.9160716140218" r="11.428571428571429" fill="#fff" stroke="#818181" />
<path d="M256.8979591836734,275.9160716140218H264.8979591836734L270.55481343316575,270.25921736452943" stroke="#000" strokewidth="1" fill="none" />
<path d="M219.97137242793252,306.8682467734542L279.7950278780209,321.9851332122221L280.9149829632241,317.55301636010716L288.3673469387754,330.0451782190729L275.8751850798097,337.49754219462426L276.99514016501286,333.06542534250934L217.17148471492447,317.94853890374145Z" fill="#ddd" stroke="none" />
<circle cx="253.469387755102" cy="321.22678552883536" r="11.428571428571429" fill="#fff" stroke="#818181" />
<path d="M245.469387755102,321.22678552883536H253.469387755102L259.12624200459436,315.569931279343" stroke="#000" strokewidth="1" fill="none" />
<rect x="529.7959183673469" y="236.31428670335424" width="22.857142857142858" height="57.97142758236005" radius="4" fill="#e1e1e1" stroke="#7f7f7f" />
<rect x="535.6244897959183" y="242.40714359894426" width="11.2" height="11.2" fill="#5b9bd5" stroke="#41719c" />
<rect x="535.6244897959183" y="259.70000049453427" width="11.2" height="11.2" fill="#5b9bd5" stroke="#41719c" />
<rect x="535.6244897959183" y="276.9928573901243" width="11.2" height="11.2" fill="#5b9bd5" stroke="#41719c" />
<rect x="506.938775510204" y="300.0" width="22.857142857142858" height="57.97142758236005" radius="4" fill="#e1e1e1" stroke="#7f7f7f" />
<rect x="512.7673469387754" y="306.09285689559" width="11.2" height="11.2" fill="#5b9bd5" stroke="#41719c" />
<rect x="512.7673469387754" y="323.38571379118" width="11.2" height="11.2" fill="#5b9bd5" stroke="#41719c" />
<rect x="512.7673469387754" y="340.67857068677006" width="11.2" height="11.2" fill="#5b9bd5" stroke="#41719c" />
<rect x="532.0816326530611" y="300.0" width="6.857142857142857" height="57.97142758236005" fill="#e1e1e1" stroke="#7f7f7f" />
<rect x="541.2244897959182" y="300.0" width="22.857142857142858" height="57.97142758236005" radius="4" fill="#e1e1e1" stroke="#7f7f7f" />
<rect x="547.0530612244897" y="306.09285689559" width="11.2" height="11.2" fill="#5b9bd5" stroke="#41719c" />
<rect x="547.0530612244897" y="323.38571379118" width="11.2" height="11.2" fill="#5b9bd5" stroke="#41719c" />
<rect x="547.0530612244897" y="340.67857068677006" width="11.2" height="11.2" fill="#5b9bd5" stroke="#41719c" />
<rect x="566.3673469387753" y="300.0" width="6.857142857142857" height="57.97142758236005" fill="#e1e1e1" stroke="#7f7f7f" />
<rect x="632.6530612244896" y="271.01428620881995" width="11.428571428571429" height="57.97142758236005" fill="#e1e1e1" stroke="#7f7f7f" />
<text x="641.2473469387754" y="300.0" font-size="9.6" transform="rotate(-90, 641.2473469387754, 300.0)" fill="#5b9bd5" font-family="arial" text-anchor="middle">add</text>
<path d="M560.4637079135005,260.98944866378883L620.5531432340953,278.9831413213456L621.8645177281611,274.6038427336735L628.7673469387754,287.4078571675838L615.963332504865,294.3106863781981L617.2747069989308,289.931387790526L557.185271678336,271.9376951329692Z" fill="#ddd" stroke="none" />
<circle cx="593.7959183673468" cy="276.9357145329814" r="11.428571428571429" fill="#fff" stroke="#818181" />
<text x="593.7959183673468" y="282.0557145329814" font-size="14" text-anchor="middle" font-family="serif">I</text>
<path d="M576.6890636079397,322.6455836767661L618.2855436432006,309.8650655459226L616.942916978532,305.49524714889577L629.7959183673468,312.30642854670185L622.9847369695406,325.15942993551664L621.642110304872,320.7896115384898L580.045630269611,333.57012966933326Z" fill="#ddd" stroke="none" />
<circle cx="604.0816326530611" cy="320.20714260987575" r="11.428571428571429" fill="#fff" stroke="#818181" />
<text x="604.0816326530611" y="325.32714260987575" font-size="14" text-anchor="middle" font-family="serif">I</text>
<text x="541.2244897959183" y="232.11428670335425" font-size="9.6" fill="#6868b6" text-anchor="middle" font-family="arial">R11@2</text>
<text x="541.2244897959183" y="373.2857132966458" font-size="9.6" fill="#6868b6" text-anchor="middle" font-family="arial">256x14x14</text>
<path d="M433.1179720954564,281.8411285079731L513.4652074469326,263.2191873444976L512.4330545110529,258.765804416809L524.7755102040816,266.46357189837903L517.0777427225115,278.8060275914077L516.0455897866318,274.3526446637191L435.6983544351557,292.97458582719463Z" fill="#ddd" stroke="none" />
<circle cx="479.5918367346938" cy="276.9357145329814" r="11.428571428571429" fill="#fff" stroke="#818181" />
<path d="M471.5918367346938,276.9357145329814H479.5918367346938L485.24869098418617,271.27886028348905" stroke="#000" strokewidth="1" fill="none" />
<path d="M434.52705903573377,306.7331852530436L494.2911394744958,320.26345813547863L495.3005418051237,315.804863500552L503.0612244897958,328.10785667304964L490.7582313172983,335.86853935772183L491.7676336479262,331.4099447227952L432.0035532091641,317.8796718403602Z" fill="#ddd" stroke="none" />
<circle cx="468.16326530612236" cy="320.20714260987575" r="11.428571428571429" fill="#fff" stroke="#818181" />
<path d="M460.16326530612236,320.20714260987575H468.16326530612236L473.8201195556147,314.5502883603834" stroke="#000" strokewidth="1" fill="none" />
<rect x="744.4897959183672" y="236.31428670335424" width="22.857142857142858" height="57.97142758236005" radius="4" fill="#e1e1e1" stroke="#7f7f7f" />
<rect x="750.3183673469387" y="242.40714359894426" width="11.2" height="11.2" fill="#5b9bd5" stroke="#41719c" />
<rect x="750.3183673469387" y="259.70000049453427" width="11.2" height="11.2" fill="#5b9bd5" stroke="#41719c" />
<rect x="750.3183673469387" y="276.9928573901243" width="11.2" height="11.2" fill="#5b9bd5" stroke="#41719c" />
<rect x="721.6326530612243" y="300.0" width="22.857142857142858" height="57.97142758236005" radius="4" fill="#e1e1e1" stroke="#7f7f7f" />
<rect x="727.4612244897958" y="306.09285689559" width="11.2" height="11.2" fill="#5b9bd5" stroke="#41719c" />
<rect x="727.4612244897958" y="323.38571379118" width="11.2" height="11.2" fill="#5b9bd5" stroke="#41719c" />
<rect x="727.4612244897958" y="340.67857068677006" width="11.2" height="11.2" fill="#5b9bd5" stroke="#41719c" />
<rect x="746.7755102040815" y="300.0" width="6.857142857142857" height="57.97142758236005" fill="#e1e1e1" stroke="#7f7f7f" />
<rect x="755.9183673469386" y="300.0" width="22.857142857142858" height="57.97142758236005" radius="4" fill="#e1e1e1" stroke="#7f7f7f" />
<rect x="761.7469387755101" y="306.09285689559" width="11.2" height="11.2" fill="#5b9bd5" stroke="#41719c" />
<rect x="761.7469387755101" y="323.38571379118" width="11.2" height="11.2" fill="#5b9bd5" stroke="#41719c" />
<rect x="761.7469387755101" y="340.67857068677006" width="11.2" height="11.2" fill="#5b9bd5" stroke="#41719c" />
<rect x="781.0612244897957" y="300.0" width="6.857142857142857" height="57.97142758236005" fill="#e1e1e1" stroke="#7f7f7f" />
<rect x="847.3469387755101" y="271.01428620881995" width="11.428571428571429" height="57.97142758236005" fill="#e1e1e1" stroke="#7f7f7f" />
<text x="855.9412244897958" y="300.0" font-size="9.6" transform="rotate(-90, 855.9412244897958, 300.0)" fill="#5b9bd5" font-family="arial" text-anchor="middle">add</text>
<path d="M775.1575854645208,260.98944866378883L835.2470207851158,278.9831413213456L836.5583952791816,274.6038427336735L843.4612244897958,287.4078571675838L830.6572100558855,294.3106863781981L831.9685845499513,289.931387790526L771.8791492293564,271.9376951329692Z" fill="#ddd" stroke="none" />
<circle cx="808.4897959183672" cy="276.9357145329814" r="11.428571428571429" fill="#fff" stroke="#818181" />
<text x="808.4897959183672" y="282.0557145329814" font-size="14" text-anchor="middle" font-family="serif">I</text>
<path d="M791.3829411589601,322.6455836767661L832.9794211942211,309.8650655459226L831.6367945295525,305.49524714889577L844.4897959183672,312.30642854670185L837.678614520561,325.15942993551664L836.3359878558924,320.7896115384898L794.7395078206314,333.57012966933326Z" fill="#ddd" stroke="none" />
<circle cx="818.7755102040815" cy="320.20714260987575" r="11.428571428571429" fill="#fff" stroke="#818181" />
<text x="818.7755102040815" y="325.32714260987575" font-size="14" text-anchor="middle" font-family="serif">I</text>
<text x="755.9183673469387" y="232.11428670335425" font-size="9.6" fill="#6868b6" text-anchor="middle" font-family="arial">R12</text>
<text x="755.9183673469387" y="373.2857132966458" font-size="9.6" fill="#6868b6" text-anchor="middle" font-family="arial">256x14x14</text>
<path d="M647.8118496464767,281.8411285079731L728.1590849979528,263.2191873444976L727.1269320620731,258.765804416809L739.4693877551019,266.46357189837903L731.7716202735318,278.8060275914077L730.7394673376521,274.3526446637191L650.392231986176,292.97458582719463Z" fill="#ddd" stroke="none" />
<circle cx="694.2857142857142" cy="276.9357145329814" r="11.428571428571429" fill="#fff" stroke="#818181" />
<path d="M686.2857142857142,276.9357145329814H694.2857142857142L699.9425685352066,271.27886028348905" stroke="#000" strokewidth="1" fill="none" />
<path d="M649.2209365867541,306.7331852530436L708.9850170255161,320.26345813547863L709.9944193561439,315.804863500552L717.7551020408162,328.10785667304964L705.4521088683185,335.86853935772183L706.4615111989464,331.4099447227952L646.6974307601844,317.8796718403602Z" fill="#ddd" stroke="none" />
<circle cx="682.8571428571427" cy="320.20714260987575" r="11.428571428571429" fill="#fff" stroke="#818181" />
<path d="M674.8571428571427,320.20714260987575H682.8571428571427L688.5139971066351,314.5502883603834" stroke="#000" strokewidth="1" fill="none" />
<rect x="959.1836734693876" y="236.31428670335424" width="22.857142857142858" height="57.97142758236005" radius="4" fill="#e1e1e1" stroke="#7f7f7f" />
<rect x="965.012244897959" y="242.40714359894426" width="11.2" height="11.2" fill="#5b9bd5" stroke="#41719c" />
<rect x="965.012244897959" y="259.70000049453427" width="11.2" height="11.2" fill="#5b9bd5" stroke="#41719c" />
<rect x="965.012244897959" y="276.9928573901243" width="11.2" height="11.2" fill="#5b9bd5" stroke="#41719c" />
<rect x="936.3265306122447" y="300.0" width="22.857142857142858" height="57.97142758236005" radius="4" fill="#e1e1e1" stroke="#7f7f7f" />
<rect x="942.1551020408161" y="306.09285689559" width="11.2" height="11.2" fill="#5b9bd5" stroke="#41719c" />
<rect x="942.1551020408161" y="323.38571379118" width="11.2" height="11.2" fill="#5b9bd5" stroke="#41719c" />
<rect x="942.1551020408161" y="340.67857068677006" width="11.2" height="11.2" fill="#5b9bd5" stroke="#41719c" />
<rect x="961.4693877551018" y="300.0" width="6.857142857142857" height="57.97142758236005" fill="#e1e1e1" stroke="#7f7f7f" />
<rect x="970.6122448979589" y="300.0" width="22.857142857142858" height="57.97142758236005" radius="4" fill="#e1e1e1" stroke="#7f7f7f" />
<rect x="976.4408163265305" y="306.09285689559" width="11.2" height="11.2" fill="#5b9bd5" stroke="#41719c" />
<rect x="976.4408163265305" y="323.38571379118" width="11.2" height="11.2" fill="#5b9bd5" stroke="#41719c" />
<rect x="976.4408163265305" y="340.67857068677006" width="11.2" height="11.2" fill="#5b9bd5" stroke="#41719c" />
<rect x="995.755102040816" y="300.0" width="6.857142857142857" height="57.97142758236005" fill="#e1e1e1" stroke="#7f7f7f" />
<rect x="1062.0408163265304" y="271.01428620881995" width="11.428571428571429" height="57.97142758236005" fill="#e1e1e1" stroke="#7f7f7f" />
<text x="1070.6351020408163" y="300.0" font-size="9.6" transform="rotate(-90, 1070.6351020408163, 300.0)" fill="#5b9bd5" font-family="arial" text-anchor="middle">add</text>
<path d="M989.8514630155412,260.98944866378883L1049.940898336136,278.9831413213456L1051.2522728302017,274.6038427336735L1058.155102040816,287.4078571675838L1045.3510876069056,294.3106863781981L1046.6624621009714,289.931387790526L986.5730267803766,271.9376951329692Z" fill="#ddd" stroke="none" />
<circle cx="1023.1836734693875" cy="276.9357145329814" r="11.428571428571429" fill="#fff" stroke="#818181" />
<text x="1023.1836734693875" y="282.0557145329814" font-size="14" text-anchor="middle" font-family="serif">I</text>
<path d="M1006.0768187099804,322.6455836767661L1047.6732987452415,309.8650655459226L1046.3306720805729,305.49524714889577L1059.1836734693875,312.30642854670185L1052.3724920715815,325.15942993551664L1051.029865406913,320.7896115384898L1009.433385371652,333.57012966933326Z" fill="#ddd" stroke="none" />
<circle cx="1033.4693877551017" cy="320.20714260987575" r="11.428571428571429" fill="#fff" stroke="#818181" />
<text x="1033.4693877551017" y="325.32714260987575" font-size="14" text-anchor="middle" font-family="serif">I</text>
<text x="970.612244897959" y="232.11428670335425" font-size="9.6" fill="#6868b6" text-anchor="middle" font-family="arial">R13</text>
<text x="970.612244897959" y="373.2857132966458" font-size="9.6" fill="#6868b6" text-anchor="middle" font-family="arial">256x14x14</text>
<path d="M862.5057271974971,281.8411285079731L942.8529625489732,263.2191873444976L941.8208096130935,258.765804416809L954.1632653061223,266.46357189837903L946.4654978245521,278.8060275914077L945.4333448886724,274.3526446637191L865.0861095371963,292.97458582719463Z" fill="#ddd" stroke="none" />
<circle cx="908.9795918367345" cy="276.9357145329814" r="11.428571428571429" fill="#fff" stroke="#818181" />
<path d="M900.9795918367345,276.9357145329814H908.9795918367345L914.6364460862269,271.27886028348905" stroke="#000" strokewidth="1" fill="none" />
<path d="M863.9148141377744,306.7331852530436L923.6788945765364,320.26345813547863L924.6882969071643,315.804863500552L932.4489795918365,328.10785667304964L920.1459864193389,335.86853935772183L921.1553887499667,331.4099447227952L861.3913083112047,317.8796718403602Z" fill="#ddd" stroke="none" />
<circle cx="897.5510204081631" cy="320.20714260987575" r="11.428571428571429" fill="#fff" stroke="#818181" />
<path d="M889.5510204081631,320.20714260987575H897.5510204081631L903.2078746576556,314.5502883603834" stroke="#000" strokewidth="1" fill="none" />
<rect x="1173.877551020408" y="236.31428670335424" width="22.857142857142858" height="57.97142758236005" radius="4" fill="#e1e1e1" stroke="#7f7f7f" />
<rect x="1179.7061224489794" y="242.40714359894426" width="11.2" height="11.2" fill="#5b9bd5" stroke="#41719c" />
<rect x="1179.7061224489794" y="259.70000049453427" width="11.2" height="11.2" fill="#5b9bd5" stroke="#41719c" />
<rect x="1179.7061224489794" y="276.9928573901243" width="11.2" height="11.2" fill="#5b9bd5" stroke="#41719c" />
<rect x="1151.020408163265" y="300.0" width="22.857142857142858" height="57.97142758236005" radius="4" fill="#e1e1e1" stroke="#7f7f7f" />
<rect x="1156.8489795918365" y="306.09285689559" width="11.2" height="11.2" fill="#5b9bd5" stroke="#41719c" />
<rect x="1156.8489795918365" y="323.38571379118" width="11.2" height="11.2" fill="#5b9bd5" stroke="#41719c" />
<rect x="1156.8489795918365" y="340.67857068677006" width="11.2" height="11.2" fill="#5b9bd5" stroke="#41719c" />
<rect x="1176.1632653061222" y="300.0" width="6.857142857142857" height="57.97142758236005" fill="#e1e1e1" stroke="#7f7f7f" />
<rect x="1185.3061224489793" y="300.0" width="22.857142857142858" height="57.97142758236005" radius="4" fill="#e1e1e1" stroke="#7f7f7f" />
<rect x="1191.1346938775507" y="306.09285689559" width="11.2" height="11.2" fill="#5b9bd5" stroke="#41719c" />
<rect x="1191.1346938775507" y="323.38571379118" width="11.2" height="11.2" fill="#5b9bd5" stroke="#41719c" />
<rect x="1191.1346938775507" y="340.67857068677006" width="11.2" height="11.2" fill="#5b9bd5" stroke="#41719c" />
<rect x="1210.4489795918364" y="300.0" width="6.857142857142857" height="57.97142758236005" fill="#e1e1e1" stroke="#7f7f7f" />
<rect x="1276.7346938775509" y="271.01428620881995" width="11.428571428571429" height="57.97142758236005" fill="#e1e1e1" stroke="#7f7f7f" />
<text x="1285.3289795918367" y="300.0" font-size="9.6" transform="rotate(-90, 1285.3289795918367, 300.0)" fill="#5b9bd5" font-family="arial" text-anchor="middle">add</text>
<path d="M1204.5453405665617,260.98944866378883L1264.6347758871566,278.9831413213456L1265.9461503812224,274.6038427336735L1272.8489795918365,287.4078571675838L1260.0449651579263,294.3106863781981L1261.3563396519921,289.931387790526L1201.2669043313972,271.9376951329692Z" fill="#ddd" stroke="none" />
<circle cx="1237.877551020408" cy="276.9357145329814" r="11.428571428571429" fill="#fff" stroke="#818181" />
<text x="1237.877551020408" y="282.0557145329814" font-size="14" text-anchor="middle" font-family="serif">I</text>
<path d="M1220.7706962610007,322.6455836767661L1262.367176296262,309.8650655459226L1261.0245496315933,305.49524714889577L1273.877551020408,312.30642854670185L1267.066369622602,325.15942993551664L1265.7237429579334,320.7896115384898L1224.1272629226721,333.57012966933326Z" fill="#ddd" stroke="none" />
<circle cx="1248.1632653061222" cy="320.20714260987575" r="11.428571428571429" fill="#fff" stroke="#818181" />
<text x="1248.1632653061222" y="325.32714260987575" font-size="14" text-anchor="middle" font-family="serif">I</text>
<text x="1185.3061224489793" y="232.11428670335425" font-size="9.6" fill="#6868b6" text-anchor="middle" font-family="arial">R14</text>
<text x="1185.3061224489793" y="373.2857132966458" font-size="9.6" fill="#6868b6" text-anchor="middle" font-family="arial">256x14x14</text>
<path d="M1077.1996047485175,281.8411285079731L1157.5468400999937,263.2191873444976L1156.514687164114,258.765804416809L1168.8571428571427,266.463571898379L1161.1593753755728,278.8060275914077L1160.1272224396932,274.3526446637191L1079.779987088217,292.97458582719463Z" fill="#ddd" stroke="none" />
<circle cx="1123.6734693877547" cy="276.9357145329814" r="11.428571428571429" fill="#fff" stroke="#818181" />
<path d="M1115.6734693877547,276.9357145329814H1123.6734693877547L1129.3303236372471,271.27886028348905" stroke="#000" strokewidth="1" fill="none" />
<path d="M1078.6086916887948,306.7331852530436L1138.372772127557,320.26345813547863L1139.3821744581849,315.804863500552L1147.1428571428569,328.10785667304964L1134.8398639703594,335.86853935772183L1135.8492663009872,331.4099447227952L1076.085185862225,317.8796718403602Z" fill="#ddd" stroke="none" />
<circle cx="1112.2448979591834" cy="320.20714260987575" r="11.428571428571429" fill="#fff" stroke="#818181" />
<path d="M1104.2448979591834,320.20714260987575H1112.2448979591834L1117.9017522086758,314.5502883603834" stroke="#000" strokewidth="1" fill="none" />
<rect x="100.40816326530611" y="436.31428670335424" width="22.857142857142858" height="57.97142758236005" radius="4" fill="#e1e1e1" stroke="#7f7f7f" />
<rect x="106.23673469387754" y="442.40714359894423" width="11.2" height="11.2" fill="#5b9bd5" stroke="#41719c" />
<rect x="106.23673469387754" y="459.70000049453427" width="11.2" height="11.2" fill="#5b9bd5" stroke="#41719c" />
<rect x="106.23673469387754" y="476.9928573901243" width="11.2" height="11.2" fill="#5b9bd5" stroke="#41719c" />
<rect x="77.55102040816325" y="500.0" width="22.857142857142858" height="57.97142758236005" radius="4" fill="#e1e1e1" stroke="#7f7f7f" />
<rect x="83.37959183673468" y="506.09285689559" width="11.2" height="11.2" fill="#5b9bd5" stroke="#41719c" />
<rect x="83.37959183673468" y="523.38571379118" width="11.2" height="11.2" fill="#5b9bd5" stroke="#41719c" />
<rect x="83.37959183673468" y="540.6785706867701" width="11.2" height="11.2" fill="#5b9bd5" stroke="#41719c" />
<rect x="102.69387755102039" y="500.0" width="6.857142857142857" height="57.97142758236005" fill="#e1e1e1" stroke="#7f7f7f" />
<rect x="111.83673469387753" y="500.0" width="22.857142857142858" height="57.97142758236005" radius="4" fill="#e1e1e1" stroke="#7f7f7f" />
<rect x="117.66530612244895" y="506.09285689559" width="11.2" height="11.2" fill="#5b9bd5" stroke="#41719c" />
<rect x="117.66530612244895" y="523.38571379118" width="11.2" height="11.2" fill="#5b9bd5" stroke="#41719c" />
<rect x="117.66530612244895" y="540.6785706867701" width="11.2" height="11.2" fill="#5b9bd5" stroke="#41719c" />
<rect x="136.97959183673467" y="500.0" width="6.857142857142857" height="57.97142758236005" fill="#e1e1e1" stroke="#7f7f7f" />
<rect x="203.26530612244898" y="471.01428620881995" width="11.428571428571429" height="57.97142758236005" fill="#e1e1e1" stroke="#7f7f7f" />
<text x="211.8595918367347" y="500.0" font-size="9.6" transform="rotate(-90, 211.8595918367347, 500.0)" fill="#5b9bd5" font-family="arial" text-anchor="middle">add</text>
<path d="M131.0759528114598,460.9894486637889L191.16538813205466,478.98314132134567L192.47676262612046,474.60384273367356L199.37959183673468,487.40785716758387L186.57557740282434,494.31068637819817L187.88695189689014,489.93138779052606L127.7975165762953,471.9376951329693Z" fill="#ddd" stroke="none" />
<circle cx="164.40816326530611" cy="476.9357145329814" r="11.428571428571429" fill="#fff" stroke="#818181" />
<text x="164.40816326530611" y="482.0557145329814" font-size="14" text-anchor="middle" font-family="serif">I</text>
<path d="M147.30130850589896,522.645583676766L188.89778854115997,509.86506554592256L187.5551618764914,505.4952471488957L200.40816326530611,512.3064285467019L193.59698186749998,525.1594299355166L192.25435520283142,520.7896115384898L150.6578751675704,533.5701296693333Z" fill="#ddd" stroke="none" />
<circle cx="174.6938775510204" cy="520.2071426098757" r="11.428571428571429" fill="#fff" stroke="#818181" />
<text x="174.6938775510204" y="525.3271426098758" font-size="14" text-anchor="middle" font-family="serif">I</text>
<text x="111.83673469387753" y="432.11428670335425" font-size="9.6" fill="#6868b6" text-anchor="middle" font-family="arial">R15</text>
<text x="111.83673469387753" y="573.2857132966458" font-size="9.6" fill="#6868b6" text-anchor="middle" font-family="arial">256x14x14</text>
<path d="M3.7302169934156764,481.8411285079731L84.07745234489181,463.2191873444976L83.0452994090121,458.765804416809L95.3877551020408,466.46357189837903L87.68998762047077,478.8060275914077L86.65783468459107,474.3526446637191L6.310599333114936,492.97458582719463Z" fill="#ddd" stroke="none" />
<circle cx="50.20408163265306" cy="476.9357145329814" r="11.428571428571429" fill="#fff" stroke="#818181" />
<path d="M42.20408163265306,476.9357145329814H50.20408163265306L55.86093588214544,471.27886028348905" stroke="#000" strokewidth="1" fill="none" />
<path d="M5.139303933693004,506.73318525304364L64.90338437245504,520.2634581354787L65.91278670308292,515.8048635005521L73.67346938775508,528.1078566730496L61.37047621525749,535.8685393577219L62.37987854588536,531.4099447227953L2.6157981071233323,517.8796718403603Z" fill="#ddd" stroke="none" />
<circle cx="38.77551020408163" cy="520.2071426098757" r="11.428571428571429" fill="#fff" stroke="#818181" />
<path d="M30.775510204081627,520.2071426098757H38.77551020408163L44.43236445357401,514.5502883603833" stroke="#000" strokewidth="1" fill="none" />
<rect x="315.10204081632645" y="436.31428670335424" width="22.857142857142858" height="57.97142758236005" radius="4" fill="#e1e1e1" stroke="#7f7f7f" />
<rect x="320.9306122448979" y="442.40714359894423" width="11.2" height="11.2" fill="#5b9bd5" stroke="#41719c" />
<rect x="320.9306122448979" y="459.70000049453427" width="11.2" height="11.2" fill="#5b9bd5" stroke="#41719c" />
<rect x="320.9306122448979" y="476.9928573901243" width="11.2" height="11.2" fill="#5b9bd5" stroke="#41719c" />
<rect x="292.2448979591836" y="500.0" width="22.857142857142858" height="57.97142758236005" radius="4" fill="#e1e1e1" stroke="#7f7f7f" />
<rect x="298.07346938775504" y="506.09285689559" width="11.2" height="11.2" fill="#5b9bd5" stroke="#41719c" />
<rect x="298.07346938775504" y="523.38571379118" width="11.2" height="11.2" fill="#5b9bd5" stroke="#41719c" />
<rect x="298.07346938775504" y="540.6785706867701" width="11.2" height="11.2" fill="#5b9bd5" stroke="#41719c" />
<rect x="317.3877551020408" y="500.0" width="6.857142857142857" height="57.97142758236005" fill="#e1e1e1" stroke="#7f7f7f" />
<rect x="326.53061224489795" y="500.0" width="22.857142857142858" height="57.97142758236005" radius="4" fill="#e1e1e1" stroke="#7f7f7f" />
<rect x="332.3591836734693" y="506.09285689559" width="11.2" height="11.2" fill="#5b9bd5" stroke="#41719c" />
<rect x="332.3591836734693" y="523.38571379118" width="11.2" height="11.2" fill="#5b9bd5" stroke="#41719c" />
<rect x="332.3591836734693" y="540.6785706867701" width="11.2" height="11.2" fill="#5b9bd5" stroke="#41719c" />
<rect x="351.6734693877551" y="500.0" width="6.857142857142857" height="57.97142758236005" fill="#e1e1e1" stroke="#7f7f7f" />
<rect x="417.95918367346934" y="471.01428620881995" width="11.428571428571429" height="57.97142758236005" fill="#e1e1e1" stroke="#7f7f7f" />
<text x="426.55346938775506" y="500.0" font-size="9.6" transform="rotate(-90, 426.55346938775506, 500.0)" fill="#5b9bd5" font-family="arial" text-anchor="middle">add</text>
<path d="M345.76983036248015,460.9894486637889L405.859265683075,478.98314132134567L407.17064017714085,474.60384273367356L414.07346938775504,487.40785716758387L401.26945495384473,494.31068637819817L402.58082944791056,489.93138779052606L342.4913941273157,471.9376951329693Z" fill="#ddd" stroke="none" />
<circle cx="379.1020408163265" cy="476.9357145329814" r="11.428571428571429" fill="#fff" stroke="#818181" />
<text x="379.1020408163265" y="482.0557145329814" font-size="14" text-anchor="middle" font-family="serif">I</text>
<path d="M361.99518605691935,522.645583676766L403.59166609218033,509.86506554592256L402.2490394275118,505.4952471488957L415.1020408163265,512.3064285467019L408.2908594185203,525.1594299355166L406.94823275385176,520.7896115384898L365.3517527185908,533.5701296693333Z" fill="#ddd" stroke="none" />
<circle cx="389.3877551020408" cy="520.2071426098757" r="11.428571428571429" fill="#fff" stroke="#818181" />
<text x="389.3877551020408" y="525.3271426098758" font-size="14" text-anchor="middle" font-family="serif">I</text>
<text x="326.5306122448979" y="432.11428670335425" font-size="9.6" fill="#6868b6" text-anchor="middle" font-family="arial">R16</text>
<text x="326.5306122448979" y="573.2857132966458" font-size="9.6" fill="#6868b6" text-anchor="middle" font-family="arial">256x14x14</text>
<path d="M218.42409454443603,481.84112850797305L298.7713298959121,463.2191873444975L297.7391769600324,458.7658044168089L310.08163265306115,466.46357189837903L302.3838651714911,478.80602759140766L301.3517122356114,474.35264466371905L221.00447688413527,492.9745858271946Z" fill="#ddd" stroke="none" />
<circle cx="264.8979591836734" cy="476.9357145329814" r="11.428571428571429" fill="#fff" stroke="#818181" />
<path d="M256.8979591836734,476.9357145329814H264.8979591836734L270.55481343316575,471.27886028348905" stroke="#000" strokewidth="1" fill="none" />
<path d="M219.83318148471338,506.73318525304364L279.5972619234754,520.2634581354787L280.6066642541033,515.8048635005521L288.3673469387754,528.1078566730496L276.06435376627786,535.8685393577219L277.07375609690575,531.4099447227953L217.30967565814373,517.8796718403603Z" fill="#ddd" stroke="none" />
<circle cx="253.469387755102" cy="520.2071426098757" r="11.428571428571429" fill="#fff" stroke="#818181" />
<path d="M245.469387755102,520.2071426098757H253.469387755102L259.12624200459436,514.5502883603833" stroke="#000" strokewidth="1" fill="none" />
<rect x="529.7959183673469" y="440.3928583791928" width="22.857142857142858" height="53.8928559065215" radius="4" fill="#e1e1e1" stroke="#7f7f7f" />
<rect x="535.6244897959183" y="445.46607235582314" width="11.2" height="11.2" fill="#5b9bd5" stroke="#41719c" />
<rect x="535.6244897959183" y="461.7392863324535" width="11.2" height="11.2" fill="#5b9bd5" stroke="#41719c" />
<rect x="535.6244897959183" y="478.01250030908386" width="11.2" height="11.2" fill="#5b9bd5" stroke="#41719c" />
<rect x="506.938775510204" y="500.0" width="22.857142857142858" height="53.8928559065215" radius="4" fill="#e1e1e1" stroke="#7f7f7f" />
<rect x="512.7673469387754" y="505.07321397663037" width="11.2" height="11.2" fill="#5b9bd5" stroke="#41719c" />
<rect x="512.7673469387754" y="521.3464279532608" width="11.2" height="11.2" fill="#5b9bd5" stroke="#41719c" />
<rect x="512.7673469387754" y="537.6196419298911" width="11.2" height="11.2" fill="#5b9bd5" stroke="#41719c" />
<rect x="532.0816326530611" y="500.0" width="6.857142857142857" height="53.8928559065215" fill="#e1e1e1" stroke="#7f7f7f" />
<rect x="541.2244897959182" y="500.0" width="22.857142857142858" height="53.8928559065215" radius="4" fill="#e1e1e1" stroke="#7f7f7f" />
<rect x="547.0530612244897" y="505.07321397663037" width="11.2" height="11.2" fill="#5b9bd5" stroke="#41719c" />
<rect x="547.0530612244897" y="521.3464279532608" width="11.2" height="11.2" fill="#5b9bd5" stroke="#41719c" />
<rect x="547.0530612244897" y="537.6196419298911" width="11.2" height="11.2" fill="#5b9bd5" stroke="#41719c" />
<rect x="566.3673469387753" y="500.0" width="6.857142857142857" height="53.8928559065215" fill="#e1e1e1" stroke="#7f7f7f" />
<rect x="632.6530612244896" y="473.05357204673925" width="11.428571428571429" height="53.8928559065215" fill="#e1e1e1" stroke="#7f7f7f" />
<text x="641.2473469387754" y="500.0" font-size="9.6" transform="rotate(-90, 641.2473469387754, 500.0)" fill="#5b9bd5" font-family="arial" text-anchor="middle">add</text>
<path d="M560.3304826453652,462.8886301377465L620.3512658362419,479.2867710238193L621.5560601157995,474.87696037849463L628.7673469387754,487.5098214594798L616.1344858577901,494.7211082824556L617.3392801373477,490.3112976371309L557.3184969464711,473.91315675105807Z" fill="#ddd" stroke="none" />
<circle cx="593.7959183673468" cy="477.95535745194104" r="11.428571428571429" fill="#fff" stroke="#818181" />
<text x="593.7959183673468" y="483.07535745194104" font-size="14" text-anchor="middle" font-family="serif">I</text>
<path d="M576.8697983744,520.6559717243781L618.3721556782046,509.38548826803355L617.1741168267043,504.973837545915L629.7959183673468,512.2044642548059L622.565291658456,524.8262657954485L621.3672528069557,520.41461507333L579.864895503151,531.6850985296745Z" fill="#ddd" stroke="none" />
<circle cx="604.0816326530611" cy="519.1874996909161" r="11.428571428571429" fill="#fff" stroke="#818181" />
<text x="604.0816326530611" y="524.3074996909161" font-size="14" text-anchor="middle" font-family="serif">I</text>
<text x="541.2244897959183" y="436.1928583791928" font-size="9.6" fill="#6868b6" text-anchor="middle" font-family="arial">R17@2</text>
<text x="541.2244897959183" y="569.2071416208072" font-size="9.6" fill="#6868b6" text-anchor="middle" font-family="arial">512x7x7</text>
<path d="M433.2259715636918,481.91916103291794L513.530129734656,464.93817808074596L512.5843763733646,460.4656497394965L524.7755102040816,468.4008934444023L516.8402664991758,480.592027275119L515.8945131378844,476.1194989338695L435.59035496692013,493.1004818860415Z" fill="#ddd" stroke="none" />
<circle cx="479.5918367346938" cy="477.95535745194104" r="11.428571428571429" fill="#fff" stroke="#818181" />
<path d="M471.5918367346938,477.95535745194104H479.5918367346938L485.24869098418617,472.29850320244867" stroke="#000" strokewidth="1" fill="none" />
<path d="M434.38650138510087,506.60125246088836L494.0966385233962,518.5491718603352L494.9935947335178,514.0666024252012L503.0612244897958,526.1705351270263L490.9572917879707,534.2381648833043L491.85424799809226,529.7555954481703L432.1441108597969,517.8076760487236Z" fill="#ddd" stroke="none" />
<circle cx="468.16326530612236" cy="519.1874996909161" r="11.428571428571429" fill="#fff" stroke="#818181" />
<path d="M460.16326530612236,519.1874996909161H468.16326530612236L473.8201195556147,513.5306454414236" stroke="#000" strokewidth="1" fill="none" />
<rect x="744.4897959183672" y="440.3928583791928" width="22.857142857142858" height="53.8928559065215" radius="4" fill="#e1e1e1" stroke="#7f7f7f" />
<rect x="750.3183673469387" y="445.46607235582314" width="11.2" height="11.2" fill="#5b9bd5" stroke="#41719c" />
<rect x="750.3183673469387" y="461.7392863324535" width="11.2" height="11.2" fill="#5b9bd5" stroke="#41719c" />
<rect x="750.3183673469387" y="478.01250030908386" width="11.2" height="11.2" fill="#5b9bd5" stroke="#41719c" />
<rect x="721.6326530612243" y="500.0" width="22.857142857142858" height="53.8928559065215" radius="4" fill="#e1e1e1" stroke="#7f7f7f" />
<rect x="727.4612244897958" y="505.07321397663037" width="11.2" height="11.2" fill="#5b9bd5" stroke="#41719c" />
<rect x="727.4612244897958" y="521.3464279532608" width="11.2" height="11.2" fill="#5b9bd5" stroke="#41719c" />
<rect x="727.4612244897958" y="537.6196419298911" width="11.2" height="11.2" fill="#5b9bd5" stroke="#41719c" />
<rect x="746.7755102040815" y="500.0" width="6.857142857142857" height="53.8928559065215" fill="#e1e1e1" stroke="#7f7f7f" />
<rect x="755.9183673469386" y="500.0" width="22.857142857142858" height="53.8928559065215" radius="4" fill="#e1e1e1" stroke="#7f7f7f" />
<rect x="761.7469387755101" y="505.07321397663037" width="11.2" height="11.2" fill="#5b9bd5" stroke="#41719c" />
<rect x="761.7469387755101" y="521.3464279532608" width="11.2" height="11.2" fill="#5b9bd5" stroke="#41719c" />
<rect x="761.7469387755101" y="537.6196419298911" width="11.2" height="11.2" fill="#5b9bd5" stroke="#41719c" />
<rect x="781.0612244897957" y="500.0" width="6.857142857142857" height="53.8928559065215" fill="#e1e1e1" stroke="#7f7f7f" />
<rect x="847.3469387755101" y="473.05357204673925" width="11.428571428571429" height="53.8928559065215" fill="#e1e1e1" stroke="#7f7f7f" />
<text x="855.9412244897958" y="500.0" font-size="9.6" transform="rotate(-90, 855.9412244897958, 500.0)" fill="#5b9bd5" font-family="arial" text-anchor="middle">add</text>
<path d="M775.0243601963856,462.8886301377465L835.0451433872623,479.2867710238193L836.24993766682,474.87696037849463L843.4612244897959,487.5098214594798L830.8283634088106,494.7211082824556L832.0331576883682,490.3112976371309L772.0123744974915,473.91315675105807Z" fill="#ddd" stroke="none" />
<circle cx="808.4897959183672" cy="477.95535745194104" r="11.428571428571429" fill="#fff" stroke="#818181" />
<text x="808.4897959183672" y="483.07535745194104" font-size="14" text-anchor="middle" font-family="serif">I</text>
<path d="M791.5636759254204,520.6559717243781L833.0660332292251,509.38548826803355L831.8679943777248,504.973837545915L844.4897959183672,512.2044642548059L837.2591692094765,524.8262657954485L836.0611303579761,520.41461507333L794.5587730541714,531.6850985296745Z" fill="#ddd" stroke="none" />
<circle cx="818.7755102040815" cy="519.1874996909161" r="11.428571428571429" fill="#fff" stroke="#818181" />
<text x="818.7755102040815" y="524.3074996909161" font-size="14" text-anchor="middle" font-family="serif">I</text>
<text x="755.9183673469387" y="436.1928583791928" font-size="9.6" fill="#6868b6" text-anchor="middle" font-family="arial">R18</text>
<text x="755.9183673469387" y="569.2071416208072" font-size="9.6" fill="#6868b6" text-anchor="middle" font-family="arial">512x7x7</text>
<path d="M647.9198491147122,481.91916103291794L728.2240072856764,464.93817808074596L727.278253924385,460.4656497394965L739.4693877551019,468.4008934444023L731.5341440501961,480.592027275119L730.5883906889047,476.1194989338695L650.2842325179405,493.1004818860415Z" fill="#ddd" stroke="none" />
<circle cx="694.2857142857142" cy="477.95535745194104" r="11.428571428571429" fill="#fff" stroke="#818181" />
<path d="M686.2857142857142,477.95535745194104H694.2857142857142L699.9425685352066,472.29850320244867" stroke="#000" strokewidth="1" fill="none" />
<path d="M649.0803789361213,506.60125246088836L708.7905160744167,518.5491718603352L709.6874722845383,514.0666024252012L717.7551020408162,526.1705351270263L705.6511693389913,534.2381648833043L706.5481255491129,529.7555954481703L646.8379884108175,517.8076760487236Z" fill="#ddd" stroke="none" />
<circle cx="682.8571428571427" cy="519.1874996909161" r="11.428571428571429" fill="#fff" stroke="#818181" />
<path d="M674.8571428571427,519.1874996909161H682.8571428571427L688.5139971066351,513.5306454414236" stroke="#000" strokewidth="1" fill="none" />
<rect x="959.1836734693876" y="440.3928583791928" width="22.857142857142858" height="53.8928559065215" radius="4" fill="#e1e1e1" stroke="#7f7f7f" />
<rect x="965.012244897959" y="445.46607235582314" width="11.2" height="11.2" fill="#5b9bd5" stroke="#41719c" />
<rect x="965.012244897959" y="461.7392863324535" width="11.2" height="11.2" fill="#5b9bd5" stroke="#41719c" />
<rect x="965.012244897959" y="478.01250030908386" width="11.2" height="11.2" fill="#5b9bd5" stroke="#41719c" />
<rect x="936.3265306122447" y="500.0" width="22.857142857142858" height="53.8928559065215" radius="4" fill="#e1e1e1" stroke="#7f7f7f" />
<rect x="942.1551020408161" y="505.07321397663037" width="11.2" height="11.2" fill="#5b9bd5" stroke="#41719c" />
<rect x="942.1551020408161" y="521.3464279532608" width="11.2" height="11.2" fill="#5b9bd5" stroke="#41719c" />
<rect x="942.1551020408161" y="537.6196419298911" width="11.2" height="11.2" fill="#5b9bd5" stroke="#41719c" />
<rect x="961.4693877551018" y="500.0" width="6.857142857142857" height="53.8928559065215" fill="#e1e1e1" stroke="#7f7f7f" />
<rect x="970.6122448979589" y="500.0" width="22.857142857142858" height="53.8928559065215" radius="4" fill="#e1e1e1" stroke="#7f7f7f" />
<rect x="976.4408163265305" y="505.07321397663037" width="11.2" height="11.2" fill="#5b9bd5" stroke="#41719c" />
<rect x="976.4408163265305" y="521.3464279532608" width="11.2" height="11.2" fill="#5b9bd5" stroke="#41719c" />
<rect x="976.4408163265305" y="537.6196419298911" width="11.2" height="11.2" fill="#5b9bd5" stroke="#41719c" />
<rect x="995.755102040816" y="500.0" width="6.857142857142857" height="53.8928559065215" fill="#e1e1e1" stroke="#7f7f7f" />
<rect x="1062.0408163265304" y="473.05357204673925" width="11.428571428571429" height="53.8928559065215" fill="#e1e1e1" stroke="#7f7f7f" />
<text x="1070.6351020408163" y="500.0" font-size="9.6" transform="rotate(-90, 1070.6351020408163, 500.0)" fill="#5b9bd5" font-family="arial" text-anchor="middle">add</text>
<path d="M989.718237747406,462.8886301377465L1049.7390209382827,479.2867710238193L1050.9438152178404,474.87696037849463L1058.155102040816,487.5098214594798L1045.5222409598312,494.7211082824556L1046.727035239389,490.3112976371309L986.7062520485123,473.91315675105807Z" fill="#ddd" stroke="none" />
<circle cx="1023.1836734693875" cy="477.95535745194104" r="11.428571428571429" fill="#fff" stroke="#818181" />
<text x="1023.1836734693875" y="483.07535745194104" font-size="14" text-anchor="middle" font-family="serif">I</text>
<path d="M1006.2575534764408,520.6559717243781L1047.7599107802455,509.38548826803355L1046.5618719287452,504.973837545915L1059.1836734693875,512.2044642548059L1051.9530467604968,524.8262657954485L1050.7550079089965,520.41461507333L1009.2526506051919,531.6850985296745Z" fill="#ddd" stroke="none" />
<circle cx="1033.4693877551017" cy="519.1874996909161" r="11.428571428571429" fill="#fff" stroke="#818181" />
<text x="1033.4693877551017" y="524.3074996909161" font-size="14" text-anchor="middle" font-family="serif">I</text>
<text x="970.612244897959" y="436.1928583791928" font-size="9.6" fill="#6868b6" text-anchor="middle" font-family="arial">R19</text>
<text x="970.612244897959" y="569.2071416208072" font-size="9.6" fill="#6868b6" text-anchor="middle" font-family="arial">512x7x7</text>
<path d="M862.6137266657325,481.91916103291794L942.9178848366968,464.93817808074596L941.9721314754054,460.4656497394965L954.1632653061223,468.4008934444023L946.2280216012165,480.592027275119L945.2822682399251,476.1194989338695L864.9781100689609,493.1004818860415Z" fill="#ddd" stroke="none" />
<circle cx="908.9795918367345" cy="477.95535745194104" r="11.428571428571429" fill="#fff" stroke="#818181" />
<path d="M900.9795918367345,477.95535745194104H908.9795918367345L914.6364460862269,472.29850320244867" stroke="#000" strokewidth="1" fill="none" />
<path d="M863.7742564871417,506.60125246088836L923.4843936254371,518.5491718603352L924.3813498355587,514.0666024252012L932.4489795918365,526.1705351270263L920.3450468900116,534.2381648833043L921.2420031001333,529.7555954481703L861.5318659618379,517.8076760487236Z" fill="#ddd" stroke="none" />
<circle cx="897.5510204081631" cy="519.1874996909161" r="11.428571428571429" fill="#fff" stroke="#818181" />
<path d="M889.5510204081631,519.1874996909161H897.5510204081631L903.2078746576556,513.5306454414236" stroke="#000" strokewidth="1" fill="none" />
<rect x="1151.020408163265" y="463.292854917453" width="22.857142857142858" height="73.41429016509402" fill="#e1e1e1" stroke="#7f7f7f" />
<text x="1166.2889795918363" y="500.0" font-size="12.8" transform="rotate(-90, 1166.2889795918363, 500.0)" fill="#5b9bd5" font-family="arial" text-anchor="middle">ave</text>
<text x="1162.4489795918364" y="459.092854917453" font-size="9.6" fill="#6868b6" text-anchor="middle" font-family="arial">P20[7x7]</text>
<text x="1162.4489795918364" y="546.307145082547" font-size="9.6" fill="#6868b6" text-anchor="middle" font-family="arial">512x1x1</text>
<path d="M1077.34693877551,494.2857142857143L1136.8571428571427,494.2857142857143L1136.8571428571427,489.7142857142857L1147.1428571428569,500.0L1136.8571428571427,510.2857142857143L1136.8571428571427,505.7142857142857L1077.34693877551,505.7142857142857Z" fill="#ddd" stroke="none" />
<circle cx="1112.2448979591834" cy="500.0" r="11.428571428571429" fill="#fff" stroke="#818181" />
<path d="M1104.2448979591834,500.0H1112.2448979591834L1117.9017522086758,494.34314575050763" stroke="#000" strokewidth="1" fill="none" />
<rect x="1251.428571428571" y="459.3538344890602" width="22.857142857142858" height="81.29233102187959" fill="#e1e1e1" stroke="#7f7f7f" rx="4" ry="4" />
<circle cx="1262.8571428571424" cy="469.1692229927068" r="5.6" fill="#5b9bd5" stroke="#41719c" />
<circle cx="1262.8571428571424" cy="484.58461149635343" r="5.6" fill="#5b9bd5" stroke="#41719c" />
<circle cx="1262.8571428571424" cy="500.0" r="5.6" fill="#5b9bd5" stroke="#41719c" />
<circle cx="1262.8571428571424" cy="515.4153885036466" r="5.6" fill="#5b9bd5" stroke="#41719c" />
<circle cx="1262.8571428571424" cy="530.8307770072931" r="5.6" fill="#5b9bd5" stroke="#41719c" />
<text x="1262.8571428571424" y="455.1538344890602" font-size="9.6" fill="#6868b6" text-anchor="middle" font-family="arial">F21[1000]</text>
<text x="1262.8571428571424" y="550.2461655109398" font-size="9.6" fill="#6868b6" text-anchor="middle" font-family="arial">1000</text>
<path d="M1177.755102040816,494.2857142857143L1237.2653061224487,494.2857142857143L1237.2653061224487,489.7142857142857L1247.551020408163,500.0L1237.2653061224487,510.2857142857143L1237.2653061224487,505.7142857142857L1177.755102040816,505.7142857142857Z" fill="#ddd" stroke="none" />
</svg>