<?xml version="1.0" encoding="UTF-8"?>
<svg xmlns="http://www.w3.org/2000/svg" xmlns:xlink="http://www.w3.org/1999/xlink"
     width="800" height="400" viewBox="0 0 300 150">
<defs>
</defs>
<g>
<rect x="15.0" y="60.0" width="17.142857142857142" height="30" fill="#e1e1e1" stroke="#7f7f7f" stroke-dasharray="5.999999999999999 4.8" />
<text x="23.57142857142857" y="77.88" font-size="9.6" transform="" fill="#5b9bd5" text-anchor="middle" font-family="arial">x</text>
</g>
<text x="23.57142857142857" y="97.2" font-size="7.199999999999998" fill="#6868b6" text-anchor="middle" font-family="arial">1</text>
<g>
<rect x="90.0" y="34.71051670164778" width="17.142857142857142" height="80.57896659670445" fill="#e1e1e1" stroke="#7f7f7f" />
<text x="101.45142857142856" y="75.0" font-size="9.6" transform="rotate(-90, 101.45142857142856, 75.0)" fill="#5b9bd5" text-anchor="middle" font-family="arial">embed</text>
</g>
<text x="98.57142857142857" y="122.48948329835223" font-size="7.199999999999998" fill="#6868b6" text-anchor="middle" font-family="arial">26</text>
<path d="M36.42857142857142,70.71428571428571L79.28571428571429,70.71428571428571L79.28571428571429,67.28571428571428L87.85714285714286,75.0L79.28571428571429,82.71428571428571L79.28571428571429,79.28571428571428L36.42857142857142,79.28571428571428Z" fill="#ddd" stroke="none" />
<rect x="165.0" y="15.0" width="17.142857142857142" height="52.114285714285714" rx="4" ry="4" fill="#e1e1e1" stroke="#7f7f7f" />
<circle cx="173.57142857142858" cy="22.902857142857144" r="4.199999999999999" fill="#5b9bd5" stroke="#41719c" />
<circle cx="173.57142857142858" cy="35.00571428571429" r="4.199999999999999" fill="#5b9bd5" stroke="#41719c" />
<circle cx="173.57142857142858" cy="47.10857142857144" r="4.199999999999999" fill="#5b9bd5" stroke="#41719c" />
<circle cx="173.57142857142858" cy="59.211428571428584" r="4.199999999999999" fill="#5b9bd5" stroke="#41719c" />
<text x="173.57142857142858" y="10.8" font-size="5.999999999999999" fill="#6868b6" text-anchor="middle" font-family="arial">F_XH[128]</text>
<text x="173.57142857142858" y="71.91428571428571" font-size="4.8" fill="#6868b6" text-anchor="middle" font-family="arial">128</text>
<rect x="165.0" y="82.88571428571429" width="17.142857142857142" height="52.114285714285714" rx="4" ry="4" fill="#e1e1e1" stroke="#7f7f7f" />
<circle cx="173.57142857142858" cy="90.78857142857143" r="4.199999999999999" fill="#5b9bd5" stroke="#41719c" />
<circle cx="173.57142857142858" cy="102.89142857142858" r="4.199999999999999" fill="#5b9bd5" stroke="#41719c" />
<circle cx="173.57142857142858" cy="114.99428571428572" r="4.199999999999999" fill="#5b9bd5" stroke="#41719c" />
<circle cx="173.57142857142858" cy="127.09714285714287" r="4.199999999999999" fill="#5b9bd5" stroke="#41719c" />
<text x="173.57142857142858" y="78.68571428571428" font-size="5.999999999999999" fill="#6868b6" text-anchor="middle" font-family="arial">F_HH[128]</text>
<text x="173.57142857142858" y="139.8" font-size="4.8" fill="#6868b6" text-anchor="middle" font-family="arial">128</text>
<g>
<rect x="216.42857142857144" y="15.0" width="17.142857142857142" height="120.0" fill="#e1e1e1" stroke="#7f7f7f" />
<text x="227.88000000000002" y="75.0" font-size="9.6" transform="rotate(-90, 227.88000000000002, 75.0)" fill="#5b9bd5" text-anchor="middle" font-family="arial">add</text>
</g>
<path d="M185.14285714285714,38.05714285714286L208.92857142857144,38.05714285714286L208.92857142857144,35.65714285714286L214.92857142857144,41.05714285714286L208.92857142857144,46.457142857142856L208.92857142857144,44.05714285714286L185.14285714285714,44.05714285714286Z" fill="#ddd" stroke="none" />
<path d="M185.14285714285714,97.08342857142857L208.92857142857144,97.08342857142857L208.92857142857144,94.68342857142856L214.92857142857144,100.08342857142857L208.92857142857144,105.48342857142856L208.92857142857144,103.08342857142856L185.14285714285714,103.08342857142856Z" fill="#ddd" stroke="none" />
<path d="M213.42857142857144,120.28114285714287L189.64285714285714,120.28114285714287L189.64285714285714,122.68114285714287L183.64285714285714,117.28114285714287L189.64285714285714,111.88114285714288L189.64285714285714,114.28114285714288L213.42857142857144,114.28114285714288Z" fill="#ddd" stroke="none" />
<circle cx="199.28571428571428" cy="117.28114285714287" r="5.999999999999999" fill="#fff" stroke="#818181" />
<path d="M195.89160173601886,120.67525540683829C202.6798268354097,120.67525540683829,195.89160173601886,113.88703030744745,202.6798268354097,113.88703030744745" stroke="#000" strokewidth="1" fill="none" />
<rect x="267.8571428571429" y="68.40832626799134" width="17.142857142857142" height="13.183347464017315" rx="4" ry="4" fill="#e1e1e1" stroke="#7f7f7f" />
<circle cx="276.42857142857144" cy="75.0" r="4.199999999999999" fill="#5b9bd5" stroke="#41719c" />
<text x="276.42857142857144" y="64.20832626799134" font-size="5.999999999999999" fill="#6868b6" text-anchor="middle" font-family="arial">F_HO[3]</text>
<text x="276.42857142857144" y="86.39167373200866" font-size="4.8" fill="#6868b6" text-anchor="middle" font-family="arial">3</text>
<path d="M237.17142857142855,71.4L258.8571428571429,71.4L258.8571428571429,68.52000000000001L266.0571428571429,75.0L258.8571428571429,81.48L258.8571428571429,78.60000000000001L237.17142857142855,78.60000000000001Z" fill="#ddd" stroke="none" />
<circle cx="250.71428571428572" cy="75.0" r="7.199999999999998" fill="#fff" stroke="#818181" stroke-dasharray="3.599999999999999 2.8799999999999994" />
<path d="M246.6413506546512,79.07293505963452C254.78722077392024,79.07293505963452,246.6413506546512,70.92706494036548,254.78722077392024,70.92706494036548" stroke="#000" strokewidth="1" fill="none" />
<path d="M110.26344799952777,71.46446991561666L152.73524497361822,42.366145345132544L150.797431944669,39.53772127762587L162.22857142857143,41.05714285714286L159.51759057494044,52.26562958140592L157.57977754599122,49.437205513899244L115.10798057190075,78.53553008438337Z" fill="#ddd" stroke="none" />
<circle cx="136.07142857142856" cy="58.028571428571425" r="8.571428571428571" fill="#fff" stroke="#818181" />
<circle cx="132.37489326100183" cy="60.19720547735511" r="8.571428571428571" fill="#fff" stroke="#818181" />
<circle cx="136.07142857142856" cy="58.028571428571425" r="8.571428571428571" fill="#fff" stroke="#818181" />
<circle cx="139.76796388185528" cy="55.85993737978775" r="8.571428571428571" fill="#fff" stroke="#818181" />
<text x="139.76796388185528" y="58.0027945226449" font-size="8.571428571428571" fill="#000" text-anchor="middle" font-family="monospace">[t]</text>
</svg>