<?xml version="1.0" encoding="UTF-8"?>
<svg xmlns="http://www.w3.org/2000/svg" xmlns:xlink="http://www.w3.org/1999/xlink"
     width="800" height="400" viewBox="0 0 300 150">
<defs>
</defs>
<g>
<rect x="15.0" y="40.714285714285715" width="17.142857142857142" height="68.57142857142857" fill="#e1e1e1" stroke="#7f7f7f" stroke-dasharray="5.999999999999999 4.8" />
<text x="23.57142857142857" y="77.88" font-size="9.6" transform="" fill="#5b9bd5" text-anchor="middle" font-family="arial">x</text>
</g>
<text x="23.57142857142857" y="116.48571428571428" font-size="7.199999999999998" fill="#6868b6" text-anchor="middle" font-family="arial">16</text>
<rect x="165.0" y="15.0" width="17.142857142857142" height="52.114285714285714" rx="4" ry="4" fill="#e1e1e1" stroke="#7f7f7f" />
<circle cx="173.57142857142858" cy="22.902857142857144" r="4.199999999999999" fill="#5b9bd5" stroke="#41719c" />
<circle cx="173.57142857142858" cy="35.00571428571429" r="4.199999999999999" fill="#5b9bd5" stroke="#41719c" />
<circle cx="173.57142857142858" cy="47.10857142857144" r="4.199999999999999" fill="#5b9bd5" stroke="#41719c" />
<circle cx="173.57142857142858" cy="59.211428571428584" r="4.199999999999999" fill="#5b9bd5" stroke="#41719c" />
<text x="173.57142857142858" y="10.8" font-size="5.999999999999999" fill="#6868b6" text-anchor="middle" font-family="arial">F_XH[128]</text>
<text x="173.57142857142858" y="71.91428571428571" font-size="4.8" fill="#6868b6" text-anchor="middle" font-family="arial">128</text>
<rect x="165.0" y="82.88571428571429" width="17.142857142857142" height="52.114285714285714" rx="4" ry="4" fill="#e1e1e1" stroke="#7f7f7f" />
<circle cx="173.57142857142858" cy="90.78857142857143" r="4.199999999999999" fill="#5b9bd5" stroke="#41719c" />
<circle cx="173.57142857142858" cy="102.89142857142858" r="4.199999999999999" fill="#5b9bd5" stroke="#41719c" />
<circle cx="173.57142857142858" cy="114.99428571428572" r="4.199999999999999" fill="#5b9bd5" stroke="#41719c" />
<circle cx="173.57142857142858" cy="127.09714285714287" r="4.199999999999999" fill="#5b9bd5" stroke="#41719c" />
<text x="173.57142857142858" y="78.68571428571428" font-size="5.999999999999999" fill="#6868b6" text-anchor="middle" font-family="arial">F_HH[128]</text>
<text x="173.57142857142858" y="139.8" font-size="4.8" fill="#6868b6" text-anchor="middle" font-family="arial">128</text>
<g>
<rect x="216.42857142857144" y="15.0" width="17.142857142857142" height="120.0" fill="#e1e1e1" stroke="#7f7f7f" />
<text x="227.88000000000002" y="75.0" font-size="9.6" transform="rotate(-90, 227.88000000000002, 75.0)" fill="#5b9bd5" text-anchor="middle" font-family="arial">add</text>
</g>
<path d="M185.14285714285714,38.05714285714286L208.92857142857144,38.05714285714286L208.92857142857144,35.65714285714286L214.92857142857144,41.05714285714286L208.92857142857144,46.457142857142856L208.92857142857144,44.05714285714286L185.14285714285714,44.05714285714286Z" fill="#ddd" stroke="none" />
<path d="M185.14285714285714,97.08342857142857L208.92857142857144,97.08342857142857L208.92857142857144,94.68342857142856L214.92857142857144,100.08342857142857L208.92857142857144,105.48342857142856L208.92857142857144,103.08342857142856L185.14285714285714,103.08342857142856Z" fill="#ddd" stroke="none" />
<path d="M213.42857142857144,120.28114285714287L189.64285714285714,120.28114285714287L189.64285714285714,122.68114285714287L183.64285714285714,117.28114285714287L189.64285714285714,111.88114285714288L189.64285714285714,114.28114285714288L213.42857142857144,114.28114285714288Z" fill="#ddd" stroke="none" />
<circle cx="199.28571428571428" cy="117.28114285714287" r="5.999999999999999" fill="#fff" stroke="#818181" />
<path d="M195.89160173601886,120.67525540683829C202.6798268354097,120.67525540683829,195.89160173601886,113.88703030744745,202.6798268354097,113.88703030744745" stroke="#000" strokewidth="1" fill="none" />
<rect x="267.8571428571429" y="15.0" width="17.142857142857142" height="43.002227261473315" rx="4" ry="4" fill="#e1e1e1" stroke="#7f7f7f" />
<circle cx="276.42857142857144" cy="23.65055681536833" r="4.199999999999999" fill="#5b9bd5" stroke="#41719c" />
<circle cx="276.42857142857144" cy="36.501113630736654" r="4.199999999999999" fill="#5b9bd5" stroke="#41719c" />
<circle cx="276.42857142857144" cy="49.35167044610498" r="4.199999999999999" fill="#5b9bd5" stroke="#41719c" />
<text x="276.42857142857144" y="10.8" font-size="5.999999999999999" fill="#6868b6" text-anchor="middle" font-family="arial">F_HO[36]</text>
<text x="276.42857142857144" y="62.80222726147331" font-size="4.8" fill="#6868b6" text-anchor="middle" font-family="arial">36</text>
<path d="M237.17142857142855,32.90111363073665L258.8571428571429,32.90111363073665L258.8571428571429,30.021113630736654L266.0571428571429,36.501113630736654L258.8571428571429,42.98111363073665L258.8571428571429,40.10111363073665L237.17142857142855,40.10111363073665Z" fill="#ddd" stroke="none" />
<circle cx="250.71428571428572" cy="36.501113630736654" r="7.199999999999998" fill="#fff" stroke="#818181" stroke-dasharray="3.599999999999999 2.8799999999999994" />
<path d="M246.6413506546512,40.574048690371164C254.78722077392024,40.574048690371164,246.6413506546512,32.428178571102144,254.78722077392024,32.428178571102144" stroke="#000" strokewidth="1" fill="none" />
<rect x="267.8571428571429" y="101.72893533312262" width="17.142857142857142" height="33.27106466687737" rx="4" ry="4" fill="#e1e1e1" stroke="#7f7f7f" />
<circle cx="276.42857142857144" cy="111.41929022208176" r="4.199999999999999" fill="#5b9bd5" stroke="#41719c" />
<circle cx="276.42857142857144" cy="125.30964511104088" r="4.199999999999999" fill="#5b9bd5" stroke="#41719c" />
<text x="276.42857142857144" y="97.52893533312262" font-size="5.999999999999999" fill="#6868b6" text-anchor="middle" font-family="arial">F_HY[16]</text>
<text x="276.42857142857144" y="139.8" font-size="4.8" fill="#6868b6" text-anchor="middle" font-family="arial">16</text>
<path d="M237.17142857142855,114.76446766656132L258.8571428571429,114.76446766656132L258.8571428571429,111.88446766656132L266.0571428571429,118.36446766656131L258.8571428571429,124.84446766656131L258.8571428571429,121.96446766656132L237.17142857142855,121.96446766656132Z" fill="#ddd" stroke="none" />
<circle cx="250.71428571428572" cy="118.36446766656131" r="7.199999999999998" fill="#fff" stroke="#818181" stroke-dasharray="3.599999999999999 2.8799999999999994" />
<path d="M246.6413506546512,122.43740272619583C254.78722077392024,122.43740272619583,246.6413506546512,114.2915326069268,254.78722077392024,114.2915326069268" stroke="#000" strokewidth="1" fill="none" />
<path d="M35.85801131613421,70.86268616034279L153.1907569087092,39.15588011793611L152.296336468529,35.84602904621034L162.58341013824884,41.05714285714286L156.32122844933986,50.74035886897629L155.42680800915966,47.43050779725052L38.09406241658468,79.1373138396572Z" fill="#ddd" stroke="none" />
<circle cx="98.57142857142857" cy="58.028571428571425" r="8.571428571428571" fill="#fff" stroke="#818181" />
<circle cx="94.41908809334814" cy="59.08942744748746" r="8.571428571428571" fill="#fff" stroke="#818181" />
<circle cx="98.57142857142857" cy="58.028571428571425" r="8.571428571428571" fill="#fff" stroke="#818181" />
<circle cx="102.72376904950899" cy="56.9677154096554" r="8.571428571428571" fill="#fff" stroke="#818181" />
<text x="102.72376904950899" y="59.110572552512544" font-size="8.571428571428571" fill="#000" text-anchor="middle" font-family="monospace">[t]</text>
</svg>