<?xml version="1.0" encoding="UTF-8"?>
<svg xmlns="http://www.w3.org/2000/svg" xmlns:xlink="http://www.w3.org/1999/xlink"
     width="630" height="600" viewBox="0 0 420 400">
<defs>
</defs>
<g>
<rect x="24.0" y="24.0" width="30.367346938775515" height="93.86666666666667" fill="#e1e1e1" stroke="#7f7f7f" stroke-dasharray="10.62857142857143 8.502857142857144" />
<text x="39.183673469387756" y="76.03504761904762" font-size="17.005714285714287" transform="" fill="#5b9bd5" text-anchor="middle" font-family="arial">q</text>
</g>
<text x="39.183673469387756" y="130.6209523809524" font-size="12.754285714285716" fill="#6868b6" text-anchor="middle" font-family="arial">128</text>
<g>
<rect x="24.0" y="153.06666666666666" width="30.367346938775515" height="93.86666666666667" fill="#e1e1e1" stroke="#7f7f7f" stroke-dasharray="10.62857142857143 8.502857142857144" />
<text x="39.183673469387756" y="205.10171428571428" font-size="17.005714285714287" transform="" fill="#5b9bd5" text-anchor="middle" font-family="arial">k</text>
</g>
<text x="39.183673469387756" y="259.6876190476191" font-size="12.754285714285716" fill="#6868b6" text-anchor="middle" font-family="arial">128</text>
<g>
<rect x="24.0" y="282.1333333333333" width="30.367346938775515" height="93.86666666666667" fill="#e1e1e1" stroke="#7f7f7f" stroke-dasharray="10.62857142857143 8.502857142857144" />
<text x="39.183673469387756" y="334.16838095238097" font-size="17.005714285714287" transform="" fill="#5b9bd5" text-anchor="middle" font-family="arial">v</text>
</g>
<text x="39.183673469387756" y="388.75428571428574" font-size="12.754285714285716" fill="#6868b6" text-anchor="middle" font-family="arial">128</text>
<rect x="183.4285714285714" y="24.0" width="30.367346938775515" height="88.0" rx="4" ry="4" fill="#e1e1e1" stroke="#7f7f7f" />
<circle cx="198.61224489795916" cy="37.135999999999996" r="7.44" fill="#5b9bd5" stroke="#41719c" />
<circle cx="198.61224489795916" cy="57.711999999999996" r="7.44" fill="#5b9bd5" stroke="#41719c" />
<circle cx="198.61224489795916" cy="78.288" r="7.44" fill="#5b9bd5" stroke="#41719c" />
<circle cx="198.61224489795916" cy="98.864" r="7.44" fill="#5b9bd5" stroke="#41719c" />
<text x="198.61224489795916" y="19.8" font-size="12.754285714285716" fill="#6868b6" text-anchor="middle" font-family="arial">F_Q[128]</text>
<text x="198.61224489795916" y="122.62857142857143" font-size="10.62857142857143" fill="#6868b6" text-anchor="middle" font-family="arial">128</text>
<rect x="183.4285714285714" y="156.0" width="30.367346938775515" height="88.0" rx="4" ry="4" fill="#e1e1e1" stroke="#7f7f7f" />
<circle cx="198.61224489795916" cy="169.136" r="7.44" fill="#5b9bd5" stroke="#41719c" />
<circle cx="198.61224489795916" cy="189.712" r="7.44" fill="#5b9bd5" stroke="#41719c" />
<circle cx="198.61224489795916" cy="210.28799999999998" r="7.44" fill="#5b9bd5" stroke="#41719c" />
<circle cx="198.61224489795916" cy="230.86399999999998" r="7.44" fill="#5b9bd5" stroke="#41719c" />
<text x="198.61224489795916" y="151.8" font-size="12.754285714285716" fill="#6868b6" text-anchor="middle" font-family="arial">F_K[128]</text>
<text x="198.61224489795916" y="254.62857142857143" font-size="10.62857142857143" fill="#6868b6" text-anchor="middle" font-family="arial">128</text>
<rect x="183.4285714285714" y="288.0" width="30.367346938775515" height="88.0" rx="4" ry="4" fill="#e1e1e1" stroke="#7f7f7f" />
<circle cx="198.61224489795916" cy="301.136" r="7.44" fill="#5b9bd5" stroke="#41719c" />
<circle cx="198.61224489795916" cy="321.71200000000005" r="7.44" fill="#5b9bd5" stroke="#41719c" />
<circle cx="198.61224489795916" cy="342.28800000000007" r="7.44" fill="#5b9bd5" stroke="#41719c" />
<circle cx="198.61224489795916" cy="362.8640000000001" r="7.44" fill="#5b9bd5" stroke="#41719c" />
<text x="198.61224489795916" y="283.8" font-size="12.754285714285716" fill="#6868b6" text-anchor="middle" font-family="arial">F_V[128]</text>
<text x="198.61224489795916" y="386.62857142857143" font-size="10.62857142857143" fill="#6868b6" text-anchor="middle" font-family="arial">128</text>
<path d="M219.11020408163262,326.6857142857143L352.3469387755102,326.6857142857143L352.3469387755102,322.43428571428575L362.9755102040816,332.0L352.3469387755102,341.5657142857143L352.3469387755102,337.31428571428575L219.11020408163262,337.31428571428575Z" fill="#ddd" stroke="none" />
<g>
<rect x="244.1632653061224" y="24.0" width="30.367346938775515" height="220.0" fill="#e1e1e1" stroke="#7f7f7f" />
<text x="264.4486530612245" y="134.0" font-size="17.005714285714287" transform="rotate(-90, 264.4486530612245, 134.0)" fill="#5b9bd5" text-anchor="middle" font-family="arial">matmul</text>
</g>
<path d="M219.11020408163262,62.68571428571428L230.87755102040813,62.68571428571428L230.87755102040813,58.43428571428571L241.50612244897957,68.0L230.87755102040813,77.56571428571428L230.87755102040813,73.3142857142857L219.11020408163262,73.3142857142857Z" fill="#ddd" stroke="none" />
<path d="M219.11020408163262,194.68571428571428L230.87755102040813,194.68571428571428L230.87755102040813,190.43428571428572L241.50612244897957,200.0L230.87755102040813,209.5657142857143L230.87755102040813,205.31428571428575L219.11020408163262,205.31428571428575Z" fill="#ddd" stroke="none" />
<g>
<rect x="304.89795918367344" y="24.0" width="30.367346938775515" height="220.0" fill="#e1e1e1" stroke="#7f7f7f" />
<text x="325.1833469387755" y="134.0" font-size="17.005714285714287" transform="rotate(-90, 325.1833469387755, 134.0)" fill="#5b9bd5" text-anchor="middle" font-family="arial">softmax</text>
</g>
<path d="M279.8448979591836,136.0190476190476L291.61224489795916,136.0190476190476L291.61224489795916,131.76761904761904L302.2408163265306,141.33333333333331L291.61224489795916,150.89904761904762L291.61224489795916,146.64761904761906L279.8448979591836,146.64761904761906Z" fill="#ddd" stroke="none" />
<path d="M340.5795918367346,136.0190476190476L352.3469387755102,136.0190476190476L352.3469387755102,131.76761904761904L362.9755102040816,141.33333333333331L352.3469387755102,150.89904761904762L352.3469387755102,146.64761904761906L340.5795918367346,146.64761904761906Z" fill="#ddd" stroke="none" />
<g>
<rect x="365.63265306122446" y="24.0" width="30.367346938775515" height="352.0" fill="#e1e1e1" stroke="#7f7f7f" />
<text x="385.91804081632654" y="200.0" font-size="17.005714285714287" transform="rotate(-90, 385.91804081632654, 200.0)" fill="#5b9bd5" text-anchor="middle" font-family="arial">multiply</text>
</g>
<path d="M61.85606148225604,63.343859445382265L164.22117132940306,60.78931951408347L164.06965396858925,54.717740403722615L179.58951580632248,68.0L164.75148209225142,82.03984640034648L164.5999647314376,75.96826728998562L62.234854884290584,78.52280722128441Z" fill="#ddd" stroke="none" />
<circle cx="118.89795918367345" cy="69.46666666666667" r="15.183673469387758" fill="#fff" stroke="#818181" />
<circle cx="111.30808255660392" cy="69.63917113649549" r="15.183673469387758" fill="#fff" stroke="#818181" />
<circle cx="118.89795918367345" cy="69.46666666666667" r="15.183673469387758" fill="#fff" stroke="#818181" />
<circle cx="126.48783581074298" cy="69.29416219683785" r="15.183673469387758" fill="#fff" stroke="#818181" />
<text x="126.48783581074298" y="73.09008056418479" font-size="15.183673469387758" fill="#000" text-anchor="middle" font-family="monospace">[t]</text>
<path d="M61.95918367346939,192.40816326530611L164.4489795918367,192.40816326530611L164.4489795918367,186.33469387755102L179.63265306122446,200.0L164.4489795918367,213.66530612244898L164.4489795918367,207.59183673469389L61.95918367346938,207.59183673469389Z" fill="#ddd" stroke="none" />
<circle cx="118.89795918367345" cy="200.0" r="15.183673469387758" fill="#fff" stroke="#818181" />
<circle cx="111.30612244897958" cy="200.0" r="15.183673469387758" fill="#fff" stroke="#818181" />
<circle cx="118.89795918367345" cy="200.0" r="15.183673469387758" fill="#fff" stroke="#818181" />
<circle cx="126.48979591836732" cy="200.0" r="15.183673469387758" fill="#fff" stroke="#818181" />
<text x="126.48979591836732" y="203.79591836734693" font-size="15.183673469387758" fill="#000" text-anchor="middle" font-family="monospace">[t]</text>
<path d="M62.234854884290584,321.47719277871556L164.5999647314376,324.03173271001435L164.75148209225142,317.9601535996535L179.58951580632248,332.0L164.06965396858925,345.28225959627736L164.22117132940306,339.2106804859165L61.85606148225604,336.6561405546177Z" fill="#ddd" stroke="none" />
<circle cx="118.89795918367345" cy="330.5333333333333" r="15.183673469387758" fill="#fff" stroke="#818181" />
<circle cx="111.30808255660392" cy="330.36082886350454" r="15.183673469387758" fill="#fff" stroke="#818181" />
<circle cx="118.89795918367345" cy="330.5333333333333" r="15.183673469387758" fill="#fff" stroke="#818181" />
<circle cx="126.48783581074298" cy="330.7058378031621" r="15.183673469387758" fill="#fff" stroke="#818181" />
<text x="126.48783581074298" y="334.50175617050905" font-size="15.183673469387758" fill="#000" text-anchor="middle" font-family="monospace">[t]</text>
</svg>