<?xml version="1.0" encoding="UTF-8"?>
<svg xmlns="http://www.w3.org/2000/svg" xmlns:xlink="http://www.w3.org/1999/xlink"
     width="300" height="150" viewBox="0 0 300 150">
<defs>
</defs>
<g>
<rect x="15.0" y="60.0" width="17.142857142857142" height="30" fill="#e1e1e1" stroke="#7f7f7f" stroke-dasharray="5.999999999999999 4.8" />
<text x="23.57142857142857" y="77.88" font-size="9.6" transform="" fill="#5b9bd5" text-anchor="middle" font-family="arial">t</text>
</g>
<text x="23.57142857142857" y="97.2" font-size="7.199999999999998" fill="#6868b6" text-anchor="middle" font-family="arial">1</text>
<g>
<rect x="99.28571428571429" y="25.0" width="17.142857142857142" height="100.0" fill="#e1e1e1" stroke="#7f7f7f" />
<text x="110.73714285714286" y="75.0" font-size="9.6" transform="rotate(-90, 110.73714285714286, 75.0)" fill="#5b9bd5" text-anchor="middle" font-family="arial">pos enc</text>
</g>
<text x="107.85714285714286" y="132.2" font-size="7.199999999999998" fill="#6868b6" text-anchor="middle" font-family="arial">32</text>
<path d="M36.42857142857142,70.71428571428571L88.57142857142858,70.71428571428571L88.57142857142858,67.28571428571428L97.14285714285715,75.0L88.57142857142858,82.71428571428571L88.57142857142858,79.28571428571428L36.42857142857142,79.28571428571428Z" fill="#ddd" stroke="none" />
<rect x="183.57142857142858" y="15.0" width="17.142857142857142" height="120.0" rx="4" ry="4" fill="#e1e1e1" stroke="#7f7f7f" />
<circle cx="192.14285714285717" cy="22.472727272727273" r="4.199999999999999" fill="#5b9bd5" stroke="#41719c" />
<circle cx="192.14285714285717" cy="34.14545454545454" r="4.199999999999999" fill="#5b9bd5" stroke="#41719c" />
<circle cx="192.14285714285717" cy="45.81818181818181" r="4.199999999999999" fill="#5b9bd5" stroke="#41719c" />
<circle cx="192.14285714285717" cy="57.490909090909085" r="4.199999999999999" fill="#5b9bd5" stroke="#41719c" />
<circle cx="192.14285714285717" cy="69.16363636363636" r="4.199999999999999" fill="#5b9bd5" stroke="#41719c" />
<circle cx="192.14285714285717" cy="80.83636363636363" r="4.199999999999999" fill="#5b9bd5" stroke="#41719c" />
<circle cx="192.14285714285717" cy="92.5090909090909" r="4.199999999999999" fill="#5b9bd5" stroke="#41719c" />
<circle cx="192.14285714285717" cy="104.18181818181817" r="4.199999999999999" fill="#5b9bd5" stroke="#41719c" />
<circle cx="192.14285714285717" cy="115.85454545454544" r="4.199999999999999" fill="#5b9bd5" stroke="#41719c" />
<circle cx="192.14285714285717" cy="127.52727272727272" r="4.199999999999999" fill="#5b9bd5" stroke="#41719c" />
<text x="192.14285714285717" y="10.8" font-size="7.199999999999998" fill="#6868b6" text-anchor="middle" font-family="arial">F2[64]</text>
<text x="192.14285714285717" y="142.2" font-size="7.199999999999998" fill="#6868b6" text-anchor="middle" font-family="arial">64</text>
<path d="M120.71428571428572,70.71428571428571L172.8571428571429,70.71428571428571L172.8571428571429,67.28571428571428L181.42857142857144,75.0L172.8571428571429,82.71428571428571L172.8571428571429,79.28571428571428L120.71428571428574,79.28571428571428Z" fill="#ddd" stroke="none" />
<rect x="267.8571428571429" y="60.0" width="17.142857142857142" height="30" rx="4" ry="4" fill="#e1e1e1" stroke="#7f7f7f" />
<circle cx="276.42857142857144" cy="75.0" r="4.199999999999999" fill="#5b9bd5" stroke="#41719c" />
<text x="276.42857142857144" y="55.8" font-size="7.199999999999998" fill="#6868b6" text-anchor="middle" font-family="arial">F3[1]</text>
<text x="276.42857142857144" y="97.2" font-size="7.199999999999998" fill="#6868b6" text-anchor="middle" font-family="arial">1</text>
<path d="M205.0,70.71428571428571L257.14285714285717,70.71428571428571L257.14285714285717,67.28571428571428L265.7142857142857,75.0L257.14285714285717,82.71428571428571L257.14285714285717,79.28571428571428L205.0,79.28571428571428Z" fill="#ddd" stroke="none" />
<circle cx="234.2857142857143" cy="75.0" r="8.571428571428571" fill="#fff" stroke="#818181" />
<path d="M228.2857142857143,75.0H234.2857142857143L238.5283549728336,70.75735931288071" stroke="#000" strokewidth="1" fill="none" />
</svg>