<?xml version="1.0" encoding="UTF-8"?>
<svg xmlns="http://www.w3.org/2000/svg" xmlns:xlink="http://www.w3.org/1999/xlink"
     width="300" height="150" viewBox="0 0 300 150">
<defs>
</defs>
<g>
<rect x="15.0" y="60.0" width="17.142857142857142" height="30" fill="#e1e1e1" stroke="#7f7f7f" stroke-dasharray="5.999999999999999 4.8" />
<text x="23.57142857142857" y="77.88" font-size="9.6" transform="" fill="#5b9bd5" text-anchor="middle" font-family="arial">t</text>
</g>
<text x="23.57142857142857" y="97.2" font-size="7.199999999999998" fill="#6868b6" text-anchor="middle" font-family="arial">1</text>
<rect x="78.21428571428571" y="15.0" width="17.142857142857142" height="120.0" rx="4" ry="4" fill="#e1e1e1" stroke="#7f7f7f" />
<circle cx="86.78571428571428" cy="22.472727272727273" r="4.199999999999999" fill="#5b9bd5" stroke="#41719c" />
<circle cx="86.78571428571428" cy="34.14545454545454" r="4.199999999999999" fill="#5b9bd5" stroke="#41719c" />
<circle cx="86.78571428571428" cy="45.81818181818181" r="4.199999999999999" fill="#5b9bd5" stroke="#41719c" />
<circle cx="86.78571428571428" cy="57.490909090909085" r="4.199999999999999" fill="#5b9bd5" stroke="#41719c" />
<circle cx="86.78571428571428" cy="69.16363636363636" r="4.199999999999999" fill="#5b9bd5" stroke="#41719c" />
<circle cx="86.78571428571428" cy="80.83636363636363" r="4.199999999999999" fill="#5b9bd5" stroke="#41719c" />
<circle cx="86.78571428571428" cy="92.5090909090909" r="4.199999999999999" fill="#5b9bd5" stroke="#41719c" />
<circle cx="86.78571428571428" cy="104.18181818181817" r="4.199999999999999" fill="#5b9bd5" stroke="#41719c" />
<circle cx="86.78571428571428" cy="115.85454545454544" r="4.199999999999999" fill="#5b9bd5" stroke="#41719c" />
<circle cx="86.78571428571428" cy="127.52727272727272" r="4.199999999999999" fill="#5b9bd5" stroke="#41719c" />
<text x="86.78571428571428" y="10.8" font-size="7.199999999999998" fill="#6868b6" text-anchor="middle" font-family="arial">F1[64]</text>
<text x="86.78571428571428" y="142.2" font-size="7.199999999999998" fill="#6868b6" text-anchor="middle" font-family="arial">64</text>
<path d="M36.42857142857142,70.71428571428571L67.5,70.71428571428571L67.5,67.28571428571428L76.07142857142857,75.0L67.5,82.71428571428571L67.5,79.28571428571428L36.42857142857142,79.28571428571428Z" fill="#ddd" stroke="none" />
<rect x="141.42857142857142" y="15.0" width="17.142857142857142" height="120.0" rx="4" ry="4" fill="#e1e1e1" stroke="#7f7f7f" />
<circle cx="150.0" cy="22.472727272727273" r="4.199999999999999" fill="#5b9bd5" stroke="#41719c" />
<circle cx="150.0" cy="34.14545454545454" r="4.199999999999999" fill="#5b9bd5" stroke="#41719c" />
<circle cx="150.0" cy="45.81818181818181" r="4.199999999999999" fill="#5b9bd5" stroke="#41719c" />
<circle cx="150.0" cy="57.490909090909085" r="4.199999999999999" fill="#5b9bd5" stroke="#41719c" />
<circle cx="150.0" cy="69.16363636363636" r="4.199999999999999" fill="#5b9bd5" stroke="#41719c" />
<circle cx="150.0" cy="80.83636363636363" r="4.199999999999999" fill="#5b9bd5" stroke="#41719c" />
<circle cx="150.0" cy="92.5090909090909" r="4.199999999999999" fill="#5b9bd5" stroke="#41719c" />
<circle cx="150.0" cy="104.18181818181817" r="4.199999999999999" fill="#5b9bd5" stroke="#41719c" />
<circle cx="150.0" cy="115.85454545454544" r="4.199999999999999" fill="#5b9bd5" stroke="#41719c" />
<circle cx="150.0" cy="127.52727272727272" r="4.199999999999999" fill="#5b9bd5" stroke="#41719c" />
<text x="150.0" y="10.8" font-size="7.199999999999998" fill="#6868b6" text-anchor="middle" font-family="arial">F2[64]</text>
<text x="150.0" y="142.2" font-size="7.199999999999998" fill="#6868b6" text-anchor="middle" font-family="arial">64</text>
<path d="M99.64285714285714,70.71428571428571L130.71428571428572,70.71428571428571L130.71428571428572,67.28571428571428L139.28571428571428,75.0L130.71428571428572,82.71428571428571L130.71428571428572,79.28571428571428L99.64285714285715,79.28571428571428Z" fill="#ddd" stroke="none" />
<circle cx="118.39285714285714" cy="75.0" r="8.571428571428571" fill="#fff" stroke="#818181" />
<path d="M112.39285714285714,75.0H118.39285714285714L122.63549782997643,70.75735931288071" stroke="#000" strokewidth="1" fill="none" />
<rect x="204.6428571428571" y="15.0" width="17.142857142857142" height="120.0" rx="4" ry="4" fill="#e1e1e1" stroke="#7f7f7f" />
<circle cx="213.2142857142857" cy="22.472727272727273" r="4.199999999999999" fill="#5b9bd5" stroke="#41719c" />
<circle cx="213.2142857142857" cy="34.14545454545454" r="4.199999999999999" fill="#5b9bd5" stroke="#41719c" />
<circle cx="213.2142857142857" cy="45.81818181818181" r="4.199999999999999" fill="#5b9bd5" stroke="#41719c" />
<circle cx="213.2142857142857" cy="57.490909090909085" r="4.199999999999999" fill="#5b9bd5" stroke="#41719c" />
<circle cx="213.2142857142857" cy="69.16363636363636" r="4.199999999999999" fill="#5b9bd5" stroke="#41719c" />
<circle cx="213.2142857142857" cy="80.83636363636363" r="4.199999999999999" fill="#5b9bd5" stroke="#41719c" />
<circle cx="213.2142857142857" cy="92.5090909090909" r="4.199999999999999" fill="#5b9bd5" stroke="#41719c" />
<circle cx="213.2142857142857" cy="104.18181818181817" r="4.199999999999999" fill="#5b9bd5" stroke="#41719c" />
<circle cx="213.2142857142857" cy="115.85454545454544" r="4.199999999999999" fill="#5b9bd5" stroke="#41719c" />
<circle cx="213.2142857142857" cy="127.52727272727272" r="4.199999999999999" fill="#5b9bd5" stroke="#41719c" />
<text x="213.2142857142857" y="10.8" font-size="7.199999999999998" fill="#6868b6" text-anchor="middle" font-family="arial">F3[64]</text>
<text x="213.2142857142857" y="142.2" font-size="7.199999999999998" fill="#6868b6" text-anchor="middle" font-family="arial">64</text>
<path d="M162.85714285714283,70.71428571428571L193.9285714285714,70.71428571428571L193.9285714285714,67.28571428571428L202.49999999999997,75.0L193.9285714285714,82.71428571428571L193.9285714285714,79.28571428571428L162.85714285714283,79.28571428571428Z" fill="#ddd" stroke="none" />
<circle cx="181.60714285714283" cy="75.0" r="8.571428571428571" fill="#fff" stroke="#818181" />
<path d="M175.60714285714283,75.0H181.60714285714283L185.84978354426212,70.75735931288071" stroke="#000" strokewidth="1" fill="none" />
<rect x="267.85714285714283" y="60.0" width="17.142857142857142" height="30" rx="4" ry="4" fill="#e1e1e1" stroke="#7f7f7f" />
<circle cx="276.4285714285714" cy="75.0" r="4.199999999999999" fill="#5b9bd5" stroke="#41719c" />
<text x="276.4285714285714" y="55.8" font-size="7.199999999999998" fill="#6868b6" text-anchor="middle" font-family="arial">F4[1]</text>
<text x="276.4285714285714" y="97.2" font-size="7.199999999999998" fill="#6868b6" text-anchor="middle" font-family="arial">1</text>
<path d="M226.07142857142853,70.71428571428571L257.1428571428571,70.71428571428571L257.1428571428571,67.28571428571428L265.71428571428567,75.0L257.1428571428571,82.71428571428571L257.1428571428571,79.28571428571428L226.07142857142856,79.28571428571428Z" fill="#ddd" stroke="none" />
<circle cx="244.82142857142856" cy="75.0" r="8.571428571428571" fill="#fff" stroke="#818181" />
<path d="M238.82142857142856,75.0H244.82142857142856L249.06406925854785,70.75735931288071" stroke="#000" strokewidth="1" fill="none" />
</svg>