<?xml version="1.0" encoding="UTF-8"?>
<svg xmlns="http://www.w3.org/2000/svg" xmlns:xlink="http://www.w3.org/1999/xlink"
     width="800" height="380" viewBox="0 0 420 200">
<defs>
<linearGradient x1="0" y1="1" x2="1" y2="0" gradientUnits="objectBoundingBox" id="d0">
<stop offset="0" stop-color="#fff" stop-opacity="0" />
<stop offset="0.49" stop-color="#fff" stop-opacity="0" />
<stop offset="0.51" stop-color="#fff" stop-opacity="1" />
<stop offset="1" stop-color="#fff" stop-opacity="1" />
</linearGradient>
<mask id="d1">
<rect x="178.46280991735537" y="37.083305785123954" width="10.512396694214877" height="46.35966942148761" fill="url(#d0)" />
</mask>
</defs>
<g>
<rect x="7.636363636363636" y="62.49999999999999" width="10.512396694214878" height="30.0" fill="#e1e1e1" stroke="#7f7f7f" stroke-dasharray="3.679338842975207 2.9434710743801658" />
<text x="12.892561983471076" y="79.2660826446281" font-size="5.8869421487603315" transform="" fill="#5b9bd5" text-anchor="middle" font-family="arial">y</text>
</g>
<text x="12.892561983471076" y="96.91520661157026" font-size="4.415206611570248" fill="#6868b6" text-anchor="middle" font-family="arial">1</text>
<g>
<rect x="7.636363636363636" y="107.5" width="10.512396694214878" height="30.0" fill="#e1e1e1" stroke="#7f7f7f" stroke-dasharray="3.679338842975207 2.9434710743801658" />
<text x="12.892561983471076" y="124.2660826446281" font-size="5.8869421487603315" transform="" fill="#5b9bd5" text-anchor="middle" font-family="arial">x</text>
</g>
<text x="12.892561983471076" y="141.91520661157026" font-size="4.415206611570248" fill="#6868b6" text-anchor="middle" font-family="arial">16</text>
<g>
<rect x="62.82644628099172" y="27.14909090909089" width="10.512396694214877" height="46.35966942148761" fill="#e1e1e1" stroke="#7f7f7f" />
<text x="69.84872727272726" y="50.32892561983469" font-size="5.886942148760331" transform="rotate(-90, 69.84872727272726, 50.32892561983469)" fill="#5b9bd5" text-anchor="middle" font-family="arial">embed</text>
</g>
<text x="68.08264462809916" y="77.92396694214874" font-size="4.415206611570247" fill="#6868b6" text-anchor="middle" font-family="arial">36</text>
<path d="M75.54644628099173,48.12132231404957L78.33223140495868,48.12132231404957L78.33223140495868,46.35523966942147L82.74743801652892,50.32892561983469L78.33223140495868,54.30261157024792L78.33223140495868,52.53652892561982L75.54644628099173,52.53652892561982Z" fill="#ddd" stroke="none" />
<rect x="83.85123966942147" y="27.14909090909089" width="10.512396694214877" height="46.35966942148761" rx="4" ry="4" fill="#e1e1e1" stroke="#7f7f7f" />
<circle cx="89.10743801652892" cy="31.93223140495866" r="2.5755371900826445" fill="#5b9bd5" stroke="#41719c" />
<circle cx="89.10743801652892" cy="39.290909090909075" r="2.5755371900826445" fill="#5b9bd5" stroke="#41719c" />
<circle cx="89.10743801652892" cy="46.649586776859486" r="2.5755371900826445" fill="#5b9bd5" stroke="#41719c" />
<circle cx="89.10743801652892" cy="54.0082644628099" r="2.5755371900826445" fill="#5b9bd5" stroke="#41719c" />
<circle cx="89.10743801652892" cy="61.36694214876031" r="2.5755371900826445" fill="#5b9bd5" stroke="#41719c" />
<circle cx="89.10743801652892" cy="68.72561983471073" r="2.5755371900826445" fill="#5b9bd5" stroke="#41719c" />
<text x="89.10743801652892" y="77.92396694214874" font-size="4.415206611570247" fill="#6868b6" text-anchor="middle" font-family="arial">128</text>
<rect x="62.82644628099172" y="126.4912396694215" width="10.512396694214877" height="46.35966942148761" rx="4" ry="4" fill="#e1e1e1" stroke="#7f7f7f" />
<circle cx="68.08264462809916" cy="131.27438016528927" r="2.5755371900826445" fill="#5b9bd5" stroke="#41719c" />
<circle cx="68.08264462809916" cy="138.6330578512397" r="2.5755371900826445" fill="#5b9bd5" stroke="#41719c" />
<circle cx="68.08264462809916" cy="145.99173553719012" r="2.5755371900826445" fill="#5b9bd5" stroke="#41719c" />
<circle cx="68.08264462809916" cy="153.35041322314055" r="2.5755371900826445" fill="#5b9bd5" stroke="#41719c" />
<circle cx="68.08264462809916" cy="160.70909090909097" r="2.5755371900826445" fill="#5b9bd5" stroke="#41719c" />
<circle cx="68.08264462809916" cy="168.0677685950414" r="2.5755371900826445" fill="#5b9bd5" stroke="#41719c" />
<text x="68.08264462809916" y="177.26611570247937" font-size="4.415206611570247" fill="#6868b6" text-anchor="middle" font-family="arial">128</text>
<rect x="142.5104132231405" y="11.3279338842975" width="219.07834710743802" height="78.0019834710744" fill="white" stroke="#5b9bd5" stroke-dasharray="3.6793388429752065 2.9434710743801653" />
<text x="241.53719008264466" y="21.63008264462808" font-size="7.358677685950413" fill="#5b9bd5" font-family="arial" text-anchor="middle">x 6</text>
<g>
<rect x="146.92561983471074" y="17.21487603305783" width="10.512396694214877" height="66.22809917355373" fill="#e1e1e1" stroke="#7f7f7f" />
<text x="153.94790082644627" y="50.32892561983469" font-size="5.886942148760331" transform="rotate(-90, 153.94790082644627, 50.32892561983469)" fill="#5b9bd5" text-anchor="middle" font-family="arial">Positional Encoding</text>
</g>
<g>
<rect x="171.10413223140495" y="44.99388429752065" width="7.358677685950413" height="7.358677685950413" fill="#e1e1e1" stroke="#7f7f7f" />
<text x="174.78347107438015" y="49.90948099173553" font-size="4.120859504132231" transform="" fill="#5b9bd5" text-anchor="middle" font-family="arial">Q</text>
</g>
<g>
<rect x="171.10413223140495" y="56.583801652892554" width="7.358677685950413" height="7.358677685950413" fill="#e1e1e1" stroke="#7f7f7f" />
<text x="174.78347107438015" y="61.49939834710743" font-size="4.120859504132231" transform="" fill="#5b9bd5" text-anchor="middle" font-family="arial">K</text>
</g>
<g>
<rect x="171.10413223140495" y="68.17371900826446" width="7.358677685950413" height="7.358677685950413" fill="#e1e1e1" stroke="#7f7f7f" />
<text x="174.78347107438015" y="73.08931570247934" font-size="4.120859504132231" transform="" fill="#5b9bd5" text-anchor="middle" font-family="arial">V</text>
</g>
<g>
<rect x="178.46280991735537" y="37.083305785123954" width="10.512396694214877" height="46.35966942148761" fill="#e1e1e1" stroke="#7f7f7f" />
<text x="185.4850909090909" y="60.26314049586776" font-size="5.886942148760331" transform="rotate(-90, 185.4850909090909, 60.26314049586776)" fill="#5b9bd5" text-anchor="middle" font-family="arial">MaskMHSA x4</text>
</g>
<g mask="url(#d1)">
<rect x="178.46280991735537" y="37.083305785123954" width="10.512396694214877" height="46.35966942148761" fill="#5b9bd5" stroke="#7f7f7f" />
<text x="185.4850909090909" y="60.26314049586776" font-size="5.886942148760331" transform="rotate(-90, 185.4850909090909, 60.26314049586776)" fill="#fff" text-anchor="middle" font-family="arial">MaskMHSA x4</text>
</g>
<path d="M159.27768595041323,46.83355371900825L166.50495867768595,46.83355371900825L166.50495867768595,45.361818181818165L170.18429752066115,48.67322314049586L166.50495867768595,51.984628099173534L166.50495867768595,50.51289256198345L159.27768595041323,50.51289256198345Z" fill="#ddd" stroke="none" />
<path d="M159.27768595041323,58.42347107438015L166.50495867768595,58.42347107438015L166.50495867768595,56.95173553719007L170.18429752066115,60.26314049586776L166.50495867768595,63.574545454545444L166.50495867768595,62.10280991735536L159.27768595041323,62.10280991735536Z" fill="#ddd" stroke="none" />
<path d="M159.27768595041323,70.01338842975207L166.50495867768595,70.01338842975207L166.50495867768595,68.54165289256198L170.18429752066115,71.85305785123967L166.50495867768595,75.16446280991735L166.50495867768595,73.69272727272727L159.27768595041323,73.69272727272727Z" fill="#ddd" stroke="none" />
<path d="M159.27768595041323,25.309421487603284L194.88842975206614,25.309421487603284L194.88842975206614,23.837685950413203L198.56776859504134,27.149090909090887L194.88842975206614,30.460495867768575L194.88842975206614,28.988760330578494L159.27768595041323,28.988760330578494Z" fill="#ddd" stroke="none" />
<path d="M190.81487603305786,58.42347107438015L194.88842975206614,58.42347107438015L194.88842975206614,56.95173553719007L198.56776859504134,60.26314049586776L194.88842975206614,63.574545454545444L194.88842975206614,62.10280991735536L190.81487603305786,62.10280991735536Z" fill="#ddd" stroke="none" />
<g>
<rect x="199.48760330578514" y="17.21487603305783" width="7.884297520661157" height="66.22809917355373" fill="#e1e1e1" stroke="#7f7f7f" />
<text x="204.7543140495868" y="50.32892561983469" font-size="4.415206611570247" transform="rotate(-90, 204.7543140495868, 50.32892561983469)" fill="#5b9bd5" text-anchor="middle" font-family="arial">add</text>
</g>
<g>
<rect x="207.3719008264463" y="17.21487603305783" width="7.884297520661157" height="66.22809917355373" fill="#e1e1e1" stroke="#7f7f7f" />
<text x="212.63861157024797" y="50.32892561983469" font-size="4.415206611570247" transform="rotate(-90, 212.63861157024797, 50.32892561983469)" fill="#5b9bd5" text-anchor="middle" font-family="arial">LN</text>
</g>
<g>
<rect x="234.17851239669423" y="44.99388429752065" width="7.358677685950413" height="7.358677685950413" fill="#e1e1e1" stroke="#7f7f7f" />
<text x="237.85785123966943" y="49.90948099173553" font-size="4.120859504132231" transform="" fill="#5b9bd5" text-anchor="middle" font-family="arial">Q</text>
</g>
<g>
<rect x="234.17851239669423" y="56.583801652892554" width="7.358677685950413" height="7.358677685950413" fill="#e1e1e1" stroke="#7f7f7f" />
<text x="237.85785123966943" y="61.49939834710743" font-size="4.120859504132231" transform="" fill="#5b9bd5" text-anchor="middle" font-family="arial">K</text>
</g>
<g>
<rect x="234.17851239669423" y="68.17371900826446" width="7.358677685950413" height="7.358677685950413" fill="#e1e1e1" stroke="#7f7f7f" />
<text x="237.85785123966943" y="73.08931570247934" font-size="4.120859504132231" transform="" fill="#5b9bd5" text-anchor="middle" font-family="arial">V</text>
</g>
<g>
<rect x="241.53719008264466" y="37.083305785123954" width="10.512396694214877" height="46.35966942148761" fill="#e1e1e1" stroke="#7f7f7f" />
<text x="248.55947107438018" y="60.26314049586776" font-size="5.886942148760331" transform="rotate(-90, 248.55947107438018, 60.26314049586776)" fill="#5b9bd5" text-anchor="middle" font-family="arial">MHSA x4</text>
</g>
<path d="M217.09586776859507,25.309421487603284L257.9628099173554,25.309421487603284L257.9628099173554,23.837685950413203L261.6421487603306,27.149090909090887L257.9628099173554,30.460495867768575L257.9628099173554,28.988760330578494L217.09586776859507,28.988760330578494Z" fill="#ddd" stroke="none" />
<path d="M253.88925619834714,58.42347107438015L257.9628099173554,58.42347107438015L257.9628099173554,56.95173553719007L261.6421487603306,60.26314049586776L257.9628099173554,63.574545454545444L257.9628099173554,62.10280991735536L253.88925619834714,62.10280991735536Z" fill="#ddd" stroke="none" />
<path d="M217.09586776859507,46.83355371900825L229.57933884297523,46.83355371900825L229.57933884297523,45.361818181818165L233.25867768595043,48.67322314049586L229.57933884297523,51.984628099173534L229.57933884297523,50.51289256198345L217.09586776859507,50.51289256198345Z" fill="#ddd" stroke="none" />
<g>
<rect x="223.14049586776864" y="56.583801652892554" width="7.884297520661157" height="18.94859504132232" fill="#e1e1e1" stroke="#7f7f7f" stroke-dasharray="2.7595041322314047 2.2076033057851236" />
<text x="228.4072066115703" y="66.05809917355371" font-size="4.415206611570247" transform="rotate(-90, 228.4072066115703, 66.05809917355371)" fill="#5b9bd5" text-anchor="middle" font-family="arial">copy</text>
</g>
<g>
<rect x="262.5619834710744" y="17.21487603305783" width="7.884297520661157" height="66.22809917355373" fill="#e1e1e1" stroke="#7f7f7f" />
<text x="267.82869421487607" y="50.32892561983469" font-size="4.415206611570247" transform="rotate(-90, 267.82869421487607, 50.32892561983469)" fill="#5b9bd5" text-anchor="middle" font-family="arial">add</text>
</g>
<g>
<rect x="270.4462809917356" y="17.21487603305783" width="7.884297520661157" height="66.22809917355373" fill="#e1e1e1" stroke="#7f7f7f" />
<text x="275.71299173553723" y="50.32892561983469" font-size="4.415206611570247" transform="rotate(-90, 275.71299173553723, 50.32892561983469)" fill="#5b9bd5" text-anchor="middle" font-family="arial">LN</text>
</g>
<path d="M280.17024793388435,58.42347107438015L284.2438016528926,58.42347107438015L284.2438016528926,56.95173553719007L287.9231404958678,60.26314049586776L284.2438016528926,63.574545454545444L284.2438016528926,62.10280991735536L280.17024793388435,62.10280991735536Z" fill="#ddd" stroke="none" />
<path d="M332.7322314049587,58.42347107438015L336.805785123967,58.42347107438015L336.805785123967,56.95173553719007L340.4851239669422,60.26314049586776L336.805785123967,63.574545454545444L336.805785123967,62.10280991735536L332.7322314049587,62.10280991735536Z" fill="#ddd" stroke="none" />
<rect x="288.84297520661164" y="37.083305785123954" width="10.512396694214877" height="46.35966942148761" rx="4" ry="4" fill="#e1e1e1" stroke="#7f7f7f" />
<text x="294.0991735537191" y="87.8581818181818" font-size="4.415206611570247" fill="#6868b6" text-anchor="middle" font-family="arial">128</text>
<rect x="320.3801652892563" y="37.083305785123954" width="10.512396694214877" height="46.35966942148761" rx="4" ry="4" fill="#e1e1e1" stroke="#7f7f7f" />
<text x="325.63636363636374" y="87.8581818181818" font-size="4.415206611570247" fill="#6868b6" text-anchor="middle" font-family="arial">128</text>
<path d="M302.2462809917356,58.42347107438015L315.78099173553727,58.42347107438015L315.78099173553727,56.95173553719007L319.46033057851247,60.26314049586776L315.78099173553727,63.574545454545444L315.78099173553727,62.10280991735536L302.2462809917356,62.10280991735536Z" fill="#ddd" stroke="none" />
<circle cx="310.3933884297521" cy="60.26314049586776" r="3.6793388429752065" fill="#fff" stroke="#818181" />
<path d="M307.8178512396695,60.26314049586776H309.28958677685955Q310.0031356128295,60.653393312790385,310.3933884297521,60.26314049586776L312.2145682420577,58.44196068356217" stroke="#000" strokewidth="1" fill="none" />
<circle cx="294.0991735537191" cy="41.866446280991724" r="2.5755371900826445" fill="#5b9bd5" stroke="#41719c" />
<circle cx="325.63636363636374" cy="41.866446280991724" r="2.5755371900826445" fill="#5b9bd5" stroke="#41719c" />
<circle cx="294.0991735537191" cy="49.225123966942135" r="2.5755371900826445" fill="#5b9bd5" stroke="#41719c" />
<circle cx="325.63636363636374" cy="49.225123966942135" r="2.5755371900826445" fill="#5b9bd5" stroke="#41719c" />
<circle cx="294.0991735537191" cy="56.58380165289255" r="2.5755371900826445" fill="#5b9bd5" stroke="#41719c" />
<circle cx="325.63636363636374" cy="56.58380165289255" r="2.5755371900826445" fill="#5b9bd5" stroke="#41719c" />
<circle cx="294.0991735537191" cy="63.94247933884296" r="2.5755371900826445" fill="#5b9bd5" stroke="#41719c" />
<circle cx="325.63636363636374" cy="63.94247933884296" r="2.5755371900826445" fill="#5b9bd5" stroke="#41719c" />
<circle cx="294.0991735537191" cy="71.30115702479337" r="2.5755371900826445" fill="#5b9bd5" stroke="#41719c" />
<circle cx="325.63636363636374" cy="71.30115702479337" r="2.5755371900826445" fill="#5b9bd5" stroke="#41719c" />
<circle cx="294.0991735537191" cy="78.65983471074378" r="2.5755371900826445" fill="#5b9bd5" stroke="#41719c" />
<circle cx="325.63636363636374" cy="78.65983471074378" r="2.5755371900826445" fill="#5b9bd5" stroke="#41719c" />
<path d="M280.17024793388435,25.309421487603284L336.805785123967,25.309421487603284L336.805785123967,23.837685950413203L340.4851239669422,27.149090909090887L336.805785123967,30.460495867768575L336.805785123967,28.988760330578494L280.17024793388435,28.988760330578494Z" fill="#ddd" stroke="none" />
<g>
<rect x="341.404958677686" y="17.21487603305783" width="7.884297520661157" height="66.22809917355373" fill="#e1e1e1" stroke="#7f7f7f" />
<text x="346.67166942148765" y="50.32892561983469" font-size="4.415206611570247" transform="rotate(-90, 346.67166942148765, 50.32892561983469)" fill="#5b9bd5" text-anchor="middle" font-family="arial">add</text>
</g>
<g>
<rect x="349.2892561983472" y="17.21487603305783" width="7.884297520661157" height="66.22809917355373" fill="#e1e1e1" stroke="#7f7f7f" />
<text x="354.5559669421488" y="50.32892561983469" font-size="4.415206611570247" transform="rotate(-90, 354.5559669421488, 50.32892561983469)" fill="#5b9bd5" text-anchor="middle" font-family="arial">LN</text>
</g>
<path d="M96.57123966942149,48.12132231404957L141.40661157024792,48.12132231404957L141.40661157024792,46.35523966942147L145.82181818181817,50.32892561983469L141.40661157024792,54.30261157024792L141.40661157024792,52.53652892561982L96.57123966942149,52.53652892561982Z" fill="#ddd" stroke="none" />
<rect x="79.43603305785123" y="110.67008264462811" width="156.00396694214874" height="78.0019834710744" fill="white" stroke="#5b9bd5" stroke-dasharray="3.679338842975206 2.943471074380165" />
<text x="179.51404958677685" y="120.97223140495868" font-size="7.358677685950412" fill="#5b9bd5" font-family="arial" text-anchor="middle">x 6</text>
<g>
<rect x="83.85123966942147" y="116.55702479338844" width="10.512396694214875" height="66.22809917355373" fill="#e1e1e1" stroke="#7f7f7f" />
<text x="90.87352066115702" y="149.6710743801653" font-size="5.88694214876033" transform="rotate(-90, 90.87352066115702, 149.6710743801653)" fill="#5b9bd5" text-anchor="middle" font-family="arial">Positional Encoding</text>
</g>
<g>
<rect x="108.02975206611569" y="144.33603305785127" width="7.358677685950412" height="7.358677685950412" fill="#e1e1e1" stroke="#7f7f7f" />
<text x="111.7090909090909" y="149.25162975206612" font-size="4.1208595041322305" transform="" fill="#5b9bd5" text-anchor="middle" font-family="arial">Q</text>
</g>
<g>
<rect x="108.02975206611569" y="155.92595041322318" width="7.358677685950412" height="7.358677685950412" fill="#e1e1e1" stroke="#7f7f7f" />
<text x="111.7090909090909" y="160.84154710743803" font-size="4.1208595041322305" transform="" fill="#5b9bd5" text-anchor="middle" font-family="arial">K</text>
</g>
<g>
<rect x="108.02975206611569" y="167.51586776859506" width="7.358677685950412" height="7.358677685950412" fill="#e1e1e1" stroke="#7f7f7f" />
<text x="111.7090909090909" y="172.4314644628099" font-size="4.1208595041322305" transform="" fill="#5b9bd5" text-anchor="middle" font-family="arial">V</text>
</g>
<g>
<rect x="115.3884297520661" y="136.42545454545456" width="10.512396694214875" height="46.35966942148761" fill="#e1e1e1" stroke="#7f7f7f" />
<text x="122.41071074380164" y="159.60528925619838" font-size="5.88694214876033" transform="rotate(-90, 122.41071074380164, 159.60528925619838)" fill="#5b9bd5" text-anchor="middle" font-family="arial">MHSA x4</text>
</g>
<path d="M96.20330578512394,146.17570247933887L103.43057851239669,146.17570247933887L103.43057851239669,144.70396694214878L107.10991735537189,148.01537190082647L103.43057851239669,151.32677685950415L103.43057851239669,149.85504132231407L96.20330578512394,149.85504132231407Z" fill="#ddd" stroke="none" />
<path d="M96.20330578512394,157.76561983471078L103.43057851239669,157.76561983471078L103.43057851239669,156.2938842975207L107.10991735537189,159.60528925619838L103.43057851239669,162.91669421487606L103.43057851239669,161.44495867768597L96.20330578512394,161.44495867768597Z" fill="#ddd" stroke="none" />
<path d="M96.20330578512394,169.35553719008266L103.43057851239669,169.35553719008266L103.43057851239669,167.88380165289257L107.10991735537189,171.19520661157026L103.43057851239669,174.50661157024794L103.43057851239669,173.03487603305786L96.20330578512394,173.03487603305786Z" fill="#ddd" stroke="none" />
<path d="M96.20330578512394,124.65157024793389L131.81404958677686,124.65157024793389L131.81404958677686,123.1798347107438L135.49338842975206,126.49123966942149L131.81404958677686,129.8026446280992L131.81404958677686,128.3309090909091L96.20330578512394,128.3309090909091Z" fill="#ddd" stroke="none" />
<path d="M127.74049586776857,157.76561983471078L131.81404958677686,157.76561983471078L131.81404958677686,156.2938842975207L135.49338842975206,159.60528925619838L131.81404958677686,162.91669421487606L131.81404958677686,161.44495867768597L127.74049586776857,161.44495867768597Z" fill="#ddd" stroke="none" />
<g>
<rect x="136.41322314049586" y="116.55702479338844" width="7.884297520661156" height="66.22809917355373" fill="#e1e1e1" stroke="#7f7f7f" />
<text x="141.67993388429753" y="149.6710743801653" font-size="4.415206611570247" transform="rotate(-90, 141.67993388429753, 149.6710743801653)" fill="#5b9bd5" text-anchor="middle" font-family="arial">add</text>
</g>
<g>
<rect x="144.29752066115702" y="116.55702479338844" width="7.884297520661156" height="66.22809917355373" fill="#e1e1e1" stroke="#7f7f7f" />
<text x="149.5642314049587" y="149.6710743801653" font-size="4.415206611570247" transform="rotate(-90, 149.5642314049587, 149.6710743801653)" fill="#5b9bd5" text-anchor="middle" font-family="arial">LN</text>
</g>
<path d="M154.0214876033058,157.76561983471078L158.09504132231405,157.76561983471078L158.09504132231405,156.2938842975207L161.77438016528924,159.60528925619838L158.09504132231405,162.91669421487606L158.09504132231405,161.44495867768597L154.0214876033058,161.44495867768597Z" fill="#ddd" stroke="none" />
<path d="M206.58347107438016,157.76561983471078L210.65702479338842,157.76561983471078L210.65702479338842,156.2938842975207L214.33636363636361,159.60528925619838L210.65702479338842,162.91669421487606L210.65702479338842,161.44495867768597L206.58347107438016,161.44495867768597Z" fill="#ddd" stroke="none" />
<rect x="162.69421487603304" y="136.42545454545456" width="10.512396694214875" height="46.35966942148761" rx="4" ry="4" fill="#e1e1e1" stroke="#7f7f7f" />
<text x="167.9504132231405" y="187.20033057851242" font-size="4.415206611570247" fill="#6868b6" text-anchor="middle" font-family="arial">128</text>
<rect x="194.23140495867767" y="136.42545454545456" width="10.512396694214875" height="46.35966942148761" rx="4" ry="4" fill="#e1e1e1" stroke="#7f7f7f" />
<text x="199.48760330578511" y="187.20033057851242" font-size="4.415206611570247" fill="#6868b6" text-anchor="middle" font-family="arial">128</text>
<path d="M176.097520661157,157.76561983471078L189.63223140495867,157.76561983471078L189.63223140495867,156.2938842975207L193.31157024793387,159.60528925619838L189.63223140495867,162.91669421487606L189.63223140495867,161.44495867768597L176.097520661157,161.44495867768597Z" fill="#ddd" stroke="none" />
<circle cx="184.24462809917355" cy="159.60528925619838" r="3.679338842975206" fill="#fff" stroke="#818181" />
<path d="M181.6690909090909,159.60528925619838H183.14082644628098Q183.85437528225094,159.995542073121,184.24462809917355,159.60528925619838L186.06580791147914,157.7841094438928" stroke="#000" strokewidth="1" fill="none" />
<circle cx="167.9504132231405" cy="141.20859504132233" r="2.575537190082644" fill="#5b9bd5" stroke="#41719c" />
<circle cx="199.48760330578511" cy="141.20859504132233" r="2.575537190082644" fill="#5b9bd5" stroke="#41719c" />
<circle cx="167.9504132231405" cy="148.56727272727275" r="2.575537190082644" fill="#5b9bd5" stroke="#41719c" />
<circle cx="199.48760330578511" cy="148.56727272727275" r="2.575537190082644" fill="#5b9bd5" stroke="#41719c" />
<circle cx="167.9504132231405" cy="155.92595041322318" r="2.575537190082644" fill="#5b9bd5" stroke="#41719c" />
<circle cx="199.48760330578511" cy="155.92595041322318" r="2.575537190082644" fill="#5b9bd5" stroke="#41719c" />
<circle cx="167.9504132231405" cy="163.2846280991736" r="2.575537190082644" fill="#5b9bd5" stroke="#41719c" />
<circle cx="199.48760330578511" cy="163.2846280991736" r="2.575537190082644" fill="#5b9bd5" stroke="#41719c" />
<circle cx="167.9504132231405" cy="170.64330578512403" r="2.575537190082644" fill="#5b9bd5" stroke="#41719c" />
<circle cx="199.48760330578511" cy="170.64330578512403" r="2.575537190082644" fill="#5b9bd5" stroke="#41719c" />
<circle cx="167.9504132231405" cy="178.00198347107445" r="2.575537190082644" fill="#5b9bd5" stroke="#41719c" />
<circle cx="199.48760330578511" cy="178.00198347107445" r="2.575537190082644" fill="#5b9bd5" stroke="#41719c" />
<path d="M154.0214876033058,124.65157024793389L210.65702479338842,124.65157024793389L210.65702479338842,123.1798347107438L214.33636363636361,126.49123966942149L210.65702479338842,129.8026446280992L210.65702479338842,128.3309090909091L154.0214876033058,128.3309090909091Z" fill="#ddd" stroke="none" />
<g>
<rect x="215.25619834710741" y="116.55702479338844" width="7.884297520661156" height="66.22809917355373" fill="#e1e1e1" stroke="#7f7f7f" />
<text x="220.52290909090908" y="149.6710743801653" font-size="4.415206611570247" transform="rotate(-90, 220.52290909090908, 149.6710743801653)" fill="#5b9bd5" text-anchor="middle" font-family="arial">add</text>
</g>
<g>
<rect x="223.14049586776858" y="116.55702479338844" width="7.884297520661156" height="66.22809917355373" fill="#e1e1e1" stroke="#7f7f7f" />
<text x="228.40720661157025" y="149.6710743801653" font-size="4.415206611570247" transform="rotate(-90, 228.40720661157025, 149.6710743801653)" fill="#5b9bd5" text-anchor="middle" font-family="arial">LN</text>
</g>
<path d="M75.54644628099173,147.46347107438018L78.33223140495868,147.46347107438018L78.33223140495868,145.6973884297521L82.74743801652892,149.6710743801653L78.33223140495868,153.64476033057855L78.33223140495868,151.87867768595046L75.54644628099173,151.87867768595046Z" fill="#ddd" stroke="none" />
<path d="M224.87504132231405,114.34942148760331L224.8750413223141,81.05140495867767L223.10895867768602,81.05140495867767L227.08264462809922,76.63619834710742L231.05633057851247,81.05140495867768L229.2902479338844,81.05140495867768L229.29024793388433,114.34942148760331Z" fill="#ddd" stroke="none" />
<circle cx="227.0826446280992" cy="96.04471074380166" r="4.415206611570247" fill="#fff" stroke="#818181" />
<circle cx="227.0826446280992" cy="98.25231404958677" r="4.415206611570247" fill="#fff" stroke="#818181" />
<circle cx="227.0826446280992" cy="96.04471074380166" r="4.415206611570247" fill="#fff" stroke="#818181" />
<circle cx="227.0826446280992" cy="93.83710743801653" r="4.415206611570247" fill="#fff" stroke="#818181" />
<text x="227.0826446280992" y="94.94090909090909" font-size="4.415206611570247" fill="#000" text-anchor="middle" font-family="monospace">[t]</text>
<path d="M20.08750487620879,75.3340679876937L55.29245417196563,51.14000135632618L54.101651072446515,49.40725574648114L61.11282207097713,50.32892561983469L59.46026502028253,57.204610990783834L58.26946192076341,55.471865380938794L23.06451262500657,79.66593201230631Z" fill="#ddd" stroke="none" />
<circle cx="40.487603305785115" cy="63.914462809917346" r="5.256198347107439" fill="#fff" stroke="#818181" />
<circle cx="38.242148368492295" cy="65.28005330147073" r="5.256198347107439" fill="#fff" stroke="#818181" />
<circle cx="40.487603305785115" cy="63.914462809917346" r="5.256198347107439" fill="#fff" stroke="#818181" />
<circle cx="42.733058243077934" cy="62.548872318363955" r="5.256198347107439" fill="#fff" stroke="#818181" />
<text x="42.733058243077934" y="63.862921905140816" font-size="5.256198347107439" fill="#000" text-anchor="middle" font-family="monospace">[t]</text>
<path d="M23.064512625006575,120.3340679876937L58.26946192076342,144.5281346190612L59.460265020282534,142.79538900921617L61.11282207097713,149.6710743801653L54.10165107244652,150.59274425351884L55.29245417196564,148.8599986436738L20.087504876208797,124.6659320123063Z" fill="#ddd" stroke="none" />
<circle cx="40.487603305785115" cy="136.08553719008265" r="5.256198347107439" fill="#fff" stroke="#818181" />
<circle cx="38.242148368492295" cy="134.71994669852927" r="5.256198347107439" fill="#fff" stroke="#818181" />
<circle cx="40.487603305785115" cy="136.08553719008265" r="5.256198347107439" fill="#fff" stroke="#818181" />
<circle cx="42.733058243077934" cy="137.45112768163602" r="5.256198347107439" fill="#fff" stroke="#818181" />
<text x="42.733058243077934" y="138.76517726841288" font-size="5.256198347107439" fill="#000" text-anchor="middle" font-family="monospace">[t]</text>
<rect x="401.8512396694215" y="80.97809412692465" width="10.512396694214878" height="38.04381174615071" rx="4" ry="4" fill="#e1e1e1" stroke="#7f7f7f" />
<circle cx="407.10743801652893" cy="85.60170462456134" r="2.575537190082645" fill="#5b9bd5" stroke="#41719c" />
<circle cx="407.10743801652893" cy="92.80085231228067" r="2.575537190082645" fill="#5b9bd5" stroke="#41719c" />
<circle cx="407.10743801652893" cy="100.0" r="2.575537190082645" fill="#5b9bd5" stroke="#41719c" />
<circle cx="407.10743801652893" cy="107.19914768771933" r="2.575537190082645" fill="#5b9bd5" stroke="#41719c" />
<circle cx="407.10743801652893" cy="114.39829537543866" r="2.575537190082645" fill="#5b9bd5" stroke="#41719c" />
<text x="407.10743801652893" y="76.77809412692464" font-size="4.415206611570248" fill="#6868b6" text-anchor="middle" font-family="arial">F2[36]</text>
<text x="407.10743801652893" y="123.43711248464561" font-size="4.415206611570248" fill="#6868b6" text-anchor="middle" font-family="arial">36</text>
<path d="M363.3388621717528,48.71774500245956L398.6606671985484,94.23622872895893L400.3217034600148,92.94728423505883L399.80673310646574,100.0L392.8470402834161,98.7475344576093L394.5080765448825,97.4585899637092L359.18627151808687,51.94010623720983Z" fill="#ddd" stroke="none" />
<circle cx="379.5123966942149" cy="75.16446280991734" r="5.256198347107439" fill="#fff" stroke="#818181" />
<circle cx="377.75486229545714" cy="73.21049809600436" r="5.256198347107439" fill="#fff" stroke="#818181" />
<circle cx="379.5123966942149" cy="75.16446280991734" r="5.256198347107439" fill="#fff" stroke="#818181" />
<circle cx="381.2699310929726" cy="77.11842752383035" r="5.256198347107439" fill="#fff" stroke="#818181" />
<text x="381.2699310929726" y="78.43247711060721" font-size="5.256198347107439" fill="#000" text-anchor="middle" font-family="monospace">[t]</text>
</svg>