<?xml version="1.0" encoding="UTF-8"?>
<svg xmlns="http://www.w3.org/2000/svg" xmlns:xlink="http://www.w3.org/1999/xlink"
     width="610" height="300" viewBox="0 0 610 300">
<defs>
</defs>
<g>
<rect x="15.0" y="35.0" width="17.142857142857142" height="80.0" fill="#e1e1e1" stroke="#7f7f7f" stroke-dasharray="5.999999999999999 4.8" />
<text x="26.45142857142857" y="75.0" font-size="9.6" transform="rotate(-90, 26.45142857142857, 75.0)" fill="#5b9bd5" text-anchor="middle" font-family="arial">input</text>
</g>
<text x="23.57142857142857" y="122.2" font-size="7.199999999999998" fill="#6868b6" text-anchor="middle" font-family="arial">1x32x32</text>
<rect x="74.77443609022556" y="23.0" width="17.142857142857142" height="104.0" rx="4" ry="4" fill="#e1e1e1" stroke="#7f7f7f" />
<rect x="79.14586466165413" y="27.08888888888889" width="8.399999999999999" height="8.399999999999999" fill="#5b9bd5" stroke="#41719c" />
<rect x="79.14586466165413" y="39.577777777777776" width="8.399999999999999" height="8.399999999999999" fill="#5b9bd5" stroke="#41719c" />
<rect x="79.14586466165413" y="52.06666666666666" width="8.399999999999999" height="8.399999999999999" fill="#5b9bd5" stroke="#41719c" />
<rect x="79.14586466165413" y="64.55555555555556" width="8.399999999999999" height="8.399999999999999" fill="#5b9bd5" stroke="#41719c" />
<rect x="79.14586466165413" y="77.04444444444445" width="8.399999999999999" height="8.399999999999999" fill="#5b9bd5" stroke="#41719c" />
<rect x="79.14586466165413" y="89.53333333333335" width="8.399999999999999" height="8.399999999999999" fill="#5b9bd5" stroke="#41719c" />
<rect x="79.14586466165413" y="102.02222222222224" width="8.399999999999999" height="8.399999999999999" fill="#5b9bd5" stroke="#41719c" />
<rect x="79.14586466165413" y="114.51111111111113" width="8.399999999999999" height="8.399999999999999" fill="#5b9bd5" stroke="#41719c" />
<text x="83.34586466165413" y="18.8" font-size="7.199999999999998" fill="#6868b6" text-anchor="middle" font-family="arial">C1[3x3@2]</text>
<text x="83.34586466165413" y="134.2" font-size="7.199999999999998" fill="#6868b6" text-anchor="middle" font-family="arial">32x16x16</text>
<path d="M36.42857142857142,70.71428571428571L64.06015037593986,70.71428571428571L64.06015037593986,67.28571428571428L72.63157894736842,75.0L64.06015037593986,82.71428571428571L64.06015037593986,79.28571428571428L36.42857142857142,79.28571428571428Z" fill="#ddd" stroke="none" />
<g>
<rect x="134.54887218045113" y="23.0" width="17.142857142857142" height="104.0" fill="#e1e1e1" stroke="#7f7f7f" />
<text x="146.0003007518797" y="75.0" font-size="9.6" transform="rotate(-90, 146.0003007518797, 75.0)" fill="#5b9bd5" text-anchor="middle" font-family="arial">bn</text>
</g>
<text x="143.1203007518797" y="18.8" font-size="7.199999999999998" fill="#6868b6" text-anchor="middle" font-family="arial">B2</text>
<text x="143.1203007518797" y="134.2" font-size="7.199999999999998" fill="#6868b6" text-anchor="middle" font-family="arial">32x16x16</text>
<path d="M96.203007518797,70.71428571428571L123.83458646616542,70.71428571428571L123.83458646616542,67.28571428571428L132.406015037594,75.0L123.83458646616542,82.71428571428571L123.83458646616542,79.28571428571428L96.203007518797,79.28571428571428Z" fill="#ddd" stroke="none" />
<path d="M96.203007518797,70.71428571428571L123.83458646616542,70.71428571428571L123.83458646616542,67.28571428571428L132.406015037594,75.0L123.83458646616542,82.71428571428571L123.83458646616542,79.28571428571428L96.203007518797,79.28571428571428Z" fill="#ddd" stroke="none" />
<rect x="194.3233082706767" y="27.0" width="17.142857142857142" height="96.0" rx="4" ry="4" fill="#e1e1e1" stroke="#7f7f7f" />
<rect x="198.69473684210527" y="30.200000000000003" width="8.399999999999999" height="8.399999999999999" fill="#5b9bd5" stroke="#41719c" />
<rect x="198.69473684210527" y="41.800000000000004" width="8.399999999999999" height="8.399999999999999" fill="#5b9bd5" stroke="#41719c" />
<rect x="198.69473684210527" y="53.400000000000006" width="8.399999999999999" height="8.399999999999999" fill="#5b9bd5" stroke="#41719c" />
<rect x="198.69473684210527" y="65.0" width="8.399999999999999" height="8.399999999999999" fill="#5b9bd5" stroke="#41719c" />
<rect x="198.69473684210527" y="76.6" width="8.399999999999999" height="8.399999999999999" fill="#5b9bd5" stroke="#41719c" />
<rect x="198.69473684210527" y="88.19999999999999" width="8.399999999999999" height="8.399999999999999" fill="#5b9bd5" stroke="#41719c" />
<rect x="198.69473684210527" y="99.79999999999998" width="8.399999999999999" height="8.399999999999999" fill="#5b9bd5" stroke="#41719c" />
<rect x="198.69473684210527" y="111.39999999999998" width="8.399999999999999" height="8.399999999999999" fill="#5b9bd5" stroke="#41719c" />
<text x="202.8947368421053" y="22.8" font-size="7.199999999999998" fill="#6868b6" text-anchor="middle" font-family="arial">C3[3x3@2]</text>
<text x="202.8947368421053" y="130.2" font-size="7.199999999999998" fill="#6868b6" text-anchor="middle" font-family="arial">64x8x8</text>
<path d="M155.97744360902254,70.71428571428571L183.60902255639098,70.71428571428571L183.60902255639098,67.28571428571428L192.18045112781957,75.0L183.60902255639098,82.71428571428571L183.60902255639098,79.28571428571428L155.97744360902254,79.28571428571428Z" fill="#ddd" stroke="none" />
<circle cx="173.00751879699249" cy="75.0" r="8.571428571428571" fill="#fff" stroke="#818181" />
<path d="M167.1228071145731,76.17054193209677L173.00751879699249,75.0L177.25015948411178,70.75735931288071" stroke="#000" strokewidth="1" fill="none" />
<path d="M155.97744360902254,70.71428571428571L183.60902255639098,70.71428571428571L183.60902255639098,67.28571428571428L192.18045112781957,75.0L183.60902255639098,82.71428571428571L183.60902255639098,79.28571428571428L155.97744360902254,79.28571428571428Z" fill="#ddd" stroke="none" />
<circle cx="173.00751879699249" cy="75.0" r="8.571428571428571" fill="#fff" stroke="#818181" />
<path d="M167.1228071145731,76.17054193209677L173.00751879699249,75.0L177.25015948411178,70.75735931288071" stroke="#000" strokewidth="1" fill="none" />
<g>
<rect x="254.09774436090225" y="27.0" width="17.142857142857142" height="96.0" fill="#e1e1e1" stroke="#7f7f7f" />
<text x="265.5491729323308" y="75.0" font-size="9.6" transform="rotate(-90, 265.5491729323308, 75.0)" fill="#5b9bd5" text-anchor="middle" font-family="arial">bn</text>
</g>
<text x="262.6691729323308" y="22.8" font-size="7.199999999999998" fill="#6868b6" text-anchor="middle" font-family="arial">B4</text>
<text x="262.6691729323308" y="130.2" font-size="7.199999999999998" fill="#6868b6" text-anchor="middle" font-family="arial">64x8x8</text>
<path d="M215.75187969924812,70.71428571428571L243.38345864661653,70.71428571428571L243.38345864661653,67.28571428571428L251.95488721804512,75.0L243.38345864661653,82.71428571428571L243.38345864661653,79.28571428571428L215.7518796992481,79.28571428571428Z" fill="#ddd" stroke="none" />
<path d="M215.75187969924812,70.71428571428571L243.38345864661653,70.71428571428571L243.38345864661653,67.28571428571428L251.95488721804512,75.0L243.38345864661653,82.71428571428571L243.38345864661653,79.28571428571428L215.7518796992481,79.28571428571428Z" fill="#ddd" stroke="none" />
<rect x="313.8721804511278" y="31.0" width="17.142857142857142" height="88.0" rx="4" ry="4" fill="#e1e1e1" stroke="#7f7f7f" />
<rect x="318.24360902255637" y="34.65" width="8.399999999999999" height="8.399999999999999" fill="#5b9bd5" stroke="#41719c" />
<rect x="318.24360902255637" y="46.7" width="8.399999999999999" height="8.399999999999999" fill="#5b9bd5" stroke="#41719c" />
<rect x="318.24360902255637" y="58.75" width="8.399999999999999" height="8.399999999999999" fill="#5b9bd5" stroke="#41719c" />
<rect x="318.24360902255637" y="70.8" width="8.399999999999999" height="8.399999999999999" fill="#5b9bd5" stroke="#41719c" />
<rect x="318.24360902255637" y="82.85" width="8.399999999999999" height="8.399999999999999" fill="#5b9bd5" stroke="#41719c" />
<rect x="318.24360902255637" y="94.89999999999999" width="8.399999999999999" height="8.399999999999999" fill="#5b9bd5" stroke="#41719c" />
<rect x="318.24360902255637" y="106.94999999999999" width="8.399999999999999" height="8.399999999999999" fill="#5b9bd5" stroke="#41719c" />
<text x="322.44360902255636" y="26.8" font-size="7.199999999999998" fill="#6868b6" text-anchor="middle" font-family="arial">C5[3x3@2]</text>
<text x="322.44360902255636" y="126.2" font-size="7.199999999999998" fill="#6868b6" text-anchor="middle" font-family="arial">128x4x4</text>
<path d="M275.5263157894737,70.71428571428571L303.1578947368421,70.71428571428571L303.1578947368421,67.28571428571428L311.72932330827064,75.0L303.1578947368421,82.71428571428571L303.1578947368421,79.28571428571428L275.5263157894737,79.28571428571428Z" fill="#ddd" stroke="none" />
<circle cx="292.5563909774436" cy="75.0" r="8.571428571428571" fill="#fff" stroke="#818181" />
<path d="M286.6716792950242,76.17054193209677L292.5563909774436,75.0L296.79903166456285,70.75735931288071" stroke="#000" strokewidth="1" fill="none" />
<path d="M275.5263157894737,70.71428571428571L303.1578947368421,70.71428571428571L303.1578947368421,67.28571428571428L311.72932330827064,75.0L303.1578947368421,82.71428571428571L303.1578947368421,79.28571428571428L275.5263157894737,79.28571428571428Z" fill="#ddd" stroke="none" />
<circle cx="292.5563909774436" cy="75.0" r="8.571428571428571" fill="#fff" stroke="#818181" />
<path d="M286.6716792950242,76.17054193209677L292.5563909774436,75.0L296.79903166456285,70.75735931288071" stroke="#000" strokewidth="1" fill="none" />
<g>
<rect x="373.64661654135335" y="31.0" width="17.142857142857142" height="88.0" fill="#e1e1e1" stroke="#7f7f7f" />
<text x="385.0980451127819" y="75.0" font-size="9.6" transform="rotate(-90, 385.0980451127819, 75.0)" fill="#5b9bd5" text-anchor="middle" font-family="arial">bn</text>
</g>
<text x="382.2180451127819" y="26.8" font-size="7.199999999999998" fill="#6868b6" text-anchor="middle" font-family="arial">B6</text>
<text x="382.2180451127819" y="126.2" font-size="7.199999999999998" fill="#6868b6" text-anchor="middle" font-family="arial">128x4x4</text>
<path d="M335.30075187969925,70.71428571428571L362.93233082706763,70.71428571428571L362.93233082706763,67.28571428571428L371.5037593984962,75.0L362.93233082706763,82.71428571428571L362.93233082706763,79.28571428571428L335.30075187969925,79.28571428571428Z" fill="#ddd" stroke="none" />
<path d="M335.30075187969925,70.71428571428571L362.93233082706763,70.71428571428571L362.93233082706763,67.28571428571428L371.5037593984962,75.0L362.93233082706763,82.71428571428571L362.93233082706763,79.28571428571428L335.30075187969925,79.28571428571428Z" fill="#ddd" stroke="none" />
<rect x="433.4210526315789" y="35.0" width="17.142857142857142" height="80.0" rx="4" ry="4" fill="#e1e1e1" stroke="#7f7f7f" />
<rect x="437.79248120300747" y="39.22857142857143" width="8.399999999999999" height="8.399999999999999" fill="#5b9bd5" stroke="#41719c" />
<rect x="437.79248120300747" y="51.857142857142854" width="8.399999999999999" height="8.399999999999999" fill="#5b9bd5" stroke="#41719c" />
<rect x="437.79248120300747" y="64.48571428571428" width="8.399999999999999" height="8.399999999999999" fill="#5b9bd5" stroke="#41719c" />
<rect x="437.79248120300747" y="77.11428571428571" width="8.399999999999999" height="8.399999999999999" fill="#5b9bd5" stroke="#41719c" />
<rect x="437.79248120300747" y="89.74285714285715" width="8.399999999999999" height="8.399999999999999" fill="#5b9bd5" stroke="#41719c" />
<rect x="437.79248120300747" y="102.37142857142858" width="8.399999999999999" height="8.399999999999999" fill="#5b9bd5" stroke="#41719c" />
<text x="441.99248120300746" y="30.8" font-size="7.199999999999998" fill="#6868b6" text-anchor="middle" font-family="arial">C7[3x3@2]</text>
<text x="441.99248120300746" y="122.2" font-size="7.199999999999998" fill="#6868b6" text-anchor="middle" font-family="arial">256x2x2</text>
<path d="M395.0751879699248,70.71428571428571L422.7067669172932,70.71428571428571L422.7067669172932,67.28571428571428L431.27819548872174,75.0L422.7067669172932,82.71428571428571L422.7067669172932,79.28571428571428L395.0751879699248,79.28571428571428Z" fill="#ddd" stroke="none" />
<circle cx="412.1052631578947" cy="75.0" r="8.571428571428571" fill="#fff" stroke="#818181" />
<path d="M406.2205514754753,76.17054193209677L412.1052631578947,75.0L416.34790384501395,70.75735931288071" stroke="#000" strokewidth="1" fill="none" />
<path d="M395.0751879699248,70.71428571428571L422.7067669172932,70.71428571428571L422.7067669172932,67.28571428571428L431.27819548872174,75.0L422.7067669172932,82.71428571428571L422.7067669172932,79.28571428571428L395.0751879699248,79.28571428571428Z" fill="#ddd" stroke="none" />
<circle cx="412.1052631578947" cy="75.0" r="8.571428571428571" fill="#fff" stroke="#818181" />
<path d="M406.2205514754753,76.17054193209677L412.1052631578947,75.0L416.34790384501395,70.75735931288071" stroke="#000" strokewidth="1" fill="none" />
<g>
<rect x="493.19548872180445" y="35.0" width="17.142857142857142" height="80.0" fill="#e1e1e1" stroke="#7f7f7f" />
<text x="504.646917293233" y="75.0" font-size="9.6" transform="rotate(-90, 504.646917293233, 75.0)" fill="#5b9bd5" text-anchor="middle" font-family="arial">bn</text>
</g>
<text x="501.766917293233" y="30.8" font-size="7.199999999999998" fill="#6868b6" text-anchor="middle" font-family="arial">B8</text>
<text x="501.766917293233" y="122.2" font-size="7.199999999999998" fill="#6868b6" text-anchor="middle" font-family="arial">256x2x2</text>
<path d="M454.84962406015035,70.71428571428571L482.48120300751873,70.71428571428571L482.48120300751873,67.28571428571428L491.0526315789473,75.0L482.48120300751873,82.71428571428571L482.48120300751873,79.28571428571428L454.84962406015035,79.28571428571428Z" fill="#ddd" stroke="none" />
<path d="M454.84962406015035,70.71428571428571L482.48120300751873,70.71428571428571L482.48120300751873,67.28571428571428L491.0526315789473,75.0L482.48120300751873,82.71428571428571L482.48120300751873,79.28571428571428L454.84962406015035,79.28571428571428Z" fill="#ddd" stroke="none" />
<g>
<rect x="552.9699248120301" y="53.57142857142857" width="17.142857142857142" height="17.142857142857142" fill="#e1e1e1" stroke="#7f7f7f" />
<text x="561.5413533834586" y="65.02285714285713" font-size="9.6" transform="" fill="#5b9bd5" text-anchor="middle" font-family="arial">μ</text>
</g>
<g>
<rect x="552.9699248120301" y="79.28571428571429" width="17.142857142857142" height="17.142857142857142" fill="#e1e1e1" stroke="#7f7f7f" />
<text x="561.5413533834586" y="90.73714285714286" font-size="9.6" transform="" fill="#5b9bd5" text-anchor="middle" font-family="arial">σ</text>
</g>
<g>
<rect x="573.5413533834586" y="53.57142857142857" width="13.714285714285715" height="42.857142857142854" fill="#e1e1e1" stroke="#7f7f7f" />
<text x="582.7024962406015" y="75.0" font-size="7.68" transform="rotate(-90, 582.7024962406015, 75.0)" fill="#5b9bd5" text-anchor="middle" font-family="arial">sample</text>
</g>
<text x="570.1127819548872" y="49.37142857142857" font-size="7.199999999999998" fill="#6868b6" text-anchor="middle" font-family="arial">N9[2]</text>
<text x="570.1127819548872" y="103.62857142857143" font-size="7.199999999999998" fill="#6868b6" text-anchor="middle" font-family="arial">Normal</text>
<path d="M514.624060150376,70.71428571428571L542.2556390977444,70.71428571428571L542.2556390977444,67.28571428571428L550.827067669173,75.0L542.2556390977444,82.71428571428571L542.2556390977444,79.28571428571428L514.624060150376,79.28571428571428Z" fill="#ddd" stroke="none" />
<circle cx="531.6541353383459" cy="75.0" r="8.571428571428571" fill="#fff" stroke="#818181" />
<path d="M525.7694236559265,76.17054193209677L531.6541353383459,75.0L535.8967760254652,70.75735931288071" stroke="#000" strokewidth="1" fill="none" />
<path d="M514.624060150376,70.71428571428571L542.2556390977444,70.71428571428571L542.2556390977444,67.28571428571428L550.827067669173,75.0L542.2556390977444,82.71428571428571L542.2556390977444,79.28571428571428L514.624060150376,79.28571428571428Z" fill="#ddd" stroke="none" />
<circle cx="531.6541353383459" cy="75.0" r="8.571428571428571" fill="#fff" stroke="#818181" />
<path d="M525.7694236559265,76.17054193209677L531.6541353383459,75.0L535.8967760254652,70.75735931288071" stroke="#000" strokewidth="1" fill="none" />
<rect x="42.63157894736842" y="185.0" width="17.142857142857142" height="80.0" rx="4" ry="4" fill="#e1e1e1" stroke="#7f7f7f" />
<circle cx="51.20300751879699" cy="193.42857142857142" r="4.199999999999999" fill="#5b9bd5" stroke="#41719c" />
<circle cx="51.20300751879699" cy="206.05714285714285" r="4.199999999999999" fill="#5b9bd5" stroke="#41719c" />
<circle cx="51.20300751879699" cy="218.68571428571428" r="4.199999999999999" fill="#5b9bd5" stroke="#41719c" />
<circle cx="51.20300751879699" cy="231.31428571428572" r="4.199999999999999" fill="#5b9bd5" stroke="#41719c" />
<circle cx="51.20300751879699" cy="243.94285714285715" r="4.199999999999999" fill="#5b9bd5" stroke="#41719c" />
<circle cx="51.20300751879699" cy="256.57142857142856" r="4.199999999999999" fill="#5b9bd5" stroke="#41719c" />
<text x="51.20300751879699" y="180.8" font-size="7.199999999999998" fill="#6868b6" text-anchor="middle" font-family="arial">F10[1024]</text>
<text x="51.20300751879699" y="272.2" font-size="7.199999999999998" fill="#6868b6" text-anchor="middle" font-family="arial">1024</text>
<path d="M4.285714285714286,220.71428571428572L31.917293233082702,220.71428571428572L31.917293233082702,217.2857142857143L40.48872180451127,225.0L31.917293233082702,232.71428571428572L31.917293233082702,229.2857142857143L4.285714285714285,229.2857142857143Z" fill="#ddd" stroke="none" />
<rect x="102.40601503759399" y="181.0" width="17.142857142857142" height="88.0" rx="4" ry="4" fill="#e1e1e1" stroke="#7f7f7f" />
<rect x="106.77744360902255" y="184.65" width="8.399999999999999" height="8.399999999999999" fill="#5b9bd5" stroke="#41719c" />
<rect x="106.77744360902255" y="196.70000000000002" width="8.399999999999999" height="8.399999999999999" fill="#5b9bd5" stroke="#41719c" />
<rect x="106.77744360902255" y="208.75000000000003" width="8.399999999999999" height="8.399999999999999" fill="#5b9bd5" stroke="#41719c" />
<rect x="106.77744360902255" y="220.80000000000004" width="8.399999999999999" height="8.399999999999999" fill="#5b9bd5" stroke="#41719c" />
<rect x="106.77744360902255" y="232.85000000000005" width="8.399999999999999" height="8.399999999999999" fill="#5b9bd5" stroke="#41719c" />
<rect x="106.77744360902255" y="244.90000000000006" width="8.399999999999999" height="8.399999999999999" fill="#5b9bd5" stroke="#41719c" />
<rect x="106.77744360902255" y="256.95000000000005" width="8.399999999999999" height="8.399999999999999" fill="#5b9bd5" stroke="#41719c" />
<text x="110.97744360902256" y="176.8" font-size="7.199999999999998" fill="#6868b6" text-anchor="middle" font-family="arial">T11[3x3@2]</text>
<text x="110.97744360902256" y="276.2" font-size="7.199999999999998" fill="#6868b6" text-anchor="middle" font-family="arial">128x4x4</text>
<path d="M64.06015037593986,220.71428571428572L91.69172932330828,220.71428571428572L91.69172932330828,217.2857142857143L100.26315789473685,225.0L91.69172932330828,232.71428571428572L91.69172932330828,229.2857142857143L64.06015037593986,229.2857142857143Z" fill="#ddd" stroke="none" />
<g>
<rect x="162.18045112781954" y="181.0" width="17.142857142857142" height="88.0" fill="#e1e1e1" stroke="#7f7f7f" />
<text x="173.63187969924812" y="225.0" font-size="9.6" transform="rotate(-90, 173.63187969924812, 225.0)" fill="#5b9bd5" text-anchor="middle" font-family="arial">bn</text>
</g>
<text x="170.75187969924812" y="176.8" font-size="7.199999999999998" fill="#6868b6" text-anchor="middle" font-family="arial">B12</text>
<text x="170.75187969924812" y="276.2" font-size="7.199999999999998" fill="#6868b6" text-anchor="middle" font-family="arial">128x4x4</text>
<path d="M123.83458646616542,220.71428571428572L151.46616541353382,220.71428571428572L151.46616541353382,217.2857142857143L160.0375939849624,225.0L151.46616541353382,232.71428571428572L151.46616541353382,229.2857142857143L123.8345864661654,229.2857142857143Z" fill="#ddd" stroke="none" />
<path d="M123.83458646616542,220.71428571428572L151.46616541353382,220.71428571428572L151.46616541353382,217.2857142857143L160.0375939849624,225.0L151.46616541353382,232.71428571428572L151.46616541353382,229.2857142857143L123.8345864661654,229.2857142857143Z" fill="#ddd" stroke="none" />
<rect x="221.9548872180451" y="177.0" width="17.142857142857142" height="96.0" rx="4" ry="4" fill="#e1e1e1" stroke="#7f7f7f" />
<rect x="226.32631578947365" y="180.2" width="8.399999999999999" height="8.399999999999999" fill="#5b9bd5" stroke="#41719c" />
<rect x="226.32631578947365" y="191.79999999999998" width="8.399999999999999" height="8.399999999999999" fill="#5b9bd5" stroke="#41719c" />
<rect x="226.32631578947365" y="203.39999999999998" width="8.399999999999999" height="8.399999999999999" fill="#5b9bd5" stroke="#41719c" />
<rect x="226.32631578947365" y="214.99999999999997" width="8.399999999999999" height="8.399999999999999" fill="#5b9bd5" stroke="#41719c" />
<rect x="226.32631578947365" y="226.59999999999997" width="8.399999999999999" height="8.399999999999999" fill="#5b9bd5" stroke="#41719c" />
<rect x="226.32631578947365" y="238.19999999999996" width="8.399999999999999" height="8.399999999999999" fill="#5b9bd5" stroke="#41719c" />
<rect x="226.32631578947365" y="249.79999999999995" width="8.399999999999999" height="8.399999999999999" fill="#5b9bd5" stroke="#41719c" />
<rect x="226.32631578947365" y="261.4" width="8.399999999999999" height="8.399999999999999" fill="#5b9bd5" stroke="#41719c" />
<text x="230.52631578947367" y="172.8" font-size="7.199999999999998" fill="#6868b6" text-anchor="middle" font-family="arial">T13[3x3@2]</text>
<text x="230.52631578947367" y="280.2" font-size="7.199999999999998" fill="#6868b6" text-anchor="middle" font-family="arial">64x8x8</text>
<path d="M183.60902255639095,220.71428571428572L211.24060150375936,220.71428571428572L211.24060150375936,217.2857142857143L219.81203007518795,225.0L211.24060150375936,232.71428571428572L211.24060150375936,229.2857142857143L183.60902255639093,229.2857142857143Z" fill="#ddd" stroke="none" />
<circle cx="200.63909774436087" cy="225.0" r="8.571428571428571" fill="#fff" stroke="#818181" />
<path d="M194.7543860619415,226.17054193209677L200.63909774436087,225.0L204.88173843148016,220.7573593128807" stroke="#000" strokewidth="1" fill="none" />
<path d="M183.60902255639095,220.71428571428572L211.24060150375936,220.71428571428572L211.24060150375936,217.2857142857143L219.81203007518795,225.0L211.24060150375936,232.71428571428572L211.24060150375936,229.2857142857143L183.60902255639093,229.2857142857143Z" fill="#ddd" stroke="none" />
<circle cx="200.63909774436087" cy="225.0" r="8.571428571428571" fill="#fff" stroke="#818181" />
<path d="M194.7543860619415,226.17054193209677L200.63909774436087,225.0L204.88173843148016,220.7573593128807" stroke="#000" strokewidth="1" fill="none" />
<g>
<rect x="281.72932330827064" y="177.0" width="17.142857142857142" height="96.0" fill="#e1e1e1" stroke="#7f7f7f" />
<text x="293.1807518796992" y="225.0" font-size="9.6" transform="rotate(-90, 293.1807518796992, 225.0)" fill="#5b9bd5" text-anchor="middle" font-family="arial">bn</text>
</g>
<text x="290.3007518796992" y="172.8" font-size="7.199999999999998" fill="#6868b6" text-anchor="middle" font-family="arial">B14</text>
<text x="290.3007518796992" y="280.2" font-size="7.199999999999998" fill="#6868b6" text-anchor="middle" font-family="arial">64x8x8</text>
<path d="M243.3834586466165,220.71428571428572L271.0150375939849,220.71428571428572L271.0150375939849,217.2857142857143L279.58646616541347,225.0L271.0150375939849,232.71428571428572L271.0150375939849,229.2857142857143L243.38345864661653,229.2857142857143Z" fill="#ddd" stroke="none" />
<path d="M243.3834586466165,220.71428571428572L271.0150375939849,220.71428571428572L271.0150375939849,217.2857142857143L279.58646616541347,225.0L271.0150375939849,232.71428571428572L271.0150375939849,229.2857142857143L243.38345864661653,229.2857142857143Z" fill="#ddd" stroke="none" />
<rect x="341.5037593984962" y="173.0" width="17.142857142857142" height="104.0" rx="4" ry="4" fill="#e1e1e1" stroke="#7f7f7f" />
<rect x="345.87518796992475" y="177.0888888888889" width="8.399999999999999" height="8.399999999999999" fill="#5b9bd5" stroke="#41719c" />
<rect x="345.87518796992475" y="189.57777777777778" width="8.399999999999999" height="8.399999999999999" fill="#5b9bd5" stroke="#41719c" />
<rect x="345.87518796992475" y="202.06666666666666" width="8.399999999999999" height="8.399999999999999" fill="#5b9bd5" stroke="#41719c" />
<rect x="345.87518796992475" y="214.55555555555554" width="8.399999999999999" height="8.399999999999999" fill="#5b9bd5" stroke="#41719c" />
<rect x="345.87518796992475" y="227.04444444444442" width="8.399999999999999" height="8.399999999999999" fill="#5b9bd5" stroke="#41719c" />
<rect x="345.87518796992475" y="239.5333333333333" width="8.399999999999999" height="8.399999999999999" fill="#5b9bd5" stroke="#41719c" />
<rect x="345.87518796992475" y="252.02222222222218" width="8.399999999999999" height="8.399999999999999" fill="#5b9bd5" stroke="#41719c" />
<rect x="345.87518796992475" y="264.51111111111106" width="8.399999999999999" height="8.399999999999999" fill="#5b9bd5" stroke="#41719c" />
<text x="350.07518796992474" y="168.8" font-size="7.199999999999998" fill="#6868b6" text-anchor="middle" font-family="arial">T15[3x3@2]</text>
<text x="350.07518796992474" y="284.2" font-size="7.199999999999998" fill="#6868b6" text-anchor="middle" font-family="arial">32x16x16</text>
<path d="M303.1578947368421,220.71428571428572L330.78947368421046,220.71428571428572L330.78947368421046,217.2857142857143L339.360902255639,225.0L330.78947368421046,232.71428571428572L330.78947368421046,229.2857142857143L303.1578947368421,229.2857142857143Z" fill="#ddd" stroke="none" />
<circle cx="320.187969924812" cy="225.0" r="8.571428571428571" fill="#fff" stroke="#818181" />
<path d="M314.30325824239264,226.17054193209677L320.187969924812,225.0L324.4306106119313,220.7573593128807" stroke="#000" strokewidth="1" fill="none" />
<path d="M303.1578947368421,220.71428571428572L330.78947368421046,220.71428571428572L330.78947368421046,217.2857142857143L339.360902255639,225.0L330.78947368421046,232.71428571428572L330.78947368421046,229.2857142857143L303.1578947368421,229.2857142857143Z" fill="#ddd" stroke="none" />
<circle cx="320.187969924812" cy="225.0" r="8.571428571428571" fill="#fff" stroke="#818181" />
<path d="M314.30325824239264,226.17054193209677L320.187969924812,225.0L324.4306106119313,220.7573593128807" stroke="#000" strokewidth="1" fill="none" />
<g>
<rect x="401.27819548872174" y="173.0" width="17.142857142857142" height="104.0" fill="#e1e1e1" stroke="#7f7f7f" />
<text x="412.7296240601503" y="225.0" font-size="9.6" transform="rotate(-90, 412.7296240601503, 225.0)" fill="#5b9bd5" text-anchor="middle" font-family="arial">bn</text>
</g>
<text x="409.8496240601503" y="168.8" font-size="7.199999999999998" fill="#6868b6" text-anchor="middle" font-family="arial">B16</text>
<text x="409.8496240601503" y="284.2" font-size="7.199999999999998" fill="#6868b6" text-anchor="middle" font-family="arial">32x16x16</text>
<path d="M362.93233082706763,220.71428571428572L390.563909774436,220.71428571428572L390.563909774436,217.2857142857143L399.13533834586457,225.0L390.563909774436,232.71428571428572L390.563909774436,229.2857142857143L362.93233082706763,229.2857142857143Z" fill="#ddd" stroke="none" />
<path d="M362.93233082706763,220.71428571428572L390.563909774436,220.71428571428572L390.563909774436,217.2857142857143L399.13533834586457,225.0L390.563909774436,232.71428571428572L390.563909774436,229.2857142857143L362.93233082706763,229.2857142857143Z" fill="#ddd" stroke="none" />
<rect x="461.0526315789473" y="165.0" width="17.142857142857142" height="120.0" rx="4" ry="4" fill="#e1e1e1" stroke="#7f7f7f" />
<rect x="465.42406015037585" y="168.27272727272728" width="8.399999999999999" height="8.399999999999999" fill="#5b9bd5" stroke="#41719c" />
<rect x="465.42406015037585" y="179.94545454545454" width="8.399999999999999" height="8.399999999999999" fill="#5b9bd5" stroke="#41719c" />
<rect x="465.42406015037585" y="191.61818181818182" width="8.399999999999999" height="8.399999999999999" fill="#5b9bd5" stroke="#41719c" />
<rect x="465.42406015037585" y="203.2909090909091" width="8.399999999999999" height="8.399999999999999" fill="#5b9bd5" stroke="#41719c" />
<rect x="465.42406015037585" y="214.9636363636364" width="8.399999999999999" height="8.399999999999999" fill="#5b9bd5" stroke="#41719c" />
<rect x="465.42406015037585" y="226.63636363636368" width="8.399999999999999" height="8.399999999999999" fill="#5b9bd5" stroke="#41719c" />
<rect x="465.42406015037585" y="238.30909090909097" width="8.399999999999999" height="8.399999999999999" fill="#5b9bd5" stroke="#41719c" />
<rect x="465.42406015037585" y="249.98181818181826" width="8.399999999999999" height="8.399999999999999" fill="#5b9bd5" stroke="#41719c" />
<rect x="465.42406015037585" y="261.65454545454554" width="8.399999999999999" height="8.399999999999999" fill="#5b9bd5" stroke="#41719c" />
<rect x="465.42406015037585" y="273.3272727272728" width="8.399999999999999" height="8.399999999999999" fill="#5b9bd5" stroke="#41719c" />
<text x="469.62406015037584" y="160.8" font-size="7.199999999999998" fill="#6868b6" text-anchor="middle" font-family="arial">T17[3x3@2]</text>
<text x="469.62406015037584" y="292.2" font-size="7.199999999999998" fill="#6868b6" text-anchor="middle" font-family="arial">32x32x32</text>
<path d="M422.7067669172932,220.71428571428572L450.33834586466156,220.71428571428572L450.33834586466156,217.2857142857143L458.9097744360901,225.0L450.33834586466156,232.71428571428572L450.33834586466156,229.2857142857143L422.7067669172932,229.2857142857143Z" fill="#ddd" stroke="none" />
<circle cx="439.7368421052631" cy="225.0" r="8.571428571428571" fill="#fff" stroke="#818181" />
<path d="M433.85213042284374,226.17054193209677L439.7368421052631,225.0L443.9794827923824,220.7573593128807" stroke="#000" strokewidth="1" fill="none" />
<path d="M422.7067669172932,220.71428571428572L450.33834586466156,220.71428571428572L450.33834586466156,217.2857142857143L458.9097744360901,225.0L450.33834586466156,232.71428571428572L450.33834586466156,229.2857142857143L422.7067669172932,229.2857142857143Z" fill="#ddd" stroke="none" />
<circle cx="439.7368421052631" cy="225.0" r="8.571428571428571" fill="#fff" stroke="#818181" />
<path d="M433.85213042284374,226.17054193209677L439.7368421052631,225.0L443.9794827923824,220.7573593128807" stroke="#000" strokewidth="1" fill="none" />
<g>
<rect x="520.8270676691728" y="165.0" width="17.142857142857142" height="120.0" fill="#e1e1e1" stroke="#7f7f7f" />
<text x="532.2784962406014" y="225.0" font-size="9.6" transform="rotate(-90, 532.2784962406014, 225.0)" fill="#5b9bd5" text-anchor="middle" font-family="arial">bn</text>
</g>
<text x="529.3984962406014" y="160.8" font-size="7.199999999999998" fill="#6868b6" text-anchor="middle" font-family="arial">B18</text>
<text x="529.3984962406014" y="292.2" font-size="7.199999999999998" fill="#6868b6" text-anchor="middle" font-family="arial">32x32x32</text>
<path d="M482.48120300751873,220.71428571428572L510.11278195488717,220.71428571428572L510.11278195488717,217.2857142857143L518.6842105263157,225.0L510.11278195488717,232.71428571428572L510.11278195488717,229.2857142857143L482.48120300751873,229.2857142857143Z" fill="#ddd" stroke="none" />
<path d="M482.48120300751873,220.71428571428572L510.11278195488717,220.71428571428572L510.11278195488717,217.2857142857143L518.6842105263157,225.0L510.11278195488717,232.71428571428572L510.11278195488717,229.2857142857143L482.48120300751873,229.2857142857143Z" fill="#ddd" stroke="none" />
<rect x="580.6015037593984" y="185.0" width="17.142857142857142" height="80.0" rx="4" ry="4" fill="#e1e1e1" stroke="#7f7f7f" />
<rect x="584.972932330827" y="189.22857142857143" width="8.399999999999999" height="8.399999999999999" fill="#5b9bd5" stroke="#41719c" />
<rect x="584.972932330827" y="201.85714285714286" width="8.399999999999999" height="8.399999999999999" fill="#5b9bd5" stroke="#41719c" />
<rect x="584.972932330827" y="214.4857142857143" width="8.399999999999999" height="8.399999999999999" fill="#5b9bd5" stroke="#41719c" />
<rect x="584.972932330827" y="227.11428571428573" width="8.399999999999999" height="8.399999999999999" fill="#5b9bd5" stroke="#41719c" />
<rect x="584.972932330827" y="239.74285714285716" width="8.399999999999999" height="8.399999999999999" fill="#5b9bd5" stroke="#41719c" />
<rect x="584.972932330827" y="252.3714285714286" width="8.399999999999999" height="8.399999999999999" fill="#5b9bd5" stroke="#41719c" />
<text x="589.1729323308269" y="180.8" font-size="7.199999999999998" fill="#6868b6" text-anchor="middle" font-family="arial">C19[3x3]</text>
<text x="589.1729323308269" y="272.2" font-size="7.199999999999998" fill="#6868b6" text-anchor="middle" font-family="arial">1x32x32</text>
<path d="M542.2556390977443,220.71428571428572L569.8872180451127,220.71428571428572L569.8872180451127,217.2857142857143L578.4586466165413,225.0L569.8872180451127,232.71428571428572L569.8872180451127,229.2857142857143L542.2556390977443,229.2857142857143Z" fill="#ddd" stroke="none" />
<circle cx="559.2857142857142" cy="225.0" r="8.571428571428571" fill="#fff" stroke="#818181" />
<path d="M553.4010026032948,226.17054193209677L559.2857142857142,225.0L563.5283549728335,220.7573593128807" stroke="#000" strokewidth="1" fill="none" />
<path d="M542.2556390977443,220.71428571428572L569.8872180451127,220.71428571428572L569.8872180451127,217.2857142857143L578.4586466165413,225.0L569.8872180451127,232.71428571428572L569.8872180451127,229.2857142857143L542.2556390977443,229.2857142857143Z" fill="#ddd" stroke="none" />
<circle cx="559.2857142857142" cy="225.0" r="8.571428571428571" fill="#fff" stroke="#818181" />
<path d="M553.4010026032948,226.17054193209677L559.2857142857142,225.0L563.5283549728335,220.7573593128807" stroke="#000" strokewidth="1" fill="none" />
</svg>